M48
; DRILL file KiCad 10.0.4 date 2026-07-03T13:20:32
; FORMAT={-:-/ absolute / metric / decimal}
; #@! TF.CreationDate,2026-07-03T13:20:32+08:00
; #@! TF.GenerationSoftware,Kicad,Pcbnew,10.0.4
; #@! TF.FileFunction,Plated,1,4,PTH
FMAT,2
METRIC
; #@! TA.AperFunction,Plated,PTH,ComponentDrill
T1C0.200
; #@! TA.AperFunction,Plated,PTH,ViaDrill
T2C0.300
; #@! TA.AperFunction,Plated,PTH,ComponentDrill
T3C0.460
; #@! TA.AperFunction,Plated,PTH,ComponentDrill
T4C0.600
; #@! TA.AperFunction,Plated,PTH,ComponentDrill
T5C0.800
; #@! TA.AperFunction,Plated,PTH,ComponentDrill
T6C0.950
; #@! TA.AperFunction,Plated,PTH,ComponentDrill
T7C1.000
; #@! TA.AperFunction,Plated,PTH,ComponentDrill
T8C1.200
%
G90
G05
T1
X182.396Y-89.494
X182.396Y-90.894
X183.096Y-88.794
X183.096Y-90.194
X183.096Y-91.594
X183.796Y-89.494
X183.796Y-90.894
X184.496Y-88.794
X184.496Y-90.194
X184.496Y-91.594
X185.196Y-89.494
X185.196Y-90.894
T2
X107.188Y-90.932
X107.188Y-92.202
X108.166Y-90.932
X108.166Y-92.202
X108.198Y-72.027
X108.204Y-71.374
X108.236Y-72.676
X109.22Y-71.374
X109.22Y-72.027
X109.22Y-72.676
X109.22Y-73.406
X109.22Y-90.932
X109.22Y-92.202
X110.198Y-90.932
X110.198Y-92.202
X110.49Y-89.154
X110.525Y-114.151
X111.22Y-90.932
X111.22Y-92.202
X112.268Y-90.932
X112.268Y-92.202
X112.268Y-115.824
X113.246Y-90.932
X113.246Y-92.202
X114.3Y-90.932
X114.3Y-92.202
X115.278Y-90.932
X115.278Y-92.202
X115.31Y-76.313
X115.31Y-79.107
X115.316Y-75.66
X115.316Y-78.454
X115.348Y-76.962
X115.348Y-77.692
X115.348Y-79.756
X115.348Y-80.486
X116.3Y-90.932
X116.332Y-75.66
X116.332Y-76.313
X116.332Y-76.962
X116.332Y-77.692
X116.332Y-78.454
X116.332Y-79.107
X116.332Y-79.756
X116.332Y-80.486
X116.332Y-115.824
X116.586Y-117.348
X117.342Y-76.313
X117.342Y-79.107
X117.348Y-75.66
X117.348Y-78.454
X117.348Y-95.504
X117.38Y-76.962
X117.38Y-77.692
X117.38Y-79.756
X117.38Y-80.486
X117.386Y-96.153
X117.386Y-96.883
X118.364Y-75.66
X118.364Y-76.313
X118.364Y-76.962
X118.364Y-77.692
X118.364Y-78.454
X118.364Y-79.107
X118.364Y-79.756
X118.364Y-80.486
X118.618Y-95.504
X118.618Y-96.153
X118.618Y-96.883
X119.374Y-76.313
X119.374Y-79.107
X119.38Y-75.66
X119.38Y-78.454
X119.412Y-76.962
X119.412Y-77.692
X119.412Y-79.756
X119.412Y-80.486
X120.076Y-84.115
X120.396Y-75.66
X120.396Y-76.313
X120.396Y-76.962
X120.396Y-77.692
X120.396Y-78.454
X120.396Y-79.107
X120.396Y-79.756
X120.396Y-80.486
X121.412Y-87.63
X121.412Y-88.283
X121.412Y-88.932
X121.444Y-89.662
X122.428Y-87.63
X122.428Y-88.283
X122.428Y-88.932
X122.428Y-89.662
X122.936Y-101.197
X123.19Y-74.422
X123.19Y-75.075
X123.19Y-95.504
X123.196Y-77.833
X123.196Y-78.486
X123.438Y-88.283
X123.444Y-87.63
X123.476Y-88.932
X123.476Y-89.662
X124.2Y-75.075
X124.206Y-74.422
X124.206Y-78.486
X124.212Y-77.833
X124.238Y-95.504
X124.46Y-87.63
X124.46Y-88.283
X124.46Y-88.932
X125.222Y-74.422
X125.222Y-75.075
X125.228Y-77.833
X125.228Y-78.486
X125.53Y-95.441
X125.724Y-88.283
X125.73Y-87.63
X125.762Y-88.932
X126.578Y-95.441
X126.746Y-87.63
X126.746Y-88.283
X126.746Y-88.932
X126.746Y-89.662
X127.562Y-95.441
X127.562Y-96.266
X127.756Y-88.283
X127.762Y-87.63
X127.794Y-88.932
X127.794Y-89.662
X128.572Y-95.441
X128.572Y-96.266
X128.572Y-97.028
X128.778Y-87.63
X128.778Y-88.283
X128.778Y-88.932
X128.778Y-89.662
X129.588Y-95.441
X129.588Y-96.266
X129.588Y-97.028
X129.588Y-97.79
X134.695Y-114.111
X134.874Y-74.531
X134.874Y-75.184
X134.874Y-75.946
X135.128Y-94.234
X135.128Y-95.25
X135.884Y-75.184
X135.884Y-75.946
X135.89Y-74.531
X136.144Y-94.234
X136.144Y-95.25
X136.144Y-115.57
X136.182Y-96.266
X136.652Y-73.66
X136.906Y-74.531
X136.906Y-75.184
X136.906Y-75.946
X137.166Y-94.234
X137.166Y-95.25
X137.166Y-96.266
X138.176Y-94.234
X138.176Y-95.25
X138.214Y-96.266
X139.198Y-94.234
X139.198Y-95.25
X139.198Y-96.266
X140.081Y-115.697
X140.208Y-94.234
X140.208Y-95.25
X140.208Y-96.266
X141.224Y-93.472
X141.224Y-94.234
X141.224Y-95.25
X141.224Y-96.266
X142.488Y-93.472
X142.488Y-94.234
X142.488Y-95.25
X142.488Y-96.266
X142.494Y-78.232
X142.494Y-91.7
X142.494Y-92.71
X143.002Y-78.74
X143.701Y-79.438
X143.764Y-88.646
X143.764Y-89.668
X143.764Y-90.678
X143.764Y-91.7
X143.764Y-92.71
X143.764Y-93.732
X144.272Y-80.01
X144.78Y-83.058
X145.034Y-86.36
X145.034Y-87.63
X145.034Y-88.678
X145.034Y-89.662
X145.034Y-90.678
X145.034Y-91.662
X145.034Y-92.71
X145.034Y-93.694
X146.013Y-83.095
X146.05Y-84.328
X146.05Y-85.344
X146.05Y-86.36
X146.05Y-87.63
X146.05Y-88.678
X146.05Y-89.662
X146.05Y-90.678
X146.05Y-91.662
X146.05Y-92.71
X146.05Y-93.694
X146.812Y-115.824
X148.844Y-84.074
X148.844Y-85.344
X149.86Y-84.074
X150.908Y-84.074
X150.908Y-85.852
X151.892Y-84.074
X151.892Y-85.852
X152.908Y-84.074
X152.908Y-85.852
X153.892Y-84.074
X153.892Y-85.852
X154.94Y-84.074
X154.94Y-85.852
X155.924Y-84.074
X155.924Y-85.852
X156.706Y-101.618
X156.706Y-102.634
X156.706Y-103.618
X156.706Y-106.426
X156.706Y-108.712
X156.706Y-112.014
X156.706Y-116.332
X156.718Y-71.628
X156.718Y-72.39
X156.718Y-96.012
X156.718Y-99.06
X156.718Y-115.062
X156.718Y-117.602
X157.226Y-81.026
X157.226Y-83.058
X157.226Y-84.074
X157.258Y-82.042
X157.48Y-71.628
X157.48Y-72.39
X157.734Y-73.406
X157.734Y-74.422
X157.734Y-75.438
X157.734Y-76.454
X158.496Y-81.026
X158.496Y-96.012
X158.528Y-82.042
X159.004Y-73.406
X159.004Y-74.422
X159.004Y-75.438
X159.004Y-76.454
X159.512Y-81.058
X159.512Y-99.314
X160.02Y-79.103
X160.02Y-79.756
X161.798Y-95.716
X163.068Y-95.716
X163.068Y-96.866
X163.068Y-97.79
X163.322Y-105.918
X163.322Y-108.204
X163.576Y-86.614
X163.83Y-77.216
X163.83Y-99.06
X164.338Y-95.716
X164.592Y-80.264
X164.846Y-77.47
X165.1Y-86.868
X165.1Y-88.046
X165.354Y-80.264
X165.608Y-77.47
X165.608Y-95.716
X165.862Y-101.6
X166.116Y-85.61
X166.308Y-77.47
X166.878Y-95.716
X166.878Y-98.044
X167.132Y-102.616
X167.386Y-106.172
X167.386Y-110.095
X167.64Y-98.644
X168.148Y-95.716
X168.402Y-103.886
X169.418Y-95.716
X169.672Y-74.168
X169.672Y-75.946
X169.926Y-100.584
X170.18Y-105.156
X170.434Y-97.952
X171.196Y-96.52
X171.45Y-76.962
X171.45Y-108.712
X171.45Y-110.744
X171.704Y-106.934
X171.958Y-86.36
X171.958Y-103.886
X172.085Y-87.757
X172.662Y-94.412
X172.72Y-89.789
X172.72Y-90.986
X172.72Y-92.456
X172.974Y-107.188
X173.736Y-105.156
X174.244Y-80.264
X174.623Y-78.14
X175.499Y-105.165
X176.235Y-101.841
X177.294Y-78.996
X177.546Y-80.172
X177.546Y-101.6
X177.8Y-108.712
X178.667Y-102.765
X178.816Y-81.788
X178.816Y-101.6
X180.086Y-81.88
X180.086Y-101.6
X180.881Y-78.14
X181.229Y-84.201
X181.313Y-101.643
X182.54Y-101.6
X182.626Y-81.788
X183.134Y-110.49
X183.134Y-112.014
X183.628Y-102.411
X183.853Y-101.643
X183.888Y-81.808
X183.896Y-80.518
X184.15Y-102.87
X184.912Y-104.14
X185.166Y-84.074
X185.166Y-101.6
X185.42Y-78.74
X185.928Y-104.902
X185.928Y-106.172
X186.27Y-74.422
X186.436Y-84.074
X186.69Y-112.522
X186.732Y-79.248
X187.706Y-77.978
X189.23Y-80.264
X189.394Y-79.084
X189.853Y-79.544
X190.313Y-80.003
X191.516Y-81.026
X191.516Y-81.788
X191.516Y-101.6
X191.77Y-77.724
X192.024Y-102.87
X192.024Y-104.648
X192.024Y-106.426
T3
X159.704Y-112.632
X168.464Y-112.632
X171.896Y-112.632
X180.656Y-112.632
T5
X112.796Y-111.88
X115.296Y-111.88
X125.156Y-86.877
X125.156Y-90.377
X136.926Y-111.88
X139.426Y-111.88
X142.494Y-73.208
X142.494Y-76.708
T6
X101.854Y-97.696
X101.854Y-100.196
X101.854Y-102.696
X101.854Y-105.196
X101.854Y-107.696
X101.854Y-110.196
X125.73Y-97.616
X125.73Y-100.116
X125.73Y-102.616
X125.73Y-105.116
X125.73Y-107.616
X125.73Y-110.116
X164.354Y-92.456
X166.854Y-92.456
X169.354Y-92.456
T7
X107.95Y-96.371
X107.95Y-98.911
X107.95Y-101.451
X107.95Y-103.991
X107.95Y-106.531
X107.95Y-109.071
X107.95Y-111.611
X107.95Y-114.151
X120.65Y-96.371
X120.65Y-98.911
X120.65Y-101.451
X120.65Y-103.991
X120.65Y-106.531
X120.65Y-109.071
X120.65Y-111.611
X120.65Y-114.151
X131.826Y-96.331
X131.826Y-98.871
X131.826Y-101.411
X131.826Y-103.951
X131.826Y-106.491
X131.826Y-109.031
X131.826Y-111.571
X131.826Y-114.111
X144.526Y-96.331
X144.526Y-98.871
X144.526Y-101.411
X144.526Y-103.951
X144.526Y-106.491
X144.526Y-109.031
X144.526Y-111.571
X144.526Y-114.111
X149.86Y-73.954
X149.86Y-76.454
X150.876Y-88.138
X150.876Y-90.678
X150.876Y-93.218
X150.876Y-95.758
X150.876Y-98.298
X150.876Y-100.838
X150.876Y-103.378
X150.876Y-105.918
X150.876Y-108.458
X150.876Y-110.998
X153.416Y-88.138
X153.416Y-90.678
X153.416Y-93.218
X153.416Y-95.758
X153.416Y-98.298
X153.416Y-100.838
X153.416Y-103.378
X153.416Y-105.918
X153.416Y-108.458
X153.416Y-110.998
X160.577Y-83.86
X160.577Y-86.36
X168.378Y-83.86
X168.378Y-86.36
T8
X101.67Y-87.658
X101.67Y-91.158
T4
G00X173.432Y-72.392
M15
G01X173.432Y-71.792
M16
G05
G00X173.432Y-76.822
M15
G01X173.432Y-75.722
M16
G05
G00X182.072Y-72.392
M15
G01X182.072Y-71.792
M16
G05
G00X182.072Y-76.822
M15
G01X182.072Y-75.722
M16
G05
M30
