%TF.GenerationSoftware,KiCad,Pcbnew,10.0.4*%
%TF.CreationDate,2026-07-03T13:20:28+08:00*%
%TF.ProjectId,embo,656d626f-2e6b-4696-9361-645f70636258,rev?*%
%TF.SameCoordinates,Original*%
%TF.FileFunction,Soldermask,Bot*%
%TF.FilePolarity,Negative*%
%FSLAX46Y46*%
G04 Gerber Fmt 4.6, Leading zero omitted, Abs format (unit mm)*
G04 Created by KiCad (PCBNEW 10.0.4) date 2026-07-03 13:20:28*
%MOMM*%
%LPD*%
G01*
G04 APERTURE LIST*
G04 Aperture macros list*
%AMRoundRect*
0 Rectangle with rounded corners*
0 $1 Rounding radius*
0 $2 $3 $4 $5 $6 $7 $8 $9 X,Y pos of 4 corners*
0 Add a 4 corners polygon primitive as box body*
4,1,4,$2,$3,$4,$5,$6,$7,$8,$9,$2,$3,0*
0 Add four circle primitives for the rounded corners*
1,1,$1+$1,$2,$3*
1,1,$1+$1,$4,$5*
1,1,$1+$1,$6,$7*
1,1,$1+$1,$8,$9*
0 Add four rect primitives between the rounded corners*
20,1,$1+$1,$2,$3,$4,$5,0*
20,1,$1+$1,$4,$5,$6,$7,0*
20,1,$1+$1,$6,$7,$8,$9,0*
20,1,$1+$1,$8,$9,$2,$3,0*%
G04 Aperture macros list end*
%ADD10R,1.700000X1.700000*%
%ADD11C,1.700000*%
%ADD12C,2.200000*%
%ADD13R,2.420000X5.080000*%
%ADD14RoundRect,0.250001X-0.949999X0.949999X-0.949999X-0.949999X0.949999X-0.949999X0.949999X0.949999X0*%
%ADD15C,2.400000*%
%ADD16C,1.600000*%
%ADD17C,0.650000*%
%ADD18O,1.000000X2.100000*%
%ADD19O,1.000000X1.600000*%
%ADD20RoundRect,0.250000X0.600000X0.600000X-0.600000X0.600000X-0.600000X-0.600000X0.600000X-0.600000X0*%
%ADD21RoundRect,0.250000X0.725000X-0.600000X0.725000X0.600000X-0.725000X0.600000X-0.725000X-0.600000X0*%
%ADD22O,1.950000X1.700000*%
%ADD23RoundRect,0.250000X0.750000X-0.600000X0.750000X0.600000X-0.750000X0.600000X-0.750000X-0.600000X0*%
%ADD24O,2.000000X1.700000*%
%ADD25RoundRect,0.250000X-0.600000X-0.725000X0.600000X-0.725000X0.600000X0.725000X-0.600000X0.725000X0*%
%ADD26O,1.700000X1.950000*%
G04 APERTURE END LIST*
D10*
%TO.C,J12*%
X120650000Y-114151211D03*
D11*
X120650000Y-111611211D03*
X120650000Y-109071212D03*
X120650000Y-106531211D03*
X120650000Y-103991211D03*
X120650000Y-101451211D03*
X120650000Y-98911211D03*
X120650000Y-96371210D03*
%TD*%
D12*
%TO.C,REF\u002A\u002A*%
X190246000Y-116078000D03*
%TD*%
%TO.C,REF\u002A\u002A*%
X99314000Y-73406000D03*
%TD*%
D13*
%TO.C,J2*%
X171896000Y-116072000D03*
X180656000Y-116072000D03*
%TD*%
D14*
%TO.C,J14*%
X101670500Y-87658000D03*
D15*
X101670500Y-91158000D03*
%TD*%
D16*
%TO.C,C38*%
X136926000Y-111880000D03*
X139426000Y-111880000D03*
%TD*%
%TO.C,C16*%
X125156000Y-86877000D03*
X125156000Y-90377000D03*
%TD*%
D13*
%TO.C,J1*%
X159704000Y-116072000D03*
X168464000Y-116072000D03*
%TD*%
D17*
%TO.C,J13*%
X180642000Y-75742001D03*
X174862000Y-75742001D03*
D18*
X182072000Y-76272001D03*
D19*
X182072000Y-72092001D03*
D18*
X173432000Y-76272001D03*
D19*
X173432000Y-72092001D03*
%TD*%
D20*
%TO.C,J9*%
X153416000Y-110998000D03*
D11*
X150876000Y-110998000D03*
X153416000Y-108458000D03*
X150876000Y-108458000D03*
X153416000Y-105918001D03*
X150876000Y-105918000D03*
X153416000Y-103378000D03*
X150876000Y-103378000D03*
X153416000Y-100838000D03*
X150876000Y-100838000D03*
X153416000Y-98298000D03*
X150876000Y-98298000D03*
X153416000Y-95758000D03*
X150876000Y-95758000D03*
X153416000Y-93217999D03*
X150876000Y-93218000D03*
X153416000Y-90678000D03*
X150876000Y-90678000D03*
X153416000Y-88138000D03*
X150876000Y-88138000D03*
%TD*%
D12*
%TO.C,REF\u002A\u002A*%
X99314000Y-116078000D03*
%TD*%
D21*
%TO.C,J5*%
X101854000Y-110196000D03*
D22*
X101854000Y-107696000D03*
X101854000Y-105196000D03*
X101854000Y-102696000D03*
X101854000Y-100196000D03*
X101854000Y-97696000D03*
%TD*%
D23*
%TO.C,J7*%
X168377501Y-86360000D03*
D24*
X168377501Y-83860000D03*
%TD*%
D25*
%TO.C,J3*%
X164353501Y-92456000D03*
D26*
X166853501Y-92456000D03*
X169353501Y-92456000D03*
%TD*%
D16*
%TO.C,C39*%
X112796000Y-111880000D03*
X115296000Y-111880000D03*
%TD*%
D23*
%TO.C,J8*%
X149860000Y-76454000D03*
D24*
X149860000Y-73954000D03*
%TD*%
D10*
%TO.C,J15*%
X107950000Y-114151211D03*
D11*
X107950000Y-111611211D03*
X107950000Y-109071212D03*
X107950000Y-106531211D03*
X107950000Y-103991211D03*
X107950000Y-101451211D03*
X107950000Y-98911211D03*
X107950000Y-96371210D03*
%TD*%
D10*
%TO.C,J10*%
X144526000Y-114111211D03*
D11*
X144526000Y-111571211D03*
X144526000Y-109031212D03*
X144526000Y-106491211D03*
X144526000Y-103951211D03*
X144526000Y-101411211D03*
X144526000Y-98871211D03*
X144526000Y-96331210D03*
%TD*%
D16*
%TO.C,C19*%
X142494000Y-76708000D03*
X142494000Y-73208000D03*
%TD*%
D21*
%TO.C,J4*%
X125730000Y-110116000D03*
D22*
X125730000Y-107616000D03*
X125730000Y-105116000D03*
X125730000Y-102616000D03*
X125730000Y-100116000D03*
X125730000Y-97616000D03*
%TD*%
D10*
%TO.C,J11*%
X131826000Y-114111211D03*
D11*
X131826000Y-111571211D03*
X131826000Y-109031212D03*
X131826000Y-106491211D03*
X131826000Y-103951211D03*
X131826000Y-101411211D03*
X131826000Y-98871211D03*
X131826000Y-96331210D03*
%TD*%
D23*
%TO.C,J6*%
X160577500Y-86360000D03*
D24*
X160577500Y-83860000D03*
%TD*%
D12*
%TO.C,REF\u002A\u002A*%
X190246000Y-73406000D03*
%TD*%
M02*
