%TF.GenerationSoftware,KiCad,Pcbnew,10.0.4*%
%TF.CreationDate,2026-07-03T13:20:28+08:00*%
%TF.ProjectId,embo,656d626f-2e6b-4696-9361-645f70636258,rev?*%
%TF.SameCoordinates,Original*%
%TF.FileFunction,Copper,L1,Top*%
%TF.FilePolarity,Positive*%
%FSLAX46Y46*%
G04 Gerber Fmt 4.6, Leading zero omitted, Abs format (unit mm)*
G04 Created by KiCad (PCBNEW 10.0.4) date 2026-07-03 13:20:28*
%MOMM*%
%LPD*%
G01*
G04 APERTURE LIST*
G04 Aperture macros list*
%AMRoundRect*
0 Rectangle with rounded corners*
0 $1 Rounding radius*
0 $2 $3 $4 $5 $6 $7 $8 $9 X,Y pos of 4 corners*
0 Add a 4 corners polygon primitive as box body*
4,1,4,$2,$3,$4,$5,$6,$7,$8,$9,$2,$3,0*
0 Add four circle primitives for the rounded corners*
1,1,$1+$1,$2,$3*
1,1,$1+$1,$4,$5*
1,1,$1+$1,$6,$7*
1,1,$1+$1,$8,$9*
0 Add four rect primitives between the rounded corners*
20,1,$1+$1,$2,$3,$4,$5,0*
20,1,$1+$1,$4,$5,$6,$7,0*
20,1,$1+$1,$6,$7,$8,$9,0*
20,1,$1+$1,$8,$9,$2,$3,0*%
G04 Aperture macros list end*
%TA.AperFunction,SMDPad,CuDef*%
%ADD10RoundRect,0.160000X0.197500X0.160000X-0.197500X0.160000X-0.197500X-0.160000X0.197500X-0.160000X0*%
%TD*%
%TA.AperFunction,ComponentPad*%
%ADD11R,1.700000X1.700000*%
%TD*%
%TA.AperFunction,ComponentPad*%
%ADD12C,1.700000*%
%TD*%
%TA.AperFunction,SMDPad,CuDef*%
%ADD13RoundRect,0.250000X0.250000X0.475000X-0.250000X0.475000X-0.250000X-0.475000X0.250000X-0.475000X0*%
%TD*%
%TA.AperFunction,SMDPad,CuDef*%
%ADD14RoundRect,0.150000X0.150000X-0.825000X0.150000X0.825000X-0.150000X0.825000X-0.150000X-0.825000X0*%
%TD*%
%TA.AperFunction,SMDPad,CuDef*%
%ADD15R,2.290000X5.080000*%
%TD*%
%TA.AperFunction,SMDPad,CuDef*%
%ADD16R,2.420000X5.080000*%
%TD*%
%TA.AperFunction,SMDPad,CuDef*%
%ADD17R,0.460000X0.950000*%
%TD*%
%TA.AperFunction,ComponentPad*%
%ADD18C,0.970000*%
%TD*%
%TA.AperFunction,SMDPad,CuDef*%
%ADD19RoundRect,0.160000X-0.197500X-0.160000X0.197500X-0.160000X0.197500X0.160000X-0.197500X0.160000X0*%
%TD*%
%TA.AperFunction,SMDPad,CuDef*%
%ADD20RoundRect,0.243750X-0.243750X-0.456250X0.243750X-0.456250X0.243750X0.456250X-0.243750X0.456250X0*%
%TD*%
%TA.AperFunction,SMDPad,CuDef*%
%ADD21RoundRect,0.155000X-0.259862X0.040659X0.040659X-0.259862X0.259862X-0.040659X-0.040659X0.259862X0*%
%TD*%
%TA.AperFunction,SMDPad,CuDef*%
%ADD22RoundRect,0.160000X-0.160000X0.197500X-0.160000X-0.197500X0.160000X-0.197500X0.160000X0.197500X0*%
%TD*%
%TA.AperFunction,SMDPad,CuDef*%
%ADD23RoundRect,0.250000X0.650000X-1.000000X0.650000X1.000000X-0.650000X1.000000X-0.650000X-1.000000X0*%
%TD*%
%TA.AperFunction,ComponentPad*%
%ADD24RoundRect,0.250001X-0.949999X0.949999X-0.949999X-0.949999X0.949999X-0.949999X0.949999X0.949999X0*%
%TD*%
%TA.AperFunction,ComponentPad*%
%ADD25C,2.400000*%
%TD*%
%TA.AperFunction,SMDPad,CuDef*%
%ADD26RoundRect,0.155000X-0.155000X0.212500X-0.155000X-0.212500X0.155000X-0.212500X0.155000X0.212500X0*%
%TD*%
%TA.AperFunction,SMDPad,CuDef*%
%ADD27RoundRect,0.155000X0.155000X-0.212500X0.155000X0.212500X-0.155000X0.212500X-0.155000X-0.212500X0*%
%TD*%
%TA.AperFunction,ComponentPad*%
%ADD28C,1.600000*%
%TD*%
%TA.AperFunction,SMDPad,CuDef*%
%ADD29RoundRect,0.160000X0.160000X-0.197500X0.160000X0.197500X-0.160000X0.197500X-0.160000X-0.197500X0*%
%TD*%
%TA.AperFunction,SMDPad,CuDef*%
%ADD30RoundRect,0.250000X-0.545000X-0.445000X0.545000X-0.445000X0.545000X0.445000X-0.545000X0.445000X0*%
%TD*%
%TA.AperFunction,SMDPad,CuDef*%
%ADD31RoundRect,0.155000X0.212500X0.155000X-0.212500X0.155000X-0.212500X-0.155000X0.212500X-0.155000X0*%
%TD*%
%TA.AperFunction,SMDPad,CuDef*%
%ADD32RoundRect,0.225000X0.225000X0.375000X-0.225000X0.375000X-0.225000X-0.375000X0.225000X-0.375000X0*%
%TD*%
%TA.AperFunction,SMDPad,CuDef*%
%ADD33RoundRect,0.250000X-0.475000X-0.250000X0.475000X-0.250000X0.475000X0.250000X-0.475000X0.250000X0*%
%TD*%
%TA.AperFunction,SMDPad,CuDef*%
%ADD34RoundRect,0.150000X-0.587500X-0.150000X0.587500X-0.150000X0.587500X0.150000X-0.587500X0.150000X0*%
%TD*%
%TA.AperFunction,SMDPad,CuDef*%
%ADD35RoundRect,0.250000X-0.400000X-1.450000X0.400000X-1.450000X0.400000X1.450000X-0.400000X1.450000X0*%
%TD*%
%TA.AperFunction,SMDPad,CuDef*%
%ADD36RoundRect,0.150000X0.150000X0.575000X-0.150000X0.575000X-0.150000X-0.575000X0.150000X-0.575000X0*%
%TD*%
%TA.AperFunction,SMDPad,CuDef*%
%ADD37RoundRect,0.075000X0.075000X0.650000X-0.075000X0.650000X-0.075000X-0.650000X0.075000X-0.650000X0*%
%TD*%
%TA.AperFunction,ComponentPad*%
%ADD38O,1.000000X2.100000*%
%TD*%
%TA.AperFunction,ComponentPad*%
%ADD39O,1.000000X1.600000*%
%TD*%
%TA.AperFunction,SMDPad,CuDef*%
%ADD40RoundRect,0.155000X-0.212500X-0.155000X0.212500X-0.155000X0.212500X0.155000X-0.212500X0.155000X0*%
%TD*%
%TA.AperFunction,SMDPad,CuDef*%
%ADD41R,5.400000X2.900000*%
%TD*%
%TA.AperFunction,SMDPad,CuDef*%
%ADD42RoundRect,0.250000X2.050000X0.300000X-2.050000X0.300000X-2.050000X-0.300000X2.050000X-0.300000X0*%
%TD*%
%TA.AperFunction,SMDPad,CuDef*%
%ADD43RoundRect,0.250002X4.449998X5.149998X-4.449998X5.149998X-4.449998X-5.149998X4.449998X-5.149998X0*%
%TD*%
%TA.AperFunction,SMDPad,CuDef*%
%ADD44R,0.900000X1.500000*%
%TD*%
%TA.AperFunction,SMDPad,CuDef*%
%ADD45R,1.500000X0.900000*%
%TD*%
%TA.AperFunction,HeatsinkPad*%
%ADD46C,0.600000*%
%TD*%
%TA.AperFunction,HeatsinkPad*%
%ADD47R,3.900000X3.900000*%
%TD*%
%TA.AperFunction,SMDPad,CuDef*%
%ADD48RoundRect,0.150000X-0.825000X-0.150000X0.825000X-0.150000X0.825000X0.150000X-0.825000X0.150000X0*%
%TD*%
%TA.AperFunction,SMDPad,CuDef*%
%ADD49RoundRect,0.250000X0.250000X-0.475000X0.250000X0.475000X-0.250000X0.475000X-0.250000X-0.475000X0*%
%TD*%
%TA.AperFunction,SMDPad,CuDef*%
%ADD50RoundRect,0.250000X0.475000X-0.250000X0.475000X0.250000X-0.475000X0.250000X-0.475000X-0.250000X0*%
%TD*%
%TA.AperFunction,SMDPad,CuDef*%
%ADD51RoundRect,0.250000X-0.445000X0.545000X-0.445000X-0.545000X0.445000X-0.545000X0.445000X0.545000X0*%
%TD*%
%TA.AperFunction,SMDPad,CuDef*%
%ADD52RoundRect,0.160000X-0.026517X-0.252791X0.252791X0.026517X0.026517X0.252791X-0.252791X-0.026517X0*%
%TD*%
%TA.AperFunction,SMDPad,CuDef*%
%ADD53RoundRect,0.150000X0.587500X0.150000X-0.587500X0.150000X-0.587500X-0.150000X0.587500X-0.150000X0*%
%TD*%
%TA.AperFunction,SMDPad,CuDef*%
%ADD54RoundRect,0.140000X0.140000X0.170000X-0.140000X0.170000X-0.140000X-0.170000X0.140000X-0.170000X0*%
%TD*%
%TA.AperFunction,SMDPad,CuDef*%
%ADD55RoundRect,0.225000X-0.225000X-0.375000X0.225000X-0.375000X0.225000X0.375000X-0.225000X0.375000X0*%
%TD*%
%TA.AperFunction,SMDPad,CuDef*%
%ADD56RoundRect,0.250000X-0.250000X-0.475000X0.250000X-0.475000X0.250000X0.475000X-0.250000X0.475000X0*%
%TD*%
%TA.AperFunction,ComponentPad*%
%ADD57RoundRect,0.250000X0.600000X0.600000X-0.600000X0.600000X-0.600000X-0.600000X0.600000X-0.600000X0*%
%TD*%
%TA.AperFunction,ComponentPad*%
%ADD58RoundRect,0.250000X0.725000X-0.600000X0.725000X0.600000X-0.725000X0.600000X-0.725000X-0.600000X0*%
%TD*%
%TA.AperFunction,ComponentPad*%
%ADD59O,1.950000X1.700000*%
%TD*%
%TA.AperFunction,ComponentPad*%
%ADD60RoundRect,0.250000X0.750000X-0.600000X0.750000X0.600000X-0.750000X0.600000X-0.750000X-0.600000X0*%
%TD*%
%TA.AperFunction,ComponentPad*%
%ADD61O,2.000000X1.700000*%
%TD*%
%TA.AperFunction,ComponentPad*%
%ADD62RoundRect,0.250000X-0.600000X-0.725000X0.600000X-0.725000X0.600000X0.725000X-0.600000X0.725000X0*%
%TD*%
%TA.AperFunction,ComponentPad*%
%ADD63O,1.700000X1.950000*%
%TD*%
%TA.AperFunction,SMDPad,CuDef*%
%ADD64RoundRect,0.087500X0.662500X0.087500X-0.662500X0.087500X-0.662500X-0.087500X0.662500X-0.087500X0*%
%TD*%
%TA.AperFunction,SMDPad,CuDef*%
%ADD65RoundRect,0.250000X-1.000000X-0.650000X1.000000X-0.650000X1.000000X0.650000X-1.000000X0.650000X0*%
%TD*%
%TA.AperFunction,SMDPad,CuDef*%
%ADD66RoundRect,0.140000X0.170000X-0.140000X0.170000X0.140000X-0.170000X0.140000X-0.170000X-0.140000X0*%
%TD*%
%TA.AperFunction,SMDPad,CuDef*%
%ADD67RoundRect,0.375000X-0.625000X-0.375000X0.625000X-0.375000X0.625000X0.375000X-0.625000X0.375000X0*%
%TD*%
%TA.AperFunction,SMDPad,CuDef*%
%ADD68RoundRect,0.500000X-0.500000X-1.400000X0.500000X-1.400000X0.500000X1.400000X-0.500000X1.400000X0*%
%TD*%
%TA.AperFunction,ViaPad*%
%ADD69C,0.600000*%
%TD*%
%TA.AperFunction,ViaPad*%
%ADD70C,0.500000*%
%TD*%
%TA.AperFunction,Conductor*%
%ADD71C,0.200000*%
%TD*%
%TA.AperFunction,Conductor*%
%ADD72C,1.500000*%
%TD*%
%TA.AperFunction,Conductor*%
%ADD73C,0.700000*%
%TD*%
%TA.AperFunction,Conductor*%
%ADD74C,0.500000*%
%TD*%
%TA.AperFunction,Conductor*%
%ADD75C,1.000000*%
%TD*%
G04 APERTURE END LIST*
D10*
%TO.P,R35,1*%
%TO.N,Net-(IC2--INA)*%
X177446500Y-104648000D03*
%TO.P,R35,2*%
%TO.N,/STAGE1_OUT*%
X176251500Y-104648000D03*
%TD*%
D11*
%TO.P,J12,1,Pin_1_1*%
%TO.N,/M2_EN*%
X120650000Y-114151211D03*
D12*
%TO.P,J12,2,Pin_2_2*%
%TO.N,Net-(J12-Pin_2)*%
X120650000Y-111611211D03*
%TO.P,J12,3,Pin_3_3*%
%TO.N,GND*%
X120650000Y-109071212D03*
%TO.P,J12,4,Pin_4_4*%
%TO.N,Net-(J10-Pin_4)*%
X120650000Y-106531211D03*
%TO.P,J12,5,Pin_5_5*%
%TO.N,unconnected-(J12-Pin_5-Pad5)*%
X120650000Y-103991211D03*
%TO.P,J12,6,Pin_6_6*%
%TO.N,GND*%
X120650000Y-101451211D03*
%TO.P,J12,7,Pin_7_7*%
%TO.N,/M2_STEP*%
X120650000Y-98911211D03*
%TO.P,J12,8,Pin_8_8*%
%TO.N,/M2_DIR*%
X120650000Y-96371210D03*
%TD*%
D13*
%TO.P,C28,1*%
%TO.N,GND*%
X191957999Y-78740000D03*
%TO.P,C28,2*%
%TO.N,+3V3*%
X190058001Y-78740000D03*
%TD*%
D14*
%TO.P,Q1,1*%
%TO.N,Net-(D7-K)*%
X104775000Y-84009000D03*
%TO.P,Q1,2*%
X106045000Y-84009000D03*
%TO.P,Q1,3*%
X107315000Y-84009000D03*
%TO.P,Q1,4*%
%TO.N,Net-(D7-A)*%
X108585000Y-84009000D03*
%TO.P,Q1,5*%
%TO.N,Net-(F1-Pad1)*%
X108585000Y-79059000D03*
%TO.P,Q1,6*%
X107315000Y-79059000D03*
%TO.P,Q1,7*%
X106045000Y-79059000D03*
%TO.P,Q1,8*%
X104775000Y-79059000D03*
%TD*%
D15*
%TO.P,J2,1,In_1*%
%TO.N,Net-(J2-In)*%
X176276000Y-116072000D03*
D16*
%TO.P,J2,2,Ext_2*%
%TO.N,GND*%
X171896000Y-116072000D03*
X180656000Y-116072000D03*
D17*
X171896000Y-113082000D03*
X180656000Y-113082000D03*
D18*
X171896000Y-112632000D03*
X180656000Y-112632000D03*
%TD*%
D19*
%TO.P,R26,1*%
%TO.N,GND*%
X176251500Y-106045000D03*
%TO.P,R26,2*%
%TO.N,Net-(IC2--INA)*%
X177446500Y-106045000D03*
%TD*%
D10*
%TO.P,R29,1*%
%TO.N,Net-(IC2-+INA)*%
X174930999Y-107188000D03*
%TO.P,R29,2*%
%TO.N,GND*%
X173735999Y-107188000D03*
%TD*%
D20*
%TO.P,LED_stat1,1,K_1*%
%TO.N,GND*%
X184814998Y-102870000D03*
%TO.P,LED_stat1,2,A_2*%
%TO.N,Net-(LED_stat1-A)*%
X186690000Y-102870000D03*
%TD*%
D21*
%TO.P,C36,1*%
%TO.N,+24V*%
X134940717Y-114379434D03*
%TO.P,C36,2*%
%TO.N,GND*%
X135743283Y-115182000D03*
%TD*%
D22*
%TO.P,R5,1*%
%TO.N,Net-(D7-A)*%
X110490000Y-87197000D03*
%TO.P,R5,2*%
%TO.N,GND*%
X110490000Y-88392000D03*
%TD*%
D10*
%TO.P,R22,1*%
%TO.N,Net-(IC2-+INB)*%
X185066500Y-112014000D03*
%TO.P,R22,2*%
%TO.N,GND*%
X183871500Y-112014000D03*
%TD*%
D23*
%TO.P,D5,1,K_1*%
%TO.N,+24V*%
X110998000Y-76676001D03*
%TO.P,D5,2,A_2*%
%TO.N,GND*%
X110998000Y-72675999D03*
%TD*%
D24*
%TO.P,J14,1,Pin_1_1*%
%TO.N,Net-(D7-K)*%
X101670500Y-87658000D03*
D25*
%TO.P,J14,2,Pin_2_2*%
%TO.N,GND*%
X101670500Y-91158000D03*
%TD*%
D26*
%TO.P,C12,1*%
%TO.N,+3V3*%
X163830000Y-75405000D03*
%TO.P,C12,2*%
%TO.N,GND*%
X163830000Y-76540000D03*
%TD*%
D27*
%TO.P,C25,1*%
%TO.N,+3V3*%
X183134000Y-103437500D03*
%TO.P,C25,2*%
%TO.N,GND*%
X183134000Y-102302500D03*
%TD*%
D28*
%TO.P,C38,1*%
%TO.N,+24V*%
X136926000Y-111880000D03*
%TO.P,C38,2*%
%TO.N,GND*%
X139426000Y-111880000D03*
%TD*%
D29*
%TO.P,R39,1*%
%TO.N,Net-(IC1-+INA)*%
X165862000Y-103721500D03*
%TO.P,R39,2*%
%TO.N,GND*%
X165862000Y-102526500D03*
%TD*%
D30*
%TO.P,C7,1*%
%TO.N,+5V*%
X155786000Y-79502000D03*
%TO.P,C7,2*%
%TO.N,GND*%
X158666000Y-79502000D03*
%TD*%
D28*
%TO.P,C16,1*%
%TO.N,+24V*%
X125156000Y-86877000D03*
%TO.P,C16,2*%
%TO.N,GND*%
X125156000Y-90377000D03*
%TD*%
D31*
%TO.P,C27,1*%
%TO.N,Net-(C27-Pad1)*%
X159891501Y-110744000D03*
%TO.P,C27,2*%
%TO.N,/TX_OUT*%
X158756501Y-110744000D03*
%TD*%
D13*
%TO.P,C26,1*%
%TO.N,+3V3*%
X181543999Y-102870000D03*
%TO.P,C26,2*%
%TO.N,GND*%
X179644001Y-102870000D03*
%TD*%
D15*
%TO.P,J1,1,In_1*%
%TO.N,/TX_OUT*%
X164084000Y-116072000D03*
D16*
%TO.P,J1,2,Ext_2*%
%TO.N,GND*%
X159704000Y-116072000D03*
X168464000Y-116072000D03*
D17*
X159704000Y-113082000D03*
X168464000Y-113082000D03*
D18*
X159704000Y-112632000D03*
X168464000Y-112632000D03*
%TD*%
D19*
%TO.P,Rsnub1,1*%
%TO.N,Net-(D4-K)*%
X131482500Y-73660000D03*
%TO.P,Rsnub1,2*%
%TO.N,Net-(Csnub1-Pad1)*%
X132677500Y-73660000D03*
%TD*%
D32*
%TO.P,D2,1,K_1*%
%TO.N,/UAS_ADC*%
X190118000Y-108204000D03*
%TO.P,D2,2,A_2*%
%TO.N,Net-(D2-A)*%
X186818000Y-108204000D03*
%TD*%
D19*
%TO.P,R32,1*%
%TO.N,Net-(IC1-OUTA)*%
X158726501Y-109474000D03*
%TO.P,R32,2*%
%TO.N,Net-(C27-Pad1)*%
X159921501Y-109474000D03*
%TD*%
D31*
%TO.P,C18,1*%
%TO.N,/LIMIT_M2*%
X167251000Y-80264000D03*
%TO.P,C18,2*%
%TO.N,GND*%
X166116000Y-80264000D03*
%TD*%
D33*
%TO.P,SW_boot1,1,1_1*%
%TO.N,Net-(U1-IO0)*%
X164811000Y-108394612D03*
X169961000Y-108394612D03*
%TO.P,SW_boot1,2,2_2*%
%TO.N,GND*%
X164811000Y-110094612D03*
X169961000Y-110094612D03*
%TD*%
D34*
%TO.P,D1,1,K_1*%
%TO.N,GND*%
X172798500Y-108778000D03*
%TO.P,D1,2,A_2*%
%TO.N,+3V3*%
X172798500Y-110678000D03*
%TO.P,D1,3,K_3*%
%TO.N,/RX_AMP_IN*%
X174673501Y-109728000D03*
%TD*%
D22*
%TO.P,R31,1*%
%TO.N,Net-(IC2--INB)*%
X186690000Y-110799500D03*
%TO.P,R31,2*%
%TO.N,GND*%
X186690000Y-111994500D03*
%TD*%
D26*
%TO.P,C31,1*%
%TO.N,+3V3*%
X171958000Y-102048500D03*
%TO.P,C31,2*%
%TO.N,GND*%
X171958000Y-103183500D03*
%TD*%
D35*
%TO.P,F1,1*%
%TO.N,Net-(F1-Pad1)*%
X103245998Y-75438000D03*
%TO.P,F1,2*%
%TO.N,+24V*%
X107696000Y-75438000D03*
%TD*%
D36*
%TO.P,J13,A1,GND_A1*%
%TO.N,GND*%
X181002000Y-77187001D03*
%TO.P,J13,A4,VBUS_A4*%
%TO.N,Net-(D6-A)*%
X180202001Y-77187001D03*
D37*
%TO.P,J13,A5,CC1_A5*%
%TO.N,Net-(J13-CC1)*%
X179002000Y-77187000D03*
%TO.P,J13,A6,D+_A6*%
%TO.N,/USB_D+*%
X178002000Y-77187001D03*
%TO.P,J13,A7,D-_A7*%
%TO.N,/USB_D-*%
X177502000Y-77187001D03*
%TO.P,J13,A8,SBU1_A8*%
%TO.N,unconnected-(J13-SBU1-PadA8)*%
X176502000Y-77187000D03*
D36*
%TO.P,J13,A9,VBUS_A9*%
%TO.N,Net-(D6-A)*%
X175301999Y-77187001D03*
%TO.P,J13,A12,GND_A12*%
%TO.N,GND*%
X174502000Y-77187001D03*
%TO.P,J13,B1,GND_B1*%
X174502000Y-77187001D03*
%TO.P,J13,B4,VBUS_B4*%
%TO.N,Net-(D6-A)*%
X175301999Y-77187001D03*
D37*
%TO.P,J13,B5,CC2_B5*%
%TO.N,Net-(J13-CC2)*%
X176002000Y-77187001D03*
%TO.P,J13,B6,D+_B6*%
%TO.N,/USB_D+*%
X177002000Y-77187001D03*
%TO.P,J13,B7,D-_B7*%
%TO.N,/USB_D-*%
X178502000Y-77187001D03*
%TO.P,J13,B8,SBU2_B8*%
%TO.N,unconnected-(J13-SBU2-PadB8)*%
X179502000Y-77187001D03*
D36*
%TO.P,J13,B9,VBUS_B9*%
%TO.N,Net-(D6-A)*%
X180202001Y-77187001D03*
%TO.P,J13,B12,GND_B12*%
%TO.N,GND*%
X181002000Y-77187001D03*
D38*
%TO.P,J13,SH,SHIELD_SH*%
X182072000Y-76272001D03*
D39*
X182072000Y-72092001D03*
D38*
X173432000Y-76272001D03*
D39*
X173432000Y-72092001D03*
%TD*%
D40*
%TO.P,Csnub1,1*%
%TO.N,Net-(Csnub1-Pad1)*%
X134306500Y-73660000D03*
%TO.P,Csnub1,2*%
%TO.N,GND*%
X135441500Y-73660000D03*
%TD*%
D41*
%TO.P,L1,1,1_1*%
%TO.N,+5V*%
X136652000Y-90726000D03*
%TO.P,L1,2,2_2*%
%TO.N,Net-(D4-K)*%
X136652000Y-81026000D03*
%TD*%
D29*
%TO.P,R6,1*%
%TO.N,Net-(LED_stat1-A)*%
X188468000Y-103467500D03*
%TO.P,R6,2*%
%TO.N,/status_LED*%
X188468000Y-102272500D03*
%TD*%
D42*
%TO.P,U2,1,VIN_1*%
%TO.N,+24V*%
X127121000Y-81613000D03*
%TO.P,U2,2,FB_2*%
%TO.N,+5V*%
X127120999Y-79913000D03*
%TO.P,U2,3,GND_3*%
%TO.N,GND*%
X127121000Y-78213000D03*
D43*
X117971000Y-78213000D03*
D42*
%TO.P,U2,4,OUT_4*%
%TO.N,Net-(D4-K)*%
X127120999Y-76513000D03*
%TO.P,U2,5,~{ON}/OFF_5*%
%TO.N,GND*%
X127121000Y-74813000D03*
%TD*%
D27*
%TO.P,C20,1*%
%TO.N,/RX_AMP_IN*%
X176197500Y-108517500D03*
%TO.P,C20,2*%
%TO.N,Net-(IC2-+INA)*%
X176197500Y-107382500D03*
%TD*%
D26*
%TO.P,C35,1*%
%TO.N,/TX_AMP_IN*%
X164592000Y-101794500D03*
%TO.P,C35,2*%
%TO.N,Net-(IC1-+INA)*%
X164592000Y-102929500D03*
%TD*%
D44*
%TO.P,U1,1,GND_1*%
%TO.N,GND*%
X191516000Y-82944000D03*
%TO.P,U1,2,3V3_2*%
%TO.N,+3V3*%
X190246000Y-82944000D03*
%TO.P,U1,3,EN_3*%
%TO.N,Net-(U1-EN)*%
X188976000Y-82944000D03*
%TO.P,U1,4,IO4_4*%
%TO.N,/TMC_UART*%
X187706000Y-82944000D03*
%TO.P,U1,5,IO5_5*%
%TO.N,/M1_STEP*%
X186436000Y-82944000D03*
%TO.P,U1,6,IO6_6*%
%TO.N,/M1_DIR*%
X185166000Y-82944000D03*
%TO.P,U1,7,IO7_7*%
%TO.N,/M1_EN*%
X183896000Y-82944000D03*
%TO.P,U1,8,IO15_8*%
%TO.N,/LIMIT_M2*%
X182626000Y-82944000D03*
%TO.P,U1,9,IO16_9*%
%TO.N,/EC11_A (CLK)*%
X181356000Y-82944000D03*
%TO.P,U1,10,IO17_10*%
%TO.N,/EC11_B (DT)*%
X180086000Y-82944000D03*
%TO.P,U1,11,IO18_11*%
%TO.N,/EC11_SW*%
X178816000Y-82944000D03*
%TO.P,U1,12,IO8_12*%
%TO.N,/M2_STEP*%
X177546000Y-82944000D03*
%TO.P,U1,13,USB_D-_13*%
%TO.N,/USB_D-*%
X176276000Y-82944000D03*
%TO.P,U1,14,USB_D+_14*%
%TO.N,/USB_D+*%
X175006000Y-82944000D03*
D45*
%TO.P,U1,15,IO3_15*%
%TO.N,unconnected-(U1-IO3-Pad15)*%
X173756000Y-84709000D03*
%TO.P,U1,16,IO46_16*%
%TO.N,unconnected-(U1-IO46-Pad16)*%
X173756000Y-85979000D03*
%TO.P,U1,17,IO9_17*%
%TO.N,/M2_DIR*%
X173756000Y-87249000D03*
%TO.P,U1,18,IO10_18*%
%TO.N,/M2_EN*%
X173756000Y-88519000D03*
%TO.P,U1,19,IO11_19*%
%TO.N,/BTN1*%
X173756000Y-89789000D03*
%TO.P,U1,20,IO12_20*%
%TO.N,/BTN2*%
X173756000Y-91059000D03*
%TO.P,U1,21,IO13_21*%
%TO.N,/BUZ_PWM*%
X173756000Y-92329000D03*
%TO.P,U1,22,IO14_22*%
%TO.N,/LIMIT_M1*%
X173756000Y-93599000D03*
%TO.P,U1,23,IO21_23*%
%TO.N,/TOUCH_IRQ*%
X173756000Y-94869000D03*
%TO.P,U1,24,IO47_24*%
%TO.N,/UART_TX*%
X173756000Y-96139000D03*
%TO.P,U1,25,IO48_25*%
%TO.N,/UART_RX*%
X173756000Y-97409000D03*
%TO.P,U1,26,IO45_26*%
%TO.N,unconnected-(U1-IO45-Pad26)*%
X173756000Y-98679000D03*
D44*
%TO.P,U1,27,IO0_27*%
%TO.N,Net-(U1-IO0)*%
X175006000Y-100444000D03*
%TO.P,U1,28,IO35_28*%
%TO.N,/SPI_MOSI*%
X176276000Y-100444000D03*
%TO.P,U1,29,IO36_29*%
%TO.N,/SPI_CLK*%
X177546000Y-100444000D03*
%TO.P,U1,30,IO37_30*%
%TO.N,/SPI_MISO*%
X178816000Y-100444000D03*
%TO.P,U1,31,IO38_31*%
%TO.N,/AD9833_SC*%
X180086000Y-100444000D03*
%TO.P,U1,32,IO39_32*%
%TO.N,/TFT_CS*%
X181356000Y-100444000D03*
%TO.P,U1,33,IO40_33*%
%TO.N,/TFT_DC*%
X182626000Y-100444000D03*
%TO.P,U1,34,IO41_34*%
%TO.N,/TFT_RST*%
X183896000Y-100444000D03*
%TO.P,U1,35,IO42_35*%
%TO.N,/TOUCH_CS*%
X185166000Y-100444000D03*
%TO.P,U1,36,RXD0_36*%
%TO.N,unconnected-(U1-RXD0-Pad36)*%
X186436000Y-100444000D03*
%TO.P,U1,37,TXD0_37*%
%TO.N,unconnected-(U1-TXD0-Pad37)*%
X187706000Y-100444000D03*
%TO.P,U1,38,IO2_38*%
%TO.N,/status_LED*%
X188976000Y-100444000D03*
%TO.P,U1,39,IO1_39*%
%TO.N,/UAS_ADC*%
X190246000Y-100444000D03*
%TO.P,U1,40,GND_40*%
%TO.N,GND*%
X191516000Y-100444000D03*
D46*
%TO.P,U1,41,GND_41*%
X184496000Y-88794000D03*
X183096000Y-88794000D03*
X185196000Y-89494000D03*
X183796000Y-89494000D03*
X182396000Y-89494000D03*
X184496000Y-90194000D03*
D47*
X183796000Y-90194000D03*
D46*
X183096000Y-90194000D03*
X185196000Y-90894000D03*
X183796000Y-90894000D03*
X182396000Y-90894000D03*
X184496000Y-91594000D03*
X183096000Y-91594000D03*
%TD*%
D19*
%TO.P,R21,1*%
%TO.N,+3V3*%
X183871500Y-110490000D03*
%TO.P,R21,2*%
%TO.N,Net-(IC2-+INB)*%
X185066500Y-110490000D03*
%TD*%
D48*
%TO.P,IC2,1,OUTA_1*%
%TO.N,/STAGE1_OUT*%
X179389000Y-105029000D03*
%TO.P,IC2,2,-INA_2*%
%TO.N,Net-(IC2--INA)*%
X179389000Y-106299000D03*
%TO.P,IC2,3,+INA_3*%
%TO.N,Net-(IC2-+INA)*%
X179389000Y-107569000D03*
%TO.P,IC2,4,V-_4*%
%TO.N,GND*%
X179389000Y-108839000D03*
%TO.P,IC2,5,+INB_5*%
%TO.N,Net-(IC2-+INB)*%
X184339000Y-108839000D03*
%TO.P,IC2,6,-INB_6*%
%TO.N,Net-(IC2--INB)*%
X184339000Y-107569000D03*
%TO.P,IC2,7,OUTB_7*%
%TO.N,Net-(D2-A)*%
X184339000Y-106299000D03*
%TO.P,IC2,8,V+_8*%
%TO.N,+3V3*%
X184339000Y-105029000D03*
%TD*%
D49*
%TO.P,SW_reset1,1,1_1*%
%TO.N,Net-(U1-EN)*%
X184570000Y-76997000D03*
X184570000Y-71847000D03*
%TO.P,SW_reset1,2,2_2*%
%TO.N,GND*%
X186270000Y-76997000D03*
X186270000Y-71847000D03*
%TD*%
D19*
%TO.P,R41,1*%
%TO.N,Net-(U1-IO0)*%
X171106500Y-106172000D03*
%TO.P,R41,2*%
%TO.N,+3V3*%
X172301500Y-106172000D03*
%TD*%
D29*
%TO.P,R40,1*%
%TO.N,Net-(U1-EN)*%
X187198000Y-81115500D03*
%TO.P,R40,2*%
%TO.N,+3V3*%
X187198000Y-79920500D03*
%TD*%
D10*
%TO.P,R_UART1,1*%
%TO.N,/TMC_UART*%
X185509500Y-81026000D03*
%TO.P,R_UART1,2*%
%TO.N,Net-(J10-Pin_4)*%
X184314500Y-81026000D03*
%TD*%
D50*
%TO.P,C33,1*%
%TO.N,GND*%
X170180000Y-104327999D03*
%TO.P,C33,2*%
%TO.N,+3V3*%
X170180000Y-102428001D03*
%TD*%
D10*
%TO.P,R37,1*%
%TO.N,GND*%
X162461501Y-108204000D03*
%TO.P,R37,2*%
%TO.N,Net-(IC1--INA)*%
X161266501Y-108204000D03*
%TD*%
D51*
%TO.P,C11,1*%
%TO.N,+3V3*%
X165608000Y-73152000D03*
%TO.P,C11,2*%
%TO.N,GND*%
X165608000Y-76032000D03*
%TD*%
D52*
%TO.P,R12,1*%
%TO.N,+3V3*%
X116671504Y-115350496D03*
%TO.P,R12,2*%
%TO.N,Net-(J12-Pin_2)*%
X117516496Y-114505504D03*
%TD*%
D53*
%TO.P,D7,1,A_1*%
%TO.N,Net-(D7-A)*%
X108458001Y-88797501D03*
%TO.P,D7,2,NC_2*%
%TO.N,unconnected-(D7-NC-Pad2)*%
X108458001Y-86897501D03*
%TO.P,D7,3,K_3*%
%TO.N,Net-(D7-K)*%
X106583000Y-87847501D03*
%TD*%
D10*
%TO.P,R17,1*%
%TO.N,Net-(J13-CC1)*%
X171491500Y-75936001D03*
%TO.P,R17,2*%
%TO.N,GND*%
X170296500Y-75936001D03*
%TD*%
D54*
%TO.P,C_env1,1*%
%TO.N,/UAS_ADC*%
X187424000Y-104902000D03*
%TO.P,C_env1,2*%
%TO.N,GND*%
X186464000Y-104902000D03*
%TD*%
D55*
%TO.P,D6,1,K_1*%
%TO.N,+5V*%
X167974000Y-72126001D03*
%TO.P,D6,2,A_2*%
%TO.N,Net-(D6-A)*%
X171274000Y-72126001D03*
%TD*%
D19*
%TO.P,R_PDN_UP1,1*%
%TO.N,Net-(J10-Pin_4)*%
X184314500Y-79502000D03*
%TO.P,R_PDN_UP1,2*%
%TO.N,+3V3*%
X185509500Y-79502000D03*
%TD*%
D40*
%TO.P,C22,1*%
%TO.N,GND*%
X187646500Y-78740000D03*
%TO.P,C22,2*%
%TO.N,+3V3*%
X188781500Y-78740000D03*
%TD*%
D56*
%TO.P,C24,1*%
%TO.N,+3V3*%
X160086001Y-97790000D03*
%TO.P,C24,2*%
%TO.N,GND*%
X161985999Y-97790000D03*
%TD*%
D57*
%TO.P,J9,1,Pin_1_1*%
%TO.N,GND*%
X153416000Y-110998000D03*
D12*
%TO.P,J9,2,Pin_2_2*%
%TO.N,+3V3*%
X150876000Y-110998000D03*
%TO.P,J9,3,Pin_3_3*%
%TO.N,GND*%
X153416000Y-108458000D03*
%TO.P,J9,4,Pin_4_4*%
%TO.N,+5V*%
X150876000Y-108458000D03*
%TO.P,J9,5,Pin_5_5*%
%TO.N,/SPI_MOSI*%
X153416000Y-105918001D03*
%TO.P,J9,6,Pin_6_6*%
%TO.N,/SPI_MISO*%
X150876000Y-105918000D03*
%TO.P,J9,7,Pin_7_7*%
%TO.N,/SPI_CLK*%
X153416000Y-103378000D03*
%TO.P,J9,8,Pin_8_8*%
%TO.N,/TFT_CS*%
X150876000Y-103378000D03*
%TO.P,J9,9,Pin_9_9*%
%TO.N,/TFT_DC*%
X153416000Y-100838000D03*
%TO.P,J9,10,Pin_10_10*%
%TO.N,/TFT_RST*%
X150876000Y-100838000D03*
%TO.P,J9,11,Pin_11_11*%
%TO.N,/TOUCH_CS*%
X153416000Y-98298000D03*
%TO.P,J9,12,Pin_12_12*%
%TO.N,/TOUCH_IRQ*%
X150876000Y-98298000D03*
%TO.P,J9,13,Pin_13_13*%
%TO.N,/EC11_A (CLK)*%
X153416000Y-95758000D03*
%TO.P,J9,14,Pin_14_14*%
%TO.N,/EC11_B (DT)*%
X150876000Y-95758000D03*
%TO.P,J9,15,Pin_15_15*%
%TO.N,/EC11_SW*%
X153416000Y-93217999D03*
%TO.P,J9,16,Pin_16_16*%
%TO.N,/BTN1*%
X150876000Y-93218000D03*
%TO.P,J9,17,Pin_17_17*%
%TO.N,/BTN2*%
X153416000Y-90678000D03*
%TO.P,J9,18,Pin_18_18*%
%TO.N,/BUZ_PWM*%
X150876000Y-90678000D03*
%TO.P,J9,19,Pin_19_19*%
%TO.N,GND*%
X153416000Y-88138000D03*
%TO.P,J9,20,Pin_20_20*%
%TO.N,unconnected-(J9-Pin_20-Pad20)*%
X150876000Y-88138000D03*
%TD*%
D53*
%TO.P,D3,1,K_1*%
%TO.N,GND*%
X191691500Y-105852000D03*
%TO.P,D3,2,A_2*%
%TO.N,+3V3*%
X191691500Y-103952000D03*
%TO.P,D3,3,K_3*%
%TO.N,/UAS_ADC*%
X189816499Y-104902000D03*
%TD*%
D52*
%TO.P,R9,1*%
%TO.N,+3V3*%
X117100508Y-117008496D03*
%TO.P,R9,2*%
%TO.N,/M2_EN*%
X117945500Y-116163504D03*
%TD*%
D58*
%TO.P,J5,1,Pin_1_1*%
%TO.N,/M2_A2*%
X101854000Y-110196000D03*
D59*
%TO.P,J5,2,Pin_2_2*%
%TO.N,unconnected-(J5-Pin_2-Pad2)*%
X101854000Y-107696000D03*
%TO.P,J5,3,Pin_3_3*%
%TO.N,/M2_A1*%
X101854000Y-105196000D03*
%TO.P,J5,4,Pin_4_4*%
%TO.N,/M2_B1*%
X101854000Y-102696000D03*
%TO.P,J5,5,Pin_5_5*%
%TO.N,unconnected-(J5-Pin_5-Pad5)*%
X101854000Y-100196000D03*
%TO.P,J5,6,Pin_6_6*%
%TO.N,/M2_B2*%
X101854000Y-97696000D03*
%TD*%
D27*
%TO.P,C23,1*%
%TO.N,+3V3*%
X158562001Y-98357500D03*
%TO.P,C23,2*%
%TO.N,GND*%
X158562001Y-97222500D03*
%TD*%
D19*
%TO.P,R33,1*%
%TO.N,Net-(IC1-OUTA)*%
X158726501Y-108204000D03*
%TO.P,R33,2*%
%TO.N,Net-(IC1--INA)*%
X159921501Y-108204000D03*
%TD*%
D10*
%TO.P,R18,1*%
%TO.N,Net-(J13-CC2)*%
X171491500Y-74200000D03*
%TO.P,R18,2*%
%TO.N,GND*%
X170296500Y-74200000D03*
%TD*%
D60*
%TO.P,J7,1,Pin_1_1*%
%TO.N,GND*%
X168377501Y-86360000D03*
D61*
%TO.P,J7,2,Pin_2_2*%
%TO.N,/LIMIT_M2*%
X168377501Y-83860000D03*
%TD*%
D62*
%TO.P,J3,1,Pin_1_1*%
%TO.N,GND*%
X164353501Y-92456000D03*
D63*
%TO.P,J3,2,Pin_2_2*%
%TO.N,/UART_RX*%
X166853501Y-92456000D03*
%TO.P,J3,3,Pin_3_3*%
%TO.N,/UART_TX*%
X169353501Y-92456000D03*
%TD*%
D26*
%TO.P,Cbuckout1,1*%
%TO.N,+5V*%
X146050000Y-80966500D03*
%TO.P,Cbuckout1,2*%
%TO.N,GND*%
X146050000Y-82101500D03*
%TD*%
D28*
%TO.P,C39,1*%
%TO.N,+24V*%
X112796000Y-111880000D03*
%TO.P,C39,2*%
%TO.N,GND*%
X115296000Y-111880000D03*
%TD*%
D19*
%TO.P,R28,1*%
%TO.N,+3V3*%
X173736000Y-105918000D03*
%TO.P,R28,2*%
%TO.N,Net-(IC2-+INA)*%
X174931000Y-105918000D03*
%TD*%
D60*
%TO.P,J8,1,Pin_1_1*%
%TO.N,+5V*%
X149860000Y-76454000D03*
D61*
%TO.P,J8,2,Pin_2_2*%
%TO.N,GND*%
X149860000Y-73954000D03*
%TD*%
D64*
%TO.P,U4,1,COMP_1*%
%TO.N,Net-(U4-COMP)*%
X169232000Y-99552000D03*
%TO.P,U4,2,VDD_2*%
%TO.N,+3V3*%
X169232000Y-99052000D03*
%TO.P,U4,3,CAP/2.5V_3*%
%TO.N,Net-(U4-CAP{slash}2.5V)*%
X169232000Y-98552000D03*
%TO.P,U4,4,DGND_4*%
%TO.N,GND*%
X169232000Y-98052000D03*
%TO.P,U4,5,MCLK_5*%
%TO.N,unconnected-(U4-MCLK-Pad5)*%
X169232000Y-97552000D03*
%TO.P,U4,6,SDATA_6*%
%TO.N,/SPI_MOSI*%
X165032000Y-97552000D03*
%TO.P,U4,7,SCLK_7*%
%TO.N,/SPI_CLK*%
X165032000Y-98052000D03*
%TO.P,U4,8,~{FSYNC}_8*%
%TO.N,/AD9833_SC*%
X165032000Y-98552000D03*
%TO.P,U4,9,AGND_9*%
%TO.N,GND*%
X165032000Y-99052000D03*
%TO.P,U4,10,VOUT_10*%
%TO.N,/TX_AMP_IN*%
X165032000Y-99552000D03*
%TD*%
D27*
%TO.P,Cbuck1,1*%
%TO.N,+24V*%
X120142001Y-86225001D03*
%TO.P,Cbuck1,2*%
%TO.N,GND*%
X120142001Y-85090001D03*
%TD*%
D40*
%TO.P,C17,1*%
%TO.N,/LIMIT_M1*%
X162754499Y-80264000D03*
%TO.P,C17,2*%
%TO.N,GND*%
X163889499Y-80264000D03*
%TD*%
D31*
%TO.P,C41,1*%
%TO.N,Net-(U1-IO0)*%
X169477500Y-106172000D03*
%TO.P,C41,2*%
%TO.N,GND*%
X168342500Y-106172000D03*
%TD*%
D11*
%TO.P,J15,1,Pin_1_1*%
%TO.N,+24V*%
X107950000Y-114151211D03*
D12*
%TO.P,J15,2,Pin_2_2*%
%TO.N,GND*%
X107950000Y-111611211D03*
%TO.P,J15,3,Pin_3_3*%
%TO.N,/M2_A2*%
X107950000Y-109071212D03*
%TO.P,J15,4,Pin_4_4*%
%TO.N,/M2_A1*%
X107950000Y-106531211D03*
%TO.P,J15,5,Pin_5_5*%
%TO.N,/M2_B1*%
X107950000Y-103991211D03*
%TO.P,J15,6,Pin_6_6*%
%TO.N,/M2_B2*%
X107950000Y-101451211D03*
%TO.P,J15,7,Pin_7_7*%
%TO.N,+3V3*%
X107950000Y-98911211D03*
%TO.P,J15,8,Pin_8_8*%
%TO.N,GND*%
X107950000Y-96371210D03*
%TD*%
D40*
%TO.P,C_adc1,1*%
%TO.N,/UAS_ADC*%
X190948500Y-102362000D03*
%TO.P,C_adc1,2*%
%TO.N,GND*%
X192083500Y-102362000D03*
%TD*%
D65*
%TO.P,D4,1,K_1*%
%TO.N,Net-(D4-K)*%
X131857999Y-76200000D03*
%TO.P,D4,2,A_2*%
%TO.N,GND*%
X135858001Y-76200000D03*
%TD*%
D29*
%TO.P,R27,1*%
%TO.N,Net-(IC2--INB)*%
X188214000Y-111397000D03*
%TO.P,R27,2*%
%TO.N,Net-(D2-A)*%
X188214000Y-110202000D03*
%TD*%
D27*
%TO.P,C10,1*%
%TO.N,Net-(U1-EN)*%
X188468000Y-81085500D03*
%TO.P,C10,2*%
%TO.N,GND*%
X188468000Y-79950500D03*
%TD*%
%TO.P,C30,1*%
%TO.N,Net-(U4-CAP{slash}2.5V)*%
X171196000Y-98552000D03*
%TO.P,C30,2*%
%TO.N,GND*%
X171196000Y-97417000D03*
%TD*%
D11*
%TO.P,J10,1,Pin_1_1*%
%TO.N,/M1_EN*%
X144526000Y-114111211D03*
D12*
%TO.P,J10,2,Pin_2_2*%
%TO.N,GND*%
X144526000Y-111571211D03*
%TO.P,J10,3,Pin_3_3*%
X144526000Y-109031212D03*
%TO.P,J10,4,Pin_4_4*%
%TO.N,Net-(J10-Pin_4)*%
X144526000Y-106491211D03*
%TO.P,J10,5,Pin_5_5*%
%TO.N,unconnected-(J10-Pin_5-Pad5)*%
X144526000Y-103951211D03*
%TO.P,J10,6,Pin_6_6*%
%TO.N,GND*%
X144526000Y-101411211D03*
%TO.P,J10,7,Pin_7_7*%
%TO.N,/M1_STEP*%
X144526000Y-98871211D03*
%TO.P,J10,8,Pin_8_8*%
%TO.N,/M1_DIR*%
X144526000Y-96331210D03*
%TD*%
D28*
%TO.P,C19,1*%
%TO.N,+5V*%
X142494000Y-76708000D03*
%TO.P,C19,2*%
%TO.N,GND*%
X142494000Y-73208000D03*
%TD*%
D58*
%TO.P,J4,1,Pin_1_1*%
%TO.N,/M1_A2*%
X125730000Y-110116000D03*
D59*
%TO.P,J4,2,Pin_2_2*%
%TO.N,unconnected-(J4-Pin_2-Pad2)*%
X125730000Y-107616000D03*
%TO.P,J4,3,Pin_3_3*%
%TO.N,/M1_A1*%
X125730000Y-105116000D03*
%TO.P,J4,4,Pin_4_4*%
%TO.N,/M1_B1*%
X125730000Y-102616000D03*
%TO.P,J4,5,Pin_5_5*%
%TO.N,unconnected-(J4-Pin_5-Pad5)*%
X125730000Y-100116000D03*
%TO.P,J4,6,Pin_6_6*%
%TO.N,/M1_B2*%
X125730000Y-97616000D03*
%TD*%
D11*
%TO.P,J11,1,Pin_1_1*%
%TO.N,+24V*%
X131826000Y-114111211D03*
D12*
%TO.P,J11,2,Pin_2_2*%
%TO.N,GND*%
X131826000Y-111571211D03*
%TO.P,J11,3,Pin_3_3*%
%TO.N,/M1_A2*%
X131826000Y-109031212D03*
%TO.P,J11,4,Pin_4_4*%
%TO.N,/M1_A1*%
X131826000Y-106491211D03*
%TO.P,J11,5,Pin_5_5*%
%TO.N,/M1_B1*%
X131826000Y-103951211D03*
%TO.P,J11,6,Pin_6_6*%
%TO.N,/M1_B2*%
X131826000Y-101411211D03*
%TO.P,J11,7,Pin_7_7*%
%TO.N,+3V3*%
X131826000Y-98871211D03*
%TO.P,J11,8,Pin_8_8*%
%TO.N,GND*%
X131826000Y-96331210D03*
%TD*%
D10*
%TO.P,R_env1,1*%
%TO.N,/UAS_ADC*%
X187795500Y-106172000D03*
%TO.P,R_env1,2*%
%TO.N,GND*%
X186600500Y-106172000D03*
%TD*%
D31*
%TO.P,C21,1*%
%TO.N,/STAGE1_OUT*%
X177416500Y-103378000D03*
%TO.P,C21,2*%
%TO.N,Net-(IC2-+INB)*%
X176281500Y-103378000D03*
%TD*%
D66*
%TO.P,C34,1*%
%TO.N,GND*%
X168402000Y-103096000D03*
%TO.P,C34,2*%
%TO.N,Net-(U4-COMP)*%
X168402000Y-102136000D03*
%TD*%
D22*
%TO.P,R19,1*%
%TO.N,+5V*%
X144780000Y-80936500D03*
%TO.P,R19,2*%
%TO.N,GND*%
X144780000Y-82131500D03*
%TD*%
D60*
%TO.P,J6,1,Pin_1_1*%
%TO.N,GND*%
X160577500Y-86360000D03*
D61*
%TO.P,J6,2,Pin_2_2*%
%TO.N,/LIMIT_M1*%
X160577500Y-83860000D03*
%TD*%
D52*
%TO.P,R1,1*%
%TO.N,+3V3*%
X140547504Y-115260996D03*
%TO.P,R1,2*%
%TO.N,/M1_EN*%
X141392496Y-114416004D03*
%TD*%
D14*
%TO.P,IC1,1,OUTA_1*%
%TO.N,Net-(IC1-OUTA)*%
X158689001Y-105853000D03*
%TO.P,IC1,2,-INA_2*%
%TO.N,Net-(IC1--INA)*%
X159959001Y-105853000D03*
%TO.P,IC1,3,+INA_3*%
%TO.N,Net-(IC1-+INA)*%
X161229001Y-105853000D03*
%TO.P,IC1,4,V-_4*%
%TO.N,GND*%
X162499001Y-105853000D03*
%TO.P,IC1,5,+INB_5*%
%TO.N,Net-(IC1-+INA)*%
X162499001Y-100903000D03*
%TO.P,IC1,6,-INB_6*%
%TO.N,Net-(IC1--INB)*%
X161229001Y-100903000D03*
%TO.P,IC1,7,OUTB_7*%
X159959001Y-100903000D03*
%TO.P,IC1,8,V+_8*%
%TO.N,+3V3*%
X158689001Y-100903000D03*
%TD*%
D29*
%TO.P,R_in1,1*%
%TO.N,Net-(J2-In)*%
X176197500Y-110899499D03*
%TO.P,R_in1,2*%
%TO.N,/RX_AMP_IN*%
X176197500Y-109704499D03*
%TD*%
D67*
%TO.P,U3,1,GND_1*%
%TO.N,GND*%
X155346000Y-72376000D03*
%TO.P,U3,2,VO_2*%
%TO.N,+3V3*%
X155346001Y-74676000D03*
D68*
X161645999Y-74676000D03*
D67*
%TO.P,U3,3,VI_3*%
%TO.N,+5V*%
X155346000Y-76976000D03*
%TD*%
D21*
%TO.P,C13,1*%
%TO.N,+24V*%
X110850717Y-114526717D03*
%TO.P,C13,2*%
%TO.N,GND*%
X111653283Y-115329283D03*
%TD*%
D22*
%TO.P,R38,1*%
%TO.N,+3V3*%
X167132000Y-103542500D03*
%TO.P,R38,2*%
%TO.N,Net-(IC1-+INA)*%
X167132000Y-104737500D03*
%TD*%
D69*
%TO.N,/M2_EN*%
X172085000Y-87757000D03*
X165100000Y-88046000D03*
D70*
%TO.N,GND*%
X156718000Y-115062000D03*
X156706000Y-101618000D03*
X138176000Y-95250000D03*
X163068000Y-95716000D03*
D69*
X192024000Y-106426000D03*
D70*
X124206000Y-78486000D03*
X114300000Y-90932000D03*
X115316000Y-75660001D03*
X145034000Y-92710000D03*
X137166451Y-94234000D03*
X136182450Y-96266000D03*
X153892001Y-85852000D03*
X169672000Y-75946000D03*
X108165550Y-90932000D03*
X118618000Y-96152864D03*
X119373549Y-76313136D03*
X146050000Y-88677999D03*
X161798000Y-95716000D03*
X155924001Y-84074000D03*
X137166451Y-95250000D03*
X136144000Y-115570000D03*
X115347999Y-79756000D03*
X111220001Y-90932000D03*
X108204000Y-71374000D03*
X156718000Y-71628000D03*
X148844000Y-85344000D03*
X128571550Y-97028000D03*
X145034000Y-88677999D03*
X156706000Y-112014000D03*
X112268000Y-92202000D03*
X145034000Y-87630000D03*
D69*
X165608000Y-77470000D03*
D70*
X125228451Y-77832865D03*
X146050000Y-92710000D03*
D69*
X171958000Y-103886000D03*
D70*
X145034000Y-91662001D03*
X156706000Y-116332000D03*
X156718000Y-117602000D03*
D69*
X174622821Y-78140001D03*
D70*
X123190000Y-75075135D03*
X113245550Y-92202000D03*
X120396000Y-76313136D03*
D69*
X163322000Y-108204000D03*
D70*
X136906000Y-74530865D03*
X123190000Y-74422000D03*
X115347999Y-76962000D03*
D69*
X192024000Y-102870000D03*
D70*
X140208000Y-95250000D03*
X146050000Y-85344000D03*
X141224000Y-93472000D03*
X146050000Y-87630000D03*
X142494000Y-92710000D03*
X109220000Y-73406000D03*
X117386450Y-96152864D03*
X109220000Y-72027135D03*
X142487549Y-94234000D03*
X129587550Y-96266000D03*
X143764000Y-91700451D03*
X119411999Y-76962000D03*
X108165550Y-92202000D03*
X109220000Y-72675999D03*
X146050000Y-93694001D03*
X115316000Y-78454001D03*
X158496000Y-81026000D03*
X135890000Y-74530865D03*
X145034000Y-93694001D03*
X118618000Y-95504000D03*
D69*
X185928000Y-104902000D03*
D70*
X116332000Y-76313136D03*
X169672000Y-74168000D03*
X116332000Y-78454001D03*
D69*
X184150000Y-102870000D03*
D70*
X156718000Y-99060000D03*
X191516000Y-81788000D03*
X117379999Y-76962000D03*
X116332000Y-79756000D03*
X125530001Y-95441000D03*
X160020000Y-79102865D03*
X153892001Y-84074000D03*
X138176000Y-94234000D03*
X110197550Y-92202000D03*
X109220000Y-92202000D03*
X119411999Y-77692001D03*
X165608000Y-95716000D03*
X116300001Y-90932000D03*
D69*
X112268000Y-115824000D03*
D70*
X127562001Y-96266000D03*
X156706000Y-102634000D03*
X110197550Y-90932000D03*
X120076000Y-84114501D03*
X119380000Y-78454001D03*
X135883549Y-75946000D03*
D69*
X178667146Y-102764854D03*
D70*
X120396000Y-77692001D03*
X117379999Y-80486001D03*
X108235999Y-72675999D03*
X120396000Y-80486001D03*
X114300000Y-92202000D03*
X118364000Y-78454001D03*
X156706000Y-108712000D03*
X138214450Y-96266000D03*
X136906000Y-75946000D03*
D69*
X165354000Y-80264000D03*
D70*
X118364000Y-76962000D03*
D69*
X165862000Y-101600000D03*
D70*
X135128000Y-95250000D03*
X169418000Y-95716000D03*
D69*
X186690000Y-112522000D03*
D70*
X151892000Y-84074000D03*
X156706000Y-103618001D03*
X156706000Y-106426000D03*
X123196451Y-78486000D03*
D69*
X170434000Y-97952000D03*
D70*
X157257999Y-82042000D03*
D69*
X164592000Y-80264000D03*
D70*
X109220000Y-90932000D03*
X115347999Y-77692001D03*
D69*
X163830000Y-77216000D03*
X191516000Y-101600000D03*
D70*
X137166451Y-96266000D03*
X154940000Y-84074000D03*
X141224000Y-95250000D03*
X158527999Y-82042000D03*
X186270000Y-74422000D03*
X108197549Y-72027135D03*
D69*
X164846000Y-77470000D03*
D70*
X191770000Y-77724000D03*
X141224000Y-94234000D03*
X118364000Y-75660001D03*
X191516000Y-81026000D03*
X136144000Y-95250000D03*
X154940000Y-85852000D03*
X135128000Y-94234000D03*
X116332000Y-75660001D03*
X157480000Y-72390000D03*
X145034000Y-89662000D03*
D69*
X183134000Y-112014000D03*
D70*
X134874000Y-75184000D03*
X143764000Y-88646000D03*
X125228451Y-78486000D03*
X129587550Y-97028000D03*
X109220000Y-71374000D03*
X140208000Y-94234000D03*
X146050000Y-84328000D03*
D69*
X170180000Y-105156000D03*
D70*
X142487549Y-95250000D03*
X118364000Y-79107136D03*
D69*
X167386000Y-110094612D03*
D70*
X129587550Y-97790000D03*
X120396000Y-75660001D03*
X156718000Y-72390000D03*
X135883549Y-75184000D03*
X120396000Y-79756000D03*
D69*
X183627648Y-102410949D03*
X180881178Y-78140000D03*
D70*
X152908000Y-84074000D03*
D69*
X158496000Y-96012000D03*
D70*
X110490000Y-89154000D03*
X139198451Y-94234000D03*
X107188000Y-90932000D03*
X136144000Y-94234000D03*
D69*
X168402000Y-103886000D03*
D70*
X136906000Y-75184000D03*
X168148000Y-95716000D03*
X150907999Y-85852000D03*
X117341549Y-76313136D03*
X136652000Y-73660000D03*
X115309549Y-76313136D03*
X111220001Y-92202000D03*
X118364000Y-79756000D03*
X119411999Y-80486001D03*
X139198451Y-96266000D03*
D69*
X177800000Y-108712000D03*
D70*
X115347999Y-80486001D03*
X156718000Y-96012000D03*
X139198451Y-95250000D03*
X143764000Y-92710000D03*
X117348000Y-95504000D03*
X146050000Y-89662000D03*
X124206000Y-74422000D03*
X160020000Y-79756000D03*
X112268000Y-90932000D03*
X123190000Y-95504000D03*
X150907999Y-84074000D03*
X143764000Y-89668451D03*
X145034000Y-86360000D03*
X118618000Y-96882865D03*
X118364000Y-80486001D03*
X117379999Y-77692001D03*
X120396000Y-76962000D03*
X125222000Y-74422000D03*
X128571550Y-96266000D03*
X143764000Y-90678000D03*
X128571550Y-95441000D03*
X117341549Y-79107136D03*
X117348000Y-75660001D03*
X143764000Y-93732451D03*
X123196451Y-77832865D03*
X155924001Y-85852000D03*
X117348000Y-78454001D03*
X148844000Y-84074000D03*
X157226000Y-81026000D03*
X126578000Y-95441000D03*
D69*
X163830000Y-99060000D03*
D70*
X142494000Y-91700451D03*
X134874000Y-74530865D03*
X120396000Y-79107136D03*
X116332000Y-79107136D03*
X157226000Y-84074000D03*
X120396000Y-78454001D03*
D69*
X185928000Y-106172000D03*
X163068000Y-97790000D03*
D70*
X141224000Y-96266000D03*
D69*
X172974000Y-107188000D03*
D70*
X107188000Y-92202000D03*
X115277550Y-92202000D03*
D69*
X175498538Y-105164664D03*
D70*
X157480000Y-71628000D03*
X144780000Y-83058000D03*
X124237999Y-95504000D03*
X119411999Y-79756000D03*
X116332000Y-76962000D03*
X151892000Y-85852000D03*
X159512000Y-81057999D03*
X189230000Y-80264000D03*
X116332000Y-77692001D03*
X164338000Y-95716000D03*
X152908000Y-85852000D03*
X115277550Y-90932000D03*
D69*
X171196000Y-96520000D03*
D70*
X124199549Y-75075135D03*
X119373549Y-79107136D03*
X146013248Y-83094752D03*
X118364000Y-77692001D03*
X166878000Y-95716000D03*
X187706000Y-77978000D03*
X146050000Y-90678000D03*
D69*
X171450000Y-108712000D03*
D70*
X142487549Y-96266000D03*
X125222000Y-75075135D03*
X145034000Y-90678000D03*
D69*
X163322000Y-105918000D03*
D70*
X146050000Y-91662001D03*
X118364000Y-76313136D03*
X127562001Y-95441000D03*
X117379999Y-79756000D03*
X124212451Y-77832865D03*
X157226000Y-83058000D03*
D69*
X166308003Y-77470000D03*
D70*
X119380000Y-75660001D03*
X113245550Y-90932000D03*
X134874000Y-75946000D03*
X117386450Y-96882865D03*
D69*
X167386000Y-106172000D03*
D70*
X129587550Y-95441000D03*
X140208000Y-96266000D03*
X116332000Y-80486001D03*
X142487549Y-93472000D03*
X115309549Y-79107136D03*
X149860000Y-84074000D03*
X146050000Y-86360000D03*
%TO.N,Net-(J10-Pin_4)*%
X183896000Y-80518000D03*
D69*
%TO.N,/M2_STEP*%
X177546000Y-80172000D03*
X166116000Y-85610000D03*
X174244000Y-80264000D03*
X163576000Y-86614000D03*
X122936000Y-101197211D03*
%TO.N,/M2_DIR*%
X165100000Y-86868000D03*
X171958000Y-86360000D03*
%TO.N,+3V3*%
X157734000Y-73406000D03*
D70*
X186732000Y-79248000D03*
D69*
X159004000Y-75438000D03*
X171704000Y-106934000D03*
X169926000Y-100584000D03*
X171450000Y-110744000D03*
X157734000Y-75438000D03*
X159004000Y-76454000D03*
D70*
X189393752Y-79084248D03*
D69*
X116332000Y-115824000D03*
X159004000Y-73406000D03*
X116586000Y-117348000D03*
X167132000Y-102616000D03*
X159512000Y-99314000D03*
X192024000Y-104648000D03*
D70*
X189853373Y-79543869D03*
D69*
X157734000Y-76454000D03*
D70*
X185420000Y-78740000D03*
D69*
X184912000Y-104140000D03*
D70*
X190312993Y-80003491D03*
D69*
X157734000Y-74422000D03*
X159004000Y-74422000D03*
X183134000Y-110490000D03*
D70*
X140081000Y-115697000D03*
D69*
X173736000Y-105156000D03*
D70*
%TO.N,+24V*%
X127755549Y-88283135D03*
X122428000Y-89662000D03*
X127793999Y-88931999D03*
X126746000Y-88283135D03*
X121443999Y-89662000D03*
X123444000Y-87630000D03*
X125723549Y-88283135D03*
X124460000Y-88931999D03*
X128778000Y-89662000D03*
X126746000Y-89662000D03*
X127762000Y-87630000D03*
X123475999Y-88931999D03*
X122428000Y-88283135D03*
X124460000Y-88283135D03*
X125730000Y-87630000D03*
X123437549Y-88283135D03*
X121412000Y-87630000D03*
X123475999Y-89662000D03*
X126746000Y-88931999D03*
X128778000Y-87630000D03*
X122428000Y-87630000D03*
X121412000Y-88931999D03*
X134694789Y-114111211D03*
X122428000Y-88931999D03*
X125761999Y-88931999D03*
X126746000Y-87630000D03*
X124460000Y-87630000D03*
X121412000Y-88283135D03*
X127793999Y-89662000D03*
X128778000Y-88283135D03*
D69*
X110524789Y-114151211D03*
D70*
X128778000Y-88931999D03*
%TO.N,+5V*%
X143002000Y-78740000D03*
X144272000Y-80010000D03*
X143700500Y-79438500D03*
X142494000Y-78232000D03*
D69*
%TO.N,/LIMIT_M2*%
X182626000Y-81788000D03*
D70*
%TO.N,Net-(J13-CC1)*%
X177293957Y-78995957D03*
X171450000Y-76962000D03*
D69*
%TO.N,/M1_STEP*%
X186436000Y-84074000D03*
%TO.N,/M1_DIR*%
X185166000Y-84074000D03*
%TO.N,/M1_EN*%
X183887640Y-81808028D03*
X146812000Y-115824000D03*
%TO.N,/EC11_A (CLK)*%
X181229000Y-84201000D03*
%TO.N,/EC11_B (DT)*%
X180086000Y-81880000D03*
%TO.N,/EC11_SW*%
X178816000Y-81788000D03*
%TO.N,/BTN1*%
X172720000Y-89789000D03*
%TO.N,/BTN2*%
X172720000Y-90986000D03*
%TO.N,/BUZ_PWM*%
X172720000Y-92456000D03*
%TO.N,/TOUCH_IRQ*%
X172662154Y-94412000D03*
%TO.N,/SPI_MOSI*%
X166878000Y-98044000D03*
X176234578Y-101841422D03*
%TO.N,/SPI_CLK*%
X163068000Y-96866000D03*
X177546000Y-101600000D03*
%TO.N,/SPI_MISO*%
X178816000Y-101600000D03*
%TO.N,/AD9833_SC*%
X167640000Y-98644000D03*
X180086000Y-101600000D03*
%TO.N,/TFT_CS*%
X181312735Y-101643265D03*
%TO.N,/TFT_DC*%
X182539835Y-101600363D03*
%TO.N,/TFT_RST*%
X183852735Y-101643265D03*
%TO.N,/TOUCH_CS*%
X185166000Y-101600000D03*
%TD*%
%TO.N,Net-(IC2--INA)*%
D71*
X179389000Y-106299000D02*
X178689000Y-106299000D01*
X178435000Y-106045000D02*
X177446500Y-106045000D01*
X177446500Y-106045000D02*
X177446500Y-104648000D01*
X178689000Y-106299000D02*
X178435000Y-106045000D01*
%TO.N,/STAGE1_OUT*%
X177738000Y-103378000D02*
X177416500Y-103378000D01*
X179389000Y-105029000D02*
X177738000Y-103378000D01*
X176251500Y-104648000D02*
X176251500Y-104543000D01*
X176251500Y-104543000D02*
X177416500Y-103378000D01*
%TO.N,/M2_EN*%
X172847000Y-88519000D02*
X173756000Y-88519000D01*
X165100000Y-88046000D02*
X163230000Y-89916000D01*
X155594000Y-95104000D02*
X155594000Y-116440000D01*
X154285999Y-117748000D02*
X123786314Y-117748000D01*
X172085000Y-87757000D02*
X172847000Y-88519000D01*
X160782000Y-89916000D02*
X155594000Y-95104000D01*
X123786314Y-117748000D02*
X120650000Y-114611686D01*
X120650000Y-114151211D02*
X118637707Y-116163504D01*
X120650000Y-114611686D02*
X120650000Y-114151211D01*
X163230000Y-89916000D02*
X160782000Y-89916000D01*
X155594000Y-116440000D02*
X154285999Y-117748000D01*
X118637707Y-116163504D02*
X117945500Y-116163504D01*
%TO.N,Net-(J12-Pin_2)*%
X120410789Y-111611211D02*
X120650000Y-111611211D01*
X117516496Y-114505504D02*
X120410789Y-111611211D01*
%TO.N,GND*%
X163838000Y-99052000D02*
X163830000Y-99060000D01*
X158562001Y-96078001D02*
X158496000Y-96012000D01*
X170334000Y-98052000D02*
X170434000Y-97952000D01*
X111653283Y-115329283D02*
X111773283Y-115329283D01*
D72*
X165608000Y-76032000D02*
X165608000Y-77020000D01*
D71*
X186464000Y-104902000D02*
X185928000Y-104902000D01*
X186600500Y-106172000D02*
X185928000Y-106172000D01*
X144780000Y-82131500D02*
X144780000Y-83058000D01*
X169681999Y-75936001D02*
X169672000Y-75946000D01*
X176251500Y-106045000D02*
X176251500Y-105917626D01*
X169704000Y-74200000D02*
X169672000Y-74168000D01*
X187646500Y-78740000D02*
X187646500Y-78037500D01*
X179644001Y-102870000D02*
X178772292Y-102870000D01*
X167386000Y-110094612D02*
X164811000Y-110094612D01*
D73*
X157480000Y-72390000D02*
X156718000Y-71628000D01*
D71*
X191516000Y-100444000D02*
X191516000Y-101600000D01*
X183871500Y-112014000D02*
X183134000Y-112014000D01*
X178772292Y-102870000D02*
X178667146Y-102764854D01*
X169961000Y-110094612D02*
X167386000Y-110094612D01*
X171958000Y-103183500D02*
X171958000Y-103886000D01*
X168402000Y-103096000D02*
X168402000Y-103886000D01*
X192083500Y-102810500D02*
X192024000Y-102870000D01*
X161985999Y-97790000D02*
X163068000Y-97790000D01*
X111773283Y-115329283D02*
X112268000Y-115824000D01*
D74*
X135441500Y-73660000D02*
X136652000Y-73660000D01*
D71*
X170180000Y-104327999D02*
X170180000Y-105156000D01*
X166116000Y-80264000D02*
X165354000Y-80264000D01*
X170296500Y-75936001D02*
X169681999Y-75936001D01*
X146050000Y-83058000D02*
X146013248Y-83094752D01*
D74*
X191957999Y-78740000D02*
X191957999Y-77911999D01*
D71*
X176251500Y-105917626D02*
X175498538Y-105164664D01*
X191691500Y-105852000D02*
X191691500Y-106093500D01*
X171196000Y-97417000D02*
X171196000Y-96520000D01*
X186270000Y-71847000D02*
X186270000Y-74422000D01*
X110490000Y-88392000D02*
X110490000Y-89154000D01*
D74*
X164846000Y-77470000D02*
X166308003Y-77470000D01*
D71*
X181002000Y-77187001D02*
X181002000Y-78019178D01*
X160020000Y-79102865D02*
X160020000Y-79756000D01*
X192083500Y-102362000D02*
X192083500Y-102810500D01*
X188916500Y-79950500D02*
X189230000Y-80264000D01*
X163257000Y-105853000D02*
X163322000Y-105918000D01*
D73*
X155970000Y-72376000D02*
X156718000Y-71628000D01*
D71*
X183134000Y-102302500D02*
X183519199Y-102302500D01*
X120142000Y-85090000D02*
X120142001Y-84180502D01*
D75*
X123581000Y-74813000D02*
X123444000Y-74676000D01*
D71*
X183519199Y-102302500D02*
X183627648Y-102410949D01*
X135756000Y-115182000D02*
X136144000Y-115570000D01*
X181002000Y-78019178D02*
X180881178Y-78140000D01*
X146050000Y-82101500D02*
X146050000Y-83058000D01*
D73*
X157480000Y-71628000D02*
X157480000Y-72390000D01*
D74*
X191516000Y-81788000D02*
X191516000Y-81026000D01*
D71*
X169232000Y-98052000D02*
X170334000Y-98052000D01*
D73*
X156718000Y-71628000D02*
X156718000Y-72390000D01*
D71*
X158562001Y-97222500D02*
X158562001Y-96078001D01*
X165032000Y-99052000D02*
X163838000Y-99052000D01*
X173735999Y-107188000D02*
X172974000Y-107188000D01*
D74*
X191516000Y-82944000D02*
X191516000Y-81788000D01*
D71*
X186270000Y-74422000D02*
X186270000Y-76997000D01*
D75*
X127121000Y-78213000D02*
X123463000Y-78213000D01*
D71*
X186690000Y-111994500D02*
X186690000Y-112522000D01*
X165862000Y-102526500D02*
X165862000Y-101600000D01*
D74*
X191957999Y-77911999D02*
X191770000Y-77724000D01*
D75*
X127121000Y-74813000D02*
X123581000Y-74813000D01*
D71*
X170296500Y-74200000D02*
X169704000Y-74200000D01*
X174502000Y-77187001D02*
X174502000Y-78019180D01*
X163889499Y-80264000D02*
X164592000Y-80264000D01*
X187646500Y-78037500D02*
X187706000Y-77978000D01*
X191691500Y-106093500D02*
X192024000Y-106426000D01*
D75*
X158666000Y-79502000D02*
X159766000Y-79502000D01*
D73*
X156718000Y-72390000D02*
X157480000Y-72390000D01*
D71*
X171516000Y-108778000D02*
X171450000Y-108712000D01*
X174502000Y-78019180D02*
X174622821Y-78140001D01*
X188468000Y-79950500D02*
X188916500Y-79950500D01*
D75*
X123463000Y-78213000D02*
X123444000Y-78232000D01*
D71*
X177927000Y-108839000D02*
X179389000Y-108839000D01*
X163830000Y-76540000D02*
X163830000Y-77216000D01*
D73*
X156718000Y-71628000D02*
X157480000Y-71628000D01*
X155346000Y-72376000D02*
X155970000Y-72376000D01*
D71*
X162499001Y-105853000D02*
X163257000Y-105853000D01*
X135743283Y-115182000D02*
X135756000Y-115182000D01*
X162461501Y-108204000D02*
X163322000Y-108204000D01*
X172798500Y-108778000D02*
X171516000Y-108778000D01*
X184814998Y-102870000D02*
X184150000Y-102870000D01*
X177800000Y-108712000D02*
X177927000Y-108839000D01*
X168342500Y-106172000D02*
X167386000Y-106172000D01*
%TO.N,Net-(J10-Pin_4)*%
X184314500Y-81026000D02*
X184314500Y-79502000D01*
X183896000Y-80518000D02*
X184314500Y-80936500D01*
X184314500Y-80936500D02*
X184314500Y-81026000D01*
%TO.N,/M2_STEP*%
X122936000Y-101197211D02*
X122936000Y-115316000D01*
X173990000Y-80264000D02*
X169244000Y-85010000D01*
X174244000Y-80264000D02*
X173990000Y-80264000D01*
X122936000Y-115316000D02*
X124460000Y-116840000D01*
X154794000Y-116108628D02*
X154794000Y-94634000D01*
X169244000Y-85010000D02*
X166716000Y-85010000D01*
X154062628Y-116840000D02*
X154794000Y-116108628D01*
X177546000Y-80172000D02*
X177546000Y-82944000D01*
X162814000Y-86614000D02*
X163576000Y-86614000D01*
X124460000Y-116840000D02*
X154062628Y-116840000D01*
X166716000Y-85010000D02*
X166116000Y-85610000D01*
X154794000Y-94634000D02*
X162814000Y-86614000D01*
%TO.N,/M2_DIR*%
X122174000Y-97895210D02*
X120650000Y-96371210D01*
X154120314Y-117348000D02*
X123952000Y-117348000D01*
X162452000Y-89516000D02*
X160616314Y-89516000D01*
X122174000Y-115570000D02*
X122174000Y-97895210D01*
X160616314Y-89516000D02*
X155194000Y-94938315D01*
X155194000Y-94938315D02*
X155194000Y-116274314D01*
X173756000Y-87249000D02*
X172847000Y-87249000D01*
X172847000Y-87249000D02*
X171958000Y-86360000D01*
X155194000Y-116274314D02*
X154120314Y-117348000D01*
X123952000Y-117348000D02*
X122174000Y-115570000D01*
X165100000Y-86868000D02*
X162452000Y-89516000D01*
%TO.N,+3V3*%
X169232000Y-99052000D02*
X170032432Y-99052000D01*
X173736000Y-105918000D02*
X173736000Y-105156000D01*
X170679938Y-100584000D02*
X169926000Y-100584000D01*
X158689001Y-99314000D02*
X158689001Y-99187000D01*
X140081000Y-115697000D02*
X140517004Y-115260996D01*
X167132000Y-103542500D02*
X167132000Y-102616000D01*
X117100508Y-117008496D02*
X116925504Y-117008496D01*
X183134000Y-103437500D02*
X182111499Y-103437500D01*
X158689001Y-100903000D02*
X158689001Y-99314000D01*
X159004000Y-75438000D02*
X159004000Y-76454000D01*
X159004000Y-74422000D02*
X159004000Y-75438000D01*
X140517004Y-115260996D02*
X140547504Y-115260996D01*
X170679938Y-100584000D02*
X170679938Y-101928063D01*
X191691500Y-104315500D02*
X192024000Y-104648000D01*
X171958000Y-100977568D02*
X170679938Y-99699506D01*
X187198000Y-79920500D02*
X187198000Y-79714000D01*
X158689001Y-98484500D02*
X158562001Y-98357500D01*
X116671504Y-115484496D02*
X116332000Y-115824000D01*
X172212000Y-106934000D02*
X172301500Y-106844500D01*
X190058001Y-82756001D02*
X190246000Y-82944000D01*
X171958000Y-102048500D02*
X171958000Y-100977568D01*
X159004000Y-73406000D02*
X159004000Y-74422000D01*
X170679938Y-101928063D02*
X170180000Y-102428001D01*
D73*
X190246000Y-80204500D02*
X190246000Y-82944000D01*
D71*
X183871500Y-110490000D02*
X183134000Y-110490000D01*
X157734000Y-75438000D02*
X157734000Y-76454000D01*
X185509500Y-79502000D02*
X185509500Y-78829500D01*
X185509500Y-78829500D02*
X185420000Y-78740000D01*
X189853373Y-79543869D02*
X189853373Y-79543871D01*
X191691500Y-103952000D02*
X191691500Y-104315500D01*
X183673000Y-104363000D02*
X183134000Y-103824000D01*
X116925504Y-117008496D02*
X116586000Y-117348000D01*
X184339000Y-105029000D02*
X183673000Y-104363000D01*
X116671504Y-115350496D02*
X116671504Y-115484496D01*
X182111499Y-103437500D02*
X181543999Y-102870000D01*
X157734000Y-73406000D02*
X157734000Y-74422000D01*
X183134000Y-103824000D02*
X183134000Y-103437500D01*
X170032432Y-99052000D02*
X170679938Y-99699506D01*
X187198000Y-79714000D02*
X186732000Y-79248000D01*
X171516000Y-110678000D02*
X171450000Y-110744000D01*
X188781500Y-78740000D02*
X189049504Y-78740000D01*
X170679938Y-99699506D02*
X170679938Y-100584000D01*
X183896000Y-104140000D02*
X184912000Y-104140000D01*
X157734000Y-74422000D02*
X157734000Y-75438000D01*
X172301500Y-106844500D02*
X172301500Y-106172000D01*
X172798500Y-110678000D02*
X171516000Y-110678000D01*
X189853373Y-79543871D02*
X190312993Y-80003491D01*
X183673000Y-104363000D02*
X183896000Y-104140000D01*
X158689001Y-99314000D02*
X159512000Y-99314000D01*
X158689001Y-100903000D02*
X158689001Y-98484500D01*
X171704000Y-106934000D02*
X172212000Y-106934000D01*
X158689001Y-99187000D02*
X160086001Y-97790000D01*
%TO.N,Net-(D7-A)*%
D75*
X110490000Y-87197000D02*
X110490000Y-85914000D01*
X110106842Y-87197000D02*
X110490000Y-87197000D01*
X108506341Y-88797501D02*
X110106842Y-87197000D01*
X110490000Y-85914000D02*
X108585000Y-84009000D01*
X108458001Y-88797501D02*
X108506341Y-88797501D01*
%TO.N,Net-(J2-In)*%
D71*
X176276000Y-116072000D02*
X176276000Y-110977999D01*
X176276000Y-110977999D02*
X176197500Y-110899499D01*
%TO.N,Net-(IC2-+INA)*%
X176197500Y-107382500D02*
X176724500Y-107382500D01*
X175125499Y-107382500D02*
X174930999Y-107188000D01*
X176911000Y-107569000D02*
X179389000Y-107569000D01*
X176197500Y-107382500D02*
X175125499Y-107382500D01*
X176724500Y-107382500D02*
X176911000Y-107569000D01*
X174931000Y-106116000D02*
X176197500Y-107382500D01*
X174931000Y-105918000D02*
X174931000Y-106116000D01*
%TO.N,Net-(LED_stat1-A)*%
X187287500Y-103467500D02*
X186690000Y-102870000D01*
X188468000Y-103467500D02*
X187287500Y-103467500D01*
%TO.N,+24V*%
X134940717Y-114379434D02*
X134940717Y-114357139D01*
X110850717Y-114477139D02*
X110524789Y-114151211D01*
X134940717Y-114357139D02*
X134694789Y-114111211D01*
X110850717Y-114526717D02*
X110850717Y-114477139D01*
%TO.N,Net-(IC2-+INB)*%
X179482762Y-104429000D02*
X180404552Y-104429000D01*
X176281500Y-103378000D02*
X176891500Y-102768000D01*
X176891500Y-102768000D02*
X177821762Y-102768000D01*
X180404552Y-104429000D02*
X183064000Y-107088448D01*
X183064000Y-107088448D02*
X183064000Y-108538999D01*
X183364001Y-108839000D02*
X184339000Y-108839000D01*
X185066500Y-112014000D02*
X185066500Y-109566500D01*
X183064000Y-108538999D02*
X183364001Y-108839000D01*
X185066500Y-109566500D02*
X184339000Y-108839000D01*
X177821762Y-102768000D02*
X179482762Y-104429000D01*
%TO.N,Net-(IC1-+INA)*%
X165862000Y-103721500D02*
X165384000Y-103721500D01*
X167132000Y-104737500D02*
X166878000Y-104737500D01*
X164592000Y-102929500D02*
X163177502Y-102929500D01*
X163177502Y-102929500D02*
X161229001Y-104878001D01*
X166878000Y-104737500D02*
X165862000Y-103721500D01*
X164525501Y-102929500D02*
X162499001Y-100903000D01*
X164592000Y-102929500D02*
X164525501Y-102929500D01*
X161229001Y-104878001D02*
X161229001Y-105853000D01*
X165384000Y-103721500D02*
X164592000Y-102929500D01*
%TO.N,+5V*%
D73*
X160705700Y-78320000D02*
X166660085Y-78320000D01*
X160095999Y-77710299D02*
X160705700Y-78320000D01*
X166660085Y-78320000D02*
X167974000Y-77006085D01*
X156080299Y-77710299D02*
X160095999Y-77710299D01*
X155346000Y-76976000D02*
X156080299Y-77710299D01*
X167974000Y-77006085D02*
X167974000Y-72126001D01*
%TO.N,Net-(C27-Pad1)*%
D71*
X159921501Y-109474000D02*
X159921501Y-110714000D01*
X159921501Y-110714000D02*
X159891501Y-110744000D01*
%TO.N,/TX_OUT*%
X159518501Y-111506000D02*
X160913000Y-111506000D01*
X164084000Y-114677000D02*
X164084000Y-116072000D01*
X160913000Y-111506000D02*
X164084000Y-114677000D01*
X158756501Y-110744000D02*
X159518501Y-111506000D01*
%TO.N,Net-(D4-K)*%
D74*
X131482500Y-75824501D02*
X131857999Y-76200000D01*
X131482500Y-73660000D02*
X131482500Y-75824501D01*
%TO.N,Net-(Csnub1-Pad1)*%
X132677500Y-73660000D02*
X134306500Y-73660000D01*
%TO.N,/UAS_ADC*%
D71*
X187795500Y-106172000D02*
X187795500Y-105273500D01*
X190948500Y-102362000D02*
X190246000Y-101659500D01*
X189738000Y-104823501D02*
X189738000Y-103572500D01*
X190118000Y-108204000D02*
X189827500Y-108204000D01*
X189738000Y-103572500D02*
X190948500Y-102362000D01*
X189816499Y-104902000D02*
X189738000Y-104823501D01*
X190246000Y-101659500D02*
X190246000Y-100444000D01*
X189827500Y-108204000D02*
X187795500Y-106172000D01*
X187424000Y-104902000D02*
X189816499Y-104902000D01*
X187795500Y-105273500D02*
X187424000Y-104902000D01*
%TO.N,Net-(D2-A)*%
X186818000Y-108806000D02*
X188214000Y-110202000D01*
X184913000Y-106299000D02*
X186818000Y-108204000D01*
X186818000Y-108204000D02*
X186818000Y-108806000D01*
X184339000Y-106299000D02*
X184913000Y-106299000D01*
%TO.N,Net-(IC1-OUTA)*%
X158689001Y-109436500D02*
X158726501Y-109474000D01*
X158689001Y-105853000D02*
X158689001Y-109436500D01*
%TO.N,/LIMIT_M2*%
X182626000Y-82944000D02*
X182626000Y-81788000D01*
X167251000Y-80264000D02*
X167251000Y-82733499D01*
X167251000Y-82733499D02*
X168377501Y-83860000D01*
%TO.N,Net-(U1-IO0)*%
X170180000Y-106680000D02*
X169961000Y-106899000D01*
X175006000Y-102272500D02*
X171106500Y-106172000D01*
X175006000Y-100444000D02*
X175006000Y-102272500D01*
X169961000Y-106899000D02*
X169961000Y-108394612D01*
X170180000Y-106172000D02*
X170180000Y-106680000D01*
X169961000Y-108394612D02*
X164811000Y-108394612D01*
X170180000Y-106172000D02*
X169477500Y-106172000D01*
X171106500Y-106172000D02*
X170180000Y-106172000D01*
%TO.N,/RX_AMP_IN*%
X174697002Y-109704499D02*
X174673501Y-109728000D01*
X176197500Y-109704499D02*
X174697002Y-109704499D01*
X174673501Y-109728000D02*
X175884001Y-108517500D01*
X175884001Y-108517500D02*
X176197500Y-108517500D01*
%TO.N,Net-(IC2--INB)*%
X184684552Y-107569000D02*
X184339000Y-107569000D01*
X187616500Y-110799500D02*
X188214000Y-111397000D01*
X188214000Y-111397000D02*
X185614000Y-108797000D01*
X186690000Y-110799500D02*
X187616500Y-110799500D01*
X185614000Y-108797000D02*
X185614000Y-108498448D01*
X185614000Y-108498448D02*
X184684552Y-107569000D01*
%TO.N,Net-(D6-A)*%
D74*
X179105000Y-75473000D02*
X179578000Y-75946000D01*
X176241000Y-75473000D02*
X175768000Y-75946000D01*
D71*
X175301999Y-77187001D02*
X175301999Y-76412001D01*
D74*
X177510999Y-75473000D02*
X179105000Y-75473000D01*
X175993999Y-73956000D02*
X177510999Y-75473000D01*
X171274000Y-72757896D02*
X172472104Y-73956000D01*
D71*
X180202001Y-76570001D02*
X179578000Y-75946000D01*
D74*
X177510999Y-75473000D02*
X176241000Y-75473000D01*
D71*
X180202001Y-77187001D02*
X180202001Y-76570001D01*
X175301999Y-76412001D02*
X175768000Y-75946000D01*
D74*
X172472104Y-73956000D02*
X175993999Y-73956000D01*
X171274000Y-72126001D02*
X171274000Y-72757896D01*
%TO.N,Net-(J13-CC1)*%
D71*
X179002000Y-78010096D02*
X178016139Y-78995957D01*
X171450000Y-76962000D02*
X171450000Y-75977501D01*
X179002000Y-77187000D02*
X179002000Y-78010096D01*
X171450000Y-75977501D02*
X171491500Y-75936001D01*
X178016139Y-78995957D02*
X177293957Y-78995957D01*
%TO.N,/USB_D+*%
X177269590Y-76162001D02*
X177734410Y-76162001D01*
X177734410Y-76162001D02*
X178002000Y-76429591D01*
X177002000Y-77944410D02*
X177002000Y-77187001D01*
X178002000Y-76429591D02*
X178002000Y-77187001D01*
X175006000Y-79940410D02*
X177002000Y-77944410D01*
X177002000Y-76429591D02*
X177269590Y-76162001D01*
X175006000Y-82944000D02*
X175006000Y-79940410D01*
X177002000Y-77187001D02*
X177002000Y-76429591D01*
%TO.N,/USB_D-*%
X176276000Y-82944000D02*
X176276000Y-79236096D01*
X176276000Y-79236096D02*
X176397048Y-79115048D01*
X177502000Y-78010096D02*
X177502000Y-77187001D01*
X178234410Y-78212001D02*
X178502000Y-77944411D01*
X178502000Y-77944411D02*
X178502000Y-77187001D01*
X176397048Y-79115048D02*
X177502000Y-78010096D01*
X177703905Y-78212001D02*
X178234410Y-78212001D01*
X177502000Y-78010096D02*
X177703905Y-78212001D01*
%TO.N,Net-(J13-CC2)*%
X176002000Y-77912000D02*
X176002000Y-77187001D01*
X171491500Y-74200000D02*
X172632000Y-75340500D01*
X174218628Y-78740000D02*
X175174000Y-78740000D01*
X172632000Y-75340500D02*
X172632000Y-77153372D01*
X172632000Y-77153372D02*
X174218628Y-78740000D01*
X175174000Y-78740000D02*
X176002000Y-77912000D01*
%TO.N,/status_LED*%
X188976000Y-101764500D02*
X188468000Y-102272500D01*
X188976000Y-100444000D02*
X188976000Y-101764500D01*
%TO.N,/TX_AMP_IN*%
X164592000Y-99992000D02*
X164592000Y-101794500D01*
X165032000Y-99552000D02*
X164592000Y-99992000D01*
%TO.N,Net-(U1-EN)*%
X184570000Y-76997000D02*
X184570000Y-71847000D01*
X188976000Y-81593500D02*
X188976000Y-82944000D01*
X186182000Y-80099500D02*
X187198000Y-81115500D01*
X188498000Y-81115500D02*
X188976000Y-81593500D01*
X184570000Y-76997000D02*
X186182000Y-78609000D01*
X186182000Y-78609000D02*
X186182000Y-80099500D01*
X187198000Y-81115500D02*
X188498000Y-81115500D01*
%TO.N,/TMC_UART*%
X187706000Y-81994000D02*
X187485000Y-81773000D01*
X187706000Y-82944000D02*
X187706000Y-81994000D01*
X187485000Y-81773000D02*
X186256500Y-81773000D01*
X186256500Y-81773000D02*
X185509500Y-81026000D01*
%TO.N,/M1_STEP*%
X186436000Y-84074000D02*
X186436000Y-82944000D01*
%TO.N,/M1_DIR*%
X185166000Y-84074000D02*
X185166000Y-82944000D01*
%TO.N,/M1_EN*%
X141697289Y-114111211D02*
X141392496Y-114416004D01*
X144526000Y-114111211D02*
X141697289Y-114111211D01*
X183887640Y-81808028D02*
X183887640Y-82935640D01*
X183887640Y-82935640D02*
X183896000Y-82944000D01*
X146812000Y-115824000D02*
X145099211Y-114111211D01*
X145099211Y-114111211D02*
X144526000Y-114111211D01*
%TO.N,/EC11_A (CLK)*%
X181356000Y-82944000D02*
X181356000Y-84074000D01*
X181356000Y-84074000D02*
X181229000Y-84201000D01*
%TO.N,/EC11_B (DT)*%
X180086000Y-81880000D02*
X180086000Y-82944000D01*
%TO.N,/EC11_SW*%
X178816000Y-82944000D02*
X178816000Y-81788000D01*
%TO.N,/BTN1*%
X172720000Y-89789000D02*
X173756000Y-89789000D01*
%TO.N,/BTN2*%
X172793000Y-91059000D02*
X173756000Y-91059000D01*
X172720000Y-90986000D02*
X172793000Y-91059000D01*
%TO.N,/BUZ_PWM*%
X172720000Y-92456000D02*
X172847000Y-92329000D01*
X172847000Y-92329000D02*
X173756000Y-92329000D01*
%TO.N,/LIMIT_M1*%
X172847000Y-93599000D02*
X163108000Y-83860000D01*
X173756000Y-93599000D02*
X172847000Y-93599000D01*
X162754499Y-80264000D02*
X162754499Y-81683001D01*
X163108000Y-83860000D02*
X160577500Y-83860000D01*
X162754499Y-81683001D02*
X160577500Y-83860000D01*
%TO.N,/TOUCH_IRQ*%
X172662154Y-94412000D02*
X173119153Y-94869000D01*
X173119153Y-94869000D02*
X173756000Y-94869000D01*
%TO.N,/UART_TX*%
X173756000Y-96139000D02*
X172806000Y-96139000D01*
X172806000Y-96139000D02*
X169353501Y-92686501D01*
X169353501Y-92686501D02*
X169353501Y-92456000D01*
%TO.N,/UART_RX*%
X173756000Y-97409000D02*
X172933529Y-97409000D01*
X172933529Y-97409000D02*
X170266529Y-94742000D01*
X170266529Y-94742000D02*
X169139501Y-94742000D01*
X169139501Y-94742000D02*
X166853501Y-92456000D01*
%TO.N,/SPI_MOSI*%
X166386000Y-97552000D02*
X166878000Y-98044000D01*
X176276000Y-101800000D02*
X176234578Y-101841422D01*
X165032000Y-97552000D02*
X166386000Y-97552000D01*
X176276000Y-100444000D02*
X176276000Y-101800000D01*
%TO.N,/SPI_CLK*%
X165032000Y-98052000D02*
X164231568Y-98052000D01*
X164231568Y-98052000D02*
X163068000Y-96888432D01*
X163068000Y-96888432D02*
X163068000Y-96866000D01*
X177546000Y-100444000D02*
X177546000Y-101600000D01*
%TO.N,/SPI_MISO*%
X178816000Y-100444000D02*
X178816000Y-101600000D01*
%TO.N,/AD9833_SC*%
X166370000Y-98552000D02*
X165032000Y-98552000D01*
X180086000Y-100444000D02*
X180086000Y-101600000D01*
X167582560Y-98701440D02*
X166519440Y-98701440D01*
X167640000Y-98644000D02*
X167582560Y-98701440D01*
X166519440Y-98701440D02*
X166370000Y-98552000D01*
%TO.N,/TFT_CS*%
X181356000Y-100444000D02*
X181356000Y-101600000D01*
X181356000Y-101600000D02*
X181312735Y-101643265D01*
%TO.N,/TFT_DC*%
X182626000Y-100444000D02*
X182626000Y-101514198D01*
X182626000Y-101514198D02*
X182539835Y-101600363D01*
%TO.N,/TFT_RST*%
X183896000Y-100444000D02*
X183896000Y-101600000D01*
X183896000Y-101600000D02*
X183852735Y-101643265D01*
%TO.N,/TOUCH_CS*%
X185166000Y-100444000D02*
X185166000Y-101600000D01*
%TO.N,Net-(IC1--INA)*%
X161266501Y-108204000D02*
X159959001Y-106896500D01*
X159959001Y-106896500D02*
X159959001Y-105853000D01*
X159921501Y-108204000D02*
X161266501Y-108204000D01*
%TO.N,Net-(U4-COMP)*%
X169232000Y-99552000D02*
X168402000Y-100382000D01*
X168402000Y-100382000D02*
X168402000Y-102136000D01*
%TO.N,Net-(U4-CAP{slash}2.5V)*%
X169232000Y-98552000D02*
X171196000Y-98552000D01*
%TO.N,Net-(IC1--INB)*%
X159959001Y-100903000D02*
X161229001Y-100903000D01*
%TD*%
%TA.AperFunction,Conductor*%
%TO.N,GND*%
G36*
X156712388Y-88677475D02*
G01*
X156712389Y-88677952D01*
X156712389Y-88678372D01*
X156712625Y-91814766D01*
X156692945Y-91881807D01*
X156676306Y-91902456D01*
X154944521Y-93634242D01*
X154883198Y-93667727D01*
X154813506Y-93662743D01*
X154757573Y-93620871D01*
X154733156Y-93555407D01*
X154734367Y-93527163D01*
X154766500Y-93324285D01*
X154766500Y-93111712D01*
X154733246Y-92901756D01*
X154667557Y-92699587D01*
X154571051Y-92510183D01*
X154571049Y-92510180D01*
X154571048Y-92510178D01*
X154446109Y-92338212D01*
X154295786Y-92187889D01*
X154123817Y-92062948D01*
X154115054Y-92058483D01*
X154064258Y-92010508D01*
X154047464Y-91942687D01*
X154070002Y-91876552D01*
X154115058Y-91837513D01*
X154123816Y-91833051D01*
X154148983Y-91814766D01*
X154295786Y-91708109D01*
X154295788Y-91708106D01*
X154295792Y-91708104D01*
X154446104Y-91557792D01*
X154446106Y-91557788D01*
X154446109Y-91557786D01*
X154571048Y-91385820D01*
X154571047Y-91385820D01*
X154571051Y-91385816D01*
X154667557Y-91196412D01*
X154733246Y-90994243D01*
X154766500Y-90784287D01*
X154766500Y-90571713D01*
X154733246Y-90361757D01*
X154667557Y-90159588D01*
X154571051Y-89970184D01*
X154571049Y-89970181D01*
X154571048Y-89970179D01*
X154446109Y-89798213D01*
X154295786Y-89647890D01*
X154123820Y-89522951D01*
X153934414Y-89426444D01*
X153934413Y-89426443D01*
X153934412Y-89426443D01*
X153732243Y-89360754D01*
X153732241Y-89360753D01*
X153732240Y-89360753D01*
X153570957Y-89335208D01*
X153522287Y-89327500D01*
X153309713Y-89327500D01*
X153261042Y-89335208D01*
X153099760Y-89360753D01*
X152897585Y-89426444D01*
X152708179Y-89522951D01*
X152536213Y-89647890D01*
X152385890Y-89798213D01*
X152260949Y-89970182D01*
X152256484Y-89978946D01*
X152208509Y-90029742D01*
X152140688Y-90046536D01*
X152074553Y-90023998D01*
X152035516Y-89978946D01*
X152031050Y-89970182D01*
X151906109Y-89798213D01*
X151755786Y-89647890D01*
X151583820Y-89522951D01*
X151583115Y-89522591D01*
X151575054Y-89518485D01*
X151524259Y-89470512D01*
X151507463Y-89402692D01*
X151529999Y-89336556D01*
X151575054Y-89297515D01*
X151583816Y-89293051D01*
X151605789Y-89277086D01*
X151755786Y-89168109D01*
X151755788Y-89168106D01*
X151755792Y-89168104D01*
X151906104Y-89017792D01*
X151906106Y-89017788D01*
X151906109Y-89017786D01*
X152031048Y-88845820D01*
X152031047Y-88845820D01*
X152031051Y-88845816D01*
X152127557Y-88656412D01*
X152193246Y-88454243D01*
X152226500Y-88244287D01*
X152226500Y-88031713D01*
X152193246Y-87821757D01*
X152127557Y-87619588D01*
X152031051Y-87430184D01*
X152031049Y-87430181D01*
X152031048Y-87430179D01*
X151906109Y-87258213D01*
X151755786Y-87107890D01*
X151583820Y-86982951D01*
X151394414Y-86886444D01*
X151394413Y-86886443D01*
X151394412Y-86886443D01*
X151192243Y-86820754D01*
X151192241Y-86820753D01*
X151192240Y-86820753D01*
X151030957Y-86795208D01*
X150982287Y-86787500D01*
X150769713Y-86787500D01*
X150721042Y-86795208D01*
X150559760Y-86820753D01*
X150357585Y-86886444D01*
X150168179Y-86982951D01*
X149996213Y-87107890D01*
X149845890Y-87258213D01*
X149720951Y-87430179D01*
X149624444Y-87619585D01*
X149558753Y-87821760D01*
X149525500Y-88031713D01*
X149525500Y-88244286D01*
X149543360Y-88357053D01*
X149558754Y-88454243D01*
X149620767Y-88645099D01*
X149624444Y-88656414D01*
X149720951Y-88845820D01*
X149845890Y-89017786D01*
X149996213Y-89168109D01*
X150168182Y-89293050D01*
X150176946Y-89297516D01*
X150227742Y-89345491D01*
X150244536Y-89413312D01*
X150221998Y-89479447D01*
X150176946Y-89518484D01*
X150168182Y-89522949D01*
X149996213Y-89647890D01*
X149845890Y-89798213D01*
X149720951Y-89970179D01*
X149624444Y-90159585D01*
X149558753Y-90361760D01*
X149525500Y-90571713D01*
X149525500Y-90784286D01*
X149558753Y-90994239D01*
X149624444Y-91196414D01*
X149720951Y-91385820D01*
X149845890Y-91557786D01*
X149996213Y-91708109D01*
X150168182Y-91833050D01*
X150176946Y-91837516D01*
X150227742Y-91885491D01*
X150244536Y-91953312D01*
X150221998Y-92019447D01*
X150176946Y-92058484D01*
X150168182Y-92062949D01*
X149996213Y-92187890D01*
X149845890Y-92338213D01*
X149720951Y-92510179D01*
X149624444Y-92699585D01*
X149558753Y-92901760D01*
X149525500Y-93111713D01*
X149525500Y-93324286D01*
X149557632Y-93527163D01*
X149558754Y-93534243D01*
X149600506Y-93662743D01*
X149624444Y-93736414D01*
X149720951Y-93925820D01*
X149845890Y-94097786D01*
X149996213Y-94248109D01*
X150168182Y-94373050D01*
X150176946Y-94377516D01*
X150227742Y-94425491D01*
X150244536Y-94493312D01*
X150221998Y-94559447D01*
X150176946Y-94598484D01*
X150168182Y-94602949D01*
X149996213Y-94727890D01*
X149845890Y-94878213D01*
X149720951Y-95050179D01*
X149624444Y-95239585D01*
X149624443Y-95239587D01*
X149624443Y-95239588D01*
X149599480Y-95316415D01*
X149558753Y-95441760D01*
X149525500Y-95651713D01*
X149525500Y-95864286D01*
X149549365Y-96014967D01*
X149558754Y-96074243D01*
X149620897Y-96265500D01*
X149624444Y-96276414D01*
X149720951Y-96465820D01*
X149845890Y-96637786D01*
X149996213Y-96788109D01*
X150168182Y-96913050D01*
X150176946Y-96917516D01*
X150227742Y-96965491D01*
X150244536Y-97033312D01*
X150221998Y-97099447D01*
X150176946Y-97138484D01*
X150168182Y-97142949D01*
X149996213Y-97267890D01*
X149845890Y-97418213D01*
X149720951Y-97590179D01*
X149624444Y-97779585D01*
X149558753Y-97981760D01*
X149525500Y-98191713D01*
X149525500Y-98404286D01*
X149555701Y-98594971D01*
X149558754Y-98614243D01*
X149620710Y-98804924D01*
X149624444Y-98816414D01*
X149720951Y-99005820D01*
X149845890Y-99177786D01*
X149996213Y-99328109D01*
X150168182Y-99453050D01*
X150176946Y-99457516D01*
X150227742Y-99505491D01*
X150244536Y-99573312D01*
X150221998Y-99639447D01*
X150176946Y-99678484D01*
X150168182Y-99682949D01*
X149996213Y-99807890D01*
X149845890Y-99958213D01*
X149720951Y-100130180D01*
X149655302Y-100259022D01*
X149607327Y-100309818D01*
X149544826Y-100326727D01*
X145159975Y-100327058D01*
X145092934Y-100307378D01*
X145047176Y-100254578D01*
X145037227Y-100185420D01*
X145066247Y-100121862D01*
X145103669Y-100092574D01*
X145233816Y-100026262D01*
X145327485Y-99958208D01*
X145405786Y-99901320D01*
X145405788Y-99901317D01*
X145405792Y-99901315D01*
X145556104Y-99751003D01*
X145556106Y-99750999D01*
X145556109Y-99750997D01*
X145681048Y-99579031D01*
X145681047Y-99579031D01*
X145681051Y-99579027D01*
X145777557Y-99389623D01*
X145843246Y-99187454D01*
X145876500Y-98977498D01*
X145876500Y-98764924D01*
X145843246Y-98554968D01*
X145777557Y-98352799D01*
X145681051Y-98163395D01*
X145681049Y-98163392D01*
X145681048Y-98163390D01*
X145556109Y-97991424D01*
X145405786Y-97841101D01*
X145233817Y-97716160D01*
X145225052Y-97711694D01*
X145174257Y-97663719D01*
X145157462Y-97595898D01*
X145180000Y-97529763D01*
X145225056Y-97490724D01*
X145233816Y-97486261D01*
X145233818Y-97486259D01*
X145233821Y-97486258D01*
X145405786Y-97361319D01*
X145405788Y-97361316D01*
X145405792Y-97361314D01*
X145556104Y-97211002D01*
X145556106Y-97210998D01*
X145556109Y-97210996D01*
X145681048Y-97039030D01*
X145681047Y-97039030D01*
X145681051Y-97039026D01*
X145777557Y-96849622D01*
X145843246Y-96647453D01*
X145876500Y-96437497D01*
X145876500Y-96224923D01*
X145843246Y-96014967D01*
X145777557Y-95812798D01*
X145681051Y-95623394D01*
X145681049Y-95623391D01*
X145681048Y-95623389D01*
X145556109Y-95451423D01*
X145405786Y-95301100D01*
X145233820Y-95176161D01*
X145044414Y-95079654D01*
X145044413Y-95079653D01*
X145044412Y-95079653D01*
X144842243Y-95013964D01*
X144842241Y-95013963D01*
X144842240Y-95013963D01*
X144680957Y-94988418D01*
X144632287Y-94980710D01*
X144419713Y-94980710D01*
X144371042Y-94988418D01*
X144209760Y-95013963D01*
X144007585Y-95079654D01*
X143818179Y-95176161D01*
X143646213Y-95301100D01*
X143495890Y-95451423D01*
X143370951Y-95623389D01*
X143274444Y-95812795D01*
X143208753Y-96014970D01*
X143176335Y-96219650D01*
X143175500Y-96224923D01*
X143175500Y-96437497D01*
X143179215Y-96460951D01*
X143207223Y-96637792D01*
X143208754Y-96647453D01*
X143254454Y-96788104D01*
X143274444Y-96849624D01*
X143370951Y-97039030D01*
X143495890Y-97210996D01*
X143646213Y-97361319D01*
X143818179Y-97486258D01*
X143818181Y-97486259D01*
X143818184Y-97486261D01*
X143826945Y-97490724D01*
X143877741Y-97538698D01*
X143894537Y-97606518D01*
X143872001Y-97672654D01*
X143826950Y-97711692D01*
X143818187Y-97716157D01*
X143818184Y-97716159D01*
X143646213Y-97841101D01*
X143495890Y-97991424D01*
X143370951Y-98163390D01*
X143274444Y-98352796D01*
X143208753Y-98554971D01*
X143175500Y-98764924D01*
X143175500Y-98977497D01*
X143207223Y-99177792D01*
X143208754Y-99187454D01*
X143254454Y-99328104D01*
X143274444Y-99389625D01*
X143370951Y-99579031D01*
X143495890Y-99750997D01*
X143646213Y-99901320D01*
X143795406Y-100009713D01*
X143818184Y-100026262D01*
X143929682Y-100083073D01*
X143948515Y-100092669D01*
X143999311Y-100140644D01*
X144016106Y-100208465D01*
X143993569Y-100274600D01*
X143938853Y-100318051D01*
X143892229Y-100327154D01*
X132672995Y-100328000D01*
X132654167Y-100322473D01*
X132634555Y-100321894D01*
X132610646Y-100309697D01*
X132605954Y-100308320D01*
X132602897Y-100306291D01*
X132601471Y-100305314D01*
X132533816Y-100256160D01*
X132517892Y-100248046D01*
X132511260Y-100243502D01*
X132494049Y-100222413D01*
X132474259Y-100203723D01*
X132472282Y-100195742D01*
X132467083Y-100189371D01*
X132464005Y-100162321D01*
X132457463Y-100135903D01*
X132460114Y-100128121D01*
X132459185Y-100119949D01*
X132471219Y-100095532D01*
X132479999Y-100069767D01*
X132486840Y-100063839D01*
X132490074Y-100057278D01*
X132504270Y-100048735D01*
X132525054Y-100030726D01*
X132533816Y-100026262D01*
X132627485Y-99958208D01*
X132705786Y-99901320D01*
X132705788Y-99901317D01*
X132705792Y-99901315D01*
X132856104Y-99751003D01*
X132856106Y-99750999D01*
X132856109Y-99750997D01*
X132981048Y-99579031D01*
X132981047Y-99579031D01*
X132981051Y-99579027D01*
X133077557Y-99389623D01*
X133143246Y-99187454D01*
X133176500Y-98977498D01*
X133176500Y-98764924D01*
X133143246Y-98554968D01*
X133077557Y-98352799D01*
X132981051Y-98163395D01*
X132981049Y-98163392D01*
X132981048Y-98163390D01*
X132856109Y-97991424D01*
X132705786Y-97841101D01*
X132533820Y-97716162D01*
X132344414Y-97619655D01*
X132344413Y-97619654D01*
X132344412Y-97619654D01*
X132142243Y-97553965D01*
X132142241Y-97553964D01*
X132142240Y-97553964D01*
X131967309Y-97526258D01*
X131932287Y-97520711D01*
X131719713Y-97520711D01*
X131684691Y-97526258D01*
X131509760Y-97553964D01*
X131307585Y-97619655D01*
X131118179Y-97716162D01*
X130946213Y-97841101D01*
X130795890Y-97991424D01*
X130670951Y-98163390D01*
X130574444Y-98352796D01*
X130508753Y-98554971D01*
X130475500Y-98764924D01*
X130475500Y-98977497D01*
X130507223Y-99177792D01*
X130508754Y-99187454D01*
X130554454Y-99328104D01*
X130574444Y-99389625D01*
X130670951Y-99579031D01*
X130795890Y-99750997D01*
X130946213Y-99901320D01*
X131118182Y-100026261D01*
X131126946Y-100030727D01*
X131130219Y-100033818D01*
X131134576Y-100034959D01*
X131155389Y-100057590D01*
X131177742Y-100078702D01*
X131178824Y-100083073D01*
X131181872Y-100086387D01*
X131187145Y-100116677D01*
X131194536Y-100146523D01*
X131193083Y-100150784D01*
X131193856Y-100155221D01*
X131181916Y-100183554D01*
X131171998Y-100212658D01*
X131167981Y-100216621D01*
X131166723Y-100219608D01*
X131157034Y-100227423D01*
X131140744Y-100243499D01*
X131134108Y-100248046D01*
X131118184Y-100256160D01*
X131050374Y-100305426D01*
X131048930Y-100306416D01*
X131017271Y-100316737D01*
X130985912Y-100327926D01*
X130982671Y-100328018D01*
X130982502Y-100328074D01*
X130982327Y-100328028D01*
X130978845Y-100328128D01*
X127329509Y-100328403D01*
X127262468Y-100308723D01*
X127216710Y-100255923D01*
X127205500Y-100204403D01*
X127205500Y-100009713D01*
X127197342Y-99958208D01*
X127172246Y-99799757D01*
X127106557Y-99597588D01*
X127010051Y-99408184D01*
X127010049Y-99408181D01*
X127010048Y-99408179D01*
X126885109Y-99236213D01*
X126734792Y-99085896D01*
X126734784Y-99085890D01*
X126570204Y-98966316D01*
X126527540Y-98910989D01*
X126521561Y-98841376D01*
X126554166Y-98779580D01*
X126570199Y-98765686D01*
X126734792Y-98646104D01*
X126885104Y-98495792D01*
X126885106Y-98495788D01*
X126885109Y-98495786D01*
X127010048Y-98323820D01*
X127010047Y-98323820D01*
X127010051Y-98323816D01*
X127106557Y-98134412D01*
X127172246Y-97932243D01*
X127205500Y-97722287D01*
X127205500Y-97509713D01*
X127172246Y-97299757D01*
X127106557Y-97097588D01*
X127010051Y-96908184D01*
X127010049Y-96908181D01*
X127010048Y-96908179D01*
X126885109Y-96736213D01*
X126734786Y-96585890D01*
X126562820Y-96460951D01*
X126373414Y-96364444D01*
X126373413Y-96364443D01*
X126373412Y-96364443D01*
X126171243Y-96298754D01*
X126171241Y-96298753D01*
X126171240Y-96298753D01*
X126009957Y-96273208D01*
X125961287Y-96265500D01*
X125498713Y-96265500D01*
X125450042Y-96273208D01*
X125288760Y-96298753D01*
X125086585Y-96364444D01*
X124897179Y-96460951D01*
X124725213Y-96585890D01*
X124574890Y-96736213D01*
X124449951Y-96908179D01*
X124353444Y-97097585D01*
X124287753Y-97299760D01*
X124269550Y-97414690D01*
X124254500Y-97509713D01*
X124254500Y-97722287D01*
X124287754Y-97932243D01*
X124319978Y-98031419D01*
X124353444Y-98134414D01*
X124449951Y-98323820D01*
X124574890Y-98495786D01*
X124725209Y-98646105D01*
X124725214Y-98646109D01*
X124889793Y-98765682D01*
X124932459Y-98821011D01*
X124938438Y-98890625D01*
X124905833Y-98952420D01*
X124889793Y-98966318D01*
X124725214Y-99085890D01*
X124725209Y-99085894D01*
X124574890Y-99236213D01*
X124449951Y-99408179D01*
X124353444Y-99597585D01*
X124287753Y-99799760D01*
X124254500Y-100009713D01*
X124254500Y-100204645D01*
X124234815Y-100271684D01*
X124182011Y-100317439D01*
X124130509Y-100328645D01*
X122898509Y-100328737D01*
X122831468Y-100309057D01*
X122785709Y-100256257D01*
X122774500Y-100204737D01*
X122774500Y-97816155D01*
X122774500Y-97816153D01*
X122733577Y-97663426D01*
X122708306Y-97619655D01*
X122654524Y-97526500D01*
X122654521Y-97526496D01*
X122654520Y-97526494D01*
X122542716Y-97414690D01*
X122542715Y-97414689D01*
X122538385Y-97410359D01*
X122538374Y-97410349D01*
X121983757Y-96855732D01*
X121950272Y-96794409D01*
X121953507Y-96729733D01*
X121967246Y-96687453D01*
X122000500Y-96477497D01*
X122000500Y-96264923D01*
X121967246Y-96054967D01*
X121901557Y-95852798D01*
X121805051Y-95663394D01*
X121805049Y-95663391D01*
X121805048Y-95663389D01*
X121680109Y-95491423D01*
X121529786Y-95341100D01*
X121357820Y-95216161D01*
X121168414Y-95119654D01*
X121168413Y-95119653D01*
X121168412Y-95119653D01*
X120966243Y-95053964D01*
X120966241Y-95053963D01*
X120966240Y-95053963D01*
X120804957Y-95028418D01*
X120756287Y-95020710D01*
X120543713Y-95020710D01*
X120495042Y-95028418D01*
X120333760Y-95053963D01*
X120131585Y-95119654D01*
X119942179Y-95216161D01*
X119770213Y-95341100D01*
X119619890Y-95491423D01*
X119494951Y-95663389D01*
X119398444Y-95852795D01*
X119332753Y-96054970D01*
X119299500Y-96264923D01*
X119299500Y-96477496D01*
X119332753Y-96687449D01*
X119332753Y-96687451D01*
X119332754Y-96687453D01*
X119387431Y-96855732D01*
X119398444Y-96889624D01*
X119494951Y-97079030D01*
X119619890Y-97250996D01*
X119770213Y-97401319D01*
X119942179Y-97526258D01*
X119942181Y-97526259D01*
X119942184Y-97526261D01*
X119950945Y-97530724D01*
X120001741Y-97578698D01*
X120018537Y-97646518D01*
X119996001Y-97712654D01*
X119950950Y-97751692D01*
X119942187Y-97756157D01*
X119942184Y-97756159D01*
X119770213Y-97881101D01*
X119619890Y-98031424D01*
X119494951Y-98203390D01*
X119398444Y-98392796D01*
X119332753Y-98594971D01*
X119299500Y-98804924D01*
X119299500Y-99017497D01*
X119326418Y-99187454D01*
X119332754Y-99227454D01*
X119391475Y-99408179D01*
X119398444Y-99429625D01*
X119494951Y-99619031D01*
X119619890Y-99790997D01*
X119770213Y-99941320D01*
X119918060Y-100048735D01*
X119942184Y-100066262D01*
X119981682Y-100086387D01*
X119997557Y-100094476D01*
X120048353Y-100142451D01*
X120065148Y-100210272D01*
X120042610Y-100276407D01*
X119987895Y-100319858D01*
X119941271Y-100328961D01*
X108744424Y-100329805D01*
X108727577Y-100324944D01*
X108710592Y-100325103D01*
X108684959Y-100312648D01*
X108678352Y-100310742D01*
X108674865Y-100308546D01*
X108657816Y-100296160D01*
X108644039Y-100289140D01*
X108639286Y-100286148D01*
X108619732Y-100264003D01*
X108598259Y-100243723D01*
X108596868Y-100238109D01*
X108593040Y-100233773D01*
X108588563Y-100204573D01*
X108581463Y-100175903D01*
X108583328Y-100170427D01*
X108582452Y-100164710D01*
X108594471Y-100137727D01*
X108603999Y-100109767D01*
X108608766Y-100105635D01*
X108610882Y-100100887D01*
X108624729Y-100091803D01*
X108649054Y-100070726D01*
X108657816Y-100066262D01*
X108806541Y-99958208D01*
X108829786Y-99941320D01*
X108829788Y-99941317D01*
X108829792Y-99941315D01*
X108980104Y-99791003D01*
X108980106Y-99790999D01*
X108980109Y-99790997D01*
X109105048Y-99619031D01*
X109105047Y-99619031D01*
X109105051Y-99619027D01*
X109201557Y-99429623D01*
X109267246Y-99227454D01*
X109300500Y-99017498D01*
X109300500Y-98804924D01*
X109267246Y-98594968D01*
X109201557Y-98392799D01*
X109105051Y-98203395D01*
X109105049Y-98203392D01*
X109105048Y-98203390D01*
X108980109Y-98031424D01*
X108829786Y-97881101D01*
X108657820Y-97756162D01*
X108468414Y-97659655D01*
X108468413Y-97659654D01*
X108468412Y-97659654D01*
X108266243Y-97593965D01*
X108266241Y-97593964D01*
X108266240Y-97593964D01*
X108104957Y-97568419D01*
X108056287Y-97560711D01*
X107843713Y-97560711D01*
X107795042Y-97568419D01*
X107633760Y-97593964D01*
X107431585Y-97659655D01*
X107242179Y-97756162D01*
X107070213Y-97881101D01*
X106919890Y-98031424D01*
X106794951Y-98203390D01*
X106698444Y-98392796D01*
X106632753Y-98594971D01*
X106599500Y-98804924D01*
X106599500Y-99017497D01*
X106626418Y-99187454D01*
X106632754Y-99227454D01*
X106691475Y-99408179D01*
X106698444Y-99429625D01*
X106794951Y-99619031D01*
X106919890Y-99790997D01*
X107070213Y-99941320D01*
X107242182Y-100066261D01*
X107250946Y-100070727D01*
X107255989Y-100075490D01*
X107262629Y-100077505D01*
X107281061Y-100099170D01*
X107301742Y-100118702D01*
X107303409Y-100125437D01*
X107307905Y-100130721D01*
X107311698Y-100158908D01*
X107318536Y-100186523D01*
X107316297Y-100193090D01*
X107317223Y-100199966D01*
X107305174Y-100225731D01*
X107295998Y-100252658D01*
X107289855Y-100258489D01*
X107287626Y-100263257D01*
X107272398Y-100275063D01*
X107260744Y-100286128D01*
X107255968Y-100289136D01*
X107242184Y-100296160D01*
X107224991Y-100308651D01*
X107221512Y-100310843D01*
X107191687Y-100319308D01*
X107162492Y-100329724D01*
X107155427Y-100329926D01*
X106303846Y-100329990D01*
X106236805Y-100310310D01*
X106191047Y-100257510D01*
X106179837Y-100206153D01*
X106179835Y-100204737D01*
X106171000Y-93472000D01*
X140560570Y-93472000D01*
X145255149Y-83001269D01*
X145300538Y-82948151D01*
X145367439Y-82928003D01*
X145368297Y-82928000D01*
X156706000Y-82928000D01*
X156712388Y-88677475D01*
G37*
%TD.AperFunction*%
%TA.AperFunction,Conductor*%
G36*
X156230819Y-95316416D02*
G01*
X156230814Y-95316420D01*
X156712853Y-94834381D01*
X156230819Y-95316416D01*
G37*
%TD.AperFunction*%
%TD*%
%TA.AperFunction,Conductor*%
%TO.N,GND*%
G36*
X166152483Y-93739514D02*
G01*
X166335089Y-93832557D01*
X166537258Y-93898246D01*
X166747214Y-93931500D01*
X166747215Y-93931500D01*
X166959787Y-93931500D01*
X166959788Y-93931500D01*
X167169744Y-93898246D01*
X167306374Y-93853851D01*
X167376209Y-93851856D01*
X167432368Y-93884102D01*
X168654640Y-95106374D01*
X168654650Y-95106385D01*
X168658980Y-95110715D01*
X168658981Y-95110716D01*
X168770785Y-95222520D01*
X168857596Y-95272639D01*
X168857598Y-95272641D01*
X168907714Y-95301576D01*
X168907716Y-95301577D01*
X169060443Y-95342500D01*
X169060444Y-95342500D01*
X169966432Y-95342500D01*
X170033471Y-95362185D01*
X170054113Y-95378819D01*
X170729613Y-96054319D01*
X170763098Y-96115642D01*
X170758114Y-96185334D01*
X170716242Y-96241267D01*
X170650778Y-96265684D01*
X170641932Y-96266000D01*
X163648514Y-96266000D01*
X163581475Y-96246315D01*
X163579623Y-96245102D01*
X163447185Y-96156609D01*
X163447172Y-96156602D01*
X163301501Y-96096264D01*
X163301489Y-96096261D01*
X163146845Y-96065500D01*
X163146842Y-96065500D01*
X162989158Y-96065500D01*
X162989155Y-96065500D01*
X162834510Y-96096261D01*
X162834498Y-96096264D01*
X162688827Y-96156602D01*
X162688814Y-96156609D01*
X162556377Y-96245102D01*
X162489700Y-96265980D01*
X162487486Y-96266000D01*
X157988000Y-96266000D01*
X157988000Y-97585621D01*
X157968315Y-97652660D01*
X157951681Y-97673302D01*
X157884942Y-97740040D01*
X157884935Y-97740049D01*
X157800630Y-97882601D01*
X157800629Y-97882604D01*
X157754425Y-98041637D01*
X157754424Y-98041643D01*
X157751501Y-98078789D01*
X157751501Y-98636190D01*
X157751502Y-98636215D01*
X157754424Y-98673354D01*
X157800631Y-98832400D01*
X157884935Y-98974950D01*
X157884937Y-98974953D01*
X157884938Y-98974954D01*
X157951682Y-99041698D01*
X157985166Y-99103019D01*
X157988000Y-99129378D01*
X157988000Y-99697877D01*
X157970733Y-99760997D01*
X157937255Y-99817605D01*
X157937255Y-99817606D01*
X157891403Y-99975426D01*
X157891402Y-99975432D01*
X157888501Y-100012298D01*
X157888501Y-101793701D01*
X157891402Y-101830567D01*
X157891403Y-101830573D01*
X157937255Y-101988393D01*
X157937256Y-101988396D01*
X157970732Y-102045001D01*
X157988000Y-102108122D01*
X157988000Y-104647877D01*
X157970733Y-104710997D01*
X157937255Y-104767605D01*
X157937255Y-104767606D01*
X157891403Y-104925426D01*
X157891402Y-104925432D01*
X157888501Y-104962298D01*
X157888501Y-106743701D01*
X157891402Y-106780567D01*
X157891403Y-106780573D01*
X157937255Y-106938393D01*
X157937256Y-106938396D01*
X157937257Y-106938398D01*
X157961609Y-106979576D01*
X157970732Y-106995001D01*
X157988000Y-107058122D01*
X157988000Y-107627629D01*
X157970117Y-107691778D01*
X157922268Y-107770929D01*
X157922266Y-107770933D01*
X157874549Y-107924065D01*
X157868501Y-107990621D01*
X157868501Y-108417388D01*
X157874547Y-108483926D01*
X157874549Y-108483933D01*
X157922266Y-108637066D01*
X157922268Y-108637069D01*
X157970117Y-108716222D01*
X157974648Y-108732475D01*
X157982977Y-108745435D01*
X157988000Y-108780370D01*
X157988000Y-108897629D01*
X157970117Y-108961778D01*
X157922268Y-109040929D01*
X157922266Y-109040933D01*
X157874549Y-109194065D01*
X157868501Y-109260621D01*
X157868501Y-109687388D01*
X157874547Y-109753926D01*
X157874549Y-109753933D01*
X157922266Y-109907066D01*
X157922268Y-109907069D01*
X157970117Y-109986222D01*
X157974648Y-110002475D01*
X157982977Y-110015435D01*
X157988000Y-110050370D01*
X157988000Y-110207508D01*
X157970732Y-110270629D01*
X157937630Y-110326601D01*
X157937629Y-110326604D01*
X157891425Y-110485637D01*
X157891424Y-110485643D01*
X157888501Y-110522789D01*
X157888501Y-110965190D01*
X157888502Y-110965215D01*
X157891424Y-111002354D01*
X157937632Y-111161403D01*
X157970731Y-111217369D01*
X157988000Y-111280491D01*
X157988000Y-118240000D01*
X157968315Y-118307039D01*
X157915511Y-118352794D01*
X157864000Y-118364000D01*
X155318000Y-118364000D01*
X155250961Y-118344315D01*
X155205206Y-118291511D01*
X155194000Y-118240000D01*
X155194000Y-117740596D01*
X155213685Y-117673557D01*
X155230316Y-117652917D01*
X155952506Y-116930727D01*
X155952511Y-116930724D01*
X155962714Y-116920520D01*
X155962716Y-116920520D01*
X156074520Y-116808716D01*
X156132017Y-116709128D01*
X156153577Y-116671785D01*
X156194500Y-116519058D01*
X156194501Y-116360943D01*
X156194500Y-116360939D01*
X156194500Y-95404097D01*
X156214185Y-95337058D01*
X156230819Y-95316416D01*
X157784916Y-93762319D01*
X157846239Y-93728834D01*
X157872597Y-93726000D01*
X166096189Y-93726000D01*
X166152483Y-93739514D01*
G37*
%TD.AperFunction*%
%TD*%
%TA.AperFunction,Conductor*%
%TO.N,GND*%
G36*
X111955596Y-71140491D02*
G01*
X112002074Y-71192659D01*
X112014000Y-71245720D01*
X112014000Y-73790000D01*
X111994315Y-73857039D01*
X111941511Y-73902794D01*
X111890000Y-73914000D01*
X108798179Y-73914000D01*
X108731140Y-73894315D01*
X108685385Y-73841511D01*
X108683618Y-73837453D01*
X108681044Y-73831238D01*
X108620536Y-73685159D01*
X108524282Y-73559718D01*
X108398841Y-73463464D01*
X108252762Y-73402956D01*
X108252760Y-73402955D01*
X108135370Y-73387501D01*
X108135367Y-73387500D01*
X108135361Y-73387500D01*
X108135354Y-73387500D01*
X108074000Y-73387500D01*
X108006961Y-73367815D01*
X107961206Y-73315011D01*
X107950000Y-73263500D01*
X107950000Y-71298302D01*
X107969685Y-71231263D01*
X108022489Y-71185508D01*
X108072287Y-71174314D01*
X111888292Y-71121732D01*
X111955596Y-71140491D01*
G37*
%TD.AperFunction*%
%TD*%
%TA.AperFunction,Conductor*%
%TO.N,+5V*%
G36*
X153738606Y-72202046D02*
G01*
X153753602Y-72206449D01*
X153768595Y-72216082D01*
X153785681Y-72221094D01*
X153812361Y-72244200D01*
X153813547Y-72245568D01*
X153841019Y-72300427D01*
X153842664Y-72307986D01*
X153845500Y-72334354D01*
X153845500Y-72828104D01*
X153845731Y-72830528D01*
X153848115Y-72865691D01*
X153848202Y-72868281D01*
X153848398Y-72869883D01*
X153848399Y-72869886D01*
X153848399Y-72869887D01*
X153894360Y-73054696D01*
X153904041Y-73074216D01*
X153978966Y-73225291D01*
X153978968Y-73225294D01*
X153978979Y-73225309D01*
X154012068Y-73266474D01*
X154038726Y-73331058D01*
X154028214Y-73395672D01*
X153966664Y-73530444D01*
X153946976Y-73597492D01*
X153926500Y-73739911D01*
X153926500Y-73903439D01*
X153913589Y-73958532D01*
X153894360Y-73997303D01*
X153894358Y-73997309D01*
X153848400Y-74182104D01*
X153845501Y-74224877D01*
X153845501Y-75129483D01*
X153845893Y-75132901D01*
X153848116Y-75165692D01*
X153848203Y-75168283D01*
X153848400Y-75169886D01*
X153848400Y-75169887D01*
X153878934Y-75292666D01*
X153881877Y-75304500D01*
X153894361Y-75354696D01*
X153916782Y-75399903D01*
X153919212Y-75406675D01*
X153920062Y-75421091D01*
X153926500Y-75448558D01*
X153926500Y-75612072D01*
X153927144Y-75637607D01*
X153927773Y-75650076D01*
X153929703Y-75675521D01*
X153964427Y-75815151D01*
X153964428Y-75815155D01*
X153976589Y-75845034D01*
X153987916Y-75872863D01*
X153989618Y-75877903D01*
X154063421Y-76004055D01*
X154063421Y-76004056D01*
X154119167Y-76056601D01*
X154168121Y-76102745D01*
X154225267Y-76142946D01*
X154353528Y-76208140D01*
X154494962Y-76234558D01*
X154564770Y-76237482D01*
X154564780Y-76237483D01*
X154583198Y-76235616D01*
X154586180Y-76235460D01*
X154588404Y-76235987D01*
X154636292Y-76232741D01*
X154636293Y-76232742D01*
X154657806Y-76231283D01*
X154666191Y-76231000D01*
X156001129Y-76231000D01*
X156031055Y-76234665D01*
X156086262Y-76248394D01*
X156111420Y-76257636D01*
X156159368Y-76281416D01*
X156181948Y-76295850D01*
X156223663Y-76329382D01*
X156242611Y-76348329D01*
X156276146Y-76390047D01*
X156290583Y-76412635D01*
X156308487Y-76448734D01*
X156308487Y-76448737D01*
X156308489Y-76448737D01*
X156314360Y-76460575D01*
X156323605Y-76485742D01*
X156337333Y-76540941D01*
X156340999Y-76570868D01*
X156340999Y-76735799D01*
X156341000Y-76735808D01*
X156352551Y-76843249D01*
X156352553Y-76843261D01*
X156363758Y-76894768D01*
X156391654Y-76978579D01*
X156398000Y-77017739D01*
X156398000Y-80143121D01*
X156378315Y-80210160D01*
X156367553Y-80224508D01*
X156311600Y-80288825D01*
X156311596Y-80288831D01*
X156251566Y-80419590D01*
X156232049Y-80485575D01*
X156231757Y-80486532D01*
X156210992Y-80628962D01*
X156210992Y-80628964D01*
X156207696Y-82298745D01*
X156187879Y-82365745D01*
X156134985Y-82411396D01*
X156083696Y-82422500D01*
X146984500Y-82422500D01*
X146917461Y-82402815D01*
X146871706Y-82350011D01*
X146860500Y-82298500D01*
X146860499Y-81822809D01*
X146860498Y-81822784D01*
X146857576Y-81785645D01*
X146857576Y-81785642D01*
X146811370Y-81626600D01*
X146727063Y-81484046D01*
X146727062Y-81484044D01*
X146727058Y-81484040D01*
X146609959Y-81366941D01*
X146609950Y-81366934D01*
X146542873Y-81327265D01*
X146467400Y-81282630D01*
X146467398Y-81282629D01*
X146467367Y-81282619D01*
X146308380Y-81236428D01*
X146308366Y-81236425D01*
X146308362Y-81236424D01*
X146308356Y-81236423D01*
X146308354Y-81236422D01*
X146308350Y-81236422D01*
X146271211Y-81233500D01*
X146271203Y-81233500D01*
X145828809Y-81233500D01*
X145828784Y-81233501D01*
X145819963Y-81234194D01*
X145791649Y-81236422D01*
X145791645Y-81236422D01*
X145791645Y-81236423D01*
X145791642Y-81236424D01*
X145632598Y-81282630D01*
X145490050Y-81366933D01*
X145490042Y-81366939D01*
X145487959Y-81368842D01*
X145487718Y-81368578D01*
X145485972Y-81369810D01*
X145485871Y-81369668D01*
X145463456Y-81386420D01*
X145449740Y-81393909D01*
X145381466Y-81408759D01*
X145381460Y-81408758D01*
X145373122Y-81408161D01*
X145317828Y-81390595D01*
X145213070Y-81327266D01*
X145213056Y-81327261D01*
X145151251Y-81308002D01*
X145116219Y-81284664D01*
X145059934Y-81279548D01*
X145059935Y-81279548D01*
X145033312Y-81277128D01*
X145033310Y-81277127D01*
X144993388Y-81273500D01*
X144993381Y-81273500D01*
X144993378Y-81273500D01*
X144566611Y-81273500D01*
X144551264Y-81274894D01*
X144500074Y-81279545D01*
X144500065Y-81279548D01*
X144346934Y-81327264D01*
X144346931Y-81327265D01*
X144209666Y-81410244D01*
X144209663Y-81410247D01*
X144209656Y-81410253D01*
X144096253Y-81523656D01*
X144096247Y-81523663D01*
X144096244Y-81523666D01*
X144013265Y-81660931D01*
X144013264Y-81660934D01*
X143980416Y-81766349D01*
X143965548Y-81814065D01*
X143964754Y-81822809D01*
X143959500Y-81880623D01*
X143959500Y-82382385D01*
X143965545Y-82448924D01*
X143965548Y-82448933D01*
X144013264Y-82602064D01*
X144013266Y-82602070D01*
X144056604Y-82673759D01*
X144056604Y-82673760D01*
X144056605Y-82673761D01*
X144070379Y-82706256D01*
X144076116Y-82727986D01*
X144077500Y-82785489D01*
X144076644Y-82789505D01*
X144074209Y-82797337D01*
X144074196Y-82797829D01*
X144073940Y-82798203D01*
X144069930Y-82811106D01*
X144058341Y-82839084D01*
X144055959Y-82851063D01*
X144055958Y-82851062D01*
X144055958Y-82851067D01*
X144029500Y-82984076D01*
X144029500Y-83087551D01*
X144024237Y-83105471D01*
X144058338Y-83276899D01*
X144058344Y-83276919D01*
X144114908Y-83413481D01*
X144114913Y-83413490D01*
X144114923Y-83413507D01*
X144197049Y-83536417D01*
X144197050Y-83536418D01*
X144197055Y-83536424D01*
X144301575Y-83640944D01*
X144306312Y-83644827D01*
X144305480Y-83645841D01*
X144345991Y-83694213D01*
X144354771Y-83763529D01*
X144345495Y-83794552D01*
X140904787Y-91468666D01*
X140904521Y-91469254D01*
X140259441Y-92888208D01*
X140259441Y-92888211D01*
X140259438Y-92888215D01*
X140259437Y-92888218D01*
X140240412Y-92917936D01*
X140235577Y-92923536D01*
X140176867Y-92961415D01*
X140141720Y-92966500D01*
X135876250Y-92966500D01*
X129844543Y-92951455D01*
X129809623Y-92946345D01*
X129794639Y-92941905D01*
X129779650Y-92932220D01*
X129762543Y-92927146D01*
X129735983Y-92904005D01*
X129735956Y-92903987D01*
X129734749Y-92902587D01*
X129707453Y-92847699D01*
X129705828Y-92840139D01*
X129703059Y-92813772D01*
X129728820Y-82485376D01*
X129733930Y-82450460D01*
X129741732Y-82424132D01*
X129764168Y-82381439D01*
X129775392Y-82367547D01*
X129776322Y-82362242D01*
X129781943Y-82352098D01*
X129783231Y-82350011D01*
X129855814Y-82232334D01*
X129910999Y-82065797D01*
X129921500Y-81963009D01*
X129921499Y-81262992D01*
X129918486Y-81233501D01*
X129910999Y-81160203D01*
X129910998Y-81160200D01*
X129891022Y-81099918D01*
X129855814Y-80993666D01*
X129763712Y-80844344D01*
X129732990Y-80813622D01*
X129733142Y-80753000D01*
X129672368Y-80753000D01*
X129639656Y-80720288D01*
X129491599Y-80628966D01*
X129490336Y-80628187D01*
X129490331Y-80628185D01*
X129332265Y-80575807D01*
X129329445Y-80574641D01*
X129323792Y-80572999D01*
X129221019Y-80562500D01*
X129221010Y-80562500D01*
X125020998Y-80562500D01*
X125020981Y-80562501D01*
X125020971Y-80562501D01*
X125020971Y-80562502D01*
X124918206Y-80572999D01*
X124918198Y-80573001D01*
X124918195Y-80573002D01*
X124827928Y-80602913D01*
X124793187Y-80609134D01*
X124779317Y-80609611D01*
X124711641Y-80592242D01*
X124664098Y-80541042D01*
X124664095Y-80541037D01*
X124661042Y-80534917D01*
X124648002Y-80479564D01*
X124648002Y-79355324D01*
X124649898Y-79342131D01*
X124649601Y-79342110D01*
X124649955Y-79337159D01*
X124650622Y-79334330D01*
X124650345Y-79332793D01*
X124652229Y-79325921D01*
X124653024Y-79320393D01*
X124654307Y-79316023D01*
X124654895Y-79316195D01*
X124654958Y-79315969D01*
X124658730Y-79299992D01*
X124658689Y-79299977D01*
X124658811Y-79299647D01*
X124659061Y-79298592D01*
X124659915Y-79296527D01*
X124660242Y-79295812D01*
X124660316Y-79295556D01*
X124661360Y-79293036D01*
X124661706Y-79292606D01*
X124662089Y-79291768D01*
X124662302Y-79291865D01*
X124681938Y-79267481D01*
X124701612Y-79241191D01*
X124701617Y-79241188D01*
X124703635Y-79239677D01*
X124704624Y-79239307D01*
X124705181Y-79238617D01*
X124717299Y-79234578D01*
X124769096Y-79215253D01*
X124797700Y-79216518D01*
X124808184Y-79218210D01*
X124827420Y-79222916D01*
X124918203Y-79252999D01*
X125020991Y-79263500D01*
X129221008Y-79263499D01*
X129323797Y-79252999D01*
X129490334Y-79197814D01*
X129639656Y-79105712D01*
X129763712Y-78981656D01*
X129855814Y-78832334D01*
X129910999Y-78665797D01*
X129921500Y-78563009D01*
X129921499Y-78561562D01*
X129921501Y-78561552D01*
X129921499Y-78561547D01*
X129921499Y-78561536D01*
X129921615Y-78560732D01*
X129921660Y-78559859D01*
X129921740Y-78559863D01*
X129926521Y-78526614D01*
X129930925Y-78511613D01*
X129968700Y-78452836D01*
X129968702Y-78452833D01*
X129970241Y-78451499D01*
X130024673Y-78424142D01*
X130031864Y-78422552D01*
X130057803Y-78419634D01*
X130362125Y-78417623D01*
X130429291Y-78436864D01*
X130458777Y-78462933D01*
X133423337Y-82073720D01*
X133450663Y-82138023D01*
X133451500Y-82152404D01*
X133451500Y-82523876D01*
X133451659Y-82525806D01*
X133451885Y-82527454D01*
X133457907Y-82583482D01*
X133485690Y-82657971D01*
X133508202Y-82718328D01*
X133508203Y-82718330D01*
X133508204Y-82718332D01*
X133508205Y-82718333D01*
X133594450Y-82833542D01*
X133594456Y-82833548D01*
X133623419Y-82855229D01*
X133709664Y-82919793D01*
X133709671Y-82919797D01*
X133844517Y-82970091D01*
X133844516Y-82970091D01*
X133851444Y-82970835D01*
X133904127Y-82976500D01*
X134199682Y-82976499D01*
X134202881Y-82977023D01*
X134204584Y-82976596D01*
X134215880Y-82979155D01*
X134239293Y-82982996D01*
X134249026Y-82986277D01*
X134252484Y-82988226D01*
X134279649Y-82996600D01*
X134281155Y-82997108D01*
X134281517Y-82997362D01*
X134289374Y-83000208D01*
X134321491Y-83013638D01*
X134344293Y-83023174D01*
X134344298Y-83023175D01*
X134344306Y-83023179D01*
X134367532Y-83029999D01*
X134438012Y-83045332D01*
X134472948Y-83050355D01*
X134544888Y-83055500D01*
X139308668Y-83055500D01*
X139362738Y-83052600D01*
X139389109Y-83049763D01*
X139442544Y-83041099D01*
X139450102Y-83039454D01*
X139529342Y-83011485D01*
X139568961Y-82997502D01*
X139587482Y-82988226D01*
X139623824Y-82970025D01*
X139728610Y-82899969D01*
X139729979Y-82898782D01*
X139780953Y-82847778D01*
X139804058Y-82821098D01*
X139847280Y-82763323D01*
X139875912Y-82700568D01*
X139921583Y-82600563D01*
X139925988Y-82585565D01*
X139941328Y-82515066D01*
X139946353Y-82480122D01*
X139951500Y-82408170D01*
X139951500Y-79583249D01*
X139951499Y-79583230D01*
X139948575Y-79528947D01*
X139945712Y-79502457D01*
X139945708Y-79502432D01*
X139936971Y-79448785D01*
X139936373Y-79446054D01*
X139935297Y-79441130D01*
X139893162Y-79322170D01*
X139893159Y-79322164D01*
X139893158Y-79322161D01*
X139893157Y-79322160D01*
X139865585Y-79267279D01*
X139865582Y-79267273D01*
X139795305Y-79162475D01*
X139795302Y-79162471D01*
X139795299Y-79162467D01*
X139781961Y-79147132D01*
X139730872Y-79096232D01*
X139730867Y-79096227D01*
X139730863Y-79096224D01*
X139684135Y-79055886D01*
X139680701Y-79055145D01*
X139662230Y-79042838D01*
X139646320Y-79030041D01*
X138271765Y-78150326D01*
X138225911Y-78097608D01*
X138214611Y-78046702D01*
X138176982Y-72339800D01*
X138181774Y-72304840D01*
X138186080Y-72289809D01*
X138223463Y-72230789D01*
X138224704Y-72229700D01*
X138279709Y-72201836D01*
X138279827Y-72201810D01*
X138287631Y-72200085D01*
X138314386Y-72197161D01*
X141359741Y-72197135D01*
X141392261Y-72201810D01*
X141394668Y-72202156D01*
X141407089Y-72205803D01*
X141465869Y-72243572D01*
X141494898Y-72307126D01*
X141487055Y-72371421D01*
X141483570Y-72380006D01*
X141468996Y-72406249D01*
X141381713Y-72526388D01*
X141288780Y-72708778D01*
X141225521Y-72903468D01*
X141193500Y-73105642D01*
X141193500Y-73310356D01*
X141213335Y-73435588D01*
X141225522Y-73512534D01*
X141288781Y-73707223D01*
X141342423Y-73812500D01*
X141373443Y-73873380D01*
X141381715Y-73889613D01*
X141502028Y-74055213D01*
X141646786Y-74199971D01*
X141800918Y-74311952D01*
X141812390Y-74320287D01*
X141928607Y-74379503D01*
X141989217Y-74410385D01*
X141990112Y-74410860D01*
X141990312Y-74411055D01*
X141993629Y-74412662D01*
X141995636Y-74413659D01*
X141999401Y-74414721D01*
X142036370Y-74426733D01*
X142189465Y-74476477D01*
X142290557Y-74492488D01*
X142391648Y-74508500D01*
X142391649Y-74508500D01*
X142596351Y-74508500D01*
X142596352Y-74508500D01*
X142798534Y-74476477D01*
X142993219Y-74413220D01*
X143175610Y-74320287D01*
X143306929Y-74224879D01*
X143341213Y-74199971D01*
X143341215Y-74199968D01*
X143341219Y-74199966D01*
X143341223Y-74199962D01*
X143341276Y-74199923D01*
X143342032Y-74199152D01*
X143485966Y-74055219D01*
X143485968Y-74055215D01*
X143485971Y-74055213D01*
X143533981Y-73989131D01*
X143569725Y-73939934D01*
X143569725Y-73939933D01*
X143575126Y-73932499D01*
X143606287Y-73889610D01*
X143627637Y-73847707D01*
X148359500Y-73847707D01*
X148359500Y-74060291D01*
X148385568Y-74224877D01*
X148392753Y-74270239D01*
X148457813Y-74470475D01*
X148458443Y-74472412D01*
X148540645Y-74633744D01*
X148554951Y-74661820D01*
X148679890Y-74833786D01*
X148679892Y-74833788D01*
X148830216Y-74984112D01*
X149002169Y-75109042D01*
X149002200Y-75109060D01*
X149002442Y-75109182D01*
X149191588Y-75205557D01*
X149393757Y-75271246D01*
X149603713Y-75304500D01*
X149603714Y-75304500D01*
X150116286Y-75304500D01*
X150116287Y-75304500D01*
X150326243Y-75271246D01*
X150528412Y-75205557D01*
X150717816Y-75109051D01*
X150746888Y-75087928D01*
X150755954Y-75081343D01*
X150777766Y-75065495D01*
X150889786Y-74984109D01*
X150889788Y-74984106D01*
X150889792Y-74984104D01*
X150889799Y-74984096D01*
X150889851Y-74984059D01*
X150890593Y-74983303D01*
X151040104Y-74833792D01*
X151040106Y-74833788D01*
X151040109Y-74833786D01*
X151165048Y-74661820D01*
X151165047Y-74661820D01*
X151165051Y-74661816D01*
X151165053Y-74661810D01*
X151185445Y-74633744D01*
X151193730Y-74605529D01*
X151261557Y-74472412D01*
X151327246Y-74270243D01*
X151360500Y-74060287D01*
X151360500Y-73847713D01*
X151327246Y-73637757D01*
X151261557Y-73435588D01*
X151165051Y-73246184D01*
X151165049Y-73246181D01*
X151165048Y-73246179D01*
X151164702Y-73245703D01*
X151164700Y-73245699D01*
X151040112Y-73074216D01*
X150889788Y-72923892D01*
X150889786Y-72923890D01*
X150717820Y-72798951D01*
X150704167Y-72791994D01*
X150550245Y-72713567D01*
X150550240Y-72713565D01*
X150528414Y-72702444D01*
X150528413Y-72702443D01*
X150528412Y-72702443D01*
X150431550Y-72670970D01*
X150335074Y-72639623D01*
X150330552Y-72637770D01*
X150321362Y-72635600D01*
X150316599Y-72635226D01*
X150164957Y-72611208D01*
X150145489Y-72608124D01*
X150116290Y-72603500D01*
X150116287Y-72603500D01*
X149603713Y-72603500D01*
X149603709Y-72603500D01*
X149564776Y-72609666D01*
X149555042Y-72611208D01*
X149517654Y-72617129D01*
X149393763Y-72636752D01*
X149191582Y-72702445D01*
X149002182Y-72798949D01*
X149002179Y-72798950D01*
X149002179Y-72798951D01*
X148916196Y-72861420D01*
X148830210Y-72923892D01*
X148679892Y-73074210D01*
X148554949Y-73246182D01*
X148458445Y-73435580D01*
X148392752Y-73637759D01*
X148359500Y-73847707D01*
X143627637Y-73847707D01*
X143652855Y-73798214D01*
X143658801Y-73786546D01*
X143699218Y-73707223D01*
X143699218Y-73707222D01*
X143699220Y-73707219D01*
X143699222Y-73707212D01*
X143699664Y-73706345D01*
X143700721Y-73702598D01*
X143721789Y-73637760D01*
X143762477Y-73512534D01*
X143794500Y-73310352D01*
X143794500Y-73105648D01*
X143785785Y-73050627D01*
X143762477Y-72903465D01*
X143699218Y-72708776D01*
X143680869Y-72672764D01*
X143662521Y-72636754D01*
X143644015Y-72600436D01*
X143606287Y-72526390D01*
X143597266Y-72513973D01*
X143597265Y-72513971D01*
X143520579Y-72408420D01*
X143504109Y-72377205D01*
X143499758Y-72365010D01*
X143495770Y-72295254D01*
X143530128Y-72234416D01*
X143586732Y-72202979D01*
X143595740Y-72200748D01*
X143625530Y-72197114D01*
X153703673Y-72197024D01*
X153738606Y-72202046D01*
G37*
%TD.AperFunction*%
%TD*%
%TA.AperFunction,Conductor*%
%TO.N,Net-(D7-K)*%
G36*
X107336277Y-81285051D02*
G01*
X107351298Y-81289410D01*
X107366328Y-81299003D01*
X107383453Y-81303975D01*
X107410184Y-81326995D01*
X107410192Y-81327000D01*
X107410197Y-81327006D01*
X107411592Y-81328606D01*
X107439085Y-81382793D01*
X107440670Y-81389815D01*
X107443703Y-81415557D01*
X107502932Y-86124136D01*
X107498350Y-86159130D01*
X107491329Y-86184205D01*
X107459602Y-86238452D01*
X107352425Y-86345628D01*
X107352419Y-86345635D01*
X107352415Y-86345642D01*
X107268757Y-86487100D01*
X107268753Y-86487113D01*
X107222904Y-86644920D01*
X107222903Y-86644926D01*
X107222902Y-86644927D01*
X107222902Y-86644929D01*
X107220001Y-86681791D01*
X107220001Y-87113209D01*
X107222902Y-87150071D01*
X107222902Y-87150073D01*
X107222903Y-87150074D01*
X107222904Y-87150080D01*
X107268753Y-87307887D01*
X107268757Y-87307900D01*
X107352415Y-87449358D01*
X107352419Y-87449365D01*
X107352423Y-87449369D01*
X107352424Y-87449371D01*
X107468631Y-87565578D01*
X107468635Y-87565581D01*
X107470646Y-87567592D01*
X107483484Y-87582666D01*
X107498662Y-87603681D01*
X107520225Y-87654588D01*
X107520558Y-87656462D01*
X107521736Y-87668935D01*
X107521955Y-87669552D01*
X107521840Y-87670036D01*
X107522461Y-87676596D01*
X107526591Y-88004889D01*
X107522009Y-88039881D01*
X107516954Y-88057936D01*
X107484147Y-88113252D01*
X107450291Y-88146288D01*
X107440902Y-88157151D01*
X107352428Y-88245624D01*
X107352419Y-88245635D01*
X107352415Y-88245642D01*
X107268757Y-88387100D01*
X107268753Y-88387113D01*
X107222904Y-88544920D01*
X107222903Y-88544926D01*
X107222902Y-88544927D01*
X107222902Y-88544929D01*
X107220001Y-88581791D01*
X107220001Y-88635375D01*
X107220000Y-88635381D01*
X107220001Y-88635384D01*
X107214976Y-88670319D01*
X107210571Y-88685317D01*
X107172812Y-88744075D01*
X107171131Y-88745532D01*
X107117040Y-88772827D01*
X107110184Y-88774364D01*
X107084612Y-88777357D01*
X101199556Y-88851086D01*
X101199556Y-88851087D01*
X101199555Y-88851086D01*
X101199551Y-88851087D01*
X101164561Y-88846504D01*
X101149507Y-88842287D01*
X101090263Y-88805257D01*
X101089216Y-88804079D01*
X101060994Y-88749066D01*
X101059171Y-88740991D01*
X101056130Y-88714082D01*
X101054280Y-88124641D01*
X101052578Y-87582671D01*
X101033296Y-81441641D01*
X101038207Y-81406704D01*
X101042568Y-81391680D01*
X101080155Y-81332790D01*
X101081535Y-81331587D01*
X101136284Y-81303973D01*
X101143839Y-81302305D01*
X101170181Y-81299390D01*
X107301338Y-81280139D01*
X107336277Y-81285051D01*
G37*
%TD.AperFunction*%
%TD*%
%TA.AperFunction,Conductor*%
%TO.N,+3V3*%
G36*
X166649039Y-71139685D02*
G01*
X166694794Y-71192489D01*
X166706000Y-71244000D01*
X166706000Y-74785817D01*
X166686315Y-74852856D01*
X166633511Y-74898611D01*
X166564353Y-74908555D01*
X166516904Y-74891356D01*
X166372340Y-74802189D01*
X166372335Y-74802187D01*
X166372334Y-74802186D01*
X166205797Y-74747001D01*
X166205795Y-74747000D01*
X166103010Y-74736500D01*
X165112998Y-74736500D01*
X165112980Y-74736501D01*
X165010203Y-74747000D01*
X165010200Y-74747001D01*
X164843668Y-74802185D01*
X164843663Y-74802187D01*
X164694342Y-74894289D01*
X164570289Y-75018342D01*
X164478187Y-75167663D01*
X164478186Y-75167666D01*
X164423001Y-75334203D01*
X164423001Y-75334204D01*
X164423000Y-75334204D01*
X164412500Y-75436983D01*
X164412500Y-75603943D01*
X164392815Y-75670982D01*
X164340011Y-75716737D01*
X164270853Y-75726681D01*
X164253905Y-75723019D01*
X164088362Y-75674924D01*
X164088356Y-75674923D01*
X164051203Y-75672000D01*
X163608809Y-75672000D01*
X163608784Y-75672001D01*
X163571645Y-75674923D01*
X163412599Y-75721130D01*
X163270049Y-75805434D01*
X163270040Y-75805441D01*
X163152941Y-75922540D01*
X163152934Y-75922549D01*
X163068629Y-76065101D01*
X163068628Y-76065104D01*
X163022424Y-76224137D01*
X163022423Y-76224143D01*
X163019500Y-76261289D01*
X163019500Y-76818690D01*
X163019501Y-76818715D01*
X163020254Y-76828275D01*
X163005888Y-76896652D01*
X162956835Y-76946407D01*
X162896636Y-76962000D01*
X160536576Y-76962000D01*
X160528400Y-76960373D01*
X160523322Y-76961290D01*
X160489124Y-76952561D01*
X160381236Y-76907873D01*
X160381234Y-76907872D01*
X160344085Y-76892484D01*
X160344073Y-76892481D01*
X160179770Y-76859799D01*
X160179766Y-76859799D01*
X156970499Y-76859799D01*
X156903460Y-76840114D01*
X156857705Y-76787310D01*
X156846499Y-76735799D01*
X156846499Y-76524877D01*
X156846498Y-76524876D01*
X156843600Y-76482111D01*
X156797641Y-76297307D01*
X156761352Y-76224137D01*
X156713032Y-76126707D01*
X156713030Y-76126704D01*
X156593722Y-75978278D01*
X156593721Y-75978277D01*
X156445295Y-75858969D01*
X156445292Y-75858967D01*
X156274697Y-75774360D01*
X156089892Y-75728400D01*
X156064539Y-75726681D01*
X156047123Y-75725500D01*
X156047120Y-75725500D01*
X154644877Y-75725500D01*
X154644874Y-75725501D01*
X154602113Y-75728399D01*
X154602109Y-75728400D01*
X154585925Y-75732425D01*
X154516117Y-75729501D01*
X154458971Y-75689300D01*
X154432631Y-75624585D01*
X154432000Y-75612090D01*
X154432000Y-73739910D01*
X154451685Y-73672871D01*
X154504489Y-73627116D01*
X154573647Y-73617172D01*
X154585927Y-73619576D01*
X154602102Y-73623598D01*
X154602103Y-73623598D01*
X154602111Y-73623600D01*
X154644877Y-73626500D01*
X156047122Y-73626499D01*
X156089889Y-73623600D01*
X156274693Y-73577641D01*
X156445296Y-73493030D01*
X156593722Y-73373722D01*
X156663582Y-73286811D01*
X156720925Y-73246894D01*
X156760229Y-73240500D01*
X157563768Y-73240500D01*
X157563769Y-73240499D01*
X157728082Y-73207816D01*
X157761881Y-73193816D01*
X157882863Y-73143704D01*
X158022162Y-73050627D01*
X158140627Y-72932162D01*
X158233704Y-72792863D01*
X158297816Y-72638082D01*
X158330500Y-72473767D01*
X158330500Y-72306233D01*
X158330500Y-71544233D01*
X158297816Y-71379918D01*
X158261171Y-71291452D01*
X158253703Y-71221984D01*
X158284978Y-71159505D01*
X158345067Y-71123852D01*
X158375733Y-71120000D01*
X166582000Y-71120000D01*
X166649039Y-71139685D01*
G37*
%TD.AperFunction*%
%TD*%
%TA.AperFunction,Conductor*%
%TO.N,GND*%
G36*
X137103039Y-74187685D02*
G01*
X137148794Y-74240489D01*
X137160000Y-74292000D01*
X137160000Y-77092000D01*
X137140315Y-77159039D01*
X137087511Y-77204794D01*
X137036000Y-77216000D01*
X134744000Y-77216000D01*
X134676961Y-77196315D01*
X134631206Y-77143511D01*
X134620000Y-77092000D01*
X134620000Y-74561362D01*
X134639685Y-74494323D01*
X134692489Y-74448568D01*
X134709395Y-74442289D01*
X134781400Y-74421370D01*
X134923954Y-74337063D01*
X135041063Y-74219954D01*
X135041065Y-74219949D01*
X135044130Y-74216000D01*
X135100773Y-74175093D01*
X135142110Y-74168000D01*
X137036000Y-74168000D01*
X137103039Y-74187685D01*
G37*
%TD.AperFunction*%
%TD*%
%TA.AperFunction,Conductor*%
%TO.N,Net-(F1-Pad1)*%
G36*
X106349693Y-73162693D02*
G01*
X106395690Y-73215287D01*
X106407133Y-73266791D01*
X106426000Y-77724000D01*
X108984812Y-77736790D01*
X109051752Y-77756809D01*
X109097242Y-77809841D01*
X109108190Y-77861408D01*
X109096310Y-80238067D01*
X109076291Y-80305007D01*
X109023259Y-80350497D01*
X108970484Y-80361434D01*
X102483793Y-80265795D01*
X102417051Y-80245124D01*
X102372079Y-80191651D01*
X102361622Y-80142192D01*
X102340370Y-73285253D01*
X102359846Y-73218156D01*
X102412508Y-73172238D01*
X102463795Y-73160873D01*
X106282564Y-73143317D01*
X106349693Y-73162693D01*
G37*
%TD.AperFunction*%
%TD*%
%TA.AperFunction,Conductor*%
%TO.N,GND*%
G36*
X161952928Y-80516300D02*
G01*
X162019923Y-80536116D01*
X162065574Y-80589010D01*
X162068859Y-80596964D01*
X162093770Y-80663751D01*
X162180882Y-80780119D01*
X162254309Y-80835085D01*
X162296181Y-80891018D01*
X162303999Y-80934352D01*
X162303999Y-81445035D01*
X162284314Y-81512074D01*
X162267680Y-81532716D01*
X161139877Y-82660518D01*
X161078554Y-82694003D01*
X161013886Y-82690771D01*
X161008618Y-82689059D01*
X160821986Y-82659500D01*
X160821981Y-82659500D01*
X160333019Y-82659500D01*
X160333014Y-82659500D01*
X160146381Y-82689059D01*
X159966663Y-82747454D01*
X159798300Y-82833240D01*
X159711079Y-82896610D01*
X159645427Y-82944310D01*
X159645425Y-82944312D01*
X159645424Y-82944312D01*
X159511812Y-83077924D01*
X159511812Y-83077925D01*
X159511810Y-83077927D01*
X159464110Y-83143579D01*
X159400740Y-83230800D01*
X159314954Y-83399163D01*
X159256559Y-83578881D01*
X159227000Y-83765513D01*
X159227000Y-83954486D01*
X159256559Y-84141118D01*
X159314954Y-84320836D01*
X159346623Y-84382989D01*
X159400740Y-84489199D01*
X159511810Y-84642073D01*
X159645427Y-84775690D01*
X159798301Y-84886760D01*
X159877847Y-84927290D01*
X159966663Y-84972545D01*
X159966665Y-84972545D01*
X159966668Y-84972547D01*
X160062997Y-85003846D01*
X160146381Y-85030940D01*
X160333014Y-85060500D01*
X160333019Y-85060500D01*
X160821986Y-85060500D01*
X161008618Y-85030940D01*
X161188332Y-84972547D01*
X161356699Y-84886760D01*
X161509573Y-84775690D01*
X161643190Y-84642073D01*
X161754260Y-84489199D01*
X161810814Y-84378204D01*
X161858788Y-84327409D01*
X161921299Y-84310500D01*
X162690281Y-84310500D01*
X162757320Y-84330185D01*
X162803075Y-84382989D01*
X162814280Y-84434488D01*
X162814305Y-84775687D01*
X162814396Y-86052344D01*
X162794716Y-86119385D01*
X162741915Y-86165144D01*
X162722490Y-86172128D01*
X162664326Y-86187713D01*
X162664325Y-86187712D01*
X162640115Y-86194200D01*
X162640106Y-86194204D01*
X162537392Y-86253505D01*
X162537384Y-86253511D01*
X156927512Y-91863382D01*
X156866189Y-91896867D01*
X156796497Y-91891883D01*
X156740564Y-91850011D01*
X156716147Y-91784547D01*
X156715832Y-91775888D01*
X156706000Y-82928000D01*
X156711956Y-82928000D01*
X156716491Y-80629964D01*
X156736308Y-80562965D01*
X156789202Y-80517314D01*
X156840732Y-80506210D01*
X161952928Y-80516300D01*
G37*
%TD.AperFunction*%
%TD*%
%TA.AperFunction,Conductor*%
%TO.N,Net-(D4-K)*%
G36*
X133076769Y-75442990D02*
G01*
X133109501Y-75452567D01*
X133141523Y-75467135D01*
X133310636Y-75575367D01*
X134057344Y-76053259D01*
X134103197Y-76105976D01*
X134114500Y-76157700D01*
X134114500Y-77092000D01*
X134114501Y-77092009D01*
X134126052Y-77199450D01*
X134126054Y-77199462D01*
X134137260Y-77250972D01*
X134171383Y-77353497D01*
X134171386Y-77353503D01*
X134249171Y-77474537D01*
X134249179Y-77474548D01*
X134294923Y-77527340D01*
X134294926Y-77527343D01*
X134294930Y-77527347D01*
X134403664Y-77621567D01*
X134534541Y-77681338D01*
X134601580Y-77701023D01*
X134601584Y-77701024D01*
X134744000Y-77721500D01*
X136627685Y-77721500D01*
X136694528Y-77741058D01*
X139373830Y-79455811D01*
X139373832Y-79455813D01*
X139400548Y-79478876D01*
X139413886Y-79494211D01*
X139441463Y-79549102D01*
X139443138Y-79556763D01*
X139446000Y-79583249D01*
X139446000Y-82408170D01*
X139440975Y-82443114D01*
X139436570Y-82458112D01*
X139426939Y-82473101D01*
X139421932Y-82490175D01*
X139398827Y-82516855D01*
X139397458Y-82518042D01*
X139342597Y-82545518D01*
X139335039Y-82547163D01*
X139308668Y-82550000D01*
X134544888Y-82550000D01*
X134509952Y-82544977D01*
X134486726Y-82538157D01*
X134476566Y-82532520D01*
X134468637Y-82531271D01*
X134439205Y-82511791D01*
X134438448Y-82511117D01*
X134425068Y-82497191D01*
X134366618Y-82426000D01*
X134351979Y-82408170D01*
X130282000Y-77451000D01*
X130281999Y-77451000D01*
X129615262Y-77451000D01*
X129615261Y-77450999D01*
X129615261Y-77451000D01*
X129580326Y-77445977D01*
X129551443Y-77437496D01*
X129510894Y-77416895D01*
X129473842Y-77388464D01*
X129473838Y-77388462D01*
X129473839Y-77388462D01*
X129344869Y-77335041D01*
X129344865Y-77335040D01*
X129327762Y-77327956D01*
X129327760Y-77327955D01*
X129210370Y-77312501D01*
X129210367Y-77312500D01*
X129210361Y-77312500D01*
X129210354Y-77312500D01*
X129210302Y-77312500D01*
X125577702Y-77312500D01*
X125545607Y-77308274D01*
X125540142Y-77306809D01*
X125515147Y-77300112D01*
X125485247Y-77287727D01*
X125460237Y-77273288D01*
X125460226Y-77273285D01*
X125460227Y-77273285D01*
X125395682Y-77255991D01*
X125330404Y-77238500D01*
X125307508Y-77232365D01*
X125307507Y-77232365D01*
X125149394Y-77232365D01*
X124996666Y-77273288D01*
X124996662Y-77273289D01*
X124996657Y-77273292D01*
X124881392Y-77339839D01*
X124874238Y-77343663D01*
X124870878Y-77345320D01*
X124840233Y-77355723D01*
X124818156Y-77360116D01*
X124793961Y-77362500D01*
X124698832Y-77362500D01*
X124663891Y-77357475D01*
X124648892Y-77353070D01*
X124633904Y-77343440D01*
X124616826Y-77338432D01*
X124590146Y-77315327D01*
X124588959Y-77313958D01*
X124561479Y-77259083D01*
X124559834Y-77251521D01*
X124557002Y-77225168D01*
X124557002Y-75805329D01*
X124562025Y-75770393D01*
X124566429Y-75755395D01*
X124576059Y-75740404D01*
X124581069Y-75723324D01*
X124604174Y-75696644D01*
X124605543Y-75695457D01*
X124660422Y-75667977D01*
X124667981Y-75666333D01*
X124694334Y-75663500D01*
X124793964Y-75663500D01*
X124818150Y-75665882D01*
X124841648Y-75670555D01*
X124864906Y-75677609D01*
X124914238Y-75698044D01*
X125031639Y-75713500D01*
X129210360Y-75713499D01*
X129210363Y-75713499D01*
X129320248Y-75699033D01*
X129320743Y-75698973D01*
X129321022Y-75699019D01*
X129323755Y-75698839D01*
X129327219Y-75698268D01*
X129327760Y-75698044D01*
X129327762Y-75698044D01*
X129473841Y-75637536D01*
X129599282Y-75541282D01*
X129630459Y-75500649D01*
X129655704Y-75475999D01*
X129674387Y-75462358D01*
X129726234Y-75440344D01*
X129729140Y-75439838D01*
X129739535Y-75438939D01*
X129740133Y-75438725D01*
X129740648Y-75438843D01*
X129750411Y-75438000D01*
X133041948Y-75438000D01*
X133076769Y-75442990D01*
G37*
%TD.AperFunction*%
%TD*%
%TA.AperFunction,Conductor*%
%TO.N,GND*%
G36*
X127506497Y-92963612D02*
G01*
X127509529Y-92964437D01*
X128619839Y-93281668D01*
X129285995Y-93471999D01*
X129285997Y-93471999D01*
X129286000Y-93472000D01*
X106171000Y-93472000D01*
X106171000Y-90010255D01*
X106190685Y-89943216D01*
X106243489Y-89897461D01*
X106261807Y-89890781D01*
X107521568Y-89540924D01*
X107591428Y-89541952D01*
X107604000Y-89546604D01*
X107610104Y-89549246D01*
X107767927Y-89595098D01*
X107767930Y-89595098D01*
X107767932Y-89595099D01*
X107804807Y-89598001D01*
X107817566Y-89598001D01*
X107884605Y-89617686D01*
X107886457Y-89618899D01*
X107984087Y-89684133D01*
X108166166Y-89759552D01*
X108166170Y-89759552D01*
X108166171Y-89759553D01*
X108359457Y-89798001D01*
X108359460Y-89798001D01*
X108604883Y-89798001D01*
X108634541Y-89792101D01*
X108701529Y-89778776D01*
X108798177Y-89759552D01*
X108855234Y-89735918D01*
X108980255Y-89684133D01*
X109081987Y-89616157D01*
X109141154Y-89595643D01*
X109148070Y-89595099D01*
X109148073Y-89595098D01*
X109148074Y-89595098D01*
X109189692Y-89583006D01*
X109305899Y-89549245D01*
X109447366Y-89465582D01*
X109563582Y-89349366D01*
X109647245Y-89207899D01*
X109693099Y-89050070D01*
X109693099Y-89050064D01*
X109694210Y-89046242D01*
X109701869Y-89033289D01*
X109704454Y-89021410D01*
X109725601Y-88993159D01*
X109791607Y-88927154D01*
X109846098Y-88895362D01*
X110712025Y-88654879D01*
X110776134Y-88654277D01*
X127506497Y-92963612D01*
G37*
%TD.AperFunction*%
%TD*%
%TA.AperFunction,Conductor*%
%TO.N,+24V*%
G36*
X108529310Y-74352205D02*
G01*
X108588720Y-74379338D01*
X108655759Y-74399023D01*
X108655763Y-74399024D01*
X108798179Y-74419500D01*
X110223164Y-74419500D01*
X110235765Y-74420141D01*
X110297991Y-74426499D01*
X111698008Y-74426498D01*
X111760230Y-74420141D01*
X111772830Y-74419500D01*
X111889990Y-74419500D01*
X111890000Y-74419500D01*
X111997456Y-74407947D01*
X112048967Y-74396741D01*
X112101260Y-74379336D01*
X112151502Y-74362614D01*
X112151503Y-74362614D01*
X112154505Y-74360685D01*
X112157171Y-74359901D01*
X112158501Y-74359266D01*
X112158604Y-74359481D01*
X112221545Y-74341000D01*
X112628671Y-74341000D01*
X112663606Y-74346023D01*
X112678604Y-74350427D01*
X112737355Y-74388172D01*
X112737379Y-74388200D01*
X112737382Y-74388202D01*
X112737383Y-74388204D01*
X112738542Y-74389541D01*
X112766018Y-74444402D01*
X112767663Y-74451960D01*
X112770500Y-74478331D01*
X112770500Y-83412999D01*
X112770501Y-83413016D01*
X112781000Y-83515795D01*
X112781001Y-83515798D01*
X112836185Y-83682330D01*
X112836186Y-83682333D01*
X112928289Y-83831655D01*
X113052345Y-83955711D01*
X113201667Y-84047814D01*
X113368204Y-84102999D01*
X113470993Y-84113500D01*
X119191004Y-84113499D01*
X119225939Y-84118522D01*
X119240937Y-84122926D01*
X119299711Y-84160697D01*
X119299713Y-84160700D01*
X119299715Y-84160701D01*
X119299715Y-84160702D01*
X119304523Y-84166250D01*
X119332430Y-84223264D01*
X119333277Y-84227521D01*
X119354340Y-84333408D01*
X119354343Y-84333418D01*
X119354346Y-84333426D01*
X119354351Y-84333440D01*
X119403253Y-84451501D01*
X119411982Y-84485698D01*
X119414418Y-84508353D01*
X119407338Y-84564869D01*
X119406101Y-84568192D01*
X119402117Y-84576541D01*
X119402014Y-84577113D01*
X119401666Y-84577486D01*
X119396625Y-84588052D01*
X119380635Y-84615090D01*
X119380632Y-84615095D01*
X119380623Y-84615122D01*
X119334429Y-84774119D01*
X119334426Y-84774134D01*
X119334424Y-84774145D01*
X119331501Y-84811282D01*
X119331501Y-84811285D01*
X119331501Y-84811290D01*
X119331501Y-85368691D01*
X119331502Y-85368716D01*
X119331503Y-85368728D01*
X119334043Y-85401015D01*
X119334044Y-85401027D01*
X119334424Y-85405876D01*
X119334615Y-85406544D01*
X119337093Y-85415460D01*
X119337561Y-85416654D01*
X119343107Y-85435744D01*
X119356429Y-85481597D01*
X119380631Y-85564901D01*
X119464935Y-85707451D01*
X119464942Y-85707460D01*
X119572935Y-85815453D01*
X119582045Y-85824563D01*
X119582047Y-85824564D01*
X119724601Y-85908871D01*
X119766542Y-85921056D01*
X119854612Y-85946643D01*
X119872844Y-85951940D01*
X119874040Y-85952408D01*
X119882896Y-85954869D01*
X119883617Y-85955074D01*
X119883636Y-85955075D01*
X119883638Y-85955076D01*
X119883641Y-85955076D01*
X119883643Y-85955077D01*
X119920798Y-85958001D01*
X120363203Y-85958000D01*
X120400359Y-85955077D01*
X120559401Y-85908871D01*
X120701955Y-85824564D01*
X120819064Y-85707455D01*
X120903371Y-85564901D01*
X120940895Y-85435744D01*
X120949576Y-85405863D01*
X120949577Y-85405857D01*
X120952500Y-85368711D01*
X120952501Y-85368704D01*
X120952500Y-84811299D01*
X120949577Y-84774143D01*
X120903371Y-84615101D01*
X120836111Y-84501371D01*
X120834011Y-84497677D01*
X120803553Y-84441897D01*
X120788386Y-84382044D01*
X120788393Y-84380014D01*
X120789208Y-84375957D01*
X120788701Y-84373624D01*
X120790816Y-84367953D01*
X120796541Y-84339443D01*
X120795889Y-84339245D01*
X120797657Y-84333416D01*
X120797658Y-84333414D01*
X120818341Y-84229433D01*
X120819042Y-84227521D01*
X120818973Y-84226448D01*
X120831529Y-84193471D01*
X120838422Y-84181051D01*
X120838449Y-84180998D01*
X120885524Y-84133406D01*
X120885522Y-84133406D01*
X120885552Y-84133391D01*
X120891966Y-84129738D01*
X120953315Y-84113499D01*
X122471000Y-84113499D01*
X122471006Y-84113499D01*
X122573796Y-84102999D01*
X122740333Y-84047814D01*
X122889655Y-83955711D01*
X123013711Y-83831655D01*
X123105814Y-83682333D01*
X123160999Y-83515796D01*
X123171500Y-83413007D01*
X123171500Y-80904027D01*
X123176523Y-80869091D01*
X123180927Y-80854093D01*
X123218642Y-80795368D01*
X123218700Y-80795317D01*
X123218699Y-80795317D01*
X123220049Y-80794147D01*
X123274875Y-80766661D01*
X123279500Y-80765651D01*
X123282354Y-80765029D01*
X123308607Y-80762179D01*
X124138378Y-80760992D01*
X124205443Y-80780581D01*
X124237684Y-80810501D01*
X124244190Y-80819159D01*
X124281708Y-80869091D01*
X124293671Y-80885011D01*
X124341214Y-80936211D01*
X124341219Y-80936216D01*
X124425158Y-81004040D01*
X124453123Y-81026636D01*
X124585977Y-81081873D01*
X124649448Y-81098162D01*
X124651558Y-81098784D01*
X124653654Y-81099242D01*
X124653656Y-81099243D01*
X124796691Y-81114812D01*
X124810561Y-81114335D01*
X124882289Y-81106719D01*
X124917030Y-81100498D01*
X124986929Y-81082756D01*
X125011753Y-81074529D01*
X125038182Y-81068874D01*
X125040477Y-81068640D01*
X125053055Y-81068000D01*
X129188947Y-81068000D01*
X129201548Y-81068642D01*
X129203829Y-81068875D01*
X129230225Y-81074525D01*
X129261493Y-81084885D01*
X129287582Y-81097052D01*
X129324026Y-81119531D01*
X129364468Y-81159972D01*
X129386948Y-81196418D01*
X129399115Y-81222511D01*
X129409469Y-81253757D01*
X129415116Y-81280115D01*
X129415352Y-81282417D01*
X129415999Y-81295063D01*
X129415999Y-81930933D01*
X129415356Y-81943542D01*
X129415121Y-81945841D01*
X129409469Y-81972239D01*
X129399112Y-82003492D01*
X129386948Y-82029577D01*
X129354166Y-82082728D01*
X129354146Y-82082762D01*
X129352989Y-82084639D01*
X129351770Y-82086615D01*
X129339787Y-82107090D01*
X129334166Y-82117234D01*
X129329647Y-82125857D01*
X129328584Y-82127729D01*
X129328214Y-82128086D01*
X129324396Y-82134571D01*
X129316693Y-82146285D01*
X129316690Y-82146290D01*
X129294263Y-82188965D01*
X129257063Y-82280513D01*
X129249267Y-82306819D01*
X129249263Y-82306835D01*
X129233760Y-82377247D01*
X129228648Y-82412169D01*
X129223322Y-82484114D01*
X129197945Y-92658328D01*
X129178093Y-92725318D01*
X129125175Y-92770942D01*
X129055992Y-92780712D01*
X129042491Y-92777963D01*
X125557744Y-91864122D01*
X125546300Y-91858040D01*
X125536951Y-91856634D01*
X125525222Y-91850400D01*
X125515534Y-91844565D01*
X125510371Y-91838946D01*
X125507385Y-91837359D01*
X125498967Y-91829968D01*
X125491960Y-91818907D01*
X125468262Y-91793114D01*
X125465483Y-91777111D01*
X125461577Y-91770944D01*
X125461679Y-91755199D01*
X125456311Y-91724274D01*
X125461969Y-91710858D01*
X125462033Y-91701076D01*
X125473537Y-91683429D01*
X125483446Y-91659936D01*
X125484718Y-91658378D01*
X125494026Y-91652001D01*
X125500191Y-91642546D01*
X125522334Y-91632607D01*
X125542354Y-91618891D01*
X125655219Y-91582220D01*
X125837610Y-91489287D01*
X125955798Y-91403419D01*
X126003213Y-91368971D01*
X126003213Y-91368970D01*
X126003272Y-91368928D01*
X126004036Y-91368148D01*
X126147966Y-91224219D01*
X126147968Y-91224215D01*
X126147971Y-91224213D01*
X126201225Y-91150913D01*
X126268287Y-91058610D01*
X126361220Y-90876219D01*
X126424477Y-90681534D01*
X126456500Y-90479352D01*
X126456500Y-90274648D01*
X126424477Y-90072466D01*
X126424476Y-90072462D01*
X126424476Y-90072461D01*
X126396515Y-89986408D01*
X126361220Y-89877781D01*
X126361218Y-89877778D01*
X126361218Y-89877776D01*
X126358979Y-89873381D01*
X126358667Y-89872582D01*
X126357933Y-89871329D01*
X126289463Y-89736951D01*
X126268287Y-89695390D01*
X126260108Y-89684133D01*
X126147971Y-89529786D01*
X126003213Y-89385028D01*
X126003212Y-89385027D01*
X126003211Y-89385026D01*
X125848202Y-89272408D01*
X125848199Y-89272406D01*
X125837613Y-89264715D01*
X125837612Y-89264714D01*
X125837610Y-89264713D01*
X125765396Y-89227918D01*
X125765396Y-89227917D01*
X125765394Y-89227917D01*
X125655228Y-89171783D01*
X125655221Y-89171780D01*
X125550316Y-89137694D01*
X125460534Y-89108522D01*
X125460532Y-89108521D01*
X125460530Y-89108521D01*
X125460529Y-89108520D01*
X125280968Y-89080082D01*
X125280967Y-89080081D01*
X125258352Y-89076500D01*
X125053648Y-89076500D01*
X125031031Y-89080082D01*
X124851469Y-89108520D01*
X124851468Y-89108521D01*
X124656777Y-89171780D01*
X124656764Y-89171786D01*
X124474397Y-89264708D01*
X124474385Y-89264715D01*
X124308787Y-89385027D01*
X124308784Y-89385029D01*
X124164029Y-89529784D01*
X124164027Y-89529787D01*
X124043715Y-89695385D01*
X124043708Y-89695397D01*
X123950786Y-89877764D01*
X123950780Y-89877777D01*
X123887521Y-90072468D01*
X123855500Y-90274642D01*
X123855500Y-90479356D01*
X123887521Y-90681530D01*
X123950780Y-90876221D01*
X123950786Y-90876234D01*
X124043708Y-91058601D01*
X124043713Y-91058610D01*
X124043715Y-91058613D01*
X124163997Y-91224171D01*
X124164027Y-91224211D01*
X124164029Y-91224214D01*
X124199611Y-91259796D01*
X124207526Y-91273405D01*
X124217395Y-91282261D01*
X124220760Y-91288046D01*
X124226181Y-91297973D01*
X124228789Y-91309961D01*
X124231496Y-91314615D01*
X124234251Y-91324639D01*
X124234083Y-91334293D01*
X124241035Y-91366246D01*
X124233161Y-91387359D01*
X124233037Y-91394498D01*
X124227285Y-91403114D01*
X124216621Y-91431711D01*
X124199783Y-91444315D01*
X124194247Y-91452611D01*
X124180980Y-91458393D01*
X124160689Y-91473584D01*
X124160684Y-91473586D01*
X124159944Y-91473862D01*
X124139144Y-91476627D01*
X124130196Y-91480527D01*
X124120992Y-91479040D01*
X124105138Y-91481147D01*
X124103206Y-91480968D01*
X124083231Y-91477445D01*
X111405752Y-88152896D01*
X111392392Y-88147259D01*
X111392295Y-88147540D01*
X111387445Y-88145856D01*
X111382736Y-88143185D01*
X111373239Y-88139179D01*
X111369001Y-88136627D01*
X111369553Y-88135710D01*
X111355146Y-88127540D01*
X111354557Y-88128367D01*
X111346707Y-88122765D01*
X111347957Y-88121012D01*
X111341424Y-88113900D01*
X111325613Y-88104098D01*
X111307680Y-88077165D01*
X111306742Y-88076144D01*
X111306095Y-88074809D01*
X111305372Y-88073293D01*
X111298932Y-88056851D01*
X111264552Y-87946521D01*
X111258954Y-87911676D01*
X111258559Y-87887728D01*
X111269789Y-87834082D01*
X111270405Y-87832736D01*
X111280045Y-87815465D01*
X111376628Y-87670920D01*
X111376628Y-87670919D01*
X111376632Y-87670914D01*
X111376635Y-87670904D01*
X111377313Y-87669891D01*
X111378953Y-87665310D01*
X111452051Y-87488835D01*
X111459219Y-87452795D01*
X111464632Y-87425585D01*
X111464632Y-87425582D01*
X111490500Y-87295543D01*
X111490500Y-85815456D01*
X111490500Y-85815453D01*
X111451812Y-85620963D01*
X111449730Y-85616563D01*
X111428330Y-85564896D01*
X111397306Y-85489997D01*
X111376638Y-85440098D01*
X111376633Y-85440089D01*
X111376628Y-85440079D01*
X111267139Y-85276218D01*
X111267136Y-85276214D01*
X111124686Y-85133764D01*
X111124670Y-85133749D01*
X111123225Y-85132304D01*
X111123225Y-85132303D01*
X111123193Y-85132273D01*
X109434426Y-83443506D01*
X109434421Y-83443501D01*
X109413274Y-83415250D01*
X109400667Y-83392161D01*
X109385500Y-83332736D01*
X109385500Y-83118317D01*
X109385500Y-83118313D01*
X109385499Y-83118298D01*
X109382598Y-83081432D01*
X109382597Y-83081426D01*
X109336745Y-82923606D01*
X109336744Y-82923603D01*
X109336744Y-82923602D01*
X109253081Y-82782135D01*
X109253079Y-82782133D01*
X109253076Y-82782129D01*
X109250138Y-82779191D01*
X109250137Y-82779189D01*
X109136875Y-82665927D01*
X109136857Y-82665913D01*
X109058681Y-82619681D01*
X109008880Y-82590229D01*
X109002271Y-82585102D01*
X108986158Y-82578428D01*
X108978449Y-82577331D01*
X108930704Y-82563459D01*
X108837579Y-82536403D01*
X108837573Y-82536402D01*
X108837572Y-82536401D01*
X108837570Y-82536401D01*
X108800708Y-82533500D01*
X108800701Y-82533500D01*
X108800694Y-82533500D01*
X108369306Y-82533500D01*
X108369298Y-82533500D01*
X108369290Y-82533500D01*
X108332428Y-82536401D01*
X108332426Y-82536401D01*
X108332425Y-82536402D01*
X108332419Y-82536403D01*
X108174612Y-82582252D01*
X108174599Y-82582256D01*
X108149887Y-82596871D01*
X108082163Y-82614051D01*
X108015901Y-82591890D01*
X107972139Y-82537423D01*
X107962779Y-82491697D01*
X107961339Y-82377247D01*
X107949163Y-81409199D01*
X107945730Y-81356407D01*
X107942697Y-81330665D01*
X107933765Y-81278514D01*
X107932180Y-81271492D01*
X107905136Y-81196418D01*
X107889885Y-81154082D01*
X107889883Y-81154079D01*
X107889881Y-81154072D01*
X107862388Y-81099885D01*
X107862386Y-81099882D01*
X107862384Y-81099878D01*
X107862382Y-81099875D01*
X107825352Y-81044963D01*
X107804190Y-80978375D01*
X107822388Y-80910916D01*
X107874168Y-80864006D01*
X107929984Y-80851647D01*
X108963032Y-80866879D01*
X109073063Y-80856417D01*
X109125838Y-80845480D01*
X109230948Y-80811361D01*
X109352376Y-80734180D01*
X109405408Y-80688690D01*
X109405411Y-80688687D01*
X109500175Y-80580421D01*
X109560597Y-80449843D01*
X109580616Y-80382903D01*
X109601804Y-80240594D01*
X109613684Y-77863935D01*
X109602669Y-77756427D01*
X109591721Y-77704860D01*
X109558106Y-77602152D01*
X109480925Y-77480724D01*
X109435435Y-77427692D01*
X109435432Y-77427689D01*
X109327166Y-77332925D01*
X109327164Y-77332924D01*
X109327163Y-77332923D01*
X109196598Y-77272507D01*
X109196585Y-77272502D01*
X109129653Y-77252485D01*
X109129639Y-77252482D01*
X108987336Y-77231295D01*
X108987337Y-77231295D01*
X107052232Y-77221623D01*
X106985292Y-77201604D01*
X106939802Y-77148572D01*
X106928854Y-77098154D01*
X106917711Y-74465524D01*
X106937112Y-74398403D01*
X106989722Y-74352425D01*
X107041710Y-74341000D01*
X108477798Y-74341000D01*
X108529310Y-74352205D01*
G37*
%TD.AperFunction*%
%TD*%
%TA.AperFunction,Conductor*%
%TO.N,+3V3*%
G36*
X190673464Y-78036290D02*
G01*
X190726774Y-78081455D01*
X190747203Y-78148271D01*
X190747210Y-78149253D01*
X190752816Y-79895287D01*
X190753601Y-80139602D01*
X190734132Y-80206704D01*
X190681475Y-80252628D01*
X190629602Y-80264000D01*
X190280712Y-80264000D01*
X190216334Y-80245979D01*
X189776274Y-79978658D01*
X189733265Y-79934679D01*
X189710522Y-79895287D01*
X189710518Y-79895282D01*
X189598717Y-79783481D01*
X189598709Y-79783475D01*
X189461790Y-79704426D01*
X189461786Y-79704424D01*
X189461784Y-79704423D01*
X189309057Y-79663500D01*
X189309050Y-79663498D01*
X189301893Y-79662556D01*
X189244859Y-79639689D01*
X189237154Y-79634051D01*
X189193114Y-79590011D01*
X189116571Y-79545818D01*
X189111153Y-79541854D01*
X189093829Y-79519230D01*
X189076138Y-79500675D01*
X189075480Y-79501035D01*
X189071230Y-79493253D01*
X189071229Y-79493249D01*
X189001798Y-79400500D01*
X188984119Y-79376883D01*
X188977278Y-79371762D01*
X188867751Y-79289771D01*
X188867749Y-79289770D01*
X188867751Y-79289770D01*
X188731565Y-79238975D01*
X188731554Y-79238972D01*
X188671365Y-79232500D01*
X188582667Y-79232500D01*
X188566336Y-79227928D01*
X188550754Y-79228323D01*
X188518289Y-79214479D01*
X188411130Y-79149384D01*
X188364053Y-79097755D01*
X188352363Y-79028870D01*
X188356636Y-79011198D01*
X188356243Y-79011105D01*
X188358024Y-79003563D01*
X188358027Y-79003557D01*
X188360446Y-78981049D01*
X188364499Y-78943365D01*
X188364499Y-78943358D01*
X188364500Y-78943349D01*
X188364499Y-78536652D01*
X188360013Y-78494923D01*
X188372419Y-78426167D01*
X188420030Y-78375030D01*
X188464289Y-78359138D01*
X190604199Y-78027117D01*
X190673464Y-78036290D01*
G37*
%TD.AperFunction*%
%TD*%
M02*
