%TF.GenerationSoftware,KiCad,Pcbnew,10.0.4*%
%TF.CreationDate,2026-07-03T13:20:28+08:00*%
%TF.ProjectId,embo,656d626f-2e6b-4696-9361-645f70636258,rev?*%
%TF.SameCoordinates,Original*%
%TF.FileFunction,Soldermask,Top*%
%TF.FilePolarity,Negative*%
%FSLAX46Y46*%
G04 Gerber Fmt 4.6, Leading zero omitted, Abs format (unit mm)*
G04 Created by KiCad (PCBNEW 10.0.4) date 2026-07-03 13:20:28*
%MOMM*%
%LPD*%
G01*
G04 APERTURE LIST*
G04 Aperture macros list*
%AMRoundRect*
0 Rectangle with rounded corners*
0 $1 Rounding radius*
0 $2 $3 $4 $5 $6 $7 $8 $9 X,Y pos of 4 corners*
0 Add a 4 corners polygon primitive as box body*
4,1,4,$2,$3,$4,$5,$6,$7,$8,$9,$2,$3,0*
0 Add four circle primitives for the rounded corners*
1,1,$1+$1,$2,$3*
1,1,$1+$1,$4,$5*
1,1,$1+$1,$6,$7*
1,1,$1+$1,$8,$9*
0 Add four rect primitives between the rounded corners*
20,1,$1+$1,$2,$3,$4,$5,0*
20,1,$1+$1,$4,$5,$6,$7,0*
20,1,$1+$1,$6,$7,$8,$9,0*
20,1,$1+$1,$8,$9,$2,$3,0*%
G04 Aperture macros list end*
%ADD10RoundRect,0.160000X0.197500X0.160000X-0.197500X0.160000X-0.197500X-0.160000X0.197500X-0.160000X0*%
%ADD11R,1.700000X1.700000*%
%ADD12C,1.700000*%
%ADD13RoundRect,0.250000X0.250000X0.475000X-0.250000X0.475000X-0.250000X-0.475000X0.250000X-0.475000X0*%
%ADD14C,2.200000*%
%ADD15RoundRect,0.150000X0.150000X-0.825000X0.150000X0.825000X-0.150000X0.825000X-0.150000X-0.825000X0*%
%ADD16R,2.290000X5.080000*%
%ADD17R,2.420000X5.080000*%
%ADD18RoundRect,0.160000X-0.197500X-0.160000X0.197500X-0.160000X0.197500X0.160000X-0.197500X0.160000X0*%
%ADD19RoundRect,0.243750X-0.243750X-0.456250X0.243750X-0.456250X0.243750X0.456250X-0.243750X0.456250X0*%
%ADD20RoundRect,0.155000X-0.259862X0.040659X0.040659X-0.259862X0.259862X-0.040659X-0.040659X0.259862X0*%
%ADD21RoundRect,0.160000X-0.160000X0.197500X-0.160000X-0.197500X0.160000X-0.197500X0.160000X0.197500X0*%
%ADD22RoundRect,0.250000X0.650000X-1.000000X0.650000X1.000000X-0.650000X1.000000X-0.650000X-1.000000X0*%
%ADD23RoundRect,0.250001X-0.949999X0.949999X-0.949999X-0.949999X0.949999X-0.949999X0.949999X0.949999X0*%
%ADD24C,2.400000*%
%ADD25RoundRect,0.155000X-0.155000X0.212500X-0.155000X-0.212500X0.155000X-0.212500X0.155000X0.212500X0*%
%ADD26RoundRect,0.155000X0.155000X-0.212500X0.155000X0.212500X-0.155000X0.212500X-0.155000X-0.212500X0*%
%ADD27C,1.600000*%
%ADD28RoundRect,0.160000X0.160000X-0.197500X0.160000X0.197500X-0.160000X0.197500X-0.160000X-0.197500X0*%
%ADD29RoundRect,0.250000X-0.545000X-0.445000X0.545000X-0.445000X0.545000X0.445000X-0.545000X0.445000X0*%
%ADD30RoundRect,0.155000X0.212500X0.155000X-0.212500X0.155000X-0.212500X-0.155000X0.212500X-0.155000X0*%
%ADD31RoundRect,0.225000X0.225000X0.375000X-0.225000X0.375000X-0.225000X-0.375000X0.225000X-0.375000X0*%
%ADD32RoundRect,0.250000X-0.475000X-0.250000X0.475000X-0.250000X0.475000X0.250000X-0.475000X0.250000X0*%
%ADD33RoundRect,0.150000X-0.587500X-0.150000X0.587500X-0.150000X0.587500X0.150000X-0.587500X0.150000X0*%
%ADD34RoundRect,0.250000X-0.400000X-1.450000X0.400000X-1.450000X0.400000X1.450000X-0.400000X1.450000X0*%
%ADD35C,0.650000*%
%ADD36RoundRect,0.150000X0.150000X0.575000X-0.150000X0.575000X-0.150000X-0.575000X0.150000X-0.575000X0*%
%ADD37RoundRect,0.075000X0.075000X0.650000X-0.075000X0.650000X-0.075000X-0.650000X0.075000X-0.650000X0*%
%ADD38O,1.000000X2.100000*%
%ADD39O,1.000000X1.600000*%
%ADD40RoundRect,0.155000X-0.212500X-0.155000X0.212500X-0.155000X0.212500X0.155000X-0.212500X0.155000X0*%
%ADD41R,5.400000X2.900000*%
%ADD42RoundRect,0.250000X2.050000X0.300000X-2.050000X0.300000X-2.050000X-0.300000X2.050000X-0.300000X0*%
%ADD43RoundRect,0.250002X4.449998X5.149998X-4.449998X5.149998X-4.449998X-5.149998X4.449998X-5.149998X0*%
%ADD44R,0.900000X1.500000*%
%ADD45R,1.500000X0.900000*%
%ADD46C,0.600000*%
%ADD47R,3.900000X3.900000*%
%ADD48RoundRect,0.150000X-0.825000X-0.150000X0.825000X-0.150000X0.825000X0.150000X-0.825000X0.150000X0*%
%ADD49RoundRect,0.250000X0.250000X-0.475000X0.250000X0.475000X-0.250000X0.475000X-0.250000X-0.475000X0*%
%ADD50RoundRect,0.250000X0.475000X-0.250000X0.475000X0.250000X-0.475000X0.250000X-0.475000X-0.250000X0*%
%ADD51RoundRect,0.250000X-0.445000X0.545000X-0.445000X-0.545000X0.445000X-0.545000X0.445000X0.545000X0*%
%ADD52RoundRect,0.160000X-0.026517X-0.252791X0.252791X0.026517X0.026517X0.252791X-0.252791X-0.026517X0*%
%ADD53RoundRect,0.150000X0.587500X0.150000X-0.587500X0.150000X-0.587500X-0.150000X0.587500X-0.150000X0*%
%ADD54RoundRect,0.140000X0.140000X0.170000X-0.140000X0.170000X-0.140000X-0.170000X0.140000X-0.170000X0*%
%ADD55RoundRect,0.225000X-0.225000X-0.375000X0.225000X-0.375000X0.225000X0.375000X-0.225000X0.375000X0*%
%ADD56RoundRect,0.250000X-0.250000X-0.475000X0.250000X-0.475000X0.250000X0.475000X-0.250000X0.475000X0*%
%ADD57RoundRect,0.250000X0.600000X0.600000X-0.600000X0.600000X-0.600000X-0.600000X0.600000X-0.600000X0*%
%ADD58RoundRect,0.250000X0.725000X-0.600000X0.725000X0.600000X-0.725000X0.600000X-0.725000X-0.600000X0*%
%ADD59O,1.950000X1.700000*%
%ADD60RoundRect,0.250000X0.750000X-0.600000X0.750000X0.600000X-0.750000X0.600000X-0.750000X-0.600000X0*%
%ADD61O,2.000000X1.700000*%
%ADD62RoundRect,0.250000X-0.600000X-0.725000X0.600000X-0.725000X0.600000X0.725000X-0.600000X0.725000X0*%
%ADD63O,1.700000X1.950000*%
%ADD64RoundRect,0.087500X0.662500X0.087500X-0.662500X0.087500X-0.662500X-0.087500X0.662500X-0.087500X0*%
%ADD65RoundRect,0.250000X-1.000000X-0.650000X1.000000X-0.650000X1.000000X0.650000X-1.000000X0.650000X0*%
%ADD66RoundRect,0.140000X0.170000X-0.140000X0.170000X0.140000X-0.170000X0.140000X-0.170000X-0.140000X0*%
%ADD67RoundRect,0.375000X-0.625000X-0.375000X0.625000X-0.375000X0.625000X0.375000X-0.625000X0.375000X0*%
%ADD68RoundRect,0.500000X-0.500000X-1.400000X0.500000X-1.400000X0.500000X1.400000X-0.500000X1.400000X0*%
G04 APERTURE END LIST*
D10*
%TO.C,R35*%
X177446500Y-104648000D03*
X176251500Y-104648000D03*
%TD*%
D11*
%TO.C,J12*%
X120650000Y-114151211D03*
D12*
X120650000Y-111611211D03*
X120650000Y-109071212D03*
X120650000Y-106531211D03*
X120650000Y-103991211D03*
X120650000Y-101451211D03*
X120650000Y-98911211D03*
X120650000Y-96371210D03*
%TD*%
D13*
%TO.C,C28*%
X191957999Y-78740000D03*
X190058001Y-78740000D03*
%TD*%
D14*
%TO.C,REF\u002A\u002A*%
X190246000Y-116078000D03*
%TD*%
%TO.C,REF\u002A\u002A*%
X99314000Y-73406000D03*
%TD*%
D15*
%TO.C,Q1*%
X104775000Y-84009000D03*
X106045000Y-84009000D03*
X107315000Y-84009000D03*
X108585000Y-84009000D03*
X108585000Y-79059000D03*
X107315000Y-79059000D03*
X106045000Y-79059000D03*
X104775000Y-79059000D03*
%TD*%
D16*
%TO.C,J2*%
X176276000Y-116072000D03*
D17*
X171896000Y-116072000D03*
X180656000Y-116072000D03*
%TD*%
D18*
%TO.C,R26*%
X176251500Y-106045000D03*
X177446500Y-106045000D03*
%TD*%
D10*
%TO.C,R29*%
X174930999Y-107188000D03*
X173735999Y-107188000D03*
%TD*%
D19*
%TO.C,LED_stat1*%
X184814998Y-102870000D03*
X186690000Y-102870000D03*
%TD*%
D20*
%TO.C,C36*%
X134940717Y-114379434D03*
X135743283Y-115182000D03*
%TD*%
D21*
%TO.C,R5*%
X110490000Y-87197000D03*
X110490000Y-88392000D03*
%TD*%
D10*
%TO.C,R22*%
X185066500Y-112014000D03*
X183871500Y-112014000D03*
%TD*%
D22*
%TO.C,D5*%
X110998000Y-76676001D03*
X110998000Y-72675999D03*
%TD*%
D23*
%TO.C,J14*%
X101670500Y-87658000D03*
D24*
X101670500Y-91158000D03*
%TD*%
D25*
%TO.C,C12*%
X163830000Y-75405000D03*
X163830000Y-76540000D03*
%TD*%
D26*
%TO.C,C25*%
X183134000Y-103437500D03*
X183134000Y-102302500D03*
%TD*%
D27*
%TO.C,C38*%
X136926000Y-111880000D03*
X139426000Y-111880000D03*
%TD*%
D28*
%TO.C,R39*%
X165862000Y-103721500D03*
X165862000Y-102526500D03*
%TD*%
D29*
%TO.C,C7*%
X155786000Y-79502000D03*
X158666000Y-79502000D03*
%TD*%
D27*
%TO.C,C16*%
X125156000Y-86877000D03*
X125156000Y-90377000D03*
%TD*%
D30*
%TO.C,C27*%
X159891501Y-110744000D03*
X158756501Y-110744000D03*
%TD*%
D13*
%TO.C,C26*%
X181543999Y-102870000D03*
X179644001Y-102870000D03*
%TD*%
D16*
%TO.C,J1*%
X164084000Y-116072000D03*
D17*
X159704000Y-116072000D03*
X168464000Y-116072000D03*
%TD*%
D18*
%TO.C,Rsnub1*%
X131482500Y-73660000D03*
X132677500Y-73660000D03*
%TD*%
D31*
%TO.C,D2*%
X190118000Y-108204000D03*
X186818000Y-108204000D03*
%TD*%
D18*
%TO.C,R32*%
X158726501Y-109474000D03*
X159921501Y-109474000D03*
%TD*%
D30*
%TO.C,C18*%
X167251000Y-80264000D03*
X166116000Y-80264000D03*
%TD*%
D32*
%TO.C,SW_boot1*%
X164811000Y-108394612D03*
X169961000Y-108394612D03*
X164811000Y-110094612D03*
X169961000Y-110094612D03*
%TD*%
D33*
%TO.C,D1*%
X172798500Y-108778000D03*
X172798500Y-110678000D03*
X174673501Y-109728000D03*
%TD*%
D21*
%TO.C,R31*%
X186690000Y-110799500D03*
X186690000Y-111994500D03*
%TD*%
D25*
%TO.C,C31*%
X171958000Y-102048500D03*
X171958000Y-103183500D03*
%TD*%
D34*
%TO.C,F1*%
X103245998Y-75438000D03*
X107696000Y-75438000D03*
%TD*%
D35*
%TO.C,J13*%
X180642000Y-75742001D03*
X174862000Y-75742001D03*
D36*
X181002000Y-77187001D03*
X180202001Y-77187001D03*
D37*
X179002000Y-77187000D03*
X178002000Y-77187001D03*
X177502000Y-77187001D03*
X176502000Y-77187000D03*
D36*
X175301999Y-77187001D03*
X174502000Y-77187001D03*
X174502000Y-77187001D03*
X175301999Y-77187001D03*
D37*
X176002000Y-77187001D03*
X177002000Y-77187001D03*
X178502000Y-77187001D03*
X179502000Y-77187001D03*
D36*
X180202001Y-77187001D03*
X181002000Y-77187001D03*
D38*
X182072000Y-76272001D03*
D39*
X182072000Y-72092001D03*
D38*
X173432000Y-76272001D03*
D39*
X173432000Y-72092001D03*
%TD*%
D40*
%TO.C,Csnub1*%
X134306500Y-73660000D03*
X135441500Y-73660000D03*
%TD*%
D41*
%TO.C,L1*%
X136652000Y-90726000D03*
X136652000Y-81026000D03*
%TD*%
D28*
%TO.C,R6*%
X188468000Y-103467500D03*
X188468000Y-102272500D03*
%TD*%
D42*
%TO.C,U2*%
X127121000Y-81613000D03*
X127120999Y-79913000D03*
X127121000Y-78213000D03*
D43*
X117971000Y-78213000D03*
D42*
X127120999Y-76513000D03*
X127121000Y-74813000D03*
%TD*%
D26*
%TO.C,C20*%
X176197500Y-108517500D03*
X176197500Y-107382500D03*
%TD*%
D25*
%TO.C,C35*%
X164592000Y-101794500D03*
X164592000Y-102929500D03*
%TD*%
D44*
%TO.C,U1*%
X191516000Y-82944000D03*
X190246000Y-82944000D03*
X188976000Y-82944000D03*
X187706000Y-82944000D03*
X186436000Y-82944000D03*
X185166000Y-82944000D03*
X183896000Y-82944000D03*
X182626000Y-82944000D03*
X181356000Y-82944000D03*
X180086000Y-82944000D03*
X178816000Y-82944000D03*
X177546000Y-82944000D03*
X176276000Y-82944000D03*
X175006000Y-82944000D03*
D45*
X173756000Y-84709000D03*
X173756000Y-85979000D03*
X173756000Y-87249000D03*
X173756000Y-88519000D03*
X173756000Y-89789000D03*
X173756000Y-91059000D03*
X173756000Y-92329000D03*
X173756000Y-93599000D03*
X173756000Y-94869000D03*
X173756000Y-96139000D03*
X173756000Y-97409000D03*
X173756000Y-98679000D03*
D44*
X175006000Y-100444000D03*
X176276000Y-100444000D03*
X177546000Y-100444000D03*
X178816000Y-100444000D03*
X180086000Y-100444000D03*
X181356000Y-100444000D03*
X182626000Y-100444000D03*
X183896000Y-100444000D03*
X185166000Y-100444000D03*
X186436000Y-100444000D03*
X187706000Y-100444000D03*
X188976000Y-100444000D03*
X190246000Y-100444000D03*
X191516000Y-100444000D03*
D46*
X184496000Y-88794000D03*
X183096000Y-88794000D03*
X185196000Y-89494000D03*
X183796000Y-89494000D03*
X182396000Y-89494000D03*
X184496000Y-90194000D03*
D47*
X183796000Y-90194000D03*
D46*
X183096000Y-90194000D03*
X185196000Y-90894000D03*
X183796000Y-90894000D03*
X182396000Y-90894000D03*
X184496000Y-91594000D03*
X183096000Y-91594000D03*
%TD*%
D18*
%TO.C,R21*%
X183871500Y-110490000D03*
X185066500Y-110490000D03*
%TD*%
D48*
%TO.C,IC2*%
X179389000Y-105029000D03*
X179389000Y-106299000D03*
X179389000Y-107569000D03*
X179389000Y-108839000D03*
X184339000Y-108839000D03*
X184339000Y-107569000D03*
X184339000Y-106299000D03*
X184339000Y-105029000D03*
%TD*%
D49*
%TO.C,SW_reset1*%
X184570000Y-76997000D03*
X184570000Y-71847000D03*
X186270000Y-76997000D03*
X186270000Y-71847000D03*
%TD*%
D18*
%TO.C,R41*%
X171106500Y-106172000D03*
X172301500Y-106172000D03*
%TD*%
D28*
%TO.C,R40*%
X187198000Y-81115500D03*
X187198000Y-79920500D03*
%TD*%
D10*
%TO.C,R_UART1*%
X185509500Y-81026000D03*
X184314500Y-81026000D03*
%TD*%
D50*
%TO.C,C33*%
X170180000Y-104327999D03*
X170180000Y-102428001D03*
%TD*%
D10*
%TO.C,R37*%
X162461501Y-108204000D03*
X161266501Y-108204000D03*
%TD*%
D51*
%TO.C,C11*%
X165608000Y-73152000D03*
X165608000Y-76032000D03*
%TD*%
D52*
%TO.C,R12*%
X116671504Y-115350496D03*
X117516496Y-114505504D03*
%TD*%
D53*
%TO.C,D7*%
X108458001Y-88797501D03*
X108458001Y-86897501D03*
X106583000Y-87847501D03*
%TD*%
D10*
%TO.C,R17*%
X171491500Y-75936001D03*
X170296500Y-75936001D03*
%TD*%
D54*
%TO.C,C_env1*%
X187424000Y-104902000D03*
X186464000Y-104902000D03*
%TD*%
D55*
%TO.C,D6*%
X167974000Y-72126001D03*
X171274000Y-72126001D03*
%TD*%
D18*
%TO.C,R_PDN_UP1*%
X184314500Y-79502000D03*
X185509500Y-79502000D03*
%TD*%
D40*
%TO.C,C22*%
X187646500Y-78740000D03*
X188781500Y-78740000D03*
%TD*%
D56*
%TO.C,C24*%
X160086001Y-97790000D03*
X161985999Y-97790000D03*
%TD*%
D57*
%TO.C,J9*%
X153416000Y-110998000D03*
D12*
X150876000Y-110998000D03*
X153416000Y-108458000D03*
X150876000Y-108458000D03*
X153416000Y-105918001D03*
X150876000Y-105918000D03*
X153416000Y-103378000D03*
X150876000Y-103378000D03*
X153416000Y-100838000D03*
X150876000Y-100838000D03*
X153416000Y-98298000D03*
X150876000Y-98298000D03*
X153416000Y-95758000D03*
X150876000Y-95758000D03*
X153416000Y-93217999D03*
X150876000Y-93218000D03*
X153416000Y-90678000D03*
X150876000Y-90678000D03*
X153416000Y-88138000D03*
X150876000Y-88138000D03*
%TD*%
D53*
%TO.C,D3*%
X191691500Y-105852000D03*
X191691500Y-103952000D03*
X189816499Y-104902000D03*
%TD*%
D52*
%TO.C,R9*%
X117100508Y-117008496D03*
X117945500Y-116163504D03*
%TD*%
D14*
%TO.C,REF\u002A\u002A*%
X99314000Y-116078000D03*
%TD*%
D58*
%TO.C,J5*%
X101854000Y-110196000D03*
D59*
X101854000Y-107696000D03*
X101854000Y-105196000D03*
X101854000Y-102696000D03*
X101854000Y-100196000D03*
X101854000Y-97696000D03*
%TD*%
D26*
%TO.C,C23*%
X158562001Y-98357500D03*
X158562001Y-97222500D03*
%TD*%
D18*
%TO.C,R33*%
X158726501Y-108204000D03*
X159921501Y-108204000D03*
%TD*%
D10*
%TO.C,R18*%
X171491500Y-74200000D03*
X170296500Y-74200000D03*
%TD*%
D60*
%TO.C,J7*%
X168377501Y-86360000D03*
D61*
X168377501Y-83860000D03*
%TD*%
D62*
%TO.C,J3*%
X164353501Y-92456000D03*
D63*
X166853501Y-92456000D03*
X169353501Y-92456000D03*
%TD*%
D25*
%TO.C,Cbuckout1*%
X146050000Y-80966500D03*
X146050000Y-82101500D03*
%TD*%
D27*
%TO.C,C39*%
X112796000Y-111880000D03*
X115296000Y-111880000D03*
%TD*%
D18*
%TO.C,R28*%
X173736000Y-105918000D03*
X174931000Y-105918000D03*
%TD*%
D60*
%TO.C,J8*%
X149860000Y-76454000D03*
D61*
X149860000Y-73954000D03*
%TD*%
D64*
%TO.C,U4*%
X169232000Y-99552000D03*
X169232000Y-99052000D03*
X169232000Y-98552000D03*
X169232000Y-98052000D03*
X169232000Y-97552000D03*
X165032000Y-97552000D03*
X165032000Y-98052000D03*
X165032000Y-98552000D03*
X165032000Y-99052000D03*
X165032000Y-99552000D03*
%TD*%
D26*
%TO.C,Cbuck1*%
X120142001Y-86225001D03*
X120142001Y-85090001D03*
%TD*%
D40*
%TO.C,C17*%
X162754499Y-80264000D03*
X163889499Y-80264000D03*
%TD*%
D30*
%TO.C,C41*%
X169477500Y-106172000D03*
X168342500Y-106172000D03*
%TD*%
D11*
%TO.C,J15*%
X107950000Y-114151211D03*
D12*
X107950000Y-111611211D03*
X107950000Y-109071212D03*
X107950000Y-106531211D03*
X107950000Y-103991211D03*
X107950000Y-101451211D03*
X107950000Y-98911211D03*
X107950000Y-96371210D03*
%TD*%
D40*
%TO.C,C_adc1*%
X190948500Y-102362000D03*
X192083500Y-102362000D03*
%TD*%
D65*
%TO.C,D4*%
X131857999Y-76200000D03*
X135858001Y-76200000D03*
%TD*%
D28*
%TO.C,R27*%
X188214000Y-111397000D03*
X188214000Y-110202000D03*
%TD*%
D26*
%TO.C,C10*%
X188468000Y-81085500D03*
X188468000Y-79950500D03*
%TD*%
%TO.C,C30*%
X171196000Y-98552000D03*
X171196000Y-97417000D03*
%TD*%
D11*
%TO.C,J10*%
X144526000Y-114111211D03*
D12*
X144526000Y-111571211D03*
X144526000Y-109031212D03*
X144526000Y-106491211D03*
X144526000Y-103951211D03*
X144526000Y-101411211D03*
X144526000Y-98871211D03*
X144526000Y-96331210D03*
%TD*%
D27*
%TO.C,C19*%
X142494000Y-76708000D03*
X142494000Y-73208000D03*
%TD*%
D58*
%TO.C,J4*%
X125730000Y-110116000D03*
D59*
X125730000Y-107616000D03*
X125730000Y-105116000D03*
X125730000Y-102616000D03*
X125730000Y-100116000D03*
X125730000Y-97616000D03*
%TD*%
D11*
%TO.C,J11*%
X131826000Y-114111211D03*
D12*
X131826000Y-111571211D03*
X131826000Y-109031212D03*
X131826000Y-106491211D03*
X131826000Y-103951211D03*
X131826000Y-101411211D03*
X131826000Y-98871211D03*
X131826000Y-96331210D03*
%TD*%
D10*
%TO.C,R_env1*%
X187795500Y-106172000D03*
X186600500Y-106172000D03*
%TD*%
D30*
%TO.C,C21*%
X177416500Y-103378000D03*
X176281500Y-103378000D03*
%TD*%
D66*
%TO.C,C34*%
X168402000Y-103096000D03*
X168402000Y-102136000D03*
%TD*%
D21*
%TO.C,R19*%
X144780000Y-80936500D03*
X144780000Y-82131500D03*
%TD*%
D60*
%TO.C,J6*%
X160577500Y-86360000D03*
D61*
X160577500Y-83860000D03*
%TD*%
D52*
%TO.C,R1*%
X140547504Y-115260996D03*
X141392496Y-114416004D03*
%TD*%
D15*
%TO.C,IC1*%
X158689001Y-105853000D03*
X159959001Y-105853000D03*
X161229001Y-105853000D03*
X162499001Y-105853000D03*
X162499001Y-100903000D03*
X161229001Y-100903000D03*
X159959001Y-100903000D03*
X158689001Y-100903000D03*
%TD*%
D28*
%TO.C,R_in1*%
X176197500Y-110899499D03*
X176197500Y-109704499D03*
%TD*%
D67*
%TO.C,U3*%
X155346000Y-72376000D03*
X155346001Y-74676000D03*
D68*
X161645999Y-74676000D03*
D67*
X155346000Y-76976000D03*
%TD*%
D20*
%TO.C,C13*%
X110850717Y-114526717D03*
X111653283Y-115329283D03*
%TD*%
D21*
%TO.C,R38*%
X167132000Y-103542500D03*
X167132000Y-104737500D03*
%TD*%
D14*
%TO.C,REF\u002A\u002A*%
X190246000Y-73406000D03*
%TD*%
M02*
