G04 #@! TF.GenerationSoftware,KiCad,Pcbnew,10.0.3*
G04 #@! TF.CreationDate,2026-07-21T15:41:50+08:00*
G04 #@! TF.ProjectId,MAX30102,4d415833-3031-4303-922e-6b696361645f,rev?*
G04 #@! TF.SameCoordinates,Original*
G04 #@! TF.FileFunction,Copper,L2,Bot*
G04 #@! TF.FilePolarity,Positive*
%FSLAX46Y46*%
G04 Gerber Fmt 4.6, Leading zero omitted, Abs format (unit mm)*
G04 Created by KiCad (PCBNEW 10.0.3) date 2026-07-21 15:41:50*
%MOMM*%
%LPD*%
G01*
G04 APERTURE LIST*
G04 Aperture macros list*
%AMRoundRect*
0 Rectangle with rounded corners*
0 $1 Rounding radius*
0 $2 $3 $4 $5 $6 $7 $8 $9 X,Y pos of 4 corners*
0 Add a 4 corners polygon primitive as box body*
4,1,4,$2,$3,$4,$5,$6,$7,$8,$9,$2,$3,0*
0 Add four circle primitives for the rounded corners*
1,1,$1+$1,$2,$3*
1,1,$1+$1,$4,$5*
1,1,$1+$1,$6,$7*
1,1,$1+$1,$8,$9*
0 Add four rect primitives between the rounded corners*
20,1,$1+$1,$2,$3,$4,$5,0*
20,1,$1+$1,$4,$5,$6,$7,0*
20,1,$1+$1,$6,$7,$8,$9,0*
20,1,$1+$1,$8,$9,$2,$3,0*%
G04 Aperture macros list end*
G04 #@! TA.AperFunction,ComponentPad*
%ADD10R,1.700000X1.700000*%
G04 #@! TD*
G04 #@! TA.AperFunction,ComponentPad*
%ADD11C,1.700000*%
G04 #@! TD*
G04 #@! TA.AperFunction,ComponentPad*
%ADD12RoundRect,0.250000X-0.725000X0.600000X-0.725000X-0.600000X0.725000X-0.600000X0.725000X0.600000X0*%
G04 #@! TD*
G04 #@! TA.AperFunction,ComponentPad*
%ADD13O,1.950000X1.700000*%
G04 #@! TD*
G04 #@! TA.AperFunction,Conductor*
%ADD14C,0.500000*%
G04 #@! TD*
G04 APERTURE END LIST*
D10*
X114300000Y-93980000D03*
D11*
X114300000Y-96520000D03*
X114300000Y-99060000D03*
X114300000Y-101600000D03*
D10*
X124460000Y-93980000D03*
D11*
X124460000Y-96520000D03*
X124460000Y-99060000D03*
X124460000Y-101600000D03*
D12*
X144780000Y-93980000D03*
D13*
X144780000Y-96480000D03*
X144780000Y-98980000D03*
X144780000Y-101480000D03*
D14*
X144780000Y-93980000D02*
X124460000Y-93980000D01*
X126920000Y-98980000D02*
X124460000Y-96520000D01*
X144780000Y-98980000D02*
X126920000Y-98980000D01*
X144780000Y-101480000D02*
X126880000Y-101480000D01*
X126880000Y-101480000D02*
X124460000Y-99060000D01*
G04 #@! TA.AperFunction,Conductor*
G36*
X143291738Y-94750185D02*
G01*
X143337493Y-94802989D01*
X143342403Y-94815492D01*
X143363059Y-94877827D01*
X143370185Y-94899331D01*
X143370187Y-94899336D01*
X143462289Y-95048657D01*
X143586344Y-95172712D01*
X143741558Y-95268448D01*
X143788283Y-95320396D01*
X143799506Y-95389358D01*
X143771663Y-95453441D01*
X143764144Y-95461668D01*
X143625271Y-95600541D01*
X143500379Y-95772442D01*
X143403907Y-95961777D01*
X143357371Y-96104999D01*
X143357371Y-96105000D01*
X144483248Y-96105000D01*
X144399905Y-96188343D01*
X144337370Y-96296657D01*
X144305000Y-96417465D01*
X144305000Y-96542535D01*
X144337370Y-96663343D01*
X144399905Y-96771657D01*
X144483248Y-96855000D01*
X143357371Y-96855000D01*
X143403907Y-96998222D01*
X143500379Y-97187557D01*
X143625272Y-97359459D01*
X143625276Y-97359464D01*
X143775535Y-97509723D01*
X143775540Y-97509727D01*
X143940218Y-97629372D01*
X143982884Y-97684701D01*
X143988863Y-97754315D01*
X143956258Y-97816110D01*
X143940218Y-97830008D01*
X143775214Y-97949890D01*
X143775209Y-97949894D01*
X143624892Y-98100211D01*
X143568097Y-98178385D01*
X143512767Y-98221051D01*
X143467779Y-98229500D01*
X127282229Y-98229500D01*
X127215190Y-98209815D01*
X127194548Y-98193181D01*
X125830175Y-96828807D01*
X125796690Y-96767484D01*
X125795383Y-96721728D01*
X125810500Y-96626287D01*
X125810500Y-96413713D01*
X125777246Y-96203757D01*
X125711557Y-96001588D01*
X125615051Y-95812184D01*
X125615049Y-95812181D01*
X125615048Y-95812179D01*
X125490109Y-95640213D01*
X125376569Y-95526673D01*
X125343084Y-95465350D01*
X125348068Y-95395658D01*
X125389940Y-95339725D01*
X125420915Y-95322810D01*
X125552331Y-95273796D01*
X125667546Y-95187546D01*
X125753796Y-95072331D01*
X125804091Y-94937483D01*
X125810500Y-94877873D01*
X125810500Y-94854500D01*
X125830185Y-94787461D01*
X125882989Y-94741706D01*
X125934500Y-94730500D01*
X143224699Y-94730500D01*
X143291738Y-94750185D01*
G37*
G04 #@! TD.AperFunction*
G04 #@! TA.AperFunction,Conductor*
G36*
X146594418Y-89400816D02*
G01*
X146794561Y-89415130D01*
X146812063Y-89417647D01*
X147003795Y-89459355D01*
X147020760Y-89464336D01*
X147204611Y-89532909D01*
X147220694Y-89540253D01*
X147337495Y-89604032D01*
X147392908Y-89634290D01*
X147407791Y-89643855D01*
X147564864Y-89761438D01*
X147578235Y-89773024D01*
X147716975Y-89911764D01*
X147728561Y-89925135D01*
X147846144Y-90082208D01*
X147855709Y-90097091D01*
X147949743Y-90269300D01*
X147957093Y-90285394D01*
X148025661Y-90469234D01*
X148030645Y-90486209D01*
X148072351Y-90677931D01*
X148074869Y-90695442D01*
X148089184Y-90895580D01*
X148089500Y-90904427D01*
X148089500Y-104675572D01*
X148089184Y-104684419D01*
X148074869Y-104884557D01*
X148072351Y-104902068D01*
X148030645Y-105093790D01*
X148025661Y-105110765D01*
X147957093Y-105294605D01*
X147949743Y-105310699D01*
X147855709Y-105482908D01*
X147846144Y-105497791D01*
X147728561Y-105654864D01*
X147716975Y-105668235D01*
X147578235Y-105806975D01*
X147564864Y-105818561D01*
X147407791Y-105936144D01*
X147392908Y-105945709D01*
X147220699Y-106039743D01*
X147204605Y-106047093D01*
X147020765Y-106115661D01*
X147003790Y-106120645D01*
X146812068Y-106162351D01*
X146794557Y-106164869D01*
X146613779Y-106177799D01*
X146594417Y-106179184D01*
X146585572Y-106179500D01*
X113764428Y-106179500D01*
X113755582Y-106179184D01*
X113733622Y-106177613D01*
X113555442Y-106164869D01*
X113537931Y-106162351D01*
X113346209Y-106120645D01*
X113329234Y-106115661D01*
X113145394Y-106047093D01*
X113129300Y-106039743D01*
X112957091Y-105945709D01*
X112942208Y-105936144D01*
X112785135Y-105818561D01*
X112771764Y-105806975D01*
X112633024Y-105668235D01*
X112621438Y-105654864D01*
X112503855Y-105497791D01*
X112494290Y-105482908D01*
X112400256Y-105310699D01*
X112392909Y-105294611D01*
X112324336Y-105110760D01*
X112319354Y-105093790D01*
X112293404Y-104974500D01*
X112277647Y-104902063D01*
X112275130Y-104884556D01*
X112260816Y-104684418D01*
X112260500Y-104675572D01*
X112260500Y-103002711D01*
X117529500Y-103002711D01*
X117529500Y-103245288D01*
X117561161Y-103485785D01*
X117623947Y-103720104D01*
X117716773Y-103944205D01*
X117716776Y-103944212D01*
X117838064Y-104154289D01*
X117838066Y-104154292D01*
X117838067Y-104154293D01*
X117985733Y-104346736D01*
X117985739Y-104346743D01*
X118157256Y-104518260D01*
X118157262Y-104518265D01*
X118349711Y-104665936D01*
X118559788Y-104787224D01*
X118783900Y-104880054D01*
X119018211Y-104942838D01*
X119198586Y-104966584D01*
X119258711Y-104974500D01*
X119258712Y-104974500D01*
X119501289Y-104974500D01*
X119549388Y-104968167D01*
X119741789Y-104942838D01*
X119976100Y-104880054D01*
X120200212Y-104787224D01*
X120410289Y-104665936D01*
X120602738Y-104518265D01*
X120774265Y-104346738D01*
X120921936Y-104154289D01*
X121043224Y-103944212D01*
X121136054Y-103720100D01*
X121198838Y-103485789D01*
X121230500Y-103245288D01*
X121230500Y-103002712D01*
X121201539Y-102782726D01*
X123807602Y-102782726D01*
X123941779Y-102851094D01*
X123941782Y-102851095D01*
X124143871Y-102916757D01*
X124353754Y-102950000D01*
X124566246Y-102950000D01*
X124776127Y-102916757D01*
X124776130Y-102916757D01*
X124978217Y-102851095D01*
X125112397Y-102782726D01*
X124460001Y-102130330D01*
X124460000Y-102130330D01*
X123807602Y-102782726D01*
X121201539Y-102782726D01*
X121198838Y-102762211D01*
X121136054Y-102527900D01*
X121043224Y-102303788D01*
X120921936Y-102093711D01*
X120848811Y-101998412D01*
X120774266Y-101901263D01*
X120774260Y-101901256D01*
X120602743Y-101729739D01*
X120602736Y-101729733D01*
X120417057Y-101587257D01*
X120410293Y-101582067D01*
X120410292Y-101582066D01*
X120410289Y-101582064D01*
X120257330Y-101493753D01*
X123110000Y-101493753D01*
X123110000Y-101706246D01*
X123143242Y-101916127D01*
X123143242Y-101916130D01*
X123208904Y-102118217D01*
X123208906Y-102118220D01*
X123277272Y-102252397D01*
X123929670Y-101600000D01*
X123277271Y-100947601D01*
X123208905Y-101081780D01*
X123208905Y-101081781D01*
X123143242Y-101283869D01*
X123143242Y-101283872D01*
X123110000Y-101493753D01*
X120257330Y-101493753D01*
X120200212Y-101460776D01*
X120200205Y-101460773D01*
X119976104Y-101367947D01*
X119741785Y-101305161D01*
X119501289Y-101273500D01*
X119501288Y-101273500D01*
X119258712Y-101273500D01*
X119258711Y-101273500D01*
X119018214Y-101305161D01*
X118783895Y-101367947D01*
X118559794Y-101460773D01*
X118559785Y-101460777D01*
X118349706Y-101582067D01*
X118157263Y-101729733D01*
X118157256Y-101729739D01*
X117985739Y-101901256D01*
X117985733Y-101901263D01*
X117838067Y-102093706D01*
X117716777Y-102303785D01*
X117716773Y-102303794D01*
X117623947Y-102527895D01*
X117561161Y-102762214D01*
X117529500Y-103002711D01*
X112260500Y-103002711D01*
X112260500Y-96413713D01*
X112949500Y-96413713D01*
X112949500Y-96626286D01*
X112972524Y-96771657D01*
X112982754Y-96836243D01*
X113035384Y-96998222D01*
X113048444Y-97038414D01*
X113144951Y-97227820D01*
X113269890Y-97399786D01*
X113420213Y-97550109D01*
X113592182Y-97675050D01*
X113600946Y-97679516D01*
X113651742Y-97727491D01*
X113668536Y-97795312D01*
X113645998Y-97861447D01*
X113600946Y-97900484D01*
X113592182Y-97904949D01*
X113420213Y-98029890D01*
X113269890Y-98180213D01*
X113144951Y-98352179D01*
X113048444Y-98541585D01*
X112982753Y-98743760D01*
X112949500Y-98953713D01*
X112949500Y-99166286D01*
X112980815Y-99364005D01*
X112982754Y-99376243D01*
X113043419Y-99562951D01*
X113048444Y-99578414D01*
X113144951Y-99767820D01*
X113269890Y-99939786D01*
X113420213Y-100090109D01*
X113592182Y-100215050D01*
X113600946Y-100219516D01*
X113651742Y-100267491D01*
X113668536Y-100335312D01*
X113645998Y-100401447D01*
X113600946Y-100440484D01*
X113592182Y-100444949D01*
X113420213Y-100569890D01*
X113269890Y-100720213D01*
X113144951Y-100892179D01*
X113048444Y-101081585D01*
X112982753Y-101283760D01*
X112968506Y-101373713D01*
X112949500Y-101493713D01*
X112949500Y-101706287D01*
X112955449Y-101743849D01*
X112982735Y-101916127D01*
X112982754Y-101916243D01*
X113040415Y-102093706D01*
X113048444Y-102118414D01*
X113144951Y-102307820D01*
X113269890Y-102479786D01*
X113420213Y-102630109D01*
X113592179Y-102755048D01*
X113592181Y-102755049D01*
X113592184Y-102755051D01*
X113781588Y-102851557D01*
X113983757Y-102917246D01*
X114193713Y-102950500D01*
X114193714Y-102950500D01*
X114406286Y-102950500D01*
X114406287Y-102950500D01*
X114616243Y-102917246D01*
X114818412Y-102851557D01*
X115007816Y-102755051D01*
X115040156Y-102731555D01*
X115179786Y-102630109D01*
X115179788Y-102630106D01*
X115179792Y-102630104D01*
X115330104Y-102479792D01*
X115330106Y-102479788D01*
X115330109Y-102479786D01*
X115455048Y-102307820D01*
X115455047Y-102307820D01*
X115455051Y-102307816D01*
X115551557Y-102118412D01*
X115617246Y-101916243D01*
X115650500Y-101706287D01*
X115650500Y-101493713D01*
X115617246Y-101283757D01*
X115551557Y-101081588D01*
X115455051Y-100892184D01*
X115455049Y-100892181D01*
X115455048Y-100892179D01*
X115330109Y-100720213D01*
X115179786Y-100569890D01*
X115007820Y-100444951D01*
X115007115Y-100444591D01*
X114999054Y-100440485D01*
X114948259Y-100392512D01*
X114931463Y-100324692D01*
X114953999Y-100258556D01*
X114999054Y-100219515D01*
X115007816Y-100215051D01*
X115049163Y-100185011D01*
X115179786Y-100090109D01*
X115179788Y-100090106D01*
X115179792Y-100090104D01*
X115330104Y-99939792D01*
X115330106Y-99939788D01*
X115330109Y-99939786D01*
X115439086Y-99789789D01*
X115455051Y-99767816D01*
X115551557Y-99578412D01*
X115617246Y-99376243D01*
X115650500Y-99166287D01*
X115650500Y-98953713D01*
X115617246Y-98743757D01*
X115551557Y-98541588D01*
X115455051Y-98352184D01*
X115455049Y-98352181D01*
X115455048Y-98352179D01*
X115330109Y-98180213D01*
X115179786Y-98029890D01*
X115007820Y-97904951D01*
X115007115Y-97904591D01*
X114999054Y-97900485D01*
X114948259Y-97852512D01*
X114931463Y-97784692D01*
X114953999Y-97718556D01*
X114999054Y-97679515D01*
X115007816Y-97675051D01*
X115070690Y-97629371D01*
X115179786Y-97550109D01*
X115179788Y-97550106D01*
X115179792Y-97550104D01*
X115330104Y-97399792D01*
X115330106Y-97399788D01*
X115330109Y-97399786D01*
X115455048Y-97227820D01*
X115455047Y-97227820D01*
X115455051Y-97227816D01*
X115551557Y-97038412D01*
X115617246Y-96836243D01*
X115650500Y-96626287D01*
X115650500Y-96413713D01*
X115617246Y-96203757D01*
X115551557Y-96001588D01*
X115455051Y-95812184D01*
X115455049Y-95812181D01*
X115455048Y-95812179D01*
X115330109Y-95640213D01*
X115216181Y-95526285D01*
X115182696Y-95464962D01*
X115187680Y-95395270D01*
X115229552Y-95339337D01*
X115260529Y-95322422D01*
X115392086Y-95273354D01*
X115392093Y-95273350D01*
X115507187Y-95187190D01*
X115507190Y-95187187D01*
X115593350Y-95072093D01*
X115593354Y-95072086D01*
X115643596Y-94937379D01*
X115643598Y-94937372D01*
X115649999Y-94877844D01*
X115650000Y-94877827D01*
X115650000Y-94355000D01*
X114632106Y-94355000D01*
X114700099Y-94287007D01*
X114765925Y-94172993D01*
X114800000Y-94045826D01*
X114800000Y-93914174D01*
X114765925Y-93787007D01*
X114700099Y-93672993D01*
X114632106Y-93605000D01*
X114675000Y-93605000D01*
X115650000Y-93605000D01*
X115650000Y-93082172D01*
X115649999Y-93082155D01*
X115643598Y-93022627D01*
X115643596Y-93022620D01*
X115593354Y-92887913D01*
X115593350Y-92887906D01*
X115507190Y-92772812D01*
X115507187Y-92772809D01*
X115392093Y-92686649D01*
X115392086Y-92686645D01*
X115257379Y-92636403D01*
X115257372Y-92636401D01*
X115197844Y-92630000D01*
X114675000Y-92630000D01*
X114675000Y-93605000D01*
X114632106Y-93605000D01*
X114607007Y-93579901D01*
X114492993Y-93514075D01*
X114365826Y-93480000D01*
X114234174Y-93480000D01*
X114107007Y-93514075D01*
X113992993Y-93579901D01*
X113899901Y-93672993D01*
X113834075Y-93787007D01*
X113800000Y-93914174D01*
X113800000Y-94045826D01*
X113834075Y-94172993D01*
X113899901Y-94287007D01*
X113967894Y-94355000D01*
X112950000Y-94355000D01*
X112950000Y-94877844D01*
X112956401Y-94937372D01*
X112956403Y-94937379D01*
X113006645Y-95072086D01*
X113006649Y-95072093D01*
X113092809Y-95187187D01*
X113092812Y-95187190D01*
X113207906Y-95273350D01*
X113207913Y-95273354D01*
X113339470Y-95322422D01*
X113395404Y-95364293D01*
X113419821Y-95429758D01*
X113404969Y-95498031D01*
X113383819Y-95526285D01*
X113269889Y-95640215D01*
X113144951Y-95812179D01*
X113048444Y-96001585D01*
X112982753Y-96203760D01*
X112949500Y-96413713D01*
X112260500Y-96413713D01*
X112260500Y-93082155D01*
X112950000Y-93082155D01*
X112950000Y-93605000D01*
X113925000Y-93605000D01*
X113925000Y-92630000D01*
X113402155Y-92630000D01*
X113342627Y-92636401D01*
X113342620Y-92636403D01*
X113207913Y-92686645D01*
X113207906Y-92686649D01*
X113092812Y-92772809D01*
X113092809Y-92772812D01*
X113006649Y-92887906D01*
X113006645Y-92887913D01*
X112956403Y-93022620D01*
X112956401Y-93022627D01*
X112950000Y-93082155D01*
X112260500Y-93082155D01*
X112260500Y-92334711D01*
X117529500Y-92334711D01*
X117529500Y-92577288D01*
X117561161Y-92817785D01*
X117623947Y-93052104D01*
X117696476Y-93227203D01*
X117716776Y-93276212D01*
X117838064Y-93486289D01*
X117838066Y-93486292D01*
X117838067Y-93486293D01*
X117985733Y-93678736D01*
X117985739Y-93678743D01*
X118157256Y-93850260D01*
X118157262Y-93850265D01*
X118349711Y-93997936D01*
X118559788Y-94119224D01*
X118783900Y-94212054D01*
X119018211Y-94274838D01*
X119198586Y-94298584D01*
X119258711Y-94306500D01*
X119258712Y-94306500D01*
X119501289Y-94306500D01*
X119549388Y-94300167D01*
X119741789Y-94274838D01*
X119976100Y-94212054D01*
X120200212Y-94119224D01*
X120410289Y-93997936D01*
X120602738Y-93850265D01*
X120774265Y-93678738D01*
X120921936Y-93486289D01*
X121043224Y-93276212D01*
X121123613Y-93082135D01*
X123109500Y-93082135D01*
X123109500Y-94877870D01*
X123109501Y-94877876D01*
X123115908Y-94937483D01*
X123166202Y-95072328D01*
X123166206Y-95072335D01*
X123252452Y-95187544D01*
X123252455Y-95187547D01*
X123367664Y-95273793D01*
X123367671Y-95273797D01*
X123499082Y-95322810D01*
X123555016Y-95364681D01*
X123579433Y-95430145D01*
X123564582Y-95498418D01*
X123543431Y-95526673D01*
X123429889Y-95640215D01*
X123304951Y-95812179D01*
X123208444Y-96001585D01*
X123142753Y-96203760D01*
X123109500Y-96413713D01*
X123109500Y-96626286D01*
X123132524Y-96771657D01*
X123142754Y-96836243D01*
X123195384Y-96998222D01*
X123208444Y-97038414D01*
X123304951Y-97227820D01*
X123429890Y-97399786D01*
X123580213Y-97550109D01*
X123752182Y-97675050D01*
X123760946Y-97679516D01*
X123811742Y-97727491D01*
X123828536Y-97795312D01*
X123805998Y-97861447D01*
X123760946Y-97900484D01*
X123752182Y-97904949D01*
X123580213Y-98029890D01*
X123429890Y-98180213D01*
X123304951Y-98352179D01*
X123208444Y-98541585D01*
X123142753Y-98743760D01*
X123109500Y-98953713D01*
X123109500Y-99166286D01*
X123140815Y-99364005D01*
X123142754Y-99376243D01*
X123203419Y-99562951D01*
X123208444Y-99578414D01*
X123304951Y-99767820D01*
X123429890Y-99939786D01*
X123580213Y-100090109D01*
X123752179Y-100215048D01*
X123752181Y-100215049D01*
X123752184Y-100215051D01*
X123761491Y-100219793D01*
X123812288Y-100267765D01*
X123829085Y-100335586D01*
X123813118Y-100382445D01*
X123807601Y-100417271D01*
X124490330Y-101100000D01*
X124394174Y-101100000D01*
X124267007Y-101134075D01*
X124152993Y-101199901D01*
X124059901Y-101292993D01*
X123994075Y-101407007D01*
X123960000Y-101534174D01*
X123960000Y-101665826D01*
X123994075Y-101792993D01*
X124059901Y-101907007D01*
X124152993Y-102000099D01*
X124267007Y-102065925D01*
X124394174Y-102100000D01*
X124525826Y-102100000D01*
X124652993Y-102065925D01*
X124767007Y-102000099D01*
X124860099Y-101907007D01*
X124925925Y-101792993D01*
X124960000Y-101665826D01*
X124960000Y-101569670D01*
X125642726Y-102252396D01*
X125711095Y-102118217D01*
X125776757Y-101916130D01*
X125776757Y-101916127D01*
X125804044Y-101743849D01*
X125833973Y-101680714D01*
X125893285Y-101643783D01*
X125963147Y-101644781D01*
X126014198Y-101675566D01*
X126401586Y-102062954D01*
X126424867Y-102078509D01*
X126459793Y-102101845D01*
X126524505Y-102145084D01*
X126661087Y-102201658D01*
X126661091Y-102201658D01*
X126661092Y-102201659D01*
X126806079Y-102230500D01*
X126806082Y-102230500D01*
X126806083Y-102230500D01*
X126953918Y-102230500D01*
X143467779Y-102230500D01*
X143534818Y-102250185D01*
X143568097Y-102281615D01*
X143624892Y-102359788D01*
X143775213Y-102510109D01*
X143947179Y-102635048D01*
X143947181Y-102635049D01*
X143947184Y-102635051D01*
X144136588Y-102731557D01*
X144338757Y-102797246D01*
X144548713Y-102830500D01*
X144548714Y-102830500D01*
X145011286Y-102830500D01*
X145011287Y-102830500D01*
X145221243Y-102797246D01*
X145423412Y-102731557D01*
X145612816Y-102635051D01*
X145760305Y-102527895D01*
X145784786Y-102510109D01*
X145784788Y-102510106D01*
X145784792Y-102510104D01*
X145935104Y-102359792D01*
X145935106Y-102359788D01*
X145935109Y-102359786D01*
X146060048Y-102187820D01*
X146060047Y-102187820D01*
X146060051Y-102187816D01*
X146156557Y-101998412D01*
X146222246Y-101796243D01*
X146255500Y-101586287D01*
X146255500Y-101373713D01*
X146222246Y-101163757D01*
X146156557Y-100961588D01*
X146060051Y-100772184D01*
X146060049Y-100772181D01*
X146060048Y-100772179D01*
X145935109Y-100600213D01*
X145784792Y-100449896D01*
X145739887Y-100417271D01*
X145620204Y-100330316D01*
X145577540Y-100274989D01*
X145571561Y-100205376D01*
X145604166Y-100143580D01*
X145620199Y-100129686D01*
X145784792Y-100010104D01*
X145935104Y-99859792D01*
X145935106Y-99859788D01*
X145935109Y-99859786D01*
X146060048Y-99687820D01*
X146060047Y-99687820D01*
X146060051Y-99687816D01*
X146156557Y-99498412D01*
X146222246Y-99296243D01*
X146255500Y-99086287D01*
X146255500Y-98873713D01*
X146222246Y-98663757D01*
X146156557Y-98461588D01*
X146060051Y-98272184D01*
X146060049Y-98272181D01*
X146060048Y-98272179D01*
X145935109Y-98100213D01*
X145784790Y-97949894D01*
X145784785Y-97949890D01*
X145619781Y-97830008D01*
X145577115Y-97774678D01*
X145571136Y-97705065D01*
X145603741Y-97643270D01*
X145619781Y-97629371D01*
X145784466Y-97509721D01*
X145934723Y-97359464D01*
X145934727Y-97359459D01*
X146059620Y-97187557D01*
X146156092Y-96998222D01*
X146202629Y-96855000D01*
X145076752Y-96855000D01*
X145160095Y-96771657D01*
X145222630Y-96663343D01*
X145255000Y-96542535D01*
X145255000Y-96417465D01*
X145222630Y-96296657D01*
X145160095Y-96188343D01*
X145076752Y-96105000D01*
X146202629Y-96105000D01*
X146202628Y-96104999D01*
X146156092Y-95961777D01*
X146059620Y-95772442D01*
X145934727Y-95600540D01*
X145934723Y-95600535D01*
X145795856Y-95461668D01*
X145762371Y-95400345D01*
X145767355Y-95330653D01*
X145809227Y-95274720D01*
X145818441Y-95268448D01*
X145824331Y-95264814D01*
X145824334Y-95264814D01*
X145973656Y-95172712D01*
X146097712Y-95048656D01*
X146189814Y-94899334D01*
X146244999Y-94732797D01*
X146255500Y-94630009D01*
X146255499Y-93329992D01*
X146244999Y-93227203D01*
X146189814Y-93060666D01*
X146097712Y-92911344D01*
X145973656Y-92787288D01*
X145824334Y-92695186D01*
X145657797Y-92640001D01*
X145657795Y-92640000D01*
X145555010Y-92629500D01*
X144004998Y-92629500D01*
X144004981Y-92629501D01*
X143902203Y-92640000D01*
X143902200Y-92640001D01*
X143735668Y-92695185D01*
X143735663Y-92695187D01*
X143586342Y-92787289D01*
X143462289Y-92911342D01*
X143370187Y-93060663D01*
X143370185Y-93060668D01*
X143342405Y-93144504D01*
X143302632Y-93201949D01*
X143238116Y-93228772D01*
X143224699Y-93229500D01*
X125934499Y-93229500D01*
X125867460Y-93209815D01*
X125821705Y-93157011D01*
X125810499Y-93105500D01*
X125810499Y-93082129D01*
X125810498Y-93082123D01*
X125810497Y-93082116D01*
X125804091Y-93022517D01*
X125762625Y-92911342D01*
X125753797Y-92887671D01*
X125753793Y-92887664D01*
X125667547Y-92772455D01*
X125667544Y-92772452D01*
X125552335Y-92686206D01*
X125552328Y-92686202D01*
X125417482Y-92635908D01*
X125417483Y-92635908D01*
X125357883Y-92629501D01*
X125357881Y-92629500D01*
X125357873Y-92629500D01*
X125357864Y-92629500D01*
X123562129Y-92629500D01*
X123562123Y-92629501D01*
X123502516Y-92635908D01*
X123367671Y-92686202D01*
X123367664Y-92686206D01*
X123252455Y-92772452D01*
X123252452Y-92772455D01*
X123166206Y-92887664D01*
X123166202Y-92887671D01*
X123115908Y-93022517D01*
X123111807Y-93060666D01*
X123109501Y-93082123D01*
X123109500Y-93082135D01*
X121123613Y-93082135D01*
X121136054Y-93052100D01*
X121198838Y-92817789D01*
X121230500Y-92577288D01*
X121230500Y-92334712D01*
X121198838Y-92094211D01*
X121136054Y-91859900D01*
X121043224Y-91635788D01*
X120921936Y-91425711D01*
X120774265Y-91233262D01*
X120774260Y-91233256D01*
X120602743Y-91061739D01*
X120602736Y-91061733D01*
X120410293Y-90914067D01*
X120410292Y-90914066D01*
X120410289Y-90914064D01*
X120200212Y-90792776D01*
X120200205Y-90792773D01*
X119976104Y-90699947D01*
X119741785Y-90637161D01*
X119501289Y-90605500D01*
X119501288Y-90605500D01*
X119258712Y-90605500D01*
X119258711Y-90605500D01*
X119018214Y-90637161D01*
X118783895Y-90699947D01*
X118559794Y-90792773D01*
X118559785Y-90792777D01*
X118349706Y-90914067D01*
X118157263Y-91061733D01*
X118157256Y-91061739D01*
X117985739Y-91233256D01*
X117985733Y-91233263D01*
X117838067Y-91425706D01*
X117716777Y-91635785D01*
X117716773Y-91635794D01*
X117623947Y-91859895D01*
X117561161Y-92094214D01*
X117529500Y-92334711D01*
X112260500Y-92334711D01*
X112260500Y-90904427D01*
X112260816Y-90895581D01*
X112275130Y-90695443D01*
X112275131Y-90695434D01*
X112277646Y-90677938D01*
X112319356Y-90486200D01*
X112324335Y-90469242D01*
X112392911Y-90285382D01*
X112400251Y-90269310D01*
X112494294Y-90097083D01*
X112503850Y-90082214D01*
X112621443Y-89925128D01*
X112633017Y-89911771D01*
X112771771Y-89773017D01*
X112785128Y-89761443D01*
X112942214Y-89643850D01*
X112957083Y-89634294D01*
X113129310Y-89540251D01*
X113145382Y-89532911D01*
X113329242Y-89464335D01*
X113346200Y-89459356D01*
X113537938Y-89417646D01*
X113555436Y-89415130D01*
X113755582Y-89400816D01*
X113764428Y-89400500D01*
X113825892Y-89400500D01*
X146524108Y-89400500D01*
X146585572Y-89400500D01*
X146594418Y-89400816D01*
G37*
G04 #@! TD.AperFunction*
M02*
