%TF.GenerationSoftware,KiCad,Pcbnew,10.0.4*%
%TF.CreationDate,2026-07-03T13:43:44+08:00*%
%TF.ProjectId,display_breakout_small,64697370-6c61-4795-9f62-7265616b6f75,rev?*%
%TF.SameCoordinates,Original*%
%TF.FileFunction,Drillmap*%
%TF.FilePolarity,Positive*%
%FSLAX45Y45*%
G04 Gerber Fmt 4.5, Leading zero omitted, Abs format (unit mm)*
G04 Created by KiCad (PCBNEW 10.0.4) date 2026-07-03 13:43:44*
%MOMM*%
%LPD*%
G01*
G04 APERTURE LIST*
%ADD10C,0.050000*%
%ADD11C,0.200000*%
G04 APERTURE END LIST*
D10*
X18600000Y-5550000D02*
X18600000Y-5550000D01*
G75*
G02*
X18800000Y-5350000I200000J0D01*
G01*
X23600000Y-5350000D01*
G75*
G02*
X23800000Y-5550000I0J-200000D01*
G01*
X23800000Y-11400000D01*
G75*
G02*
X23600000Y-11600000I-200000J0D01*
G01*
X18800000Y-11600000D01*
G75*
G02*
X18600000Y-11400000I0J200000D01*
G01*
X18600000Y-5550000D01*
D11*
X18858277Y-11913984D02*
X18858277Y-11713984D01*
X18858277Y-11713984D02*
X18905896Y-11713984D01*
X18905896Y-11713984D02*
X18934467Y-11723508D01*
X18934467Y-11723508D02*
X18953515Y-11742555D01*
X18953515Y-11742555D02*
X18963039Y-11761603D01*
X18963039Y-11761603D02*
X18972563Y-11799698D01*
X18972563Y-11799698D02*
X18972563Y-11828269D01*
X18972563Y-11828269D02*
X18963039Y-11866365D01*
X18963039Y-11866365D02*
X18953515Y-11885412D01*
X18953515Y-11885412D02*
X18934467Y-11904460D01*
X18934467Y-11904460D02*
X18905896Y-11913984D01*
X18905896Y-11913984D02*
X18858277Y-11913984D01*
X19058277Y-11913984D02*
X19058277Y-11780650D01*
X19058277Y-11818746D02*
X19067801Y-11799698D01*
X19067801Y-11799698D02*
X19077324Y-11790174D01*
X19077324Y-11790174D02*
X19096372Y-11780650D01*
X19096372Y-11780650D02*
X19115420Y-11780650D01*
X19182086Y-11913984D02*
X19182086Y-11780650D01*
X19182086Y-11713984D02*
X19172563Y-11723508D01*
X19172563Y-11723508D02*
X19182086Y-11733031D01*
X19182086Y-11733031D02*
X19191610Y-11723508D01*
X19191610Y-11723508D02*
X19182086Y-11713984D01*
X19182086Y-11713984D02*
X19182086Y-11733031D01*
X19305896Y-11913984D02*
X19286848Y-11904460D01*
X19286848Y-11904460D02*
X19277324Y-11885412D01*
X19277324Y-11885412D02*
X19277324Y-11713984D01*
X19410658Y-11913984D02*
X19391610Y-11904460D01*
X19391610Y-11904460D02*
X19382086Y-11885412D01*
X19382086Y-11885412D02*
X19382086Y-11713984D01*
X19639229Y-11913984D02*
X19639229Y-11713984D01*
X19639229Y-11713984D02*
X19705896Y-11856841D01*
X19705896Y-11856841D02*
X19772563Y-11713984D01*
X19772563Y-11713984D02*
X19772563Y-11913984D01*
X19953515Y-11913984D02*
X19953515Y-11809222D01*
X19953515Y-11809222D02*
X19943991Y-11790174D01*
X19943991Y-11790174D02*
X19924944Y-11780650D01*
X19924944Y-11780650D02*
X19886848Y-11780650D01*
X19886848Y-11780650D02*
X19867801Y-11790174D01*
X19953515Y-11904460D02*
X19934467Y-11913984D01*
X19934467Y-11913984D02*
X19886848Y-11913984D01*
X19886848Y-11913984D02*
X19867801Y-11904460D01*
X19867801Y-11904460D02*
X19858277Y-11885412D01*
X19858277Y-11885412D02*
X19858277Y-11866365D01*
X19858277Y-11866365D02*
X19867801Y-11847317D01*
X19867801Y-11847317D02*
X19886848Y-11837793D01*
X19886848Y-11837793D02*
X19934467Y-11837793D01*
X19934467Y-11837793D02*
X19953515Y-11828269D01*
X20048753Y-11780650D02*
X20048753Y-11980650D01*
X20048753Y-11790174D02*
X20067801Y-11780650D01*
X20067801Y-11780650D02*
X20105896Y-11780650D01*
X20105896Y-11780650D02*
X20124944Y-11790174D01*
X20124944Y-11790174D02*
X20134467Y-11799698D01*
X20134467Y-11799698D02*
X20143991Y-11818746D01*
X20143991Y-11818746D02*
X20143991Y-11875888D01*
X20143991Y-11875888D02*
X20134467Y-11894936D01*
X20134467Y-11894936D02*
X20124944Y-11904460D01*
X20124944Y-11904460D02*
X20105896Y-11913984D01*
X20105896Y-11913984D02*
X20067801Y-11913984D01*
X20067801Y-11913984D02*
X20048753Y-11904460D01*
X20229705Y-11894936D02*
X20239229Y-11904460D01*
X20239229Y-11904460D02*
X20229705Y-11913984D01*
X20229705Y-11913984D02*
X20220182Y-11904460D01*
X20220182Y-11904460D02*
X20229705Y-11894936D01*
X20229705Y-11894936D02*
X20229705Y-11913984D01*
X20229705Y-11790174D02*
X20239229Y-11799698D01*
X20239229Y-11799698D02*
X20229705Y-11809222D01*
X20229705Y-11809222D02*
X20220182Y-11799698D01*
X20220182Y-11799698D02*
X20229705Y-11790174D01*
X20229705Y-11790174D02*
X20229705Y-11809222D01*
M02*
