G04 #@! TF.GenerationSoftware,KiCad,Pcbnew,10.0.3*
G04 #@! TF.CreationDate,2026-08-05T15:53:49+08:00*
G04 #@! TF.ProjectId,limit switch board,6c696d69-7420-4737-9769-74636820626f,rev?*
G04 #@! TF.SameCoordinates,Original*
G04 #@! TF.FileFunction,Copper,L2,Bot*
G04 #@! TF.FilePolarity,Positive*
%FSLAX46Y46*%
G04 Gerber Fmt 4.6, Leading zero omitted, Abs format (unit mm)*
G04 Created by KiCad (PCBNEW 10.0.3) date 2026-08-05 15:53:49*
%MOMM*%
%LPD*%
G01*
G04 APERTURE LIST*
G04 Aperture macros list*
%AMRoundRect*
0 Rectangle with rounded corners*
0 $1 Rounding radius*
0 $2 $3 $4 $5 $6 $7 $8 $9 X,Y pos of 4 corners*
0 Add a 4 corners polygon primitive as box body*
4,1,4,$2,$3,$4,$5,$6,$7,$8,$9,$2,$3,0*
0 Add four circle primitives for the rounded corners*
1,1,$1+$1,$2,$3*
1,1,$1+$1,$4,$5*
1,1,$1+$1,$6,$7*
1,1,$1+$1,$8,$9*
0 Add four rect primitives between the rounded corners*
20,1,$1+$1,$2,$3,$4,$5,0*
20,1,$1+$1,$4,$5,$6,$7,0*
20,1,$1+$1,$6,$7,$8,$9,0*
20,1,$1+$1,$8,$9,$2,$3,0*%
G04 Aperture macros list end*
G04 #@! TA.AperFunction,ComponentPad*
%ADD10RoundRect,0.250000X1.050000X-1.050000X1.050000X1.050000X-1.050000X1.050000X-1.050000X-1.050000X0*%
G04 #@! TD*
G04 #@! TA.AperFunction,ComponentPad*
%ADD11C,2.600000*%
G04 #@! TD*
G04 #@! TA.AperFunction,ComponentPad*
%ADD12RoundRect,0.250000X0.750000X-0.600000X0.750000X0.600000X-0.750000X0.600000X-0.750000X-0.600000X0*%
G04 #@! TD*
G04 #@! TA.AperFunction,ComponentPad*
%ADD13O,2.000000X1.700000*%
G04 #@! TD*
G04 #@! TA.AperFunction,Conductor*
%ADD14C,1.000000*%
G04 #@! TD*
G04 APERTURE END LIST*
D10*
X127000000Y-96360000D03*
D11*
X127000000Y-91360000D03*
X127000000Y-86360000D03*
D12*
X147303001Y-89388000D03*
D13*
X147303001Y-86888000D03*
D14*
X131472000Y-86888000D02*
X147303001Y-86888000D01*
X127000000Y-91360000D02*
X131472000Y-86888000D01*
G04 #@! TA.AperFunction,Conductor*
G36*
X126097526Y-84339454D02*
G01*
X126178308Y-84393430D01*
X126232284Y-84474212D01*
X126251238Y-84569500D01*
X126232284Y-84664788D01*
X126178308Y-84745570D01*
X126126738Y-84785140D01*
X125997559Y-84859721D01*
X125997549Y-84859727D01*
X125810301Y-85003408D01*
X125810297Y-85003411D01*
X125643411Y-85170297D01*
X125643408Y-85170301D01*
X125499727Y-85357549D01*
X125499721Y-85357559D01*
X125381718Y-85561945D01*
X125381713Y-85561956D01*
X125350861Y-85636441D01*
X125291394Y-85780007D01*
X125230307Y-86007986D01*
X125199500Y-86241989D01*
X125199500Y-86478011D01*
X125230307Y-86712014D01*
X125291394Y-86939993D01*
X125313887Y-86994296D01*
X125381713Y-87158043D01*
X125381718Y-87158054D01*
X125499721Y-87362440D01*
X125499727Y-87362450D01*
X125643408Y-87549699D01*
X125810301Y-87716592D01*
X125997550Y-87860273D01*
X125997559Y-87860278D01*
X126201945Y-87978281D01*
X126201948Y-87978282D01*
X126201951Y-87978284D01*
X126420007Y-88068606D01*
X126647986Y-88129693D01*
X126881989Y-88160500D01*
X127118011Y-88160500D01*
X127352014Y-88129693D01*
X127579993Y-88068606D01*
X127798049Y-87978284D01*
X128002450Y-87860273D01*
X128189699Y-87716592D01*
X128356592Y-87549699D01*
X128500273Y-87362450D01*
X128618284Y-87158049D01*
X128708606Y-86939993D01*
X128769693Y-86712014D01*
X128800500Y-86478011D01*
X128800500Y-86241989D01*
X128769693Y-86007986D01*
X128708606Y-85780007D01*
X128618284Y-85561951D01*
X128604167Y-85537500D01*
X128513729Y-85380856D01*
X128500273Y-85357550D01*
X128356592Y-85170301D01*
X128189699Y-85003408D01*
X128002450Y-84859727D01*
X128002440Y-84859721D01*
X127873262Y-84785140D01*
X127800217Y-84721082D01*
X127757247Y-84633946D01*
X127750892Y-84536999D01*
X127782122Y-84445000D01*
X127846180Y-84371955D01*
X127933316Y-84328985D01*
X127997762Y-84320500D01*
X150334108Y-84320500D01*
X150391100Y-84320500D01*
X150408863Y-84321134D01*
X150436639Y-84323120D01*
X150595645Y-84334493D01*
X150630795Y-84339546D01*
X150805058Y-84377454D01*
X150839143Y-84387463D01*
X151006230Y-84449783D01*
X151038547Y-84464542D01*
X151195059Y-84550004D01*
X151224946Y-84569211D01*
X151367704Y-84676078D01*
X151394554Y-84699343D01*
X151520656Y-84825445D01*
X151543921Y-84852295D01*
X151650788Y-84995053D01*
X151669995Y-85024940D01*
X151755457Y-85181452D01*
X151770216Y-85213769D01*
X151832536Y-85380856D01*
X151842545Y-85414944D01*
X151880451Y-85589196D01*
X151885507Y-85624360D01*
X151898866Y-85811135D01*
X151899500Y-85828899D01*
X151899500Y-97421100D01*
X151898866Y-97438863D01*
X151898866Y-97438864D01*
X151885507Y-97625639D01*
X151880451Y-97660803D01*
X151842545Y-97835055D01*
X151832536Y-97869143D01*
X151770216Y-98036230D01*
X151755457Y-98068547D01*
X151669995Y-98225059D01*
X151650788Y-98254946D01*
X151543921Y-98397704D01*
X151520656Y-98424554D01*
X151394554Y-98550656D01*
X151367704Y-98573921D01*
X151224946Y-98680788D01*
X151195059Y-98699995D01*
X151038547Y-98785457D01*
X151006230Y-98800216D01*
X150839143Y-98862536D01*
X150805055Y-98872545D01*
X150630803Y-98910451D01*
X150595639Y-98915507D01*
X150408864Y-98928866D01*
X150391100Y-98929500D01*
X125198900Y-98929500D01*
X125181136Y-98928866D01*
X124994360Y-98915507D01*
X124959196Y-98910451D01*
X124784944Y-98872545D01*
X124750856Y-98862536D01*
X124583769Y-98800216D01*
X124551452Y-98785457D01*
X124394940Y-98699995D01*
X124365053Y-98680788D01*
X124222295Y-98573921D01*
X124195445Y-98550656D01*
X124069343Y-98424554D01*
X124046078Y-98397704D01*
X123939211Y-98254946D01*
X123920004Y-98225059D01*
X123834542Y-98068547D01*
X123819783Y-98036230D01*
X123757463Y-97869143D01*
X123747454Y-97835055D01*
X123746537Y-97830838D01*
X123709546Y-97660795D01*
X123704493Y-97625645D01*
X123691134Y-97438863D01*
X123690500Y-97421100D01*
X123690500Y-95260018D01*
X125200000Y-95260018D01*
X125200000Y-95984999D01*
X125200001Y-95985000D01*
X126468819Y-95985000D01*
X126423978Y-96052110D01*
X126374979Y-96170402D01*
X126350000Y-96295981D01*
X126350000Y-96424019D01*
X126374979Y-96549598D01*
X126423978Y-96667890D01*
X126468819Y-96735000D01*
X125200002Y-96735000D01*
X125200001Y-96735001D01*
X125200001Y-97459984D01*
X125210494Y-97562699D01*
X125210495Y-97562702D01*
X125265640Y-97729119D01*
X125265641Y-97729121D01*
X125357681Y-97878341D01*
X125357684Y-97878345D01*
X125481654Y-98002315D01*
X125481658Y-98002318D01*
X125630878Y-98094358D01*
X125630879Y-98094359D01*
X125797298Y-98149504D01*
X125797305Y-98149505D01*
X125900023Y-98159999D01*
X126624998Y-98159999D01*
X126625000Y-98159998D01*
X126625000Y-96891181D01*
X126692110Y-96936022D01*
X126810402Y-96985021D01*
X126935981Y-97010000D01*
X127064019Y-97010000D01*
X127189598Y-96985021D01*
X127307890Y-96936022D01*
X127375000Y-96891181D01*
X127375000Y-98159998D01*
X127375001Y-98159999D01*
X128099968Y-98159999D01*
X128099984Y-98159998D01*
X128202699Y-98149505D01*
X128202702Y-98149504D01*
X128369119Y-98094359D01*
X128369121Y-98094358D01*
X128518341Y-98002318D01*
X128518345Y-98002315D01*
X128642315Y-97878345D01*
X128642318Y-97878341D01*
X128734358Y-97729121D01*
X128734359Y-97729120D01*
X128789504Y-97562701D01*
X128789505Y-97562694D01*
X128799999Y-97459981D01*
X128800000Y-97459971D01*
X128800000Y-96735001D01*
X128799999Y-96735000D01*
X127531181Y-96735000D01*
X127576022Y-96667890D01*
X127625021Y-96549598D01*
X127650000Y-96424019D01*
X127650000Y-96295981D01*
X127625021Y-96170402D01*
X127576022Y-96052110D01*
X127531181Y-95985000D01*
X128799998Y-95985000D01*
X128799999Y-95984999D01*
X128799999Y-95890712D01*
X137087500Y-95890712D01*
X137087500Y-96133287D01*
X137119162Y-96373790D01*
X137119163Y-96373795D01*
X137181940Y-96608082D01*
X137181948Y-96608105D01*
X137274770Y-96832201D01*
X137274778Y-96832217D01*
X137396058Y-97042279D01*
X137396064Y-97042289D01*
X137543729Y-97234731D01*
X137543738Y-97234741D01*
X137715258Y-97406261D01*
X137715268Y-97406270D01*
X137757746Y-97438864D01*
X137907711Y-97553936D01*
X137955024Y-97581252D01*
X138117782Y-97675221D01*
X138117798Y-97675229D01*
X138247902Y-97729119D01*
X138341900Y-97768054D01*
X138341911Y-97768057D01*
X138341917Y-97768059D01*
X138525021Y-97817121D01*
X138576211Y-97830838D01*
X138816712Y-97862500D01*
X139059288Y-97862500D01*
X139299789Y-97830838D01*
X139461275Y-97787567D01*
X139534082Y-97768059D01*
X139534084Y-97768058D01*
X139534100Y-97768054D01*
X139685766Y-97705231D01*
X139758201Y-97675229D01*
X139758206Y-97675226D01*
X139758212Y-97675224D01*
X139968289Y-97553936D01*
X140160738Y-97406265D01*
X140332265Y-97234738D01*
X140479936Y-97042289D01*
X140601224Y-96832212D01*
X140619418Y-96788289D01*
X140669288Y-96667890D01*
X140694054Y-96608100D01*
X140702066Y-96578201D01*
X140756836Y-96373795D01*
X140756838Y-96373789D01*
X140788500Y-96133288D01*
X140788500Y-95890712D01*
X140756838Y-95650211D01*
X140753221Y-95636712D01*
X146993500Y-95636712D01*
X146993500Y-95879287D01*
X147025162Y-96119790D01*
X147025163Y-96119795D01*
X147087940Y-96354082D01*
X147087948Y-96354105D01*
X147180770Y-96578201D01*
X147180778Y-96578217D01*
X147302058Y-96788279D01*
X147302064Y-96788289D01*
X147449729Y-96980731D01*
X147449738Y-96980741D01*
X147621258Y-97152261D01*
X147621268Y-97152270D01*
X147728734Y-97234731D01*
X147813711Y-97299936D01*
X147813720Y-97299941D01*
X148023782Y-97421221D01*
X148023798Y-97421229D01*
X148163858Y-97479242D01*
X148247900Y-97514054D01*
X148247911Y-97514057D01*
X148247917Y-97514059D01*
X148396740Y-97553936D01*
X148482211Y-97576838D01*
X148722712Y-97608500D01*
X148965288Y-97608500D01*
X149205789Y-97576838D01*
X149367275Y-97533567D01*
X149440082Y-97514059D01*
X149440084Y-97514058D01*
X149440100Y-97514054D01*
X149591766Y-97451231D01*
X149664201Y-97421229D01*
X149664206Y-97421226D01*
X149664212Y-97421224D01*
X149874289Y-97299936D01*
X150066738Y-97152265D01*
X150238265Y-96980738D01*
X150385936Y-96788289D01*
X150507224Y-96578212D01*
X150519077Y-96549598D01*
X150537231Y-96505766D01*
X150600054Y-96354100D01*
X150662838Y-96119789D01*
X150694500Y-95879288D01*
X150694500Y-95636712D01*
X150662838Y-95396211D01*
X150626344Y-95260015D01*
X150600059Y-95161917D01*
X150600057Y-95161911D01*
X150600054Y-95161900D01*
X150565242Y-95077858D01*
X150507229Y-94937798D01*
X150507221Y-94937782D01*
X150385941Y-94727720D01*
X150385935Y-94727710D01*
X150238270Y-94535268D01*
X150238261Y-94535258D01*
X150066741Y-94363738D01*
X150066731Y-94363729D01*
X149874289Y-94216064D01*
X149874279Y-94216058D01*
X149664217Y-94094778D01*
X149664201Y-94094770D01*
X149440105Y-94001948D01*
X149440103Y-94001947D01*
X149440100Y-94001946D01*
X149440096Y-94001945D01*
X149440082Y-94001940D01*
X149205795Y-93939163D01*
X149205790Y-93939162D01*
X148965288Y-93907500D01*
X148722712Y-93907500D01*
X148482209Y-93939162D01*
X148482204Y-93939163D01*
X148247917Y-94001940D01*
X148247894Y-94001948D01*
X148023798Y-94094770D01*
X148023782Y-94094778D01*
X147813720Y-94216058D01*
X147813710Y-94216064D01*
X147621268Y-94363729D01*
X147621258Y-94363738D01*
X147449738Y-94535258D01*
X147449729Y-94535268D01*
X147302064Y-94727710D01*
X147302058Y-94727720D01*
X147180778Y-94937782D01*
X147180770Y-94937798D01*
X147087948Y-95161894D01*
X147087940Y-95161917D01*
X147025163Y-95396204D01*
X147025162Y-95396209D01*
X146993500Y-95636712D01*
X140753221Y-95636712D01*
X140694054Y-95415900D01*
X140629486Y-95260018D01*
X140601229Y-95191798D01*
X140601221Y-95191782D01*
X140485229Y-94990879D01*
X140479936Y-94981711D01*
X140332265Y-94789262D01*
X140160738Y-94617735D01*
X140160735Y-94617733D01*
X140160731Y-94617729D01*
X139968289Y-94470064D01*
X139968279Y-94470058D01*
X139758217Y-94348778D01*
X139758201Y-94348770D01*
X139534105Y-94255948D01*
X139534103Y-94255947D01*
X139534100Y-94255946D01*
X139534096Y-94255945D01*
X139534082Y-94255940D01*
X139299795Y-94193163D01*
X139299790Y-94193162D01*
X139059288Y-94161500D01*
X138816712Y-94161500D01*
X138576209Y-94193162D01*
X138576204Y-94193163D01*
X138341917Y-94255940D01*
X138341894Y-94255948D01*
X138117798Y-94348770D01*
X138117782Y-94348778D01*
X137907720Y-94470058D01*
X137907710Y-94470064D01*
X137715268Y-94617729D01*
X137715258Y-94617738D01*
X137543738Y-94789258D01*
X137543729Y-94789268D01*
X137396064Y-94981710D01*
X137396058Y-94981720D01*
X137274778Y-95191782D01*
X137274770Y-95191798D01*
X137181948Y-95415894D01*
X137181940Y-95415917D01*
X137119163Y-95650204D01*
X137119162Y-95650209D01*
X137087500Y-95890712D01*
X128799999Y-95890712D01*
X128799999Y-95260032D01*
X128799998Y-95260015D01*
X128789505Y-95157300D01*
X128789504Y-95157297D01*
X128734359Y-94990880D01*
X128734358Y-94990878D01*
X128642318Y-94841658D01*
X128642315Y-94841654D01*
X128518345Y-94717684D01*
X128518341Y-94717681D01*
X128369121Y-94625641D01*
X128369120Y-94625640D01*
X128202701Y-94570495D01*
X128202694Y-94570494D01*
X128099981Y-94560000D01*
X127375001Y-94560000D01*
X127375000Y-94560001D01*
X127375000Y-95828818D01*
X127307890Y-95783978D01*
X127189598Y-95734979D01*
X127064019Y-95710000D01*
X126935981Y-95710000D01*
X126810402Y-95734979D01*
X126692110Y-95783978D01*
X126625000Y-95828818D01*
X126625000Y-94560001D01*
X126624999Y-94560000D01*
X125900023Y-94560000D01*
X125797300Y-94570494D01*
X125797297Y-94570495D01*
X125630880Y-94625640D01*
X125630878Y-94625641D01*
X125481658Y-94717681D01*
X125481654Y-94717684D01*
X125357684Y-94841654D01*
X125357681Y-94841658D01*
X125265641Y-94990878D01*
X125265640Y-94990879D01*
X125210495Y-95157298D01*
X125210494Y-95157305D01*
X125200000Y-95260018D01*
X123690500Y-95260018D01*
X123690500Y-91241989D01*
X125199500Y-91241989D01*
X125199500Y-91478011D01*
X125230307Y-91712014D01*
X125291393Y-91939989D01*
X125291394Y-91939992D01*
X125381713Y-92158043D01*
X125381718Y-92158054D01*
X125499721Y-92362440D01*
X125499727Y-92362450D01*
X125643408Y-92549699D01*
X125810301Y-92716592D01*
X125997550Y-92860273D01*
X125997559Y-92860278D01*
X126201945Y-92978281D01*
X126201948Y-92978282D01*
X126201951Y-92978284D01*
X126420007Y-93068606D01*
X126647986Y-93129693D01*
X126881989Y-93160500D01*
X127118011Y-93160500D01*
X127352014Y-93129693D01*
X127579993Y-93068606D01*
X127798049Y-92978284D01*
X128002450Y-92860273D01*
X128189699Y-92716592D01*
X128356592Y-92549699D01*
X128500273Y-92362450D01*
X128618284Y-92158049D01*
X128708606Y-91939993D01*
X128769693Y-91712014D01*
X128800500Y-91478011D01*
X128800500Y-91241989D01*
X128785399Y-91127287D01*
X128791753Y-91030344D01*
X128834723Y-90943208D01*
X128856191Y-90918727D01*
X130011918Y-89763001D01*
X145803002Y-89763001D01*
X145803002Y-90037984D01*
X145813495Y-90140699D01*
X145813496Y-90140702D01*
X145868641Y-90307119D01*
X145868642Y-90307121D01*
X145960682Y-90456341D01*
X145960685Y-90456345D01*
X146084655Y-90580315D01*
X146084659Y-90580318D01*
X146233879Y-90672358D01*
X146233880Y-90672359D01*
X146400299Y-90727504D01*
X146400306Y-90727505D01*
X146503024Y-90737999D01*
X146928001Y-90737999D01*
X146928001Y-89763001D01*
X146928000Y-89763000D01*
X145803003Y-89763000D01*
X145803002Y-89763001D01*
X130011918Y-89763001D01*
X131813490Y-87961430D01*
X131894272Y-87907454D01*
X131989560Y-87888500D01*
X145790700Y-87888500D01*
X145885988Y-87907454D01*
X145966770Y-87961430D01*
X146020746Y-88042212D01*
X146039700Y-88137500D01*
X146020746Y-88232788D01*
X145966770Y-88313570D01*
X145960685Y-88319654D01*
X145960682Y-88319658D01*
X145868642Y-88468878D01*
X145868641Y-88468879D01*
X145813496Y-88635298D01*
X145813495Y-88635305D01*
X145803001Y-88738018D01*
X145803001Y-89012999D01*
X145803002Y-89013000D01*
X146970895Y-89013000D01*
X146902902Y-89080993D01*
X146837076Y-89195007D01*
X146803001Y-89322174D01*
X146803001Y-89453826D01*
X146837076Y-89580993D01*
X146902902Y-89695007D01*
X146995994Y-89788099D01*
X147110008Y-89853925D01*
X147237175Y-89888000D01*
X147368827Y-89888000D01*
X147495994Y-89853925D01*
X147610008Y-89788099D01*
X147635106Y-89763001D01*
X147678001Y-89763001D01*
X147678001Y-90737998D01*
X147678002Y-90737999D01*
X148102969Y-90737999D01*
X148102985Y-90737998D01*
X148205700Y-90727505D01*
X148205703Y-90727504D01*
X148372120Y-90672359D01*
X148372122Y-90672358D01*
X148521342Y-90580318D01*
X148521346Y-90580315D01*
X148645316Y-90456345D01*
X148645319Y-90456341D01*
X148737359Y-90307121D01*
X148737360Y-90307120D01*
X148792505Y-90140701D01*
X148792506Y-90140694D01*
X148803000Y-90037981D01*
X148803001Y-90037971D01*
X148803001Y-89763001D01*
X148803000Y-89763000D01*
X147678002Y-89763000D01*
X147678001Y-89763001D01*
X147635106Y-89763001D01*
X147703100Y-89695007D01*
X147768926Y-89580993D01*
X147803001Y-89453826D01*
X147803001Y-89322174D01*
X147768926Y-89195007D01*
X147703100Y-89080993D01*
X147635107Y-89013000D01*
X148802999Y-89013000D01*
X148803000Y-89012999D01*
X148803000Y-88738032D01*
X148802999Y-88738015D01*
X148792506Y-88635300D01*
X148792505Y-88635297D01*
X148737360Y-88468880D01*
X148737359Y-88468878D01*
X148645319Y-88319658D01*
X148645316Y-88319654D01*
X148521346Y-88195684D01*
X148521342Y-88195681D01*
X148501067Y-88183175D01*
X148429917Y-88117019D01*
X148389499Y-88028670D01*
X148385968Y-87931579D01*
X148419861Y-87840527D01*
X148455721Y-87795176D01*
X148483101Y-87767796D01*
X148483105Y-87767792D01*
X148608052Y-87595816D01*
X148704558Y-87406412D01*
X148770247Y-87204243D01*
X148803501Y-86994287D01*
X148803501Y-86781713D01*
X148803500Y-86781710D01*
X148803500Y-86781703D01*
X148770247Y-86571759D01*
X148770247Y-86571757D01*
X148704558Y-86369588D01*
X148608052Y-86180184D01*
X148483105Y-86008208D01*
X148332793Y-85857896D01*
X148160817Y-85732949D01*
X147971413Y-85636443D01*
X147971410Y-85636442D01*
X147971408Y-85636441D01*
X147769241Y-85570753D01*
X147559297Y-85537500D01*
X147559288Y-85537500D01*
X147046714Y-85537500D01*
X147046704Y-85537500D01*
X146836760Y-85570753D01*
X146634593Y-85636441D01*
X146445183Y-85732950D01*
X146416062Y-85754108D01*
X146297913Y-85839946D01*
X146209685Y-85880620D01*
X146151558Y-85887500D01*
X131373459Y-85887500D01*
X131276812Y-85906724D01*
X131276810Y-85906724D01*
X131180165Y-85925948D01*
X131126830Y-85948039D01*
X130998088Y-86001366D01*
X130998084Y-86001368D01*
X130834219Y-86110860D01*
X130834216Y-86110862D01*
X130694860Y-86250217D01*
X130694861Y-86250218D01*
X130694858Y-86250221D01*
X127441278Y-89503800D01*
X127360496Y-89557776D01*
X127265208Y-89576730D01*
X127232707Y-89574600D01*
X127118011Y-89559500D01*
X126881989Y-89559500D01*
X126647992Y-89590306D01*
X126647990Y-89590306D01*
X126647986Y-89590307D01*
X126475640Y-89636487D01*
X126420010Y-89651393D01*
X126420007Y-89651394D01*
X126201956Y-89741713D01*
X126201945Y-89741718D01*
X125997559Y-89859721D01*
X125997549Y-89859727D01*
X125810301Y-90003408D01*
X125810297Y-90003411D01*
X125643411Y-90170297D01*
X125643408Y-90170301D01*
X125499727Y-90357549D01*
X125499721Y-90357559D01*
X125381718Y-90561945D01*
X125381713Y-90561956D01*
X125313141Y-90727505D01*
X125291394Y-90780007D01*
X125230307Y-91007986D01*
X125230306Y-91007990D01*
X125230306Y-91007992D01*
X125214600Y-91127291D01*
X125199500Y-91241989D01*
X123690500Y-91241989D01*
X123690500Y-85828899D01*
X123691134Y-85811136D01*
X123696726Y-85732949D01*
X123704493Y-85624350D01*
X123709546Y-85589206D01*
X123747455Y-85414937D01*
X123757461Y-85380862D01*
X123819784Y-85213766D01*
X123834542Y-85181452D01*
X123840633Y-85170297D01*
X123920009Y-85024931D01*
X123939205Y-84995061D01*
X124046084Y-84852287D01*
X124069336Y-84825452D01*
X124195452Y-84699336D01*
X124222287Y-84676084D01*
X124365061Y-84569205D01*
X124394931Y-84550009D01*
X124551455Y-84464540D01*
X124583766Y-84449784D01*
X124750862Y-84387461D01*
X124784937Y-84377455D01*
X124959206Y-84339546D01*
X124994352Y-84334493D01*
X125156158Y-84322920D01*
X125181137Y-84321134D01*
X125198900Y-84320500D01*
X125255892Y-84320500D01*
X126002238Y-84320500D01*
X126097526Y-84339454D01*
G37*
G04 #@! TD.AperFunction*
M02*
