M48
; DRILL file KiCad 10.0.4 date 2026-07-18T19:12:39
; FORMAT={-:-/ absolute / metric / decimal}
; #@! TF.CreationDate,2026-07-18T19:12:39+08:00
; #@! TF.GenerationSoftware,Kicad,Pcbnew,10.0.4
; #@! TF.FileFunction,Plated,1,4,PTH
FMAT,2
METRIC
; #@! TA.AperFunction,Plated,PTH,ComponentDrill
T1C0.200
; #@! TA.AperFunction,Plated,PTH,ViaDrill
T2C0.300
; #@! TA.AperFunction,Plated,PTH,ComponentDrill
T3C0.460
; #@! TA.AperFunction,Plated,PTH,ComponentDrill
T4C0.600
; #@! TA.AperFunction,Plated,PTH,ComponentDrill
T5C0.800
; #@! TA.AperFunction,Plated,PTH,ComponentDrill
T6C0.950
; #@! TA.AperFunction,Plated,PTH,ComponentDrill
T7C1.000
; #@! TA.AperFunction,Plated,PTH,ComponentDrill
T8C1.100
; #@! TA.AperFunction,Plated,PTH,ComponentDrill
T9C1.300
%
G90
G05
T1
X174.268Y-89.634
X174.268Y-91.034
X174.968Y-88.934
X174.968Y-90.334
X174.968Y-91.734
X175.668Y-89.634
X175.668Y-91.034
X176.368Y-88.934
X176.368Y-90.334
X176.368Y-91.734
X177.068Y-89.634
X177.068Y-91.034
T2
X90.17Y-93.98
X90.17Y-94.742
X90.17Y-95.504
X90.424Y-82.55
X90.678Y-68.072
X90.678Y-68.834
X90.678Y-114.554
X90.932Y-93.98
X90.932Y-94.742
X90.932Y-95.504
X91.44Y-68.072
X91.44Y-68.834
X92.964Y-110.998
X92.964Y-93.98
X92.964Y-94.742
X92.964Y-95.504
X92.964Y-111.76
X93.726Y-110.998
X93.726Y-111.76
X93.726Y-93.98
X93.726Y-94.742
X93.726Y-95.504
X94.488Y-110.998
X94.488Y-111.76
X95.758Y-93.98
X95.758Y-94.742
X95.758Y-95.504
X96.52Y-93.98
X96.52Y-94.742
X96.52Y-95.504
X98.044Y-66.04
X98.044Y-66.802
X98.044Y-69.088
X98.044Y-69.85
X98.044Y-72.644
X98.044Y-73.406
X98.044Y-75.946
X98.044Y-76.708
X98.806Y-66.04
X98.806Y-66.802
X98.806Y-69.088
X98.806Y-69.85
X98.806Y-72.644
X98.806Y-73.406
X98.806Y-75.946
X98.806Y-76.708
X99.568Y-66.04
X99.568Y-66.802
X99.568Y-69.088
X99.568Y-69.85
X99.568Y-72.644
X99.568Y-73.406
X99.568Y-75.946
X99.568Y-76.708
X102.108Y-75.946
X102.108Y-76.708
X102.87Y-62.992
X102.87Y-63.754
X102.87Y-66.548
X102.87Y-67.31
X102.87Y-69.596
X102.87Y-70.358
X102.87Y-75.946
X102.87Y-76.708
X103.632Y-62.992
X103.632Y-63.754
X103.632Y-66.548
X103.632Y-67.31
X103.632Y-69.596
X103.632Y-70.358
X103.632Y-75.946
X103.632Y-76.708
X104.14Y-127.508
X104.394Y-62.992
X104.394Y-63.754
X104.394Y-66.548
X104.394Y-67.31
X104.394Y-69.596
X104.394Y-70.358
X105.918Y-75.946
X105.918Y-76.708
X106.172Y-86.106
X106.68Y-75.946
X106.68Y-76.708
X107.442Y-62.992
X107.442Y-63.754
X107.442Y-66.548
X107.442Y-67.31
X107.442Y-69.596
X107.442Y-70.358
X107.442Y-75.946
X107.442Y-76.708
X108.204Y-62.992
X108.204Y-63.754
X108.204Y-66.548
X108.204Y-67.31
X108.204Y-69.596
X108.204Y-70.358
X108.712Y-114.3
X108.712Y-115.062
X108.712Y-115.824
X108.966Y-62.992
X108.966Y-63.754
X108.966Y-66.548
X108.966Y-67.31
X108.966Y-69.596
X108.966Y-70.358
X109.474Y-114.3
X109.474Y-115.062
X109.474Y-115.824
X111.506Y-62.992
X111.506Y-63.754
X111.506Y-66.294
X111.506Y-67.056
X112.268Y-62.992
X112.268Y-63.754
X112.268Y-66.294
X112.268Y-67.056
X113.119Y-102.78
X113.538Y-79.502
X113.538Y-80.264
X113.538Y-81.026
X113.538Y-83.82
X113.538Y-84.582
X113.538Y-85.344
X113.538Y-88.646
X113.538Y-89.408
X113.538Y-90.17
X113.538Y-93.726
X113.538Y-94.488
X113.538Y-95.25
X114.046Y-76.708
X114.3Y-79.502
X114.3Y-80.264
X114.3Y-81.026
X114.3Y-83.82
X114.3Y-84.582
X114.3Y-85.344
X114.3Y-88.646
X114.3Y-89.408
X114.3Y-90.17
X114.3Y-93.726
X114.3Y-94.488
X114.3Y-95.25
X115.062Y-102.87
X116.078Y-99.314
X116.332Y-76.708
X116.332Y-79.502
X116.332Y-80.264
X116.332Y-81.026
X116.332Y-83.82
X116.332Y-84.582
X116.332Y-85.344
X116.332Y-88.646
X116.332Y-89.408
X116.332Y-90.17
X116.332Y-93.726
X116.332Y-94.488
X116.332Y-95.25
X117.094Y-79.502
X117.094Y-80.264
X117.094Y-81.026
X117.094Y-83.82
X117.094Y-84.582
X117.094Y-85.344
X117.094Y-88.646
X117.094Y-89.408
X117.094Y-90.17
X117.094Y-93.726
X117.094Y-94.488
X117.094Y-95.25
X119.126Y-93.726
X119.126Y-94.488
X119.126Y-95.25
X119.38Y-79.502
X119.38Y-80.264
X119.38Y-81.026
X119.38Y-83.82
X119.38Y-84.582
X119.38Y-85.344
X119.888Y-93.726
X119.888Y-94.488
X119.888Y-95.25
X119.888Y-114.3
X120.05Y-108.681
X120.142Y-79.502
X120.142Y-80.264
X120.142Y-81.026
X120.142Y-83.82
X120.142Y-84.582
X120.142Y-85.344
X120.396Y-77.216
X120.396Y-77.978
X120.396Y-78.74
X120.588Y-108.142
X120.588Y-109.22
X121.127Y-108.681
X121.127Y-109.759
X121.158Y-77.216
X121.158Y-77.978
X121.158Y-78.74
X121.666Y-109.22
X122.682Y-79.502
X122.682Y-80.264
X122.682Y-81.026
X122.682Y-83.82
X122.682Y-84.582
X122.682Y-85.344
X122.936Y-61.722
X123.444Y-79.502
X123.444Y-80.264
X123.444Y-81.026
X123.444Y-83.82
X123.444Y-84.582
X123.444Y-85.344
X125.984Y-79.502
X125.984Y-80.264
X125.984Y-81.026
X126.746Y-79.502
X126.746Y-80.264
X126.746Y-81.026
X128.016Y-61.722
X130.556Y-83.566
X131.318Y-82.804
X131.318Y-83.566
X131.826Y-127.508
X132.08Y-82.042
X132.08Y-82.804
X132.08Y-83.566
X132.842Y-82.042
X132.842Y-82.804
X132.842Y-83.566
X133.604Y-82.042
X133.604Y-82.804
X133.604Y-83.566
X134.366Y-82.042
X134.366Y-82.804
X134.366Y-83.566
X135.128Y-82.042
X135.128Y-82.804
X135.128Y-83.566
X135.89Y-82.042
X135.89Y-82.804
X135.89Y-83.566
X136.652Y-82.804
X136.652Y-83.566
X137.414Y-82.804
X137.414Y-83.566
X138.176Y-82.804
X138.176Y-83.566
X138.938Y-82.804
X138.938Y-83.566
X139.7Y-82.804
X139.7Y-83.566
X140.462Y-82.804
X140.462Y-83.566
X140.97Y-102.616
X141.224Y-82.804
X141.224Y-83.566
X142.24Y-71.374
X142.24Y-72.136
X142.24Y-72.898
X142.24Y-78.486
X142.24Y-79.248
X142.24Y-80.01
X142.24Y-82.042
X142.24Y-82.804
X142.24Y-83.566
X142.284Y-74.93
X142.284Y-75.692
X142.284Y-76.454
X142.586Y-124.206
X143.002Y-71.374
X143.002Y-72.136
X143.002Y-72.898
X143.002Y-78.486
X143.002Y-79.248
X143.002Y-80.01
X143.002Y-82.042
X143.002Y-82.804
X143.002Y-83.566
X143.046Y-74.93
X143.046Y-75.692
X143.046Y-76.454
X144.78Y-100.076
X144.78Y-101.854
X145.288Y-71.374
X145.288Y-72.136
X145.288Y-72.898
X145.288Y-78.486
X145.288Y-79.248
X145.288Y-80.01
X145.288Y-82.042
X145.288Y-82.804
X145.288Y-83.566
X146.05Y-71.374
X146.05Y-72.136
X146.05Y-72.898
X146.05Y-78.486
X146.05Y-79.248
X146.05Y-80.01
X146.05Y-82.042
X146.05Y-82.804
X146.05Y-83.566
X148.336Y-71.374
X148.336Y-72.136
X148.336Y-72.898
X148.336Y-74.93
X148.336Y-75.692
X148.336Y-76.454
X148.336Y-78.486
X148.336Y-79.248
X148.336Y-80.01
X148.336Y-82.042
X148.336Y-82.804
X148.336Y-83.566
X148.336Y-112.776
X149.098Y-71.374
X149.098Y-72.136
X149.098Y-72.898
X149.098Y-74.93
X149.098Y-75.692
X149.098Y-76.454
X149.098Y-78.486
X149.098Y-79.248
X149.098Y-80.01
X149.098Y-82.042
X149.098Y-82.804
X149.098Y-83.566
X151.384Y-71.374
X151.384Y-72.136
X151.384Y-72.898
X151.384Y-116.332
X151.384Y-117.094
X151.384Y-117.856
X151.384Y-120.142
X151.384Y-120.904
X151.384Y-121.666
X151.384Y-124.206
X151.384Y-124.968
X151.384Y-125.73
X151.384Y-128.016
X151.384Y-128.778
X151.384Y-129.54
X151.892Y-62.484
X151.892Y-64.008
X151.892Y-61.722
X151.892Y-64.77
X152.146Y-71.374
X152.146Y-72.136
X152.146Y-72.898
X152.146Y-82.042
X152.146Y-82.804
X152.146Y-83.566
X152.146Y-116.332
X152.146Y-117.094
X152.146Y-117.856
X152.146Y-120.142
X152.146Y-120.904
X152.146Y-121.666
X152.146Y-124.206
X152.146Y-124.968
X152.146Y-125.73
X152.146Y-128.016
X152.146Y-128.778
X152.146Y-129.54
X152.4Y-78.486
X152.4Y-79.248
X152.4Y-80.01
X152.654Y-61.722
X152.654Y-62.484
X152.654Y-64.008
X152.654Y-64.77
X152.908Y-82.042
X152.908Y-82.804
X152.908Y-83.566
X153.162Y-78.486
X153.162Y-79.248
X153.162Y-80.01
X153.416Y-64.008
X153.416Y-64.77
X154.178Y-64.008
X154.178Y-64.77
X154.432Y-69.596
X154.432Y-71.374
X154.432Y-72.136
X154.432Y-72.898
X154.94Y-64.008
X154.94Y-64.77
X155.194Y-71.374
X155.194Y-72.136
X155.194Y-72.898
X155.63Y-100.512
X155.702Y-125.476
X156.464Y-90.974
X156.464Y-109.474
X156.536Y-99.568
X156.536Y-103.958
X157.226Y-112.014
X157.734Y-71.374
X157.734Y-72.136
X157.734Y-72.898
X157.734Y-107.976
X157.988Y-89.329
X157.988Y-98.044
X157.988Y-102.362
X157.988Y-111.252
X157.988Y-112.014
X158.496Y-71.374
X158.496Y-72.136
X158.496Y-72.898
X158.496Y-125.476
X158.75Y-94.488
X158.75Y-97.282
X158.75Y-100.33
X159.258Y-66.548
X159.512Y-93.726
X160.274Y-93.019
X160.274Y-109.22
X160.274Y-116.332
X160.782Y-87.63
X160.948Y-82.991
X161.036Y-71.374
X161.036Y-72.136
X161.036Y-72.898
X161.036Y-75.184
X161.036Y-75.946
X161.036Y-76.708
X161.036Y-127.254
X161.544Y-86.868
X161.544Y-103.378
X161.544Y-105.064
X161.798Y-66.548
X161.798Y-71.374
X161.798Y-72.136
X161.798Y-72.898
X161.798Y-75.184
X161.798Y-75.946
X161.798Y-76.708
X161.798Y-97.536
X162.306Y-86.148
X162.306Y-91.186
X162.56Y-96.774
X162.56Y-114.3
X162.56Y-116.078
X163.068Y-61.468
X163.068Y-63.246
X163.068Y-108.966
X163.322Y-96.012
X164.084Y-107.976
X164.084Y-113.538
X164.084Y-112.776
X164.338Y-71.374
X164.338Y-72.136
X164.338Y-72.898
X164.338Y-75.184
X164.338Y-75.946
X164.338Y-76.708
X164.846Y-112.776
X164.846Y-113.538
X165.1Y-71.374
X165.1Y-72.136
X165.1Y-72.898
X165.1Y-75.184
X165.1Y-75.946
X165.1Y-76.708
X165.797Y-110.808
X166.878Y-81.788
X167.132Y-87.376
X167.132Y-88.646
X167.894Y-123.444
X167.981Y-86.032
X168.148Y-81.788
X168.148Y-97.748
X168.148Y-101.854
X168.656Y-123.444
X168.656Y-124.206
X169.418Y-84.582
X169.418Y-97.748
X169.418Y-101.854
X169.418Y-121.48
X169.672Y-87.63
X170.088Y-104.319
X170.18Y-119.38
X170.434Y-127.254
X170.472Y-87.63
X170.688Y-88.9
X170.688Y-90.424
X171.196Y-68.834
X171.45Y-117.856
X171.958Y-101.854
X172.466Y-115.062
X172.466Y-116.84
X172.466Y-118.872
X172.466Y-120.65
X172.72Y-68.834
X173.482Y-80.772
X174.49Y-96.512
X175.514Y-77.724
X175.514Y-111.252
X175.768Y-84.582
X177.546Y-94.234
X178.054Y-108.458
X178.216Y-84.582
X178.216Y-85.852
X178.308Y-99.314
X178.816Y-77.724
X178.816Y-79.502
X179.578Y-89.154
X180.34Y-79.502
X180.34Y-78.74
X181.102Y-78.74
X181.102Y-79.502
X181.102Y-111.76
X181.61Y-113.538
X182.626Y-108.204
X182.626Y-109.982
X183.253Y-103.259
X183.388Y-81.788
X183.388Y-101.6
X183.896Y-77.978
X183.896Y-78.994
T3
X166.5Y-130.35
X175.26Y-130.35
X178.678Y-118.24
X178.678Y-127.0
T5
X109.22Y-75.212
X109.22Y-78.712
X132.842Y-63.528
X132.842Y-67.028
X157.48Y-113.792
X157.48Y-123.952
T6
X95.818Y-123.207
X98.318Y-123.207
X100.818Y-123.207
X103.318Y-123.207
X123.494Y-123.175
X125.994Y-123.175
X128.494Y-123.175
X130.994Y-123.175
X137.026Y-133.604
X139.526Y-133.604
X142.026Y-133.604
X144.526Y-133.604
X150.632Y-133.658
X152.734Y-76.2
X153.132Y-133.658
X155.234Y-76.2
X155.632Y-133.658
X157.734Y-76.2
X158.132Y-133.658
T7
X90.932Y-105.156
X90.932Y-117.856
X90.932Y-101.6
X93.472Y-105.156
X93.472Y-101.6
X93.472Y-117.856
X96.012Y-101.6
X96.012Y-105.156
X96.012Y-117.856
X98.552Y-105.156
X98.552Y-131.572
X98.552Y-117.856
X98.806Y-62.992
X98.806Y-80.772
X101.092Y-105.156
X101.092Y-131.572
X101.092Y-117.856
X103.632Y-131.572
X103.632Y-98.806
X103.632Y-101.6
X103.632Y-105.156
X103.632Y-117.856
X106.172Y-105.156
X106.172Y-131.572
X106.172Y-98.806
X106.172Y-101.6
X106.172Y-117.856
X108.712Y-98.806
X108.712Y-101.6
X108.712Y-105.156
X108.712Y-107.95
X108.712Y-110.49
X108.712Y-117.856
X109.999Y-122.702
X109.999Y-125.202
X112.268Y-105.156
X112.268Y-107.95
X112.268Y-110.49
X112.268Y-113.284
X115.062Y-107.95
X115.062Y-110.49
X117.094Y-131.572
X118.618Y-117.856
X118.872Y-104.902
X118.872Y-101.346
X119.634Y-131.572
X120.904Y-87.884
X120.904Y-90.424
X121.158Y-117.856
X121.412Y-101.346
X121.412Y-104.902
X122.174Y-131.572
X123.444Y-87.884
X123.444Y-90.424
X123.698Y-117.856
X123.952Y-101.346
X123.952Y-104.902
X124.714Y-131.572
X125.984Y-90.424
X125.984Y-87.884
X126.238Y-117.856
X126.492Y-104.902
X128.524Y-87.884
X128.524Y-90.424
X128.778Y-117.856
X129.032Y-104.902
X131.064Y-87.884
X131.064Y-90.424
X131.318Y-117.856
X131.572Y-98.552
X131.572Y-101.346
X131.572Y-104.902
X133.604Y-87.884
X133.604Y-90.424
X133.858Y-117.856
X134.112Y-104.902
X134.112Y-98.552
X134.112Y-101.346
X136.144Y-87.884
X136.144Y-90.424
X136.398Y-117.856
X136.652Y-98.552
X136.652Y-101.346
X136.652Y-104.902
X136.652Y-107.696
X136.652Y-110.236
X137.668Y-122.682
X137.668Y-125.182
X138.684Y-87.884
X138.684Y-90.424
X139.446Y-62.992
X139.446Y-80.772
X140.208Y-104.902
X140.208Y-107.691
X140.208Y-110.231
X140.208Y-113.03
X141.224Y-87.884
X141.224Y-90.424
X143.002Y-107.696
X143.002Y-110.236
X143.764Y-87.884
X143.764Y-90.424
X145.796Y-63.794
X145.796Y-66.294
X145.796Y-74.97
X145.796Y-77.47
X153.67Y-112.268
X153.67Y-114.808
X153.67Y-117.348
X153.67Y-119.888
X153.67Y-122.428
X153.67Y-124.968
X153.67Y-127.508
X161.544Y-99.822
T8
X166.168Y-104.176
X166.168Y-108.676
X172.668Y-104.176
X172.668Y-108.676
X176.582Y-70.14
X176.582Y-74.64
X183.082Y-70.14
X183.082Y-74.64
T9
X94.061Y-86.36
X94.061Y-91.44
T4
G00X167.638Y-62.102
M15
G01X167.638Y-61.502
M16
G05
G00X167.638Y-66.532
M15
G01X167.638Y-65.432
M16
G05
G00X176.278Y-62.102
M15
G01X176.278Y-61.502
M16
G05
G00X176.278Y-66.532
M15
G01X176.278Y-65.432
M16
G05
M30
