%TF.GenerationSoftware,KiCad,Pcbnew,10.0.4*%
%TF.CreationDate,2026-07-03T13:19:27+08:00*%
%TF.ProjectId,display_breakout_small,64697370-6c61-4795-9f62-7265616b6f75,rev?*%
%TF.SameCoordinates,Original*%
%TF.FileFunction,Copper,L1,Top*%
%TF.FilePolarity,Positive*%
%FSLAX46Y46*%
G04 Gerber Fmt 4.6, Leading zero omitted, Abs format (unit mm)*
G04 Created by KiCad (PCBNEW 10.0.4) date 2026-07-03 13:19:27*
%MOMM*%
%LPD*%
G01*
G04 APERTURE LIST*
G04 Aperture macros list*
%AMRoundRect*
0 Rectangle with rounded corners*
0 $1 Rounding radius*
0 $2 $3 $4 $5 $6 $7 $8 $9 X,Y pos of 4 corners*
0 Add a 4 corners polygon primitive as box body*
4,1,4,$2,$3,$4,$5,$6,$7,$8,$9,$2,$3,0*
0 Add four circle primitives for the rounded corners*
1,1,$1+$1,$2,$3*
1,1,$1+$1,$4,$5*
1,1,$1+$1,$6,$7*
1,1,$1+$1,$8,$9*
0 Add four rect primitives between the rounded corners*
20,1,$1+$1,$2,$3,$4,$5,0*
20,1,$1+$1,$4,$5,$6,$7,0*
20,1,$1+$1,$6,$7,$8,$9,0*
20,1,$1+$1,$8,$9,$2,$3,0*%
G04 Aperture macros list end*
%TA.AperFunction,ComponentPad*%
%ADD10C,3.600000*%
%TD*%
%TA.AperFunction,ConnectorPad*%
%ADD11C,5.500000*%
%TD*%
%TA.AperFunction,SMDPad,CuDef*%
%ADD12RoundRect,0.160000X-0.197500X-0.160000X0.197500X-0.160000X0.197500X0.160000X-0.197500X0.160000X0*%
%TD*%
%TA.AperFunction,SMDPad,CuDef*%
%ADD13RoundRect,0.150000X0.587500X0.150000X-0.587500X0.150000X-0.587500X-0.150000X0.587500X-0.150000X0*%
%TD*%
%TA.AperFunction,SMDPad,CuDef*%
%ADD14RoundRect,0.155000X0.212500X0.155000X-0.212500X0.155000X-0.212500X-0.155000X0.212500X-0.155000X0*%
%TD*%
%TA.AperFunction,ComponentPad*%
%ADD15C,1.700000*%
%TD*%
%TA.AperFunction,SMDPad,CuDef*%
%ADD16RoundRect,0.160000X0.197500X0.160000X-0.197500X0.160000X-0.197500X-0.160000X0.197500X-0.160000X0*%
%TD*%
%TA.AperFunction,ComponentPad*%
%ADD17R,2.000000X2.000000*%
%TD*%
%TA.AperFunction,ComponentPad*%
%ADD18C,2.000000*%
%TD*%
%TA.AperFunction,ComponentPad*%
%ADD19R,1.700000X1.700000*%
%TD*%
%TA.AperFunction,ComponentPad*%
%ADD20R,3.200000X2.000000*%
%TD*%
%TA.AperFunction,ComponentPad*%
%ADD21RoundRect,0.250000X0.600000X0.600000X-0.600000X0.600000X-0.600000X-0.600000X0.600000X-0.600000X0*%
%TD*%
%TA.AperFunction,ViaPad*%
%ADD22C,0.600000*%
%TD*%
%TA.AperFunction,Conductor*%
%ADD23C,0.200000*%
%TD*%
%TA.AperFunction,Conductor*%
%ADD24C,0.500000*%
%TD*%
G04 APERTURE END LIST*
D10*
%TO.P,REF\u002A\u002A,1*%
%TO.N,N/C*%
X233000000Y-58500000D03*
D11*
X233000000Y-58500000D03*
%TD*%
D12*
%TO.P,R2,1*%
%TO.N,Net-(Q1-G)*%
X214402500Y-78000000D03*
%TO.P,R2,2*%
%TO.N,/BUZ_PWM*%
X215597500Y-78000000D03*
%TD*%
D13*
%TO.P,Q1,1,G_1*%
%TO.N,Net-(Q1-G)*%
X216875000Y-73950000D03*
%TO.P,Q1,2,S_2*%
%TO.N,GND*%
X216875000Y-72050000D03*
%TO.P,Q1,3,D_3*%
%TO.N,Net-(BZ1--)*%
X215000000Y-73000000D03*
%TD*%
D14*
%TO.P,C5,1*%
%TO.N,/BTN2*%
X215135000Y-106000000D03*
%TO.P,C5,2*%
%TO.N,GND*%
X214000000Y-106000000D03*
%TD*%
D15*
%TO.P,SW2,1,1_1*%
%TO.N,/BTN1*%
X222000000Y-94250000D03*
X228500000Y-94250000D03*
%TO.P,SW2,2,2_2*%
%TO.N,GND*%
X222000000Y-98750000D03*
X228500000Y-98750000D03*
%TD*%
D16*
%TO.P,R3,1*%
%TO.N,/EC11_A(CLK)*%
X218195000Y-92500000D03*
%TO.P,R3,2*%
%TO.N,+3.3V*%
X217000000Y-92500000D03*
%TD*%
%TO.P,R7,1*%
%TO.N,/BTN2*%
X218000000Y-104500000D03*
%TO.P,R7,2*%
%TO.N,+3.3V*%
X216805000Y-104500000D03*
%TD*%
D10*
%TO.P,REF\u002A\u002A,1*%
%TO.N,N/C*%
X233000000Y-111000000D03*
D11*
X233000000Y-111000000D03*
%TD*%
D14*
%TO.P,C4,1*%
%TO.N,/BTN1*%
X214937500Y-109860000D03*
%TO.P,C4,2*%
%TO.N,GND*%
X213802500Y-109860000D03*
%TD*%
D10*
%TO.P,REF\u002A\u002A,1*%
%TO.N,N/C*%
X191500000Y-111000000D03*
D11*
X191500000Y-111000000D03*
%TD*%
D17*
%TO.P,BZ1,1,+_1*%
%TO.N,+5V*%
X225500000Y-63000000D03*
D18*
%TO.P,BZ1,2,-_2*%
%TO.N,Net-(BZ1--)*%
X225500000Y-70600000D03*
%TD*%
D16*
%TO.P,R4,1*%
%TO.N,/EC11_B (DT)*%
X218195000Y-95500000D03*
%TO.P,R4,2*%
%TO.N,+3.3V*%
X217000000Y-95500000D03*
%TD*%
D19*
%TO.P,J2,1,Pin_1_1*%
%TO.N,/TOUCH_IRQ*%
X209500000Y-68500000D03*
D15*
%TO.P,J2,2,Pin_2_2*%
%TO.N,/SPI_MISO*%
X209500000Y-71040000D03*
%TO.P,J2,3,Pin_3_3*%
%TO.N,/SPI_MOSI*%
X209500000Y-73580000D03*
%TO.P,J2,4,Pin_4_4*%
%TO.N,/TOUCH_CS*%
X209500000Y-76120000D03*
%TO.P,J2,5,Pin_5_5*%
%TO.N,/SPI_CLK*%
X209500000Y-78660000D03*
%TO.P,J2,6,Pin_6_6*%
%TO.N,/SPI_MISO*%
X209500000Y-81200000D03*
%TO.P,J2,7,Pin_7_7*%
%TO.N,+3.3V*%
X209500000Y-83740000D03*
%TO.P,J2,8,Pin_8_8*%
%TO.N,/SPI_CLK*%
X209500000Y-86280000D03*
%TO.P,J2,9,Pin_9_9*%
%TO.N,/SPI_MOSI*%
X209500000Y-88820000D03*
%TO.P,J2,10,Pin_10_10*%
%TO.N,/TFT_DC*%
X209500000Y-91360000D03*
%TO.P,J2,11,Pin_11_11*%
%TO.N,/TFT_RST*%
X209500000Y-93900000D03*
%TO.P,J2,12,Pin_12_12*%
%TO.N,/TFT_CS*%
X209500000Y-96440000D03*
%TO.P,J2,13,Pin_13_13*%
%TO.N,GND*%
X209500000Y-98980000D03*
%TO.P,J2,14,Pin_14_14*%
%TO.N,+3.3V*%
X209500000Y-101520000D03*
%TD*%
%TO.P,SW3,1,1_1*%
%TO.N,/BTN2*%
X222000000Y-104000000D03*
X228500000Y-104000000D03*
%TO.P,SW3,2,2_2*%
%TO.N,GND*%
X222000000Y-108500000D03*
X228500000Y-108500000D03*
%TD*%
D16*
%TO.P,R6,1*%
%TO.N,/BTN1*%
X218097500Y-109000000D03*
%TO.P,R6,2*%
%TO.N,+3.3V*%
X216902500Y-109000000D03*
%TD*%
D14*
%TO.P,C3,1*%
%TO.N,/EC11_SW*%
X214937500Y-99300000D03*
%TO.P,C3,2*%
%TO.N,GND*%
X213802500Y-99300000D03*
%TD*%
D16*
%TO.P,R5,1*%
%TO.N,/EC11_SW*%
X218097500Y-97950000D03*
%TO.P,R5,2*%
%TO.N,+3.3V*%
X216902500Y-97950000D03*
%TD*%
D14*
%TO.P,C2,1*%
%TO.N,/EC11_B (DT)*%
X214937500Y-96790000D03*
%TO.P,C2,2*%
%TO.N,GND*%
X213802500Y-96790000D03*
%TD*%
%TO.P,C1,1*%
%TO.N,/EC11_A(CLK)*%
X215035000Y-93780000D03*
%TO.P,C1,2*%
%TO.N,GND*%
X213900000Y-93780000D03*
%TD*%
D17*
%TO.P,SW1,A,A_A*%
%TO.N,/EC11_A(CLK)*%
X218000000Y-80400000D03*
D18*
%TO.P,SW1,B,B_B*%
%TO.N,/EC11_B (DT)*%
X218000000Y-85400000D03*
%TO.P,SW1,C,C_C*%
%TO.N,GND*%
X218000000Y-82900000D03*
D20*
%TO.P,SW1,MP*%
%TO.N,N/C*%
X225500000Y-77300000D03*
X225500000Y-88500000D03*
D18*
%TO.P,SW1,S1,S1_S1*%
%TO.N,/EC11_SW*%
X232500000Y-85400000D03*
%TO.P,SW1,S2,S2_S2*%
%TO.N,GND*%
X232500000Y-80400000D03*
%TD*%
D10*
%TO.P,REF\u002A\u002A,1*%
%TO.N,N/C*%
X191500000Y-58500000D03*
D11*
X191500000Y-58500000D03*
%TD*%
D21*
%TO.P,J1,1,Pin_1_1*%
%TO.N,GND*%
X199752500Y-73300000D03*
D15*
%TO.P,J1,2,Pin_2_2*%
%TO.N,+3.3V*%
X197212500Y-73300000D03*
%TO.P,J1,3,Pin_3_3*%
%TO.N,GND*%
X199752500Y-75840000D03*
%TO.P,J1,4,Pin_4_4*%
%TO.N,+5V*%
X197212500Y-75840000D03*
%TO.P,J1,5,Pin_5_5*%
%TO.N,/SPI_MOSI*%
X199752500Y-78380000D03*
%TO.P,J1,6,Pin_6_6*%
%TO.N,/SPI_MISO*%
X197212500Y-78380000D03*
%TO.P,J1,7,Pin_7_7*%
%TO.N,/SPI_CLK*%
X199752500Y-80920000D03*
%TO.P,J1,8,Pin_8_8*%
%TO.N,/TFT_CS*%
X197212500Y-80920000D03*
%TO.P,J1,9,Pin_9_9*%
%TO.N,/TFT_DC*%
X199752500Y-83460000D03*
%TO.P,J1,10,Pin_10_10*%
%TO.N,/TFT_RST*%
X197212500Y-83460000D03*
%TO.P,J1,11,Pin_11_11*%
%TO.N,/TOUCH_CS*%
X199752500Y-86000000D03*
%TO.P,J1,12,Pin_12_12*%
%TO.N,/TOUCH_IRQ*%
X197212500Y-86000000D03*
%TO.P,J1,13,Pin_13_13*%
%TO.N,/EC11_A(CLK)*%
X199752500Y-88540000D03*
%TO.P,J1,14,Pin_14_14*%
%TO.N,/EC11_B (DT)*%
X197212500Y-88540000D03*
%TO.P,J1,15,Pin_15_15*%
%TO.N,/EC11_SW*%
X199752500Y-91080000D03*
%TO.P,J1,16,Pin_16_16*%
%TO.N,/BTN1*%
X197212500Y-91080000D03*
%TO.P,J1,17,Pin_17_17*%
%TO.N,/BTN2*%
X199752500Y-93620000D03*
%TO.P,J1,18,Pin_18_18*%
%TO.N,/BUZ_PWM*%
X197212500Y-93620000D03*
%TO.P,J1,19,Pin_19_19*%
%TO.N,GND*%
X199752500Y-96160000D03*
%TO.P,J1,20,Pin_20_20*%
X197212500Y-96160000D03*
%TD*%
D22*
%TO.N,GND*%
X197500000Y-99000000D03*
X217000000Y-101500000D03*
X233000000Y-101500000D03*
X219000000Y-101000000D03*
X200500000Y-99000000D03*
X205000000Y-58500000D03*
X215000000Y-81000000D03*
X215000000Y-89500000D03*
X196500000Y-58500000D03*
X191000000Y-106500000D03*
X230000000Y-73500000D03*
X205000000Y-64500000D03*
X213500000Y-101500000D03*
X200000000Y-64500000D03*
X198000000Y-104000000D03*
X204000000Y-71000000D03*
X213000000Y-99500000D03*
X233000000Y-92000000D03*
X200000000Y-58500000D03*
X214000000Y-93500000D03*
X220500000Y-73500000D03*
X190500000Y-83000000D03*
X213000000Y-97000000D03*
X215000000Y-92000000D03*
X191000000Y-99000000D03*
X204000000Y-104000000D03*
X202000000Y-74000000D03*
X212500000Y-110000000D03*
X215000000Y-64500000D03*
%TO.N,/EC11_A(CLK)*%
X207500000Y-90000000D03*
X216000000Y-93100000D03*
X205000000Y-87500000D03*
%TO.N,+3.3V*%
X214000000Y-108500000D03*
%TO.N,/EC11_B (DT)*%
X216000000Y-96790000D03*
X207750000Y-92750000D03*
X205000000Y-90000000D03*
%TO.N,/SPI_MISO*%
X213000000Y-78500000D03*
%TO.N,/TFT_CS*%
X193000000Y-83000000D03*
%TO.N,/EC11_SW*%
X216000000Y-99300000D03*
X207500000Y-96000000D03*
%TD*%
%TO.N,Net-(Q1-G)*%
D23*
X216875000Y-73950000D02*
X214402500Y-76422500D01*
X214402500Y-76422500D02*
X214402500Y-78000000D01*
%TO.N,/BUZ_PWM*%
X212000000Y-89000000D02*
X213500000Y-87500000D01*
X198592500Y-95000000D02*
X205000000Y-95000000D01*
X208433654Y-97000000D02*
X209023654Y-97590000D01*
X197212500Y-93620000D02*
X198592500Y-95000000D01*
X212000000Y-96500000D02*
X212000000Y-89000000D01*
X207000000Y-97000000D02*
X208433654Y-97000000D01*
X211500000Y-97000000D02*
X212000000Y-96500000D01*
X209976346Y-97590000D02*
X210566346Y-97000000D01*
X213500000Y-87500000D02*
X213500000Y-80097500D01*
X213500000Y-80097500D02*
X215597500Y-78000000D01*
X210566346Y-97000000D02*
X211500000Y-97000000D01*
X205000000Y-95000000D02*
X207000000Y-97000000D01*
X209023654Y-97590000D02*
X209976346Y-97590000D01*
%TO.N,GND*%
X213802500Y-109860000D02*
X212640000Y-109860000D01*
X213210000Y-96790000D02*
X213000000Y-97000000D01*
X213802500Y-99300000D02*
X213200000Y-99300000D01*
X213802500Y-96790000D02*
X213210000Y-96790000D01*
X213900000Y-93780000D02*
X213900000Y-93600000D01*
X212640000Y-109860000D02*
X212500000Y-110000000D01*
X213200000Y-99300000D02*
X213000000Y-99500000D01*
X213900000Y-93600000D02*
X214000000Y-93500000D01*
%TO.N,Net-(BZ1--)*%
D24*
X225200000Y-70300000D02*
X216700000Y-70300000D01*
X215000000Y-72000000D02*
X215000000Y-73000000D01*
D23*
X225500000Y-70600000D02*
X225200000Y-70300000D01*
D24*
X216700000Y-70300000D02*
X215000000Y-72000000D01*
%TO.N,/BTN2*%
D23*
X215135000Y-106000000D02*
X215135000Y-106500000D01*
X198602500Y-92470000D02*
X196736154Y-92470000D01*
X199752500Y-93620000D02*
X198602500Y-92470000D01*
X195000000Y-106000000D02*
X199500000Y-110500000D01*
X195000000Y-94206154D02*
X195000000Y-106000000D01*
X221000000Y-104500000D02*
X218000000Y-104500000D01*
X222000000Y-104000000D02*
X221500000Y-104000000D01*
X216968750Y-107468750D02*
X218067500Y-106370000D01*
X213710000Y-107500000D02*
X210710000Y-110500000D01*
X214500000Y-107500000D02*
X213710000Y-107500000D01*
X221500000Y-104000000D02*
X221000000Y-104500000D01*
X218067500Y-106370000D02*
X218067500Y-104567500D01*
X215135000Y-106865000D02*
X214500000Y-107500000D01*
X215135000Y-106500000D02*
X216103750Y-107468750D01*
X218067500Y-104567500D02*
X218000000Y-104500000D01*
X216103750Y-107468750D02*
X216968750Y-107468750D01*
X199500000Y-110500000D02*
X210710000Y-110500000D01*
X215135000Y-106500000D02*
X215135000Y-106865000D01*
X196736154Y-92470000D02*
X195000000Y-94206154D01*
%TO.N,/BTN1*%
X224000000Y-96250000D02*
X224000000Y-105000000D01*
X223000000Y-106000000D02*
X221097500Y-106000000D01*
X199000000Y-112000000D02*
X212797500Y-112000000D01*
X224000000Y-105000000D02*
X223000000Y-106000000D01*
X194000000Y-107000000D02*
X199000000Y-112000000D01*
X212797500Y-112000000D02*
X214937500Y-109860000D01*
X222000000Y-94250000D02*
X224000000Y-96250000D01*
X217237500Y-109860000D02*
X218097500Y-109000000D01*
X221097500Y-106000000D02*
X218097500Y-109000000D01*
X197212500Y-91080000D02*
X194000000Y-94292500D01*
X228500000Y-94250000D02*
X222000000Y-94250000D01*
X194000000Y-94292500D02*
X194000000Y-107000000D01*
X214937500Y-109860000D02*
X217237500Y-109860000D01*
%TO.N,/EC11_A(CLK)*%
X218000000Y-89500000D02*
X215500000Y-87000000D01*
X217392472Y-93120000D02*
X217412472Y-93100000D01*
X216000000Y-93100000D02*
X216587528Y-93100000D01*
X215500000Y-82900000D02*
X218000000Y-80400000D01*
X207500000Y-90000000D02*
X205000000Y-87500000D01*
X217412472Y-93100000D02*
X217997500Y-93100000D01*
X218000000Y-92305000D02*
X218000000Y-89500000D01*
X218195000Y-92500000D02*
X218000000Y-92305000D01*
X216607528Y-93120000D02*
X217392472Y-93120000D01*
X216000000Y-93100000D02*
X215320000Y-93780000D01*
X215500000Y-87000000D02*
X215500000Y-82900000D01*
X217997500Y-93100000D02*
X218195000Y-92902500D01*
X218195000Y-92902500D02*
X218195000Y-92500000D01*
X216587528Y-93100000D02*
X216607528Y-93120000D01*
X215320000Y-93780000D02*
X215035000Y-93780000D01*
%TO.N,+3.3V*%
X216902500Y-109000000D02*
X214500000Y-109000000D01*
X212260000Y-96891471D02*
X212260000Y-98760000D01*
X214500000Y-109000000D02*
X214000000Y-108500000D01*
X214000000Y-91000000D02*
X212500000Y-92500000D01*
X209500000Y-101520000D02*
X212260000Y-98760000D01*
X212500000Y-96000000D02*
X212825736Y-96325736D01*
X215500000Y-91000000D02*
X214000000Y-91000000D01*
X215000000Y-104500000D02*
X214000000Y-103500000D01*
X211480000Y-103500000D02*
X209500000Y-101520000D01*
X217000000Y-95500000D02*
X213651471Y-95500000D01*
X214000000Y-103500000D02*
X211480000Y-103500000D01*
X213070000Y-97950000D02*
X216902500Y-97950000D01*
X212500000Y-92500000D02*
X212500000Y-96000000D01*
X212825736Y-96325736D02*
X212260000Y-96891471D01*
X212260000Y-98760000D02*
X213070000Y-97950000D01*
X216805000Y-104500000D02*
X215000000Y-104500000D01*
X217000000Y-92500000D02*
X215500000Y-91000000D01*
X213651471Y-95500000D02*
X212825736Y-96325736D01*
%TO.N,/EC11_B (DT)*%
X214937500Y-96790000D02*
X216000000Y-96790000D01*
X218500000Y-95500000D02*
X218195000Y-95500000D01*
X220000000Y-94000000D02*
X218500000Y-95500000D01*
X218000000Y-85400000D02*
X220000000Y-87400000D01*
X216000000Y-96790000D02*
X216905000Y-96790000D01*
X220000000Y-87400000D02*
X220000000Y-94000000D01*
X207750000Y-92750000D02*
X205000000Y-90000000D01*
X216905000Y-96790000D02*
X218195000Y-95500000D01*
%TO.N,/TOUCH_IRQ*%
X194500000Y-72500000D02*
X198500000Y-68500000D01*
X198500000Y-68500000D02*
X209500000Y-68500000D01*
X194500000Y-83287500D02*
X194500000Y-72500000D01*
X197212500Y-86000000D02*
X194500000Y-83287500D01*
%TO.N,/SPI_MISO*%
X197212500Y-78380000D02*
X196000000Y-77167500D01*
X208860000Y-70400000D02*
X209500000Y-71040000D01*
X196000000Y-72500000D02*
X198100000Y-70400000D01*
X209500000Y-71040000D02*
X213000000Y-74540000D01*
X196000000Y-77167500D02*
X196000000Y-72500000D01*
X198100000Y-70400000D02*
X208860000Y-70400000D01*
X213000000Y-74540000D02*
X213000000Y-78500000D01*
%TO.N,/SPI_MOSI*%
X212000000Y-86320000D02*
X209500000Y-88820000D01*
X209500000Y-73580000D02*
X212000000Y-76080000D01*
X212000000Y-76080000D02*
X212000000Y-86320000D01*
X199752500Y-78380000D02*
X200620000Y-78380000D01*
X200620000Y-78380000D02*
X205420000Y-73580000D01*
X209500000Y-88127500D02*
X209500000Y-88820000D01*
X205420000Y-73580000D02*
X209500000Y-73580000D01*
%TO.N,/TOUCH_CS*%
X198602500Y-80443654D02*
X199516154Y-79530000D01*
X200576814Y-79530000D02*
X203986814Y-76120000D01*
X203986814Y-76120000D02*
X209500000Y-76120000D01*
X199752500Y-86000000D02*
X198602500Y-84850000D01*
X198602500Y-84850000D02*
X198602500Y-80443654D01*
X199516154Y-79530000D02*
X200576814Y-79530000D01*
%TO.N,/SPI_CLK*%
X208580000Y-79580000D02*
X209500000Y-78660000D01*
X199832500Y-81000000D02*
X207160000Y-81000000D01*
X209500000Y-86280000D02*
X207000000Y-83780000D01*
X207000000Y-83780000D02*
X207000000Y-81160000D01*
X207160000Y-81000000D02*
X208580000Y-79580000D01*
X199752500Y-80920000D02*
X199832500Y-81000000D01*
X207000000Y-81160000D02*
X208580000Y-79580000D01*
%TO.N,/TFT_DC*%
X207652500Y-91360000D02*
X209500000Y-91360000D01*
X199752500Y-83460000D02*
X207652500Y-91360000D01*
%TO.N,/TFT_RST*%
X199516154Y-87390000D02*
X201390000Y-87390000D01*
X197212500Y-83460000D02*
X197212500Y-83712500D01*
X198202500Y-84702500D02*
X198202500Y-85015686D01*
X201390000Y-87390000D02*
X207900000Y-93900000D01*
X198602500Y-86476346D02*
X199516154Y-87390000D01*
X207900000Y-93900000D02*
X209500000Y-93900000D01*
X198202500Y-85015686D02*
X198602500Y-85415686D01*
X198602500Y-85415686D02*
X198602500Y-86476346D01*
X197212500Y-83712500D02*
X198202500Y-84702500D01*
%TO.N,/TFT_CS*%
X202990000Y-89930000D02*
X196976154Y-89930000D01*
X196976154Y-89930000D02*
X193000000Y-85953846D01*
X209500000Y-96440000D02*
X202990000Y-89930000D01*
X193000000Y-85953846D02*
X193000000Y-83000000D01*
%TO.N,/EC11_SW*%
X216747500Y-99300000D02*
X218097500Y-97950000D01*
X199752500Y-91080000D02*
X202580000Y-91080000D01*
X220450000Y-95597500D02*
X220450000Y-94173654D01*
X214937500Y-99300000D02*
X216000000Y-99300000D01*
X220450000Y-94173654D02*
X223623654Y-91000000D01*
X218097500Y-97950000D02*
X220450000Y-95597500D01*
X216000000Y-99300000D02*
X216747500Y-99300000D01*
X226900000Y-91000000D02*
X232500000Y-85400000D01*
X223623654Y-91000000D02*
X226900000Y-91000000D01*
X202580000Y-91080000D02*
X207500000Y-96000000D01*
%TD*%
%TA.AperFunction,Conductor*%
%TO.N,GND*%
G36*
X212953179Y-109208568D02*
G01*
X213009112Y-109250440D01*
X213033529Y-109315904D01*
X213018677Y-109384177D01*
X213016578Y-109387869D01*
X212984093Y-109442800D01*
X212984090Y-109442805D01*
X212937921Y-109601718D01*
X212937270Y-109610000D01*
X213678500Y-109610000D01*
X213745539Y-109629685D01*
X213791294Y-109682489D01*
X213802500Y-109734000D01*
X213802500Y-109986000D01*
X213782815Y-110053039D01*
X213730011Y-110098794D01*
X213678500Y-110110000D01*
X212937270Y-110110000D01*
X212937921Y-110118281D01*
X212984090Y-110277194D01*
X212984092Y-110277197D01*
X213068333Y-110419642D01*
X213068339Y-110419650D01*
X213185349Y-110536660D01*
X213185357Y-110536666D01*
X213189925Y-110539368D01*
X213237607Y-110590438D01*
X213250110Y-110659180D01*
X213223463Y-110723769D01*
X213214483Y-110733780D01*
X212585084Y-111363181D01*
X212523761Y-111396666D01*
X212497403Y-111399500D01*
X199300097Y-111399500D01*
X199233058Y-111379815D01*
X199212416Y-111363181D01*
X199083860Y-111234625D01*
X199050375Y-111173302D01*
X199055359Y-111103610D01*
X199097231Y-111047677D01*
X199162695Y-111023260D01*
X199230968Y-111038112D01*
X199233525Y-111039548D01*
X199268215Y-111059577D01*
X199420943Y-111100501D01*
X199420946Y-111100501D01*
X199586653Y-111100501D01*
X199586669Y-111100500D01*
X210623331Y-111100500D01*
X210623347Y-111100501D01*
X210630943Y-111100501D01*
X210789054Y-111100501D01*
X210789057Y-111100501D01*
X210941785Y-111059577D01*
X210991904Y-111030639D01*
X211078716Y-110980520D01*
X211190520Y-110868716D01*
X211190520Y-110868714D01*
X211200728Y-110858507D01*
X211200729Y-110858504D01*
X212822167Y-109237066D01*
X212883487Y-109203584D01*
X212953179Y-109208568D01*
G37*
%TD.AperFunction*%
%TA.AperFunction,Conductor*%
G36*
X195956433Y-94201467D02*
G01*
X196012367Y-94243338D01*
X196023585Y-94261354D01*
X196057451Y-94327820D01*
X196182390Y-94499786D01*
X196332713Y-94650109D01*
X196504679Y-94775048D01*
X196504681Y-94775049D01*
X196504684Y-94775051D01*
X196513993Y-94779794D01*
X196564790Y-94827766D01*
X196581587Y-94895587D01*
X196559052Y-94961722D01*
X196514005Y-95000760D01*
X196504946Y-95005376D01*
X196504940Y-95005380D01*
X196450782Y-95044727D01*
X196450782Y-95044728D01*
X197083091Y-95677037D01*
X197019507Y-95694075D01*
X196905493Y-95759901D01*
X196812401Y-95852993D01*
X196746575Y-95967007D01*
X196729537Y-96030591D01*
X196097228Y-95398282D01*
X196097227Y-95398282D01*
X196057880Y-95452439D01*
X195961404Y-95641782D01*
X195895742Y-95843869D01*
X195895742Y-95843872D01*
X195862500Y-96053753D01*
X195862500Y-96266246D01*
X195895742Y-96476127D01*
X195895742Y-96476130D01*
X195961404Y-96678217D01*
X196057875Y-96867550D01*
X196097228Y-96921716D01*
X196729536Y-96289407D01*
X196746575Y-96352993D01*
X196812401Y-96467007D01*
X196905493Y-96560099D01*
X197019507Y-96625925D01*
X197083090Y-96642962D01*
X196450782Y-97275269D01*
X196450782Y-97275270D01*
X196504949Y-97314624D01*
X196694282Y-97411095D01*
X196896370Y-97476757D01*
X197106254Y-97510000D01*
X197318746Y-97510000D01*
X197528627Y-97476757D01*
X197528630Y-97476757D01*
X197730717Y-97411095D01*
X197920054Y-97314622D01*
X197974216Y-97275270D01*
X197974217Y-97275270D01*
X197341908Y-96642962D01*
X197405493Y-96625925D01*
X197519507Y-96560099D01*
X197612599Y-96467007D01*
X197678425Y-96352993D01*
X197695462Y-96289408D01*
X198327770Y-96921717D01*
X198327770Y-96921716D01*
X198367122Y-96867554D01*
X198372014Y-96857954D01*
X198419988Y-96807157D01*
X198487808Y-96790361D01*
X198553944Y-96812897D01*
X198592986Y-96857954D01*
X198597875Y-96867550D01*
X198637228Y-96921716D01*
X199269536Y-96289407D01*
X199286575Y-96352993D01*
X199352401Y-96467007D01*
X199445493Y-96560099D01*
X199559507Y-96625925D01*
X199623090Y-96642962D01*
X198990782Y-97275269D01*
X198990782Y-97275270D01*
X199044949Y-97314624D01*
X199234282Y-97411095D01*
X199436370Y-97476757D01*
X199646254Y-97510000D01*
X199858746Y-97510000D01*
X200068627Y-97476757D01*
X200068630Y-97476757D01*
X200270717Y-97411095D01*
X200460054Y-97314622D01*
X200514216Y-97275270D01*
X200514217Y-97275270D01*
X199881908Y-96642962D01*
X199945493Y-96625925D01*
X200059507Y-96560099D01*
X200152599Y-96467007D01*
X200218425Y-96352993D01*
X200235462Y-96289409D01*
X200867770Y-96921717D01*
X200867770Y-96921716D01*
X200907122Y-96867554D01*
X201003595Y-96678217D01*
X201069257Y-96476130D01*
X201069257Y-96476127D01*
X201102500Y-96266246D01*
X201102500Y-96053753D01*
X201069257Y-95843872D01*
X201069257Y-95843869D01*
X201042922Y-95762818D01*
X201040927Y-95692977D01*
X201077007Y-95633144D01*
X201139708Y-95602316D01*
X201160853Y-95600500D01*
X204699903Y-95600500D01*
X204766942Y-95620185D01*
X204787584Y-95636819D01*
X206515139Y-97364374D01*
X206515149Y-97364385D01*
X206519479Y-97368715D01*
X206519480Y-97368716D01*
X206631284Y-97480520D01*
X206718095Y-97530639D01*
X206718097Y-97530641D01*
X206756151Y-97552611D01*
X206768215Y-97559577D01*
X206920943Y-97600500D01*
X207079057Y-97600500D01*
X208133557Y-97600500D01*
X208200596Y-97620185D01*
X208221238Y-97636819D01*
X208538793Y-97954374D01*
X208538803Y-97954385D01*
X208543133Y-97958715D01*
X208543134Y-97958716D01*
X208654938Y-98070520D01*
X208706449Y-98100259D01*
X208741749Y-98120639D01*
X208741751Y-98120641D01*
X208779805Y-98142611D01*
X208791869Y-98149577D01*
X208944597Y-98190501D01*
X208944600Y-98190501D01*
X209012693Y-98190501D01*
X209079732Y-98210186D01*
X209100374Y-98226820D01*
X209370591Y-98497037D01*
X209307007Y-98514075D01*
X209192993Y-98579901D01*
X209099901Y-98672993D01*
X209034075Y-98787007D01*
X209017037Y-98850591D01*
X208384728Y-98218282D01*
X208384727Y-98218282D01*
X208345380Y-98272439D01*
X208248904Y-98461782D01*
X208183242Y-98663869D01*
X208183242Y-98663872D01*
X208150000Y-98873753D01*
X208150000Y-99086246D01*
X208183242Y-99296127D01*
X208183242Y-99296130D01*
X208248904Y-99498217D01*
X208345375Y-99687550D01*
X208384728Y-99741716D01*
X209017036Y-99109407D01*
X209034075Y-99172993D01*
X209099901Y-99287007D01*
X209192993Y-99380099D01*
X209307007Y-99445925D01*
X209370590Y-99462962D01*
X208738282Y-100095269D01*
X208738282Y-100095270D01*
X208792452Y-100134626D01*
X208792451Y-100134626D01*
X208801495Y-100139234D01*
X208852292Y-100187208D01*
X208869087Y-100255029D01*
X208846550Y-100321164D01*
X208801499Y-100360202D01*
X208792182Y-100364949D01*
X208620213Y-100489890D01*
X208469890Y-100640213D01*
X208344951Y-100812179D01*
X208248444Y-101001585D01*
X208182753Y-101203760D01*
X208149500Y-101413713D01*
X208149500Y-101626286D01*
X208182753Y-101836239D01*
X208182753Y-101836241D01*
X208182754Y-101836243D01*
X208237431Y-102004522D01*
X208248444Y-102038414D01*
X208344951Y-102227820D01*
X208469890Y-102399786D01*
X208620213Y-102550109D01*
X208792179Y-102675048D01*
X208792181Y-102675049D01*
X208792184Y-102675051D01*
X208981588Y-102771557D01*
X209183757Y-102837246D01*
X209393713Y-102870500D01*
X209393714Y-102870500D01*
X209606286Y-102870500D01*
X209606287Y-102870500D01*
X209816243Y-102837246D01*
X209858523Y-102823507D01*
X209928362Y-102821511D01*
X209984522Y-102853757D01*
X210995139Y-103864374D01*
X210995149Y-103864385D01*
X210999479Y-103868715D01*
X210999480Y-103868716D01*
X211111284Y-103980520D01*
X211178767Y-104019481D01*
X211248215Y-104059577D01*
X211400943Y-104100501D01*
X211400946Y-104100501D01*
X211566653Y-104100501D01*
X211566669Y-104100500D01*
X213699903Y-104100500D01*
X213766942Y-104120185D01*
X213787583Y-104136818D01*
X214631284Y-104980520D01*
X214686567Y-105012437D01*
X214734783Y-105063004D01*
X214748007Y-105131611D01*
X214722039Y-105196476D01*
X214681574Y-105229945D01*
X214670804Y-105235520D01*
X214660100Y-105238630D01*
X214627125Y-105258131D01*
X214624014Y-105259742D01*
X214593006Y-105265772D01*
X214562403Y-105273536D01*
X214558690Y-105272445D01*
X214555429Y-105273080D01*
X214540235Y-105267027D01*
X214503889Y-105256355D01*
X214474699Y-105239093D01*
X214474694Y-105239091D01*
X214315783Y-105192922D01*
X214315777Y-105192921D01*
X214278657Y-105190000D01*
X214250000Y-105190000D01*
X214250000Y-105876000D01*
X214230315Y-105943039D01*
X214177511Y-105988794D01*
X214126000Y-106000000D01*
X214000000Y-106000000D01*
X214000000Y-106126000D01*
X213980315Y-106193039D01*
X213927511Y-106238794D01*
X213876000Y-106250000D01*
X213134770Y-106250000D01*
X213135421Y-106258281D01*
X213181590Y-106417194D01*
X213181592Y-106417197D01*
X213265833Y-106559642D01*
X213265839Y-106559650D01*
X213382849Y-106676660D01*
X213382857Y-106676666D01*
X213472988Y-106729969D01*
X213520671Y-106781038D01*
X213533175Y-106849779D01*
X213506530Y-106914369D01*
X213471867Y-106944088D01*
X213341287Y-107019477D01*
X213341282Y-107019481D01*
X210497584Y-109863181D01*
X210436261Y-109896666D01*
X210409903Y-109899500D01*
X199800097Y-109899500D01*
X199733058Y-109879815D01*
X199712416Y-109863181D01*
X195636819Y-105787584D01*
X195616297Y-105750000D01*
X213134770Y-105750000D01*
X213750000Y-105750000D01*
X213750000Y-105190000D01*
X213721342Y-105190000D01*
X213684222Y-105192921D01*
X213684216Y-105192922D01*
X213525305Y-105239091D01*
X213525302Y-105239092D01*
X213382857Y-105323333D01*
X213382849Y-105323339D01*
X213265839Y-105440349D01*
X213265833Y-105440357D01*
X213181592Y-105582802D01*
X213181590Y-105582805D01*
X213135421Y-105741718D01*
X213134770Y-105750000D01*
X195616297Y-105750000D01*
X195603334Y-105726261D01*
X195600500Y-105699903D01*
X195600500Y-94506250D01*
X195620185Y-94439211D01*
X195636815Y-94418573D01*
X195825421Y-94229966D01*
X195886742Y-94196483D01*
X195956433Y-94201467D01*
G37*
%TD.AperFunction*%
%TA.AperFunction,Conductor*%
G36*
X221247384Y-95372502D02*
G01*
X221292184Y-95405051D01*
X221481588Y-95501557D01*
X221683757Y-95567246D01*
X221893713Y-95600500D01*
X221893714Y-95600500D01*
X222106286Y-95600500D01*
X222106287Y-95600500D01*
X222316243Y-95567246D01*
X222358523Y-95553507D01*
X222428362Y-95551511D01*
X222484522Y-95583757D01*
X223363181Y-96462416D01*
X223396666Y-96523739D01*
X223399500Y-96550097D01*
X223399500Y-98006546D01*
X223379815Y-98073585D01*
X223327011Y-98119340D01*
X223257853Y-98129284D01*
X223194297Y-98100259D01*
X223165016Y-98062842D01*
X223154626Y-98042452D01*
X223115270Y-97988282D01*
X223115269Y-97988282D01*
X222482962Y-98620590D01*
X222465925Y-98557007D01*
X222400099Y-98442993D01*
X222307007Y-98349901D01*
X222192993Y-98284075D01*
X222129409Y-98267037D01*
X222761716Y-97634728D01*
X222707550Y-97595375D01*
X222518217Y-97498904D01*
X222316129Y-97433242D01*
X222106246Y-97400000D01*
X221893754Y-97400000D01*
X221683872Y-97433242D01*
X221683869Y-97433242D01*
X221481782Y-97498904D01*
X221292439Y-97595380D01*
X221238282Y-97634727D01*
X221238282Y-97634728D01*
X221870591Y-98267037D01*
X221807007Y-98284075D01*
X221692993Y-98349901D01*
X221599901Y-98442993D01*
X221534075Y-98557007D01*
X221517037Y-98620591D01*
X220884728Y-97988282D01*
X220884727Y-97988282D01*
X220845380Y-98042439D01*
X220748904Y-98231782D01*
X220683242Y-98433869D01*
X220683242Y-98433872D01*
X220650000Y-98643753D01*
X220650000Y-98856246D01*
X220683242Y-99066127D01*
X220683242Y-99066130D01*
X220748904Y-99268217D01*
X220845375Y-99457550D01*
X220884728Y-99511716D01*
X221517037Y-98879408D01*
X221534075Y-98942993D01*
X221599901Y-99057007D01*
X221692993Y-99150099D01*
X221807007Y-99215925D01*
X221870590Y-99232962D01*
X221238282Y-99865269D01*
X221238282Y-99865270D01*
X221292449Y-99904624D01*
X221481782Y-100001095D01*
X221683870Y-100066757D01*
X221893754Y-100100000D01*
X222106246Y-100100000D01*
X222316127Y-100066757D01*
X222316130Y-100066757D01*
X222518217Y-100001095D01*
X222707554Y-99904622D01*
X222761716Y-99865270D01*
X222761717Y-99865270D01*
X222129408Y-99232962D01*
X222192993Y-99215925D01*
X222307007Y-99150099D01*
X222400099Y-99057007D01*
X222465925Y-98942993D01*
X222482962Y-98879408D01*
X223115270Y-99511717D01*
X223115270Y-99511716D01*
X223154624Y-99457552D01*
X223165015Y-99437159D01*
X223212989Y-99386362D01*
X223280810Y-99369567D01*
X223346945Y-99392104D01*
X223390397Y-99446819D01*
X223399500Y-99493453D01*
X223399500Y-103255444D01*
X223379815Y-103322483D01*
X223327011Y-103368238D01*
X223257853Y-103378182D01*
X223194297Y-103349157D01*
X223165016Y-103311740D01*
X223155050Y-103292182D01*
X223030109Y-103120213D01*
X222879786Y-102969890D01*
X222707820Y-102844951D01*
X222518414Y-102748444D01*
X222518413Y-102748443D01*
X222518412Y-102748443D01*
X222316243Y-102682754D01*
X222316241Y-102682753D01*
X222316240Y-102682753D01*
X222154957Y-102657208D01*
X222106287Y-102649500D01*
X221893713Y-102649500D01*
X221845042Y-102657208D01*
X221683760Y-102682753D01*
X221481585Y-102748444D01*
X221292179Y-102844951D01*
X221120213Y-102969890D01*
X220969890Y-103120213D01*
X220844951Y-103292179D01*
X220748444Y-103481585D01*
X220682753Y-103683759D01*
X220665151Y-103794898D01*
X220635222Y-103858033D01*
X220575910Y-103894964D01*
X220542678Y-103899500D01*
X218742450Y-103899500D01*
X218675411Y-103879815D01*
X218654769Y-103863181D01*
X218607834Y-103816246D01*
X218607829Y-103816242D01*
X218470570Y-103733267D01*
X218470566Y-103733265D01*
X218317433Y-103685548D01*
X218317435Y-103685548D01*
X218290812Y-103683128D01*
X218250881Y-103679500D01*
X218250878Y-103679500D01*
X217749111Y-103679500D01*
X217682573Y-103685546D01*
X217682566Y-103685548D01*
X217529433Y-103733265D01*
X217529429Y-103733267D01*
X217466649Y-103771219D01*
X217399094Y-103789055D01*
X217338351Y-103771219D01*
X217275570Y-103733267D01*
X217275566Y-103733265D01*
X217122433Y-103685548D01*
X217122435Y-103685548D01*
X217095812Y-103683128D01*
X217055881Y-103679500D01*
X217055878Y-103679500D01*
X216554111Y-103679500D01*
X216487573Y-103685546D01*
X216487566Y-103685548D01*
X216334433Y-103733265D01*
X216334429Y-103733267D01*
X216197170Y-103816242D01*
X216197165Y-103816246D01*
X216150231Y-103863181D01*
X216088908Y-103896666D01*
X216062550Y-103899500D01*
X215300098Y-103899500D01*
X215233059Y-103879815D01*
X215212417Y-103863181D01*
X214487590Y-103138355D01*
X214487588Y-103138352D01*
X214368717Y-103019481D01*
X214368716Y-103019480D01*
X214281904Y-102969360D01*
X214281904Y-102969359D01*
X214281900Y-102969358D01*
X214231785Y-102940423D01*
X214079057Y-102899499D01*
X213920943Y-102899499D01*
X213913347Y-102899499D01*
X213913331Y-102899500D01*
X211780097Y-102899500D01*
X211713058Y-102879815D01*
X211692416Y-102863181D01*
X210833757Y-102004522D01*
X210800272Y-101943199D01*
X210803507Y-101878523D01*
X210817246Y-101836243D01*
X210850500Y-101626287D01*
X210850500Y-101413713D01*
X210817246Y-101203757D01*
X210803506Y-101161473D01*
X210801512Y-101091635D01*
X210833755Y-101035478D01*
X212319234Y-99550000D01*
X212937270Y-99550000D01*
X212937921Y-99558281D01*
X212984090Y-99717194D01*
X212984092Y-99717197D01*
X213068333Y-99859642D01*
X213068339Y-99859650D01*
X213185349Y-99976660D01*
X213185357Y-99976666D01*
X213327802Y-100060907D01*
X213327805Y-100060908D01*
X213486716Y-100107077D01*
X213486722Y-100107078D01*
X213523842Y-100109999D01*
X213523858Y-100110000D01*
X213552500Y-100110000D01*
X213552500Y-99550000D01*
X212937270Y-99550000D01*
X212319234Y-99550000D01*
X212618506Y-99250728D01*
X212618511Y-99250724D01*
X212628714Y-99240520D01*
X212628716Y-99240520D01*
X212740520Y-99128716D01*
X212740520Y-99128714D01*
X212750722Y-99118513D01*
X212750726Y-99118507D01*
X212789378Y-99079855D01*
X212850696Y-99046372D01*
X212901427Y-99050000D01*
X213678500Y-99050000D01*
X213745539Y-99069685D01*
X213791294Y-99122489D01*
X213802500Y-99174000D01*
X213802500Y-99300000D01*
X213928500Y-99300000D01*
X213995539Y-99319685D01*
X214041294Y-99372489D01*
X214052500Y-99424000D01*
X214052500Y-100110000D01*
X214081142Y-100110000D01*
X214081157Y-100109999D01*
X214118277Y-100107078D01*
X214118283Y-100107077D01*
X214277194Y-100060908D01*
X214277202Y-100060905D01*
X214306386Y-100043646D01*
X214374109Y-100026462D01*
X214432628Y-100043644D01*
X214462600Y-100061370D01*
X214491403Y-100069738D01*
X214621637Y-100107575D01*
X214621640Y-100107575D01*
X214621642Y-100107576D01*
X214658797Y-100110500D01*
X215216202Y-100110499D01*
X215253358Y-100107576D01*
X215412400Y-100061370D01*
X215497459Y-100011065D01*
X215565182Y-99993882D01*
X215615066Y-100007366D01*
X215615192Y-100007063D01*
X215617534Y-100008033D01*
X215619032Y-100008438D01*
X215620815Y-100009390D01*
X215620821Y-100009394D01*
X215624858Y-100011066D01*
X215759308Y-100066757D01*
X215766503Y-100069737D01*
X215918644Y-100100000D01*
X215921153Y-100100499D01*
X215921156Y-100100500D01*
X215921158Y-100100500D01*
X216078844Y-100100500D01*
X216078845Y-100100499D01*
X216233497Y-100069737D01*
X216346166Y-100023067D01*
X216379172Y-100009397D01*
X216379172Y-100009396D01*
X216379179Y-100009394D01*
X216438045Y-99970061D01*
X216510875Y-99921398D01*
X216528921Y-99915747D01*
X216544831Y-99905523D01*
X216575792Y-99901071D01*
X216577553Y-99900520D01*
X216579766Y-99900500D01*
X216660831Y-99900500D01*
X216660847Y-99900501D01*
X216668443Y-99900501D01*
X216826554Y-99900501D01*
X216826557Y-99900501D01*
X216979285Y-99859577D01*
X217029404Y-99830639D01*
X217116216Y-99780520D01*
X217228020Y-99668716D01*
X217228021Y-99668713D01*
X218089916Y-98806818D01*
X218151239Y-98773333D01*
X218177597Y-98770499D01*
X218348388Y-98770499D01*
X218414926Y-98764453D01*
X218414927Y-98764452D01*
X218414933Y-98764452D01*
X218568069Y-98716733D01*
X218688793Y-98643753D01*
X218705329Y-98633757D01*
X218705330Y-98633755D01*
X218705335Y-98633753D01*
X218818753Y-98520335D01*
X218822538Y-98514075D01*
X218865508Y-98442993D01*
X218901733Y-98383069D01*
X218949452Y-98229933D01*
X218955500Y-98163381D01*
X218955499Y-97992596D01*
X218975183Y-97925557D01*
X218991813Y-97904920D01*
X220808506Y-96088228D01*
X220808511Y-96088224D01*
X220818714Y-96078020D01*
X220818716Y-96078020D01*
X220930520Y-95966216D01*
X221009577Y-95829284D01*
X221050500Y-95676557D01*
X221050500Y-95472821D01*
X221070185Y-95405782D01*
X221122989Y-95360027D01*
X221192147Y-95350083D01*
X221247384Y-95372502D01*
G37*
%TD.AperFunction*%
%TA.AperFunction,Conductor*%
G36*
X211420943Y-97600501D02*
G01*
X211535501Y-97600501D01*
X211602540Y-97620186D01*
X211648295Y-97672990D01*
X211648296Y-97673003D01*
X211659500Y-97724501D01*
X211659500Y-98459902D01*
X211639815Y-98526941D01*
X211623181Y-98547583D01*
X211061681Y-99109083D01*
X211000358Y-99142568D01*
X210930666Y-99137584D01*
X210874733Y-99095712D01*
X210850316Y-99030248D01*
X210850000Y-99021402D01*
X210850000Y-98873753D01*
X210816757Y-98663872D01*
X210816757Y-98663869D01*
X210751095Y-98461782D01*
X210654624Y-98272449D01*
X210615270Y-98218282D01*
X210615269Y-98218282D01*
X209982962Y-98850590D01*
X209965925Y-98787007D01*
X209900099Y-98672993D01*
X209807007Y-98579901D01*
X209692993Y-98514075D01*
X209629408Y-98497037D01*
X209899626Y-98226820D01*
X209960949Y-98193335D01*
X209987307Y-98190501D01*
X210055400Y-98190501D01*
X210055403Y-98190501D01*
X210208131Y-98149577D01*
X210258250Y-98120639D01*
X210345062Y-98070520D01*
X210456866Y-97958716D01*
X210456867Y-97958713D01*
X210778763Y-97636816D01*
X210840085Y-97603334D01*
X210866443Y-97600500D01*
X211413332Y-97600500D01*
X211420939Y-97600500D01*
X211420943Y-97600501D01*
G37*
%TD.AperFunction*%
%TA.AperFunction,Conductor*%
G36*
X216422176Y-82929572D02*
G01*
X216478109Y-82971444D01*
X216501315Y-83026356D01*
X216536934Y-83251247D01*
X216609897Y-83475802D01*
X216717087Y-83686174D01*
X216777338Y-83769104D01*
X216777340Y-83769105D01*
X217517037Y-83029408D01*
X217534075Y-83092993D01*
X217599901Y-83207007D01*
X217692993Y-83300099D01*
X217807007Y-83365925D01*
X217870590Y-83382962D01*
X217124280Y-84129271D01*
X217115105Y-84172947D01*
X217078739Y-84214615D01*
X217022490Y-84255482D01*
X216855485Y-84422487D01*
X216855485Y-84422488D01*
X216855483Y-84422490D01*
X216837083Y-84447816D01*
X216716657Y-84613566D01*
X216609433Y-84824003D01*
X216536446Y-85048631D01*
X216499500Y-85281902D01*
X216499500Y-85518097D01*
X216536446Y-85751368D01*
X216609433Y-85975996D01*
X216676481Y-86107583D01*
X216716657Y-86186433D01*
X216855483Y-86377510D01*
X217022490Y-86544517D01*
X217213567Y-86683343D01*
X217305649Y-86730261D01*
X217424003Y-86790566D01*
X217424005Y-86790566D01*
X217424008Y-86790568D01*
X217512476Y-86819313D01*
X217648631Y-86863553D01*
X217881903Y-86900500D01*
X217881908Y-86900500D01*
X218118097Y-86900500D01*
X218224126Y-86883705D01*
X218351368Y-86863553D01*
X218477566Y-86822547D01*
X218547404Y-86820553D01*
X218603563Y-86852798D01*
X219363181Y-87612416D01*
X219396666Y-87673739D01*
X219399500Y-87700097D01*
X219399500Y-93699902D01*
X219379815Y-93766941D01*
X219363181Y-93787583D01*
X218507582Y-94643181D01*
X218446259Y-94676666D01*
X218419901Y-94679500D01*
X217944111Y-94679500D01*
X217877573Y-94685546D01*
X217877566Y-94685548D01*
X217724433Y-94733265D01*
X217724429Y-94733267D01*
X217661649Y-94771219D01*
X217594094Y-94789055D01*
X217533351Y-94771219D01*
X217470570Y-94733267D01*
X217470566Y-94733265D01*
X217317433Y-94685548D01*
X217317435Y-94685548D01*
X217290812Y-94683128D01*
X217250881Y-94679500D01*
X217250878Y-94679500D01*
X216749111Y-94679500D01*
X216682573Y-94685546D01*
X216682566Y-94685548D01*
X216529433Y-94733265D01*
X216529429Y-94733267D01*
X216392170Y-94816242D01*
X216392165Y-94816246D01*
X216345231Y-94863181D01*
X216283908Y-94896666D01*
X216257550Y-94899500D01*
X213572411Y-94899500D01*
X213531490Y-94910464D01*
X213531490Y-94910465D01*
X213475588Y-94925444D01*
X213419686Y-94940423D01*
X213286499Y-95017318D01*
X213218599Y-95033790D01*
X213152572Y-95010937D01*
X213109382Y-94956015D01*
X213100500Y-94909930D01*
X213100500Y-94566215D01*
X213120185Y-94499176D01*
X213172989Y-94453421D01*
X213242147Y-94443477D01*
X213287621Y-94459483D01*
X213425302Y-94540907D01*
X213425305Y-94540908D01*
X213584216Y-94587077D01*
X213584222Y-94587078D01*
X213621342Y-94589999D01*
X213621358Y-94590000D01*
X213650000Y-94590000D01*
X213650000Y-92970000D01*
X213621342Y-92970000D01*
X213584222Y-92972921D01*
X213584216Y-92972922D01*
X213425305Y-93019091D01*
X213425302Y-93019092D01*
X213287621Y-93100516D01*
X213281096Y-93102171D01*
X213276011Y-93106578D01*
X213247664Y-93110653D01*
X213219897Y-93117699D01*
X213213513Y-93115564D01*
X213206853Y-93116522D01*
X213180799Y-93104623D01*
X213153634Y-93095539D01*
X213149418Y-93090292D01*
X213143297Y-93087497D01*
X213127812Y-93063402D01*
X213109871Y-93041073D01*
X213108269Y-93032993D01*
X213105523Y-93028719D01*
X213100500Y-92993784D01*
X213100500Y-92800097D01*
X213120185Y-92733058D01*
X213136819Y-92712416D01*
X214212416Y-91636819D01*
X214273739Y-91603334D01*
X214300097Y-91600500D01*
X215199903Y-91600500D01*
X215266942Y-91620185D01*
X215287584Y-91636819D01*
X215786970Y-92136205D01*
X215820455Y-92197528D01*
X215815471Y-92267220D01*
X215773599Y-92323153D01*
X215746742Y-92338447D01*
X215620824Y-92390604D01*
X215620814Y-92390609D01*
X215489711Y-92478210D01*
X215489707Y-92478213D01*
X215378213Y-92589707D01*
X215378210Y-92589711D01*
X215290609Y-92720814D01*
X215290602Y-92720827D01*
X215230264Y-92866498D01*
X215230260Y-92866512D01*
X215229627Y-92869696D01*
X215228835Y-92871208D01*
X215228494Y-92872335D01*
X215228280Y-92872270D01*
X215197240Y-92931606D01*
X215136523Y-92966178D01*
X215108011Y-92969500D01*
X214756309Y-92969500D01*
X214756284Y-92969501D01*
X214719141Y-92972424D01*
X214560104Y-93018628D01*
X214560096Y-93018631D01*
X214530127Y-93036355D01*
X214462403Y-93053536D01*
X214403889Y-93036355D01*
X214374699Y-93019093D01*
X214374694Y-93019091D01*
X214215783Y-92972922D01*
X214215777Y-92972921D01*
X214178657Y-92970000D01*
X214150000Y-92970000D01*
X214150000Y-94590000D01*
X214178642Y-94590000D01*
X214178657Y-94589999D01*
X214215777Y-94587078D01*
X214215783Y-94587077D01*
X214374694Y-94540908D01*
X214374702Y-94540905D01*
X214403886Y-94523646D01*
X214471609Y-94506462D01*
X214530128Y-94523644D01*
X214560100Y-94541370D01*
X214602041Y-94553555D01*
X214719137Y-94587575D01*
X214719140Y-94587575D01*
X214719142Y-94587576D01*
X214756297Y-94590500D01*
X215313702Y-94590499D01*
X215350858Y-94587576D01*
X215509900Y-94541370D01*
X215652454Y-94457063D01*
X215769563Y-94339954D01*
X215853870Y-94197400D01*
X215886771Y-94084152D01*
X215894429Y-94071202D01*
X215897014Y-94059323D01*
X215918165Y-94031069D01*
X215948033Y-94001201D01*
X216014662Y-93934572D01*
X216075984Y-93901088D01*
X216078151Y-93900637D01*
X216078840Y-93900500D01*
X216078842Y-93900500D01*
X216233497Y-93869737D01*
X216379179Y-93809394D01*
X216480942Y-93741397D01*
X216547619Y-93720520D01*
X216549833Y-93720500D01*
X217305803Y-93720500D01*
X217305819Y-93720501D01*
X217313415Y-93720501D01*
X217471527Y-93720501D01*
X217471529Y-93720501D01*
X217522289Y-93706899D01*
X217530406Y-93704725D01*
X217562499Y-93700500D01*
X217910831Y-93700500D01*
X217910847Y-93700501D01*
X217918443Y-93700501D01*
X218076554Y-93700501D01*
X218076557Y-93700501D01*
X218229285Y-93659577D01*
X218279404Y-93630639D01*
X218366216Y-93580520D01*
X218478020Y-93468716D01*
X218478020Y-93468714D01*
X218488228Y-93458507D01*
X218488230Y-93458504D01*
X218563713Y-93383021D01*
X218563716Y-93383020D01*
X218675520Y-93271216D01*
X218675525Y-93271207D01*
X218676307Y-93270189D01*
X218678594Y-93268141D01*
X218681269Y-93265467D01*
X218681417Y-93265615D01*
X218710543Y-93239543D01*
X218802835Y-93183753D01*
X218916253Y-93070335D01*
X218926409Y-93053536D01*
X218956524Y-93003717D01*
X218999233Y-92933069D01*
X218999332Y-92932753D01*
X219014710Y-92883402D01*
X219046952Y-92779933D01*
X219053000Y-92713381D01*
X219052999Y-92286620D01*
X219052999Y-92286611D01*
X219046953Y-92220073D01*
X219046952Y-92220070D01*
X219046952Y-92220067D01*
X218999233Y-92066931D01*
X218983319Y-92040606D01*
X218916257Y-91929670D01*
X218916253Y-91929665D01*
X218802833Y-91816245D01*
X218660350Y-91730112D01*
X218613163Y-91678584D01*
X218600500Y-91623995D01*
X218600500Y-89589059D01*
X218600501Y-89589046D01*
X218600501Y-89420945D01*
X218600501Y-89420943D01*
X218559577Y-89268215D01*
X218507365Y-89177782D01*
X218480520Y-89131284D01*
X218368716Y-89019480D01*
X218368713Y-89019478D01*
X216136819Y-86787584D01*
X216103334Y-86726261D01*
X216100500Y-86699903D01*
X216100500Y-83200096D01*
X216120185Y-83133057D01*
X216136814Y-83112420D01*
X216291162Y-82958071D01*
X216352484Y-82924588D01*
X216422176Y-82929572D01*
G37*
%TD.AperFunction*%
%TA.AperFunction,Conductor*%
G36*
X199286575Y-76032993D02*
G01*
X199352401Y-76147007D01*
X199445493Y-76240099D01*
X199559507Y-76305925D01*
X199623090Y-76322962D01*
X198990782Y-76955269D01*
X198990782Y-76955270D01*
X199044952Y-76994626D01*
X199044951Y-76994626D01*
X199053995Y-76999234D01*
X199104792Y-77047208D01*
X199121587Y-77115029D01*
X199099050Y-77181164D01*
X199053999Y-77220202D01*
X199044682Y-77224949D01*
X198872713Y-77349890D01*
X198722390Y-77500213D01*
X198597449Y-77672182D01*
X198592984Y-77680946D01*
X198545009Y-77731742D01*
X198477188Y-77748536D01*
X198411053Y-77725998D01*
X198372016Y-77680946D01*
X198367550Y-77672182D01*
X198242609Y-77500213D01*
X198092286Y-77349890D01*
X197920320Y-77224951D01*
X197919615Y-77224591D01*
X197911554Y-77220485D01*
X197860759Y-77172512D01*
X197843963Y-77104692D01*
X197866499Y-77038556D01*
X197911554Y-76999515D01*
X197920316Y-76995051D01*
X197975072Y-76955269D01*
X198092286Y-76870109D01*
X198092288Y-76870106D01*
X198092292Y-76870104D01*
X198242604Y-76719792D01*
X198242606Y-76719788D01*
X198242609Y-76719786D01*
X198328390Y-76601717D01*
X198367551Y-76547816D01*
X198372293Y-76538508D01*
X198420263Y-76487711D01*
X198488083Y-76470911D01*
X198554219Y-76493445D01*
X198593263Y-76538500D01*
X198597873Y-76547547D01*
X198637228Y-76601716D01*
X199269537Y-75969408D01*
X199286575Y-76032993D01*
G37*
%TD.AperFunction*%
%TA.AperFunction,Conductor*%
G36*
X208034185Y-71003050D02*
G01*
X208043147Y-71001762D01*
X208067187Y-71012740D01*
X208092539Y-71020185D01*
X208098466Y-71027025D01*
X208106703Y-71030787D01*
X208120992Y-71053021D01*
X208138294Y-71072989D01*
X208140581Y-71083503D01*
X208144477Y-71089565D01*
X208149500Y-71124500D01*
X208149500Y-71146287D01*
X208156819Y-71192498D01*
X208182753Y-71356239D01*
X208182753Y-71356241D01*
X208182754Y-71356243D01*
X208237431Y-71524522D01*
X208248444Y-71558414D01*
X208344951Y-71747820D01*
X208469890Y-71919786D01*
X208620213Y-72070109D01*
X208792182Y-72195050D01*
X208800946Y-72199516D01*
X208851742Y-72247491D01*
X208868536Y-72315312D01*
X208845998Y-72381447D01*
X208800946Y-72420484D01*
X208792182Y-72424949D01*
X208620213Y-72549890D01*
X208469890Y-72700213D01*
X208344948Y-72872184D01*
X208344947Y-72872185D01*
X208324765Y-72911795D01*
X208276791Y-72962591D01*
X208214281Y-72979500D01*
X205499057Y-72979500D01*
X205340943Y-72979500D01*
X205188215Y-73020423D01*
X205188214Y-73020423D01*
X205188212Y-73020424D01*
X205188209Y-73020425D01*
X205138096Y-73049359D01*
X205138095Y-73049360D01*
X205094689Y-73074420D01*
X205051285Y-73099479D01*
X205051282Y-73099481D01*
X200804261Y-77346503D01*
X200742938Y-77379988D01*
X200673246Y-77375004D01*
X200637087Y-77351765D01*
X200635988Y-77353053D01*
X200632286Y-77349890D01*
X200460317Y-77224949D01*
X200451004Y-77220204D01*
X200400207Y-77172230D01*
X200383412Y-77104409D01*
X200405949Y-77038274D01*
X200451007Y-76999232D01*
X200460055Y-76994622D01*
X200514216Y-76955270D01*
X200514217Y-76955270D01*
X199881908Y-76322962D01*
X199945493Y-76305925D01*
X200059507Y-76240099D01*
X200152599Y-76147007D01*
X200218425Y-76032993D01*
X200235462Y-75969408D01*
X200867770Y-76601717D01*
X200867770Y-76601716D01*
X200907122Y-76547554D01*
X201003595Y-76358217D01*
X201069257Y-76156130D01*
X201069257Y-76156127D01*
X201102500Y-75946246D01*
X201102500Y-75733753D01*
X201069257Y-75523872D01*
X201069257Y-75523869D01*
X201003595Y-75321782D01*
X200907124Y-75132449D01*
X200867770Y-75078282D01*
X200867769Y-75078282D01*
X200235462Y-75710590D01*
X200218425Y-75647007D01*
X200152599Y-75532993D01*
X200059507Y-75439901D01*
X199945493Y-75374075D01*
X199881909Y-75357037D01*
X200518201Y-74720743D01*
X200529437Y-74667254D01*
X200578488Y-74617496D01*
X200599688Y-74608194D01*
X200671619Y-74584358D01*
X200671624Y-74584356D01*
X200820845Y-74492315D01*
X200944815Y-74368345D01*
X201036856Y-74219124D01*
X201036858Y-74219119D01*
X201092005Y-74052697D01*
X201092006Y-74052690D01*
X201102499Y-73949986D01*
X201102500Y-73949973D01*
X201102500Y-73550000D01*
X200185512Y-73550000D01*
X200218425Y-73492993D01*
X200252500Y-73365826D01*
X200252500Y-73234174D01*
X200218425Y-73107007D01*
X200185512Y-73050000D01*
X201102499Y-73050000D01*
X201102499Y-72650028D01*
X201102498Y-72650013D01*
X201092005Y-72547302D01*
X201036858Y-72380880D01*
X201036856Y-72380875D01*
X200944815Y-72231654D01*
X200820845Y-72107684D01*
X200671624Y-72015643D01*
X200671619Y-72015641D01*
X200505197Y-71960494D01*
X200505190Y-71960493D01*
X200402486Y-71950000D01*
X200002500Y-71950000D01*
X200002500Y-72866988D01*
X199945493Y-72834075D01*
X199818326Y-72800000D01*
X199686674Y-72800000D01*
X199559507Y-72834075D01*
X199502500Y-72866988D01*
X199502500Y-71950000D01*
X199102528Y-71950000D01*
X199102512Y-71950001D01*
X198999802Y-71960494D01*
X198833380Y-72015641D01*
X198833375Y-72015643D01*
X198684154Y-72107684D01*
X198560184Y-72231654D01*
X198468143Y-72380875D01*
X198468141Y-72380881D01*
X198464546Y-72391729D01*
X198424770Y-72449171D01*
X198360253Y-72475991D01*
X198291477Y-72463672D01*
X198246520Y-72425598D01*
X198242605Y-72420209D01*
X198092286Y-72269890D01*
X197920320Y-72144951D01*
X197730916Y-72048444D01*
X197598717Y-72005490D01*
X197541042Y-71966052D01*
X197513844Y-71901693D01*
X197525759Y-71832847D01*
X197549352Y-71799882D01*
X198312416Y-71036819D01*
X198373739Y-71003334D01*
X198400097Y-71000500D01*
X208025500Y-71000500D01*
X208034185Y-71003050D01*
G37*
%TD.AperFunction*%
%TA.AperFunction,Conductor*%
G36*
X198433253Y-74158348D02*
G01*
X198464546Y-74208272D01*
X198468139Y-74219114D01*
X198468143Y-74219124D01*
X198560184Y-74368345D01*
X198684154Y-74492315D01*
X198833375Y-74584356D01*
X198833382Y-74584359D01*
X198905309Y-74608193D01*
X198962754Y-74647965D01*
X198989578Y-74712481D01*
X198989745Y-74723691D01*
X199623091Y-75357037D01*
X199559507Y-75374075D01*
X199445493Y-75439901D01*
X199352401Y-75532993D01*
X199286575Y-75647007D01*
X199269537Y-75710591D01*
X198637228Y-75078282D01*
X198637227Y-75078282D01*
X198597880Y-75132440D01*
X198597876Y-75132446D01*
X198593260Y-75141505D01*
X198545281Y-75192297D01*
X198477459Y-75209087D01*
X198411326Y-75186543D01*
X198372294Y-75141493D01*
X198367551Y-75132184D01*
X198367549Y-75132181D01*
X198367548Y-75132179D01*
X198242609Y-74960213D01*
X198092286Y-74809890D01*
X197920320Y-74684951D01*
X197919615Y-74684591D01*
X197911554Y-74680485D01*
X197860759Y-74632512D01*
X197843963Y-74564692D01*
X197866499Y-74498556D01*
X197911554Y-74459515D01*
X197920316Y-74455051D01*
X197942289Y-74439086D01*
X198092286Y-74330109D01*
X198092288Y-74330106D01*
X198092292Y-74330104D01*
X198242604Y-74179792D01*
X198246518Y-74174404D01*
X198301842Y-74131734D01*
X198371455Y-74125748D01*
X198433253Y-74158348D01*
G37*
%TD.AperFunction*%
%TA.AperFunction,Conductor*%
G36*
X236004418Y-54000816D02*
G01*
X236204561Y-54015130D01*
X236222063Y-54017647D01*
X236413795Y-54059355D01*
X236430760Y-54064336D01*
X236614611Y-54132909D01*
X236630694Y-54140253D01*
X236747495Y-54204032D01*
X236802908Y-54234290D01*
X236817791Y-54243855D01*
X236974864Y-54361438D01*
X236988235Y-54373024D01*
X237126975Y-54511764D01*
X237138561Y-54525135D01*
X237256144Y-54682208D01*
X237265709Y-54697091D01*
X237359743Y-54869300D01*
X237367093Y-54885394D01*
X237435661Y-55069234D01*
X237440645Y-55086209D01*
X237482351Y-55277931D01*
X237484869Y-55295442D01*
X237499184Y-55495580D01*
X237499500Y-55504427D01*
X237499500Y-113995572D01*
X237499184Y-114004419D01*
X237484869Y-114204557D01*
X237482351Y-114222068D01*
X237440645Y-114413790D01*
X237435661Y-114430765D01*
X237367093Y-114614605D01*
X237359743Y-114630699D01*
X237265709Y-114802908D01*
X237256144Y-114817791D01*
X237138561Y-114974864D01*
X237126975Y-114988235D01*
X236988235Y-115126975D01*
X236974864Y-115138561D01*
X236817791Y-115256144D01*
X236802908Y-115265709D01*
X236630699Y-115359743D01*
X236614605Y-115367093D01*
X236430765Y-115435661D01*
X236413790Y-115440645D01*
X236222068Y-115482351D01*
X236204557Y-115484869D01*
X236023779Y-115497799D01*
X236004417Y-115499184D01*
X235995572Y-115499500D01*
X188004428Y-115499500D01*
X187995582Y-115499184D01*
X187973622Y-115497613D01*
X187795442Y-115484869D01*
X187777931Y-115482351D01*
X187586209Y-115440645D01*
X187569234Y-115435661D01*
X187385394Y-115367093D01*
X187369300Y-115359743D01*
X187197091Y-115265709D01*
X187182208Y-115256144D01*
X187025135Y-115138561D01*
X187011764Y-115126975D01*
X186873024Y-114988235D01*
X186861438Y-114974864D01*
X186743855Y-114817791D01*
X186734290Y-114802908D01*
X186640256Y-114630699D01*
X186632909Y-114614611D01*
X186564336Y-114430760D01*
X186559354Y-114413790D01*
X186517648Y-114222068D01*
X186515130Y-114204556D01*
X186500816Y-114004418D01*
X186500500Y-113995572D01*
X186500500Y-110840316D01*
X188249500Y-110840316D01*
X188249500Y-111159683D01*
X188280803Y-111477522D01*
X188343109Y-111790754D01*
X188435820Y-112096382D01*
X188558040Y-112391446D01*
X188558042Y-112391451D01*
X188708584Y-112673094D01*
X188708601Y-112673122D01*
X188886012Y-112938638D01*
X188886029Y-112938661D01*
X189088638Y-113185540D01*
X189314459Y-113411361D01*
X189314464Y-113411365D01*
X189314465Y-113411366D01*
X189561344Y-113613975D01*
X189561351Y-113613980D01*
X189561361Y-113613987D01*
X189826877Y-113791398D01*
X189826882Y-113791401D01*
X189826894Y-113791409D01*
X189826903Y-113791413D01*
X189826905Y-113791415D01*
X190108548Y-113941957D01*
X190108550Y-113941957D01*
X190108556Y-113941961D01*
X190403619Y-114064180D01*
X190709240Y-114156889D01*
X191022477Y-114219196D01*
X191340313Y-114250500D01*
X191340316Y-114250500D01*
X191659684Y-114250500D01*
X191659687Y-114250500D01*
X191977523Y-114219196D01*
X192290760Y-114156889D01*
X192596381Y-114064180D01*
X192891444Y-113941961D01*
X193173106Y-113791409D01*
X193438656Y-113613975D01*
X193685535Y-113411366D01*
X193911366Y-113185535D01*
X194113975Y-112938656D01*
X194291409Y-112673106D01*
X194441961Y-112391444D01*
X194564180Y-112096381D01*
X194656889Y-111790760D01*
X194719196Y-111477523D01*
X194750500Y-111159687D01*
X194750500Y-110840313D01*
X194719196Y-110522477D01*
X194656889Y-110209240D01*
X194564180Y-109903619D01*
X194441961Y-109608556D01*
X194438265Y-109601642D01*
X194291415Y-109326905D01*
X194291413Y-109326903D01*
X194291409Y-109326894D01*
X194284066Y-109315904D01*
X194113987Y-109061361D01*
X194113980Y-109061351D01*
X194113975Y-109061344D01*
X193911366Y-108814465D01*
X193911365Y-108814464D01*
X193911361Y-108814459D01*
X193685540Y-108588638D01*
X193438661Y-108386029D01*
X193438638Y-108386012D01*
X193173122Y-108208601D01*
X193173094Y-108208584D01*
X192891451Y-108058042D01*
X192891446Y-108058040D01*
X192891441Y-108058038D01*
X192769852Y-108007674D01*
X192596382Y-107935820D01*
X192290754Y-107843109D01*
X191977521Y-107780803D01*
X191977522Y-107780803D01*
X191738141Y-107757227D01*
X191659687Y-107749500D01*
X191340313Y-107749500D01*
X191267822Y-107756639D01*
X191022477Y-107780803D01*
X190709245Y-107843109D01*
X190403617Y-107935820D01*
X190108553Y-108058040D01*
X190108548Y-108058042D01*
X189826905Y-108208584D01*
X189826877Y-108208601D01*
X189561361Y-108386012D01*
X189561338Y-108386029D01*
X189314459Y-108588638D01*
X189088638Y-108814459D01*
X188886029Y-109061338D01*
X188886012Y-109061361D01*
X188708601Y-109326877D01*
X188708584Y-109326905D01*
X188558042Y-109608548D01*
X188558040Y-109608553D01*
X188435820Y-109903617D01*
X188343109Y-110209245D01*
X188280803Y-110522477D01*
X188249500Y-110840316D01*
X186500500Y-110840316D01*
X186500500Y-82921153D01*
X192199500Y-82921153D01*
X192199500Y-83078846D01*
X192230261Y-83233489D01*
X192230264Y-83233501D01*
X192290602Y-83379172D01*
X192290609Y-83379185D01*
X192378602Y-83510874D01*
X192399480Y-83577551D01*
X192399500Y-83579765D01*
X192399500Y-85867176D01*
X192399499Y-85867194D01*
X192399499Y-86032900D01*
X192399498Y-86032900D01*
X192440422Y-86185629D01*
X192467070Y-86231785D01*
X192519477Y-86322558D01*
X192519481Y-86322563D01*
X192638349Y-86441431D01*
X192638355Y-86441436D01*
X196202079Y-90005160D01*
X196235564Y-90066483D01*
X196230580Y-90136175D01*
X196202083Y-90180518D01*
X196182399Y-90200203D01*
X196182392Y-90200211D01*
X196057451Y-90372179D01*
X195960944Y-90561585D01*
X195895253Y-90763760D01*
X195862000Y-90973713D01*
X195862000Y-91186286D01*
X195895254Y-91396244D01*
X195895254Y-91396247D01*
X195908991Y-91438523D01*
X195910986Y-91508364D01*
X195878741Y-91564522D01*
X193631286Y-93811978D01*
X193519481Y-93923782D01*
X193519480Y-93923784D01*
X193474783Y-94001202D01*
X193440423Y-94060715D01*
X193399499Y-94213443D01*
X193399499Y-94213445D01*
X193399499Y-94381546D01*
X193399500Y-94381559D01*
X193399500Y-106913330D01*
X193399499Y-106913348D01*
X193399499Y-107079054D01*
X193399498Y-107079054D01*
X193440424Y-107231789D01*
X193440425Y-107231790D01*
X193461455Y-107268214D01*
X193461456Y-107268216D01*
X193519475Y-107368709D01*
X193519481Y-107368717D01*
X193638349Y-107487585D01*
X193638355Y-107487590D01*
X198515139Y-112364374D01*
X198515149Y-112364385D01*
X198519479Y-112368715D01*
X198519480Y-112368716D01*
X198631284Y-112480520D01*
X198631286Y-112480521D01*
X198631287Y-112480522D01*
X198699802Y-112520078D01*
X198699804Y-112520080D01*
X198699805Y-112520080D01*
X198768215Y-112559577D01*
X198920943Y-112600501D01*
X198920946Y-112600501D01*
X199086653Y-112600501D01*
X199086669Y-112600500D01*
X212710831Y-112600500D01*
X212710847Y-112600501D01*
X212718443Y-112600501D01*
X212876554Y-112600501D01*
X212876557Y-112600501D01*
X213029285Y-112559577D01*
X213097695Y-112520080D01*
X213166216Y-112480520D01*
X213278020Y-112368716D01*
X213278020Y-112368714D01*
X213288224Y-112358511D01*
X213288228Y-112358506D01*
X214806418Y-110840316D01*
X229749500Y-110840316D01*
X229749500Y-111159683D01*
X229780803Y-111477522D01*
X229843109Y-111790754D01*
X229935820Y-112096382D01*
X230058040Y-112391446D01*
X230058042Y-112391451D01*
X230208584Y-112673094D01*
X230208601Y-112673122D01*
X230386012Y-112938638D01*
X230386029Y-112938661D01*
X230588638Y-113185540D01*
X230814459Y-113411361D01*
X230814464Y-113411365D01*
X230814465Y-113411366D01*
X231061344Y-113613975D01*
X231061351Y-113613980D01*
X231061361Y-113613987D01*
X231326877Y-113791398D01*
X231326882Y-113791401D01*
X231326894Y-113791409D01*
X231326903Y-113791413D01*
X231326905Y-113791415D01*
X231608548Y-113941957D01*
X231608550Y-113941957D01*
X231608556Y-113941961D01*
X231903619Y-114064180D01*
X232209240Y-114156889D01*
X232522477Y-114219196D01*
X232840313Y-114250500D01*
X232840316Y-114250500D01*
X233159684Y-114250500D01*
X233159687Y-114250500D01*
X233477523Y-114219196D01*
X233790760Y-114156889D01*
X234096381Y-114064180D01*
X234391444Y-113941961D01*
X234673106Y-113791409D01*
X234938656Y-113613975D01*
X235185535Y-113411366D01*
X235411366Y-113185535D01*
X235613975Y-112938656D01*
X235791409Y-112673106D01*
X235941961Y-112391444D01*
X236064180Y-112096381D01*
X236156889Y-111790760D01*
X236219196Y-111477523D01*
X236250500Y-111159687D01*
X236250500Y-110840313D01*
X236219196Y-110522477D01*
X236156889Y-110209240D01*
X236064180Y-109903619D01*
X235941961Y-109608556D01*
X235938265Y-109601642D01*
X235791415Y-109326905D01*
X235791413Y-109326903D01*
X235791409Y-109326894D01*
X235784066Y-109315904D01*
X235613987Y-109061361D01*
X235613980Y-109061351D01*
X235613975Y-109061344D01*
X235411366Y-108814465D01*
X235411365Y-108814464D01*
X235411361Y-108814459D01*
X235185540Y-108588638D01*
X234938661Y-108386029D01*
X234938638Y-108386012D01*
X234673122Y-108208601D01*
X234673094Y-108208584D01*
X234391451Y-108058042D01*
X234391446Y-108058040D01*
X234391441Y-108058038D01*
X234269852Y-108007674D01*
X234096382Y-107935820D01*
X233790754Y-107843109D01*
X233477521Y-107780803D01*
X233477522Y-107780803D01*
X233238141Y-107757227D01*
X233159687Y-107749500D01*
X232840313Y-107749500D01*
X232767822Y-107756639D01*
X232522477Y-107780803D01*
X232209245Y-107843109D01*
X231903617Y-107935820D01*
X231608553Y-108058040D01*
X231608548Y-108058042D01*
X231326905Y-108208584D01*
X231326877Y-108208601D01*
X231061361Y-108386012D01*
X231061338Y-108386029D01*
X230814459Y-108588638D01*
X230588638Y-108814459D01*
X230386029Y-109061338D01*
X230386012Y-109061361D01*
X230208601Y-109326877D01*
X230208584Y-109326905D01*
X230058042Y-109608548D01*
X230058040Y-109608553D01*
X229935820Y-109903617D01*
X229843109Y-110209245D01*
X229780803Y-110522477D01*
X229749500Y-110840316D01*
X214806418Y-110840316D01*
X214939916Y-110706818D01*
X215001239Y-110673333D01*
X215027597Y-110670499D01*
X215216190Y-110670499D01*
X215216202Y-110670499D01*
X215253358Y-110667576D01*
X215412400Y-110621370D01*
X215554954Y-110537063D01*
X215595197Y-110496820D01*
X215656520Y-110463334D01*
X215682879Y-110460500D01*
X217150831Y-110460500D01*
X217150847Y-110460501D01*
X217158443Y-110460501D01*
X217316554Y-110460501D01*
X217316557Y-110460501D01*
X217469285Y-110419577D01*
X217519404Y-110390639D01*
X217606216Y-110340520D01*
X217718020Y-110228716D01*
X217718020Y-110228714D01*
X217728228Y-110218507D01*
X217728229Y-110218504D01*
X218089917Y-109856818D01*
X218151240Y-109823333D01*
X218177598Y-109820499D01*
X218348388Y-109820499D01*
X218414926Y-109814453D01*
X218414927Y-109814452D01*
X218414933Y-109814452D01*
X218568069Y-109766733D01*
X218638717Y-109724024D01*
X218705329Y-109683757D01*
X218705330Y-109683755D01*
X218705335Y-109683753D01*
X218818753Y-109570335D01*
X218901733Y-109433069D01*
X218949452Y-109279933D01*
X218955500Y-109213381D01*
X218955499Y-109042596D01*
X218975183Y-108975557D01*
X218991813Y-108954920D01*
X219552981Y-108393753D01*
X220650000Y-108393753D01*
X220650000Y-108606246D01*
X220683242Y-108816127D01*
X220683242Y-108816130D01*
X220748904Y-109018217D01*
X220845375Y-109207550D01*
X220884728Y-109261716D01*
X221517037Y-108629408D01*
X221534075Y-108692993D01*
X221599901Y-108807007D01*
X221692993Y-108900099D01*
X221807007Y-108965925D01*
X221870590Y-108982962D01*
X221238282Y-109615269D01*
X221238282Y-109615270D01*
X221292449Y-109654624D01*
X221481782Y-109751095D01*
X221683870Y-109816757D01*
X221893754Y-109850000D01*
X222106246Y-109850000D01*
X222316127Y-109816757D01*
X222316130Y-109816757D01*
X222518217Y-109751095D01*
X222707554Y-109654622D01*
X222761716Y-109615270D01*
X222761717Y-109615270D01*
X222129408Y-108982962D01*
X222192993Y-108965925D01*
X222307007Y-108900099D01*
X222400099Y-108807007D01*
X222465925Y-108692993D01*
X222482962Y-108629408D01*
X223115270Y-109261717D01*
X223115270Y-109261716D01*
X223154622Y-109207554D01*
X223251095Y-109018217D01*
X223316757Y-108816130D01*
X223316757Y-108816127D01*
X223350000Y-108606246D01*
X223350000Y-108393753D01*
X227150000Y-108393753D01*
X227150000Y-108606246D01*
X227183242Y-108816127D01*
X227183242Y-108816130D01*
X227248904Y-109018217D01*
X227345375Y-109207550D01*
X227384728Y-109261716D01*
X228017037Y-108629408D01*
X228034075Y-108692993D01*
X228099901Y-108807007D01*
X228192993Y-108900099D01*
X228307007Y-108965925D01*
X228370590Y-108982962D01*
X227738282Y-109615269D01*
X227738282Y-109615270D01*
X227792449Y-109654624D01*
X227981782Y-109751095D01*
X228183870Y-109816757D01*
X228393754Y-109850000D01*
X228606246Y-109850000D01*
X228816127Y-109816757D01*
X228816130Y-109816757D01*
X229018217Y-109751095D01*
X229207554Y-109654622D01*
X229261716Y-109615270D01*
X229261717Y-109615270D01*
X228629408Y-108982962D01*
X228692993Y-108965925D01*
X228807007Y-108900099D01*
X228900099Y-108807007D01*
X228965925Y-108692993D01*
X228982962Y-108629408D01*
X229615270Y-109261717D01*
X229615270Y-109261716D01*
X229654622Y-109207554D01*
X229751095Y-109018217D01*
X229816757Y-108816130D01*
X229816757Y-108816127D01*
X229850000Y-108606246D01*
X229850000Y-108393753D01*
X229816757Y-108183872D01*
X229816757Y-108183869D01*
X229751095Y-107981782D01*
X229654624Y-107792449D01*
X229615270Y-107738282D01*
X229615269Y-107738282D01*
X228982962Y-108370590D01*
X228965925Y-108307007D01*
X228900099Y-108192993D01*
X228807007Y-108099901D01*
X228692993Y-108034075D01*
X228629409Y-108017037D01*
X229261716Y-107384728D01*
X229207550Y-107345375D01*
X229018217Y-107248904D01*
X228816129Y-107183242D01*
X228606246Y-107150000D01*
X228393754Y-107150000D01*
X228183872Y-107183242D01*
X228183869Y-107183242D01*
X227981782Y-107248904D01*
X227792439Y-107345380D01*
X227738282Y-107384727D01*
X227738282Y-107384728D01*
X228370591Y-108017037D01*
X228307007Y-108034075D01*
X228192993Y-108099901D01*
X228099901Y-108192993D01*
X228034075Y-108307007D01*
X228017037Y-108370590D01*
X227384728Y-107738282D01*
X227384727Y-107738282D01*
X227345380Y-107792439D01*
X227248904Y-107981782D01*
X227183242Y-108183869D01*
X227183242Y-108183872D01*
X227150000Y-108393753D01*
X223350000Y-108393753D01*
X223316757Y-108183872D01*
X223316757Y-108183869D01*
X223251095Y-107981782D01*
X223154624Y-107792449D01*
X223115270Y-107738282D01*
X223115269Y-107738282D01*
X222482962Y-108370590D01*
X222465925Y-108307007D01*
X222400099Y-108192993D01*
X222307007Y-108099901D01*
X222192993Y-108034075D01*
X222129409Y-108017037D01*
X222761716Y-107384728D01*
X222707550Y-107345375D01*
X222518217Y-107248904D01*
X222316129Y-107183242D01*
X222106246Y-107150000D01*
X221893754Y-107150000D01*
X221683872Y-107183242D01*
X221683869Y-107183242D01*
X221481782Y-107248904D01*
X221292439Y-107345380D01*
X221238282Y-107384727D01*
X221238282Y-107384728D01*
X221870591Y-108017037D01*
X221807007Y-108034075D01*
X221692993Y-108099901D01*
X221599901Y-108192993D01*
X221534075Y-108307007D01*
X221517037Y-108370591D01*
X220884728Y-107738282D01*
X220884727Y-107738282D01*
X220845380Y-107792439D01*
X220748904Y-107981782D01*
X220683242Y-108183869D01*
X220683242Y-108183872D01*
X220650000Y-108393753D01*
X219552981Y-108393753D01*
X221309917Y-106636819D01*
X221371240Y-106603334D01*
X221397598Y-106600500D01*
X222913331Y-106600500D01*
X222913347Y-106600501D01*
X222920943Y-106600501D01*
X223079054Y-106600501D01*
X223079057Y-106600501D01*
X223231785Y-106559577D01*
X223301233Y-106519481D01*
X223368716Y-106480520D01*
X223480520Y-106368716D01*
X223480520Y-106368714D01*
X223490724Y-106358511D01*
X223490727Y-106358506D01*
X224480520Y-105368716D01*
X224559577Y-105231784D01*
X224600501Y-105079057D01*
X224600501Y-104920942D01*
X224600501Y-104913347D01*
X224600500Y-104913329D01*
X224600500Y-103893713D01*
X227149500Y-103893713D01*
X227149500Y-104106286D01*
X227182753Y-104316239D01*
X227248444Y-104518414D01*
X227344951Y-104707820D01*
X227469890Y-104879786D01*
X227620213Y-105030109D01*
X227792179Y-105155048D01*
X227792181Y-105155049D01*
X227792184Y-105155051D01*
X227981588Y-105251557D01*
X228183757Y-105317246D01*
X228393713Y-105350500D01*
X228393714Y-105350500D01*
X228606286Y-105350500D01*
X228606287Y-105350500D01*
X228816243Y-105317246D01*
X229018412Y-105251557D01*
X229207816Y-105155051D01*
X229240079Y-105131611D01*
X229379786Y-105030109D01*
X229379788Y-105030106D01*
X229379792Y-105030104D01*
X229530104Y-104879792D01*
X229530106Y-104879788D01*
X229530109Y-104879786D01*
X229655048Y-104707820D01*
X229655047Y-104707820D01*
X229655051Y-104707816D01*
X229751557Y-104518412D01*
X229817246Y-104316243D01*
X229850500Y-104106287D01*
X229850500Y-103893713D01*
X229817246Y-103683757D01*
X229751557Y-103481588D01*
X229655051Y-103292184D01*
X229655049Y-103292181D01*
X229655048Y-103292179D01*
X229530109Y-103120213D01*
X229379786Y-102969890D01*
X229207820Y-102844951D01*
X229018414Y-102748444D01*
X229018413Y-102748443D01*
X229018412Y-102748443D01*
X228816243Y-102682754D01*
X228816241Y-102682753D01*
X228816240Y-102682753D01*
X228654957Y-102657208D01*
X228606287Y-102649500D01*
X228393713Y-102649500D01*
X228345042Y-102657208D01*
X228183760Y-102682753D01*
X227981585Y-102748444D01*
X227792179Y-102844951D01*
X227620213Y-102969890D01*
X227469890Y-103120213D01*
X227344951Y-103292179D01*
X227248444Y-103481585D01*
X227182753Y-103683760D01*
X227149500Y-103893713D01*
X224600500Y-103893713D01*
X224600500Y-98643753D01*
X227150000Y-98643753D01*
X227150000Y-98856246D01*
X227183242Y-99066127D01*
X227183242Y-99066130D01*
X227248904Y-99268217D01*
X227345375Y-99457550D01*
X227384728Y-99511716D01*
X228017037Y-98879408D01*
X228034075Y-98942993D01*
X228099901Y-99057007D01*
X228192993Y-99150099D01*
X228307007Y-99215925D01*
X228370590Y-99232962D01*
X227738282Y-99865269D01*
X227738282Y-99865270D01*
X227792449Y-99904624D01*
X227981782Y-100001095D01*
X228183870Y-100066757D01*
X228393754Y-100100000D01*
X228606246Y-100100000D01*
X228816127Y-100066757D01*
X228816130Y-100066757D01*
X229018217Y-100001095D01*
X229207554Y-99904622D01*
X229261716Y-99865270D01*
X229261717Y-99865270D01*
X228629408Y-99232962D01*
X228692993Y-99215925D01*
X228807007Y-99150099D01*
X228900099Y-99057007D01*
X228965925Y-98942993D01*
X228982962Y-98879408D01*
X229615270Y-99511717D01*
X229615270Y-99511716D01*
X229654622Y-99457554D01*
X229751095Y-99268217D01*
X229816757Y-99066130D01*
X229816757Y-99066127D01*
X229850000Y-98856246D01*
X229850000Y-98643753D01*
X229816757Y-98433872D01*
X229816757Y-98433869D01*
X229751095Y-98231782D01*
X229654624Y-98042449D01*
X229615270Y-97988282D01*
X229615269Y-97988282D01*
X228982962Y-98620590D01*
X228965925Y-98557007D01*
X228900099Y-98442993D01*
X228807007Y-98349901D01*
X228692993Y-98284075D01*
X228629409Y-98267037D01*
X229261716Y-97634728D01*
X229207550Y-97595375D01*
X229018217Y-97498904D01*
X228816129Y-97433242D01*
X228606246Y-97400000D01*
X228393754Y-97400000D01*
X228183872Y-97433242D01*
X228183869Y-97433242D01*
X227981782Y-97498904D01*
X227792439Y-97595380D01*
X227738282Y-97634727D01*
X227738282Y-97634728D01*
X228370591Y-98267037D01*
X228307007Y-98284075D01*
X228192993Y-98349901D01*
X228099901Y-98442993D01*
X228034075Y-98557007D01*
X228017037Y-98620590D01*
X227384728Y-97988282D01*
X227384727Y-97988282D01*
X227345380Y-98042439D01*
X227248904Y-98231782D01*
X227183242Y-98433869D01*
X227183242Y-98433872D01*
X227150000Y-98643753D01*
X224600500Y-98643753D01*
X224600500Y-96170945D01*
X224600500Y-96170943D01*
X224575822Y-96078842D01*
X224559577Y-96018215D01*
X224524246Y-95957020D01*
X224524246Y-95957019D01*
X224480524Y-95881290D01*
X224480521Y-95881286D01*
X224480520Y-95881284D01*
X224368716Y-95769480D01*
X224368715Y-95769479D01*
X224364385Y-95765149D01*
X224364374Y-95765139D01*
X223661416Y-95062181D01*
X223627931Y-95000858D01*
X223632915Y-94931166D01*
X223674787Y-94875233D01*
X223740251Y-94850816D01*
X223749097Y-94850500D01*
X227214281Y-94850500D01*
X227281320Y-94870185D01*
X227324765Y-94918205D01*
X227344947Y-94957814D01*
X227344948Y-94957815D01*
X227469890Y-95129786D01*
X227620213Y-95280109D01*
X227792179Y-95405048D01*
X227792181Y-95405049D01*
X227792184Y-95405051D01*
X227981588Y-95501557D01*
X228183757Y-95567246D01*
X228393713Y-95600500D01*
X228393714Y-95600500D01*
X228606286Y-95600500D01*
X228606287Y-95600500D01*
X228816243Y-95567246D01*
X229018412Y-95501557D01*
X229207816Y-95405051D01*
X229269787Y-95360027D01*
X229379786Y-95280109D01*
X229379788Y-95280106D01*
X229379792Y-95280104D01*
X229530104Y-95129792D01*
X229530106Y-95129788D01*
X229530109Y-95129786D01*
X229655048Y-94957820D01*
X229655047Y-94957820D01*
X229655051Y-94957816D01*
X229751557Y-94768412D01*
X229817246Y-94566243D01*
X229850500Y-94356287D01*
X229850500Y-94143713D01*
X229817246Y-93933757D01*
X229751557Y-93731588D01*
X229655051Y-93542184D01*
X229655049Y-93542181D01*
X229655048Y-93542179D01*
X229530109Y-93370213D01*
X229379786Y-93219890D01*
X229207820Y-93094951D01*
X229018414Y-92998444D01*
X229018413Y-92998443D01*
X229018412Y-92998443D01*
X228816243Y-92932754D01*
X228816241Y-92932753D01*
X228816240Y-92932753D01*
X228654957Y-92907208D01*
X228606287Y-92899500D01*
X228393713Y-92899500D01*
X228345042Y-92907208D01*
X228183760Y-92932753D01*
X227981585Y-92998444D01*
X227792179Y-93094951D01*
X227620213Y-93219890D01*
X227469890Y-93370213D01*
X227344948Y-93542184D01*
X227344947Y-93542185D01*
X227324765Y-93581795D01*
X227276791Y-93632591D01*
X227214281Y-93649500D01*
X223285719Y-93649500D01*
X223218680Y-93629815D01*
X223175235Y-93581795D01*
X223155052Y-93542185D01*
X223155051Y-93542184D01*
X223030109Y-93370213D01*
X222879786Y-93219890D01*
X222707820Y-93094951D01*
X222641354Y-93061085D01*
X222590558Y-93013110D01*
X222573763Y-92945289D01*
X222596300Y-92879154D01*
X222609961Y-92862926D01*
X223836071Y-91636819D01*
X223897394Y-91603334D01*
X223923752Y-91600500D01*
X226813331Y-91600500D01*
X226813347Y-91600501D01*
X226820943Y-91600501D01*
X226979054Y-91600501D01*
X226979057Y-91600501D01*
X227131785Y-91559577D01*
X227181904Y-91530639D01*
X227268716Y-91480520D01*
X227380520Y-91368716D01*
X227380520Y-91368714D01*
X227390728Y-91358507D01*
X227390730Y-91358504D01*
X231896437Y-86852796D01*
X231957758Y-86819313D01*
X232022433Y-86822547D01*
X232148632Y-86863553D01*
X232236110Y-86877408D01*
X232381903Y-86900500D01*
X232381908Y-86900500D01*
X232618097Y-86900500D01*
X232851368Y-86863553D01*
X232884468Y-86852798D01*
X233075992Y-86790568D01*
X233286433Y-86683343D01*
X233477510Y-86544517D01*
X233644517Y-86377510D01*
X233783343Y-86186433D01*
X233890568Y-85975992D01*
X233963553Y-85751368D01*
X233970879Y-85705111D01*
X234000500Y-85518097D01*
X234000500Y-85281902D01*
X233963553Y-85048631D01*
X233890566Y-84824003D01*
X233834002Y-84712991D01*
X233783343Y-84613567D01*
X233644517Y-84422490D01*
X233477510Y-84255483D01*
X233286433Y-84116657D01*
X233075996Y-84009433D01*
X232851368Y-83936446D01*
X232618097Y-83899500D01*
X232618092Y-83899500D01*
X232381908Y-83899500D01*
X232381903Y-83899500D01*
X232148631Y-83936446D01*
X231924003Y-84009433D01*
X231713566Y-84116657D01*
X231604550Y-84195862D01*
X231522490Y-84255483D01*
X231522488Y-84255485D01*
X231522487Y-84255485D01*
X231355485Y-84422487D01*
X231355485Y-84422488D01*
X231355483Y-84422490D01*
X231337083Y-84447816D01*
X231216657Y-84613566D01*
X231109433Y-84824003D01*
X231036446Y-85048631D01*
X230999500Y-85281902D01*
X230999500Y-85518097D01*
X231036447Y-85751369D01*
X231036447Y-85751372D01*
X231077450Y-85877564D01*
X231079445Y-85947405D01*
X231047200Y-86003563D01*
X227812180Y-89238584D01*
X227750857Y-89272069D01*
X227681165Y-89267085D01*
X227625232Y-89225213D01*
X227600815Y-89159749D01*
X227600499Y-89150903D01*
X227600499Y-87452129D01*
X227600498Y-87452123D01*
X227600497Y-87452116D01*
X227594091Y-87392517D01*
X227591268Y-87384949D01*
X227543797Y-87257671D01*
X227543793Y-87257664D01*
X227457547Y-87142455D01*
X227457544Y-87142452D01*
X227342335Y-87056206D01*
X227342328Y-87056202D01*
X227207482Y-87005908D01*
X227207483Y-87005908D01*
X227147883Y-86999501D01*
X227147881Y-86999500D01*
X227147873Y-86999500D01*
X227147864Y-86999500D01*
X223852129Y-86999500D01*
X223852123Y-86999501D01*
X223792516Y-87005908D01*
X223657671Y-87056202D01*
X223657664Y-87056206D01*
X223542455Y-87142452D01*
X223542452Y-87142455D01*
X223456206Y-87257664D01*
X223456202Y-87257671D01*
X223405908Y-87392517D01*
X223399501Y-87452116D01*
X223399501Y-87452123D01*
X223399500Y-87452135D01*
X223399500Y-89547870D01*
X223399501Y-89547876D01*
X223405908Y-89607483D01*
X223456202Y-89742328D01*
X223456206Y-89742335D01*
X223542452Y-89857544D01*
X223542455Y-89857547D01*
X223657664Y-89943793D01*
X223657671Y-89943797D01*
X223792517Y-89994091D01*
X223792516Y-89994091D01*
X223799444Y-89994835D01*
X223852127Y-90000500D01*
X226750903Y-90000499D01*
X226772148Y-90006737D01*
X226794236Y-90008317D01*
X226805019Y-90016389D01*
X226817942Y-90020184D01*
X226832441Y-90036916D01*
X226850170Y-90050188D01*
X226854877Y-90062808D01*
X226863697Y-90072987D01*
X226866848Y-90094905D01*
X226874587Y-90115653D01*
X226871724Y-90128813D01*
X226873641Y-90142146D01*
X226864441Y-90162289D01*
X226859735Y-90183926D01*
X226846465Y-90201653D01*
X226844616Y-90205702D01*
X226838591Y-90212173D01*
X226687582Y-90363182D01*
X226626261Y-90396666D01*
X226599903Y-90399500D01*
X223710324Y-90399500D01*
X223710308Y-90399499D01*
X223702712Y-90399499D01*
X223544597Y-90399499D01*
X223468233Y-90419961D01*
X223391868Y-90440423D01*
X223391863Y-90440426D01*
X223254944Y-90519475D01*
X223254936Y-90519481D01*
X220812181Y-92962237D01*
X220750858Y-92995722D01*
X220681166Y-92990738D01*
X220625233Y-92948866D01*
X220600816Y-92883402D01*
X220600500Y-92874556D01*
X220600500Y-87320945D01*
X220600500Y-87320943D01*
X220576610Y-87231784D01*
X220559577Y-87168215D01*
X220554554Y-87159516D01*
X220530639Y-87118095D01*
X220530637Y-87118092D01*
X220508099Y-87079054D01*
X220480520Y-87031284D01*
X220368716Y-86919480D01*
X220368715Y-86919479D01*
X220364385Y-86915149D01*
X220364374Y-86915139D01*
X219452798Y-86003563D01*
X219419313Y-85942240D01*
X219422547Y-85877566D01*
X219463553Y-85751368D01*
X219492404Y-85569208D01*
X219500500Y-85518097D01*
X219500500Y-85281902D01*
X219463553Y-85048631D01*
X219390566Y-84824003D01*
X219334002Y-84712991D01*
X219283343Y-84613567D01*
X219144517Y-84422490D01*
X218977510Y-84255483D01*
X218921259Y-84214614D01*
X218878595Y-84159284D01*
X218873902Y-84127455D01*
X218129408Y-83382962D01*
X218192993Y-83365925D01*
X218307007Y-83300099D01*
X218400099Y-83207007D01*
X218465925Y-83092993D01*
X218482962Y-83029409D01*
X219222658Y-83769105D01*
X219222658Y-83769104D01*
X219282914Y-83686169D01*
X219282918Y-83686163D01*
X219390102Y-83475802D01*
X219463065Y-83251247D01*
X219500000Y-83018052D01*
X219500000Y-82781947D01*
X219463065Y-82548752D01*
X219390102Y-82324197D01*
X219282914Y-82113828D01*
X219213394Y-82018142D01*
X219189914Y-81952335D01*
X219205739Y-81884281D01*
X219239401Y-81845989D01*
X219242329Y-81843796D01*
X219242331Y-81843796D01*
X219357546Y-81757546D01*
X219443796Y-81642331D01*
X219494091Y-81507483D01*
X219500500Y-81447873D01*
X219500499Y-80281947D01*
X231000000Y-80281947D01*
X231000000Y-80518052D01*
X231036934Y-80751247D01*
X231109897Y-80975802D01*
X231217087Y-81186174D01*
X231277338Y-81269104D01*
X231277340Y-81269105D01*
X232017037Y-80529408D01*
X232034075Y-80592993D01*
X232099901Y-80707007D01*
X232192993Y-80800099D01*
X232307007Y-80865925D01*
X232370590Y-80882962D01*
X231630893Y-81622658D01*
X231713828Y-81682914D01*
X231924197Y-81790102D01*
X232148752Y-81863065D01*
X232148751Y-81863065D01*
X232381948Y-81900000D01*
X232618052Y-81900000D01*
X232851247Y-81863065D01*
X233075802Y-81790102D01*
X233286163Y-81682918D01*
X233286169Y-81682914D01*
X233369104Y-81622658D01*
X233369105Y-81622658D01*
X232629408Y-80882962D01*
X232692993Y-80865925D01*
X232807007Y-80800099D01*
X232900099Y-80707007D01*
X232965925Y-80592993D01*
X232982962Y-80529408D01*
X233722658Y-81269105D01*
X233722658Y-81269104D01*
X233782914Y-81186169D01*
X233782918Y-81186163D01*
X233890102Y-80975802D01*
X233963065Y-80751247D01*
X234000000Y-80518052D01*
X234000000Y-80281947D01*
X233963065Y-80048752D01*
X233890102Y-79824197D01*
X233782914Y-79613828D01*
X233722658Y-79530894D01*
X233722658Y-79530893D01*
X232982962Y-80270590D01*
X232965925Y-80207007D01*
X232900099Y-80092993D01*
X232807007Y-79999901D01*
X232692993Y-79934075D01*
X232629409Y-79917037D01*
X233369105Y-79177340D01*
X233369104Y-79177338D01*
X233286174Y-79117087D01*
X233075802Y-79009897D01*
X232851247Y-78936934D01*
X232851248Y-78936934D01*
X232618052Y-78900000D01*
X232381948Y-78900000D01*
X232148752Y-78936934D01*
X231924197Y-79009897D01*
X231713830Y-79117084D01*
X231630894Y-79177340D01*
X232370591Y-79917037D01*
X232307007Y-79934075D01*
X232192993Y-79999901D01*
X232099901Y-80092993D01*
X232034075Y-80207007D01*
X232017037Y-80270591D01*
X231277340Y-79530894D01*
X231217084Y-79613830D01*
X231109897Y-79824197D01*
X231036934Y-80048752D01*
X231000000Y-80281947D01*
X219500499Y-80281947D01*
X219500499Y-79352128D01*
X219494091Y-79292517D01*
X219494090Y-79292514D01*
X219484922Y-79267931D01*
X219443797Y-79157671D01*
X219443793Y-79157664D01*
X219357547Y-79042455D01*
X219357544Y-79042452D01*
X219242335Y-78956206D01*
X219242328Y-78956202D01*
X219107482Y-78905908D01*
X219107483Y-78905908D01*
X219047883Y-78899501D01*
X219047881Y-78899500D01*
X219047873Y-78899500D01*
X219047864Y-78899500D01*
X216952129Y-78899500D01*
X216952123Y-78899501D01*
X216892516Y-78905908D01*
X216757671Y-78956202D01*
X216757664Y-78956206D01*
X216642455Y-79042452D01*
X216642452Y-79042455D01*
X216556206Y-79157664D01*
X216556202Y-79157671D01*
X216505908Y-79292517D01*
X216500718Y-79340799D01*
X216499501Y-79352123D01*
X216499500Y-79352135D01*
X216499500Y-80999902D01*
X216479815Y-81066941D01*
X216463181Y-81087583D01*
X215019481Y-82531282D01*
X215019479Y-82531285D01*
X214969361Y-82618094D01*
X214969359Y-82618096D01*
X214940425Y-82668209D01*
X214940424Y-82668210D01*
X214929256Y-82709890D01*
X214899499Y-82820943D01*
X214899499Y-82820945D01*
X214899499Y-82989046D01*
X214899500Y-82989059D01*
X214899500Y-86913330D01*
X214899499Y-86913348D01*
X214899499Y-87079054D01*
X214899498Y-87079054D01*
X214909959Y-87118095D01*
X214940423Y-87231785D01*
X214960468Y-87266503D01*
X214973135Y-87288443D01*
X215019479Y-87368715D01*
X215138349Y-87487585D01*
X215138355Y-87487590D01*
X217363181Y-89712416D01*
X217396666Y-89773739D01*
X217399500Y-89800097D01*
X217399500Y-91557226D01*
X217396794Y-91566439D01*
X217398077Y-91575956D01*
X217387111Y-91599417D01*
X217379815Y-91624265D01*
X217372558Y-91630552D01*
X217368492Y-91639253D01*
X217346580Y-91653062D01*
X217327011Y-91670020D01*
X217315933Y-91672378D01*
X217309383Y-91676507D01*
X217286517Y-91678641D01*
X217274405Y-91681221D01*
X217269325Y-91681176D01*
X217250881Y-91679500D01*
X217079568Y-91679500D01*
X217079002Y-91679495D01*
X217046070Y-91669508D01*
X217013058Y-91659815D01*
X217012426Y-91659306D01*
X217012139Y-91659219D01*
X217011747Y-91658758D01*
X216992416Y-91643181D01*
X215987590Y-90638355D01*
X215987588Y-90638352D01*
X215868717Y-90519481D01*
X215868716Y-90519480D01*
X215781904Y-90469360D01*
X215781904Y-90469359D01*
X215781900Y-90469358D01*
X215731785Y-90440423D01*
X215579057Y-90399499D01*
X215420943Y-90399499D01*
X215413347Y-90399499D01*
X215413331Y-90399500D01*
X213920940Y-90399500D01*
X213880019Y-90410464D01*
X213880019Y-90410465D01*
X213842751Y-90420451D01*
X213768214Y-90440423D01*
X213768209Y-90440426D01*
X213631290Y-90519475D01*
X213631282Y-90519481D01*
X212812181Y-91338583D01*
X212750858Y-91372068D01*
X212681166Y-91367084D01*
X212625233Y-91325212D01*
X212600816Y-91259748D01*
X212600500Y-91250902D01*
X212600500Y-89300096D01*
X212620185Y-89233057D01*
X212636814Y-89212420D01*
X213858506Y-87990727D01*
X213858511Y-87990724D01*
X213868714Y-87980520D01*
X213868716Y-87980520D01*
X213980520Y-87868716D01*
X214059577Y-87731784D01*
X214089534Y-87619981D01*
X214100500Y-87579058D01*
X214100500Y-87420943D01*
X214100500Y-80397596D01*
X214120185Y-80330557D01*
X214136814Y-80309920D01*
X215589916Y-78856817D01*
X215651239Y-78823333D01*
X215677597Y-78820499D01*
X215848388Y-78820499D01*
X215914926Y-78814453D01*
X215914927Y-78814452D01*
X215914933Y-78814452D01*
X216068069Y-78766733D01*
X216184681Y-78696239D01*
X216205329Y-78683757D01*
X216205330Y-78683755D01*
X216205335Y-78683753D01*
X216318753Y-78570335D01*
X216328802Y-78553713D01*
X216401732Y-78433070D01*
X216401733Y-78433069D01*
X216449452Y-78279933D01*
X216455500Y-78213381D01*
X216455499Y-77786620D01*
X216455499Y-77786611D01*
X216449453Y-77720073D01*
X216449452Y-77720070D01*
X216449452Y-77720067D01*
X216401733Y-77566931D01*
X216383166Y-77536217D01*
X216318757Y-77429670D01*
X216318753Y-77429665D01*
X216205334Y-77316246D01*
X216205329Y-77316242D01*
X216068070Y-77233267D01*
X216068066Y-77233265D01*
X215914933Y-77185548D01*
X215914935Y-77185548D01*
X215888312Y-77183128D01*
X215848381Y-77179500D01*
X215848378Y-77179500D01*
X215346611Y-77179500D01*
X215280073Y-77185546D01*
X215280072Y-77185546D01*
X215163889Y-77221750D01*
X215094029Y-77222900D01*
X215034637Y-77186099D01*
X215004569Y-77123030D01*
X215003000Y-77103364D01*
X215003000Y-76722597D01*
X215022685Y-76655558D01*
X215039319Y-76634916D01*
X215422100Y-76252135D01*
X223399500Y-76252135D01*
X223399500Y-78347870D01*
X223399501Y-78347876D01*
X223405908Y-78407483D01*
X223456202Y-78542328D01*
X223456206Y-78542335D01*
X223542452Y-78657544D01*
X223542455Y-78657547D01*
X223657664Y-78743793D01*
X223657671Y-78743797D01*
X223792517Y-78794091D01*
X223792516Y-78794091D01*
X223799444Y-78794835D01*
X223852127Y-78800500D01*
X227147872Y-78800499D01*
X227207483Y-78794091D01*
X227342331Y-78743796D01*
X227457546Y-78657546D01*
X227543796Y-78542331D01*
X227594091Y-78407483D01*
X227600500Y-78347873D01*
X227600499Y-76252128D01*
X227594643Y-76197655D01*
X227594091Y-76192516D01*
X227543797Y-76057671D01*
X227543793Y-76057664D01*
X227457547Y-75942455D01*
X227457544Y-75942452D01*
X227342335Y-75856206D01*
X227342328Y-75856202D01*
X227207482Y-75805908D01*
X227207483Y-75805908D01*
X227147883Y-75799501D01*
X227147881Y-75799500D01*
X227147873Y-75799500D01*
X227147864Y-75799500D01*
X223852129Y-75799500D01*
X223852123Y-75799501D01*
X223792516Y-75805908D01*
X223657671Y-75856202D01*
X223657664Y-75856206D01*
X223542455Y-75942452D01*
X223542452Y-75942455D01*
X223456206Y-76057664D01*
X223456202Y-76057671D01*
X223405908Y-76192517D01*
X223402278Y-76226286D01*
X223399501Y-76252123D01*
X223399500Y-76252135D01*
X215422100Y-76252135D01*
X216887416Y-74786819D01*
X216948739Y-74753334D01*
X216975097Y-74750500D01*
X217528186Y-74750500D01*
X217528194Y-74750500D01*
X217565069Y-74747598D01*
X217565071Y-74747597D01*
X217565073Y-74747597D01*
X217608259Y-74735050D01*
X217722898Y-74701744D01*
X217864365Y-74618081D01*
X217980581Y-74501865D01*
X218064244Y-74360398D01*
X218110098Y-74202569D01*
X218113000Y-74165694D01*
X218113000Y-73734306D01*
X218110098Y-73697431D01*
X218106860Y-73686287D01*
X218064245Y-73539606D01*
X218064244Y-73539603D01*
X218064244Y-73539602D01*
X217980581Y-73398135D01*
X217980579Y-73398133D01*
X217980576Y-73398129D01*
X217864370Y-73281923D01*
X217864362Y-73281917D01*
X217752384Y-73215694D01*
X217722898Y-73198256D01*
X217722897Y-73198255D01*
X217722896Y-73198255D01*
X217722893Y-73198254D01*
X217565073Y-73152402D01*
X217565067Y-73152401D01*
X217528201Y-73149500D01*
X217528194Y-73149500D01*
X216362000Y-73149500D01*
X216353314Y-73146949D01*
X216344353Y-73148238D01*
X216320312Y-73137259D01*
X216294961Y-73129815D01*
X216289033Y-73122974D01*
X216280797Y-73119213D01*
X216266507Y-73096978D01*
X216249206Y-73077011D01*
X216246918Y-73066496D01*
X216243023Y-73060435D01*
X216238000Y-73025500D01*
X216238000Y-72974000D01*
X216257685Y-72906961D01*
X216310489Y-72861206D01*
X216362000Y-72850000D01*
X216625000Y-72850000D01*
X217125000Y-72850000D01*
X217528134Y-72850000D01*
X217528149Y-72849999D01*
X217564989Y-72847100D01*
X217564995Y-72847099D01*
X217722693Y-72801283D01*
X217722696Y-72801282D01*
X217864052Y-72717685D01*
X217864061Y-72717678D01*
X217980178Y-72601561D01*
X217980185Y-72601552D01*
X218063781Y-72460198D01*
X218109600Y-72302486D01*
X218109795Y-72300001D01*
X218109795Y-72300000D01*
X217125000Y-72300000D01*
X217125000Y-72850000D01*
X216625000Y-72850000D01*
X216625000Y-72174000D01*
X216644685Y-72106961D01*
X216697489Y-72061206D01*
X216749000Y-72050000D01*
X216875000Y-72050000D01*
X216875000Y-71924000D01*
X216894685Y-71856961D01*
X216947489Y-71811206D01*
X216999000Y-71800000D01*
X218109795Y-71800000D01*
X218109795Y-71799998D01*
X218109600Y-71797513D01*
X218063781Y-71639801D01*
X217980185Y-71498447D01*
X217980178Y-71498438D01*
X217864061Y-71382321D01*
X217864052Y-71382314D01*
X217722698Y-71298718D01*
X217705001Y-71293577D01*
X217646116Y-71255970D01*
X217616909Y-71192498D01*
X217626655Y-71123311D01*
X217672259Y-71070377D01*
X217739241Y-71050501D01*
X217739596Y-71050500D01*
X223978566Y-71050500D01*
X224045605Y-71070185D01*
X224091360Y-71122989D01*
X224096497Y-71136181D01*
X224109433Y-71175996D01*
X224171964Y-71298718D01*
X224216657Y-71386433D01*
X224355483Y-71577510D01*
X224522490Y-71744517D01*
X224713567Y-71883343D01*
X224785102Y-71919792D01*
X224924003Y-71990566D01*
X224924005Y-71990566D01*
X224924008Y-71990568D01*
X225001175Y-72015641D01*
X225148631Y-72063553D01*
X225381903Y-72100500D01*
X225381908Y-72100500D01*
X225618097Y-72100500D01*
X225851368Y-72063553D01*
X225858591Y-72061206D01*
X226075992Y-71990568D01*
X226286433Y-71883343D01*
X226477510Y-71744517D01*
X226644517Y-71577510D01*
X226783343Y-71386433D01*
X226890568Y-71175992D01*
X226963553Y-70951368D01*
X226966349Y-70933713D01*
X227000500Y-70718097D01*
X227000500Y-70481902D01*
X226963553Y-70248631D01*
X226890566Y-70024003D01*
X226819714Y-69884949D01*
X226783343Y-69813567D01*
X226644517Y-69622490D01*
X226477510Y-69455483D01*
X226286433Y-69316657D01*
X226075996Y-69209433D01*
X225851368Y-69136446D01*
X225618097Y-69099500D01*
X225618092Y-69099500D01*
X225381908Y-69099500D01*
X225381903Y-69099500D01*
X225148631Y-69136446D01*
X224924003Y-69209433D01*
X224713566Y-69316657D01*
X224604550Y-69395862D01*
X224522490Y-69455483D01*
X224522488Y-69455485D01*
X224522487Y-69455485D01*
X224464792Y-69513181D01*
X224403469Y-69546666D01*
X224377111Y-69549500D01*
X216626080Y-69549500D01*
X216481092Y-69578340D01*
X216481086Y-69578342D01*
X216344508Y-69634914D01*
X216344496Y-69634921D01*
X216295269Y-69667813D01*
X216221588Y-69717044D01*
X216221580Y-69717050D01*
X214417050Y-71521580D01*
X214417044Y-71521588D01*
X214367812Y-71595268D01*
X214367813Y-71595269D01*
X214334921Y-71644496D01*
X214334914Y-71644508D01*
X214278342Y-71781086D01*
X214278340Y-71781092D01*
X214249500Y-71926079D01*
X214249500Y-72126856D01*
X214229815Y-72193895D01*
X214177011Y-72239650D01*
X214160101Y-72245931D01*
X214152106Y-72248253D01*
X214152102Y-72248255D01*
X214010637Y-72331917D01*
X214010629Y-72331923D01*
X213894423Y-72448129D01*
X213894417Y-72448137D01*
X213810755Y-72589603D01*
X213810754Y-72589606D01*
X213764902Y-72747426D01*
X213764901Y-72747432D01*
X213762000Y-72784298D01*
X213762000Y-73215701D01*
X213764901Y-73252567D01*
X213764902Y-73252573D01*
X213810754Y-73410393D01*
X213810755Y-73410396D01*
X213894417Y-73551862D01*
X213894423Y-73551870D01*
X214010629Y-73668076D01*
X214010633Y-73668079D01*
X214010635Y-73668081D01*
X214152102Y-73751744D01*
X214193724Y-73763836D01*
X214309926Y-73797597D01*
X214309929Y-73797597D01*
X214309931Y-73797598D01*
X214346806Y-73800500D01*
X215513000Y-73800500D01*
X215580039Y-73820185D01*
X215625794Y-73872989D01*
X215637000Y-73924500D01*
X215637000Y-74165701D01*
X215639901Y-74202563D01*
X215639903Y-74202572D01*
X215649450Y-74235435D01*
X215649249Y-74305305D01*
X215618054Y-74357709D01*
X214033786Y-75941978D01*
X213921981Y-76053782D01*
X213921975Y-76053790D01*
X213877873Y-76130178D01*
X213877850Y-76130219D01*
X213876918Y-76131835D01*
X213842923Y-76190715D01*
X213840541Y-76199601D01*
X213833712Y-76212303D01*
X213818888Y-76227317D01*
X213807906Y-76245334D01*
X213794832Y-76251683D01*
X213784624Y-76262024D01*
X213764037Y-76266640D01*
X213745057Y-76275860D01*
X213730627Y-76274134D01*
X213716448Y-76277314D01*
X213696632Y-76270067D01*
X213675682Y-76267562D01*
X213664476Y-76258308D01*
X213650828Y-76253318D01*
X213638075Y-76236508D01*
X213621806Y-76223074D01*
X213617381Y-76209232D01*
X213608599Y-76197655D01*
X213606958Y-76176619D01*
X213600535Y-76156521D01*
X213600500Y-76153576D01*
X213600500Y-74460945D01*
X213600500Y-74460943D01*
X213559577Y-74308216D01*
X213524930Y-74248205D01*
X213480524Y-74171290D01*
X213480521Y-74171286D01*
X213480520Y-74171284D01*
X213368716Y-74059480D01*
X213368715Y-74059479D01*
X213364385Y-74055149D01*
X213364374Y-74055139D01*
X210833757Y-71524522D01*
X210800272Y-71463199D01*
X210803507Y-71398523D01*
X210817246Y-71356243D01*
X210850500Y-71146287D01*
X210850500Y-70933713D01*
X210817246Y-70723757D01*
X210751557Y-70521588D01*
X210655051Y-70332184D01*
X210655049Y-70332181D01*
X210655048Y-70332179D01*
X210530109Y-70160213D01*
X210416569Y-70046673D01*
X210383084Y-69985350D01*
X210388068Y-69915658D01*
X210429940Y-69859725D01*
X210460915Y-69842810D01*
X210592331Y-69793796D01*
X210707546Y-69707546D01*
X210793796Y-69592331D01*
X210844091Y-69457483D01*
X210850500Y-69397873D01*
X210850499Y-67602128D01*
X210844091Y-67542517D01*
X210793796Y-67407669D01*
X210793795Y-67407668D01*
X210793793Y-67407664D01*
X210707547Y-67292455D01*
X210707544Y-67292452D01*
X210592335Y-67206206D01*
X210592328Y-67206202D01*
X210457482Y-67155908D01*
X210457483Y-67155908D01*
X210397883Y-67149501D01*
X210397881Y-67149500D01*
X210397873Y-67149500D01*
X210397864Y-67149500D01*
X208602129Y-67149500D01*
X208602123Y-67149501D01*
X208542516Y-67155908D01*
X208407671Y-67206202D01*
X208407664Y-67206206D01*
X208292455Y-67292452D01*
X208292452Y-67292455D01*
X208206206Y-67407664D01*
X208206202Y-67407671D01*
X208155908Y-67542517D01*
X208149501Y-67602116D01*
X208149501Y-67602123D01*
X208149500Y-67602135D01*
X208149500Y-67775500D01*
X208129815Y-67842539D01*
X208077011Y-67888294D01*
X208025500Y-67899500D01*
X198579057Y-67899500D01*
X198420942Y-67899500D01*
X198268215Y-67940423D01*
X198268214Y-67940423D01*
X198268212Y-67940424D01*
X198268209Y-67940425D01*
X198218096Y-67969359D01*
X198218095Y-67969360D01*
X198174689Y-67994420D01*
X198131285Y-68019479D01*
X198131282Y-68019481D01*
X194019481Y-72131282D01*
X194019479Y-72131285D01*
X194011589Y-72144951D01*
X193982665Y-72195051D01*
X193969361Y-72218094D01*
X193969359Y-72218096D01*
X193940425Y-72268209D01*
X193940424Y-72268210D01*
X193927803Y-72315312D01*
X193899499Y-72420943D01*
X193899499Y-72420945D01*
X193899499Y-72589046D01*
X193899500Y-72589059D01*
X193899500Y-82496560D01*
X193879815Y-82563599D01*
X193827011Y-82609354D01*
X193757853Y-82619298D01*
X193694297Y-82590273D01*
X193672398Y-82565451D01*
X193621789Y-82489711D01*
X193621786Y-82489707D01*
X193510292Y-82378213D01*
X193510288Y-82378210D01*
X193379185Y-82290609D01*
X193379172Y-82290602D01*
X193233501Y-82230264D01*
X193233489Y-82230261D01*
X193078845Y-82199500D01*
X193078842Y-82199500D01*
X192921158Y-82199500D01*
X192921155Y-82199500D01*
X192766510Y-82230261D01*
X192766498Y-82230264D01*
X192620827Y-82290602D01*
X192620814Y-82290609D01*
X192489711Y-82378210D01*
X192489707Y-82378213D01*
X192378213Y-82489707D01*
X192378210Y-82489711D01*
X192290609Y-82620814D01*
X192290602Y-82620827D01*
X192230264Y-82766498D01*
X192230261Y-82766510D01*
X192199500Y-82921153D01*
X186500500Y-82921153D01*
X186500500Y-61952135D01*
X223999500Y-61952135D01*
X223999500Y-64047870D01*
X223999501Y-64047876D01*
X224005908Y-64107483D01*
X224056202Y-64242328D01*
X224056206Y-64242335D01*
X224142452Y-64357544D01*
X224142455Y-64357547D01*
X224257664Y-64443793D01*
X224257671Y-64443797D01*
X224392517Y-64494091D01*
X224392516Y-64494091D01*
X224399444Y-64494835D01*
X224452127Y-64500500D01*
X226547872Y-64500499D01*
X226607483Y-64494091D01*
X226742331Y-64443796D01*
X226857546Y-64357546D01*
X226943796Y-64242331D01*
X226994091Y-64107483D01*
X227000500Y-64047873D01*
X227000499Y-61952128D01*
X226994091Y-61892517D01*
X226943796Y-61757669D01*
X226943795Y-61757668D01*
X226943793Y-61757664D01*
X226857547Y-61642455D01*
X226857544Y-61642452D01*
X226742335Y-61556206D01*
X226742328Y-61556202D01*
X226607482Y-61505908D01*
X226607483Y-61505908D01*
X226547883Y-61499501D01*
X226547881Y-61499500D01*
X226547873Y-61499500D01*
X226547864Y-61499500D01*
X224452129Y-61499500D01*
X224452123Y-61499501D01*
X224392516Y-61505908D01*
X224257671Y-61556202D01*
X224257664Y-61556206D01*
X224142455Y-61642452D01*
X224142452Y-61642455D01*
X224056206Y-61757664D01*
X224056202Y-61757671D01*
X224005908Y-61892517D01*
X223999501Y-61952116D01*
X223999501Y-61952123D01*
X223999500Y-61952135D01*
X186500500Y-61952135D01*
X186500500Y-58340316D01*
X188249500Y-58340316D01*
X188249500Y-58659683D01*
X188280803Y-58977522D01*
X188343109Y-59290754D01*
X188435820Y-59596382D01*
X188558040Y-59891446D01*
X188558042Y-59891451D01*
X188708584Y-60173094D01*
X188708601Y-60173122D01*
X188886012Y-60438638D01*
X188886029Y-60438661D01*
X189088638Y-60685540D01*
X189314459Y-60911361D01*
X189314464Y-60911365D01*
X189314465Y-60911366D01*
X189561344Y-61113975D01*
X189561351Y-61113980D01*
X189561361Y-61113987D01*
X189826877Y-61291398D01*
X189826882Y-61291401D01*
X189826894Y-61291409D01*
X189826903Y-61291413D01*
X189826905Y-61291415D01*
X190108548Y-61441957D01*
X190108550Y-61441957D01*
X190108556Y-61441961D01*
X190403619Y-61564180D01*
X190709240Y-61656889D01*
X191022477Y-61719196D01*
X191340313Y-61750500D01*
X191340316Y-61750500D01*
X191659684Y-61750500D01*
X191659687Y-61750500D01*
X191977523Y-61719196D01*
X192290760Y-61656889D01*
X192596381Y-61564180D01*
X192891444Y-61441961D01*
X193173106Y-61291409D01*
X193438656Y-61113975D01*
X193685535Y-60911366D01*
X193911366Y-60685535D01*
X194113975Y-60438656D01*
X194291409Y-60173106D01*
X194441961Y-59891444D01*
X194564180Y-59596381D01*
X194656889Y-59290760D01*
X194719196Y-58977523D01*
X194750500Y-58659687D01*
X194750500Y-58340316D01*
X229749500Y-58340316D01*
X229749500Y-58659683D01*
X229780803Y-58977522D01*
X229843109Y-59290754D01*
X229935820Y-59596382D01*
X230058040Y-59891446D01*
X230058042Y-59891451D01*
X230208584Y-60173094D01*
X230208601Y-60173122D01*
X230386012Y-60438638D01*
X230386029Y-60438661D01*
X230588638Y-60685540D01*
X230814459Y-60911361D01*
X230814464Y-60911365D01*
X230814465Y-60911366D01*
X231061344Y-61113975D01*
X231061351Y-61113980D01*
X231061361Y-61113987D01*
X231326877Y-61291398D01*
X231326882Y-61291401D01*
X231326894Y-61291409D01*
X231326903Y-61291413D01*
X231326905Y-61291415D01*
X231608548Y-61441957D01*
X231608550Y-61441957D01*
X231608556Y-61441961D01*
X231903619Y-61564180D01*
X232209240Y-61656889D01*
X232522477Y-61719196D01*
X232840313Y-61750500D01*
X232840316Y-61750500D01*
X233159684Y-61750500D01*
X233159687Y-61750500D01*
X233477523Y-61719196D01*
X233790760Y-61656889D01*
X234096381Y-61564180D01*
X234391444Y-61441961D01*
X234673106Y-61291409D01*
X234938656Y-61113975D01*
X235185535Y-60911366D01*
X235411366Y-60685535D01*
X235613975Y-60438656D01*
X235791409Y-60173106D01*
X235941961Y-59891444D01*
X236064180Y-59596381D01*
X236156889Y-59290760D01*
X236219196Y-58977523D01*
X236250500Y-58659687D01*
X236250500Y-58340313D01*
X236219196Y-58022477D01*
X236156889Y-57709240D01*
X236064180Y-57403619D01*
X235941961Y-57108556D01*
X235791409Y-56826894D01*
X235791398Y-56826877D01*
X235613987Y-56561361D01*
X235613980Y-56561351D01*
X235613975Y-56561344D01*
X235411366Y-56314465D01*
X235411365Y-56314464D01*
X235411361Y-56314459D01*
X235185540Y-56088638D01*
X234938661Y-55886029D01*
X234938638Y-55886012D01*
X234673122Y-55708601D01*
X234673094Y-55708584D01*
X234391451Y-55558042D01*
X234391446Y-55558040D01*
X234096382Y-55435820D01*
X233790754Y-55343109D01*
X233477521Y-55280803D01*
X233477522Y-55280803D01*
X233238141Y-55257227D01*
X233159687Y-55249500D01*
X232840313Y-55249500D01*
X232767822Y-55256639D01*
X232522477Y-55280803D01*
X232209245Y-55343109D01*
X231903617Y-55435820D01*
X231608553Y-55558040D01*
X231608548Y-55558042D01*
X231326905Y-55708584D01*
X231326877Y-55708601D01*
X231061361Y-55886012D01*
X231061338Y-55886029D01*
X230814459Y-56088638D01*
X230588638Y-56314459D01*
X230386029Y-56561338D01*
X230386012Y-56561361D01*
X230208601Y-56826877D01*
X230208584Y-56826905D01*
X230058042Y-57108548D01*
X230058040Y-57108553D01*
X229935820Y-57403617D01*
X229843109Y-57709245D01*
X229780803Y-58022477D01*
X229749500Y-58340316D01*
X194750500Y-58340316D01*
X194750500Y-58340313D01*
X194719196Y-58022477D01*
X194656889Y-57709240D01*
X194564180Y-57403619D01*
X194441961Y-57108556D01*
X194291409Y-56826894D01*
X194291398Y-56826877D01*
X194113987Y-56561361D01*
X194113980Y-56561351D01*
X194113975Y-56561344D01*
X193911366Y-56314465D01*
X193911365Y-56314464D01*
X193911361Y-56314459D01*
X193685540Y-56088638D01*
X193438661Y-55886029D01*
X193438638Y-55886012D01*
X193173122Y-55708601D01*
X193173094Y-55708584D01*
X192891451Y-55558042D01*
X192891446Y-55558040D01*
X192596382Y-55435820D01*
X192290754Y-55343109D01*
X191977521Y-55280803D01*
X191977522Y-55280803D01*
X191738141Y-55257227D01*
X191659687Y-55249500D01*
X191340313Y-55249500D01*
X191267822Y-55256639D01*
X191022477Y-55280803D01*
X190709245Y-55343109D01*
X190403617Y-55435820D01*
X190108553Y-55558040D01*
X190108548Y-55558042D01*
X189826905Y-55708584D01*
X189826877Y-55708601D01*
X189561361Y-55886012D01*
X189561338Y-55886029D01*
X189314459Y-56088638D01*
X189088638Y-56314459D01*
X188886029Y-56561338D01*
X188886012Y-56561361D01*
X188708601Y-56826877D01*
X188708584Y-56826905D01*
X188558042Y-57108548D01*
X188558040Y-57108553D01*
X188435820Y-57403617D01*
X188343109Y-57709245D01*
X188280803Y-58022477D01*
X188249500Y-58340316D01*
X186500500Y-58340316D01*
X186500500Y-55504427D01*
X186500816Y-55495581D01*
X186515130Y-55295443D01*
X186515131Y-55295434D01*
X186517646Y-55277938D01*
X186559356Y-55086200D01*
X186564335Y-55069242D01*
X186632911Y-54885382D01*
X186640251Y-54869310D01*
X186734294Y-54697083D01*
X186743850Y-54682214D01*
X186861443Y-54525128D01*
X186873017Y-54511771D01*
X187011771Y-54373017D01*
X187025128Y-54361443D01*
X187182214Y-54243850D01*
X187197083Y-54234294D01*
X187369310Y-54140251D01*
X187385382Y-54132911D01*
X187569242Y-54064335D01*
X187586200Y-54059356D01*
X187777938Y-54017646D01*
X187795436Y-54015130D01*
X187995582Y-54000816D01*
X188004428Y-54000500D01*
X188065892Y-54000500D01*
X235934108Y-54000500D01*
X235995572Y-54000500D01*
X236004418Y-54000816D01*
G37*
%TD.AperFunction*%
%TD*%
M02*
