%TF.GenerationSoftware,KiCad,Pcbnew,10.0.4*%
%TF.CreationDate,2026-07-03T13:19:27+08:00*%
%TF.ProjectId,display_breakout_small,64697370-6c61-4795-9f62-7265616b6f75,rev?*%
%TF.SameCoordinates,Original*%
%TF.FileFunction,Legend,Top*%
%TF.FilePolarity,Positive*%
%FSLAX46Y46*%
G04 Gerber Fmt 4.6, Leading zero omitted, Abs format (unit mm)*
G04 Created by KiCad (PCBNEW 10.0.4) date 2026-07-03 13:19:27*
%MOMM*%
%LPD*%
G01*
G04 APERTURE LIST*
%ADD10C,0.100000*%
%ADD11C,0.150000*%
%ADD12C,0.120000*%
G04 APERTURE END LIST*
D10*
X195500000Y-57500000D02*
X211000000Y-57500000D01*
X210830000Y-112500000D02*
X196500000Y-112500000D01*
X211000000Y-57500000D02*
X210830000Y-112500000D01*
X212803884Y-55628721D02*
X213137217Y-55628721D01*
X213280074Y-56152531D02*
X212803884Y-56152531D01*
X212803884Y-56152531D02*
X212803884Y-55152531D01*
X212803884Y-55152531D02*
X213280074Y-55152531D01*
X213708646Y-56152531D02*
X213708646Y-55152531D01*
X213708646Y-55152531D02*
X214041979Y-55866816D01*
X214041979Y-55866816D02*
X214375312Y-55152531D01*
X214375312Y-55152531D02*
X214375312Y-56152531D01*
X215184836Y-55628721D02*
X215327693Y-55676340D01*
X215327693Y-55676340D02*
X215375312Y-55723959D01*
X215375312Y-55723959D02*
X215422931Y-55819197D01*
X215422931Y-55819197D02*
X215422931Y-55962054D01*
X215422931Y-55962054D02*
X215375312Y-56057292D01*
X215375312Y-56057292D02*
X215327693Y-56104912D01*
X215327693Y-56104912D02*
X215232455Y-56152531D01*
X215232455Y-56152531D02*
X214851503Y-56152531D01*
X214851503Y-56152531D02*
X214851503Y-55152531D01*
X214851503Y-55152531D02*
X215184836Y-55152531D01*
X215184836Y-55152531D02*
X215280074Y-55200150D01*
X215280074Y-55200150D02*
X215327693Y-55247769D01*
X215327693Y-55247769D02*
X215375312Y-55343007D01*
X215375312Y-55343007D02*
X215375312Y-55438245D01*
X215375312Y-55438245D02*
X215327693Y-55533483D01*
X215327693Y-55533483D02*
X215280074Y-55581102D01*
X215280074Y-55581102D02*
X215184836Y-55628721D01*
X215184836Y-55628721D02*
X214851503Y-55628721D01*
X216041979Y-55152531D02*
X216232455Y-55152531D01*
X216232455Y-55152531D02*
X216327693Y-55200150D01*
X216327693Y-55200150D02*
X216422931Y-55295388D01*
X216422931Y-55295388D02*
X216470550Y-55485864D01*
X216470550Y-55485864D02*
X216470550Y-55819197D01*
X216470550Y-55819197D02*
X216422931Y-56009673D01*
X216422931Y-56009673D02*
X216327693Y-56104912D01*
X216327693Y-56104912D02*
X216232455Y-56152531D01*
X216232455Y-56152531D02*
X216041979Y-56152531D01*
X216041979Y-56152531D02*
X215946741Y-56104912D01*
X215946741Y-56104912D02*
X215851503Y-56009673D01*
X215851503Y-56009673D02*
X215803884Y-55819197D01*
X215803884Y-55819197D02*
X215803884Y-55485864D01*
X215803884Y-55485864D02*
X215851503Y-55295388D01*
X215851503Y-55295388D02*
X215946741Y-55200150D01*
X215946741Y-55200150D02*
X216041979Y-55152531D01*
X213232455Y-57762475D02*
X213232455Y-56762475D01*
X213232455Y-57714856D02*
X213137217Y-57762475D01*
X213137217Y-57762475D02*
X212946741Y-57762475D01*
X212946741Y-57762475D02*
X212851503Y-57714856D01*
X212851503Y-57714856D02*
X212803884Y-57667236D01*
X212803884Y-57667236D02*
X212756265Y-57571998D01*
X212756265Y-57571998D02*
X212756265Y-57286284D01*
X212756265Y-57286284D02*
X212803884Y-57191046D01*
X212803884Y-57191046D02*
X212851503Y-57143427D01*
X212851503Y-57143427D02*
X212946741Y-57095808D01*
X212946741Y-57095808D02*
X213137217Y-57095808D01*
X213137217Y-57095808D02*
X213232455Y-57143427D01*
X213708646Y-57762475D02*
X213708646Y-57095808D01*
X213708646Y-56762475D02*
X213661027Y-56810094D01*
X213661027Y-56810094D02*
X213708646Y-56857713D01*
X213708646Y-56857713D02*
X213756265Y-56810094D01*
X213756265Y-56810094D02*
X213708646Y-56762475D01*
X213708646Y-56762475D02*
X213708646Y-56857713D01*
X214137217Y-57714856D02*
X214232455Y-57762475D01*
X214232455Y-57762475D02*
X214422931Y-57762475D01*
X214422931Y-57762475D02*
X214518169Y-57714856D01*
X214518169Y-57714856D02*
X214565788Y-57619617D01*
X214565788Y-57619617D02*
X214565788Y-57571998D01*
X214565788Y-57571998D02*
X214518169Y-57476760D01*
X214518169Y-57476760D02*
X214422931Y-57429141D01*
X214422931Y-57429141D02*
X214280074Y-57429141D01*
X214280074Y-57429141D02*
X214184836Y-57381522D01*
X214184836Y-57381522D02*
X214137217Y-57286284D01*
X214137217Y-57286284D02*
X214137217Y-57238665D01*
X214137217Y-57238665D02*
X214184836Y-57143427D01*
X214184836Y-57143427D02*
X214280074Y-57095808D01*
X214280074Y-57095808D02*
X214422931Y-57095808D01*
X214422931Y-57095808D02*
X214518169Y-57143427D01*
X214994360Y-57095808D02*
X214994360Y-58095808D01*
X214994360Y-57143427D02*
X215089598Y-57095808D01*
X215089598Y-57095808D02*
X215280074Y-57095808D01*
X215280074Y-57095808D02*
X215375312Y-57143427D01*
X215375312Y-57143427D02*
X215422931Y-57191046D01*
X215422931Y-57191046D02*
X215470550Y-57286284D01*
X215470550Y-57286284D02*
X215470550Y-57571998D01*
X215470550Y-57571998D02*
X215422931Y-57667236D01*
X215422931Y-57667236D02*
X215375312Y-57714856D01*
X215375312Y-57714856D02*
X215280074Y-57762475D01*
X215280074Y-57762475D02*
X215089598Y-57762475D01*
X215089598Y-57762475D02*
X214994360Y-57714856D01*
X216041979Y-57762475D02*
X215946741Y-57714856D01*
X215946741Y-57714856D02*
X215899122Y-57619617D01*
X215899122Y-57619617D02*
X215899122Y-56762475D01*
X216851503Y-57762475D02*
X216851503Y-57238665D01*
X216851503Y-57238665D02*
X216803884Y-57143427D01*
X216803884Y-57143427D02*
X216708646Y-57095808D01*
X216708646Y-57095808D02*
X216518170Y-57095808D01*
X216518170Y-57095808D02*
X216422932Y-57143427D01*
X216851503Y-57714856D02*
X216756265Y-57762475D01*
X216756265Y-57762475D02*
X216518170Y-57762475D01*
X216518170Y-57762475D02*
X216422932Y-57714856D01*
X216422932Y-57714856D02*
X216375313Y-57619617D01*
X216375313Y-57619617D02*
X216375313Y-57524379D01*
X216375313Y-57524379D02*
X216422932Y-57429141D01*
X216422932Y-57429141D02*
X216518170Y-57381522D01*
X216518170Y-57381522D02*
X216756265Y-57381522D01*
X216756265Y-57381522D02*
X216851503Y-57333903D01*
X217232456Y-57095808D02*
X217470551Y-57762475D01*
X217708646Y-57095808D02*
X217470551Y-57762475D01*
X217470551Y-57762475D02*
X217375313Y-58000570D01*
X217375313Y-58000570D02*
X217327694Y-58048189D01*
X217327694Y-58048189D02*
X217232456Y-58095808D01*
X217851504Y-57857713D02*
X218613408Y-57857713D01*
X218851504Y-57762475D02*
X218851504Y-56762475D01*
X218851504Y-57143427D02*
X218946742Y-57095808D01*
X218946742Y-57095808D02*
X219137218Y-57095808D01*
X219137218Y-57095808D02*
X219232456Y-57143427D01*
X219232456Y-57143427D02*
X219280075Y-57191046D01*
X219280075Y-57191046D02*
X219327694Y-57286284D01*
X219327694Y-57286284D02*
X219327694Y-57571998D01*
X219327694Y-57571998D02*
X219280075Y-57667236D01*
X219280075Y-57667236D02*
X219232456Y-57714856D01*
X219232456Y-57714856D02*
X219137218Y-57762475D01*
X219137218Y-57762475D02*
X218946742Y-57762475D01*
X218946742Y-57762475D02*
X218851504Y-57714856D01*
X219756266Y-57762475D02*
X219756266Y-57095808D01*
X219756266Y-57286284D02*
X219803885Y-57191046D01*
X219803885Y-57191046D02*
X219851504Y-57143427D01*
X219851504Y-57143427D02*
X219946742Y-57095808D01*
X219946742Y-57095808D02*
X220041980Y-57095808D01*
X220756266Y-57714856D02*
X220661028Y-57762475D01*
X220661028Y-57762475D02*
X220470552Y-57762475D01*
X220470552Y-57762475D02*
X220375314Y-57714856D01*
X220375314Y-57714856D02*
X220327695Y-57619617D01*
X220327695Y-57619617D02*
X220327695Y-57238665D01*
X220327695Y-57238665D02*
X220375314Y-57143427D01*
X220375314Y-57143427D02*
X220470552Y-57095808D01*
X220470552Y-57095808D02*
X220661028Y-57095808D01*
X220661028Y-57095808D02*
X220756266Y-57143427D01*
X220756266Y-57143427D02*
X220803885Y-57238665D01*
X220803885Y-57238665D02*
X220803885Y-57333903D01*
X220803885Y-57333903D02*
X220327695Y-57429141D01*
X221661028Y-57762475D02*
X221661028Y-57238665D01*
X221661028Y-57238665D02*
X221613409Y-57143427D01*
X221613409Y-57143427D02*
X221518171Y-57095808D01*
X221518171Y-57095808D02*
X221327695Y-57095808D01*
X221327695Y-57095808D02*
X221232457Y-57143427D01*
X221661028Y-57714856D02*
X221565790Y-57762475D01*
X221565790Y-57762475D02*
X221327695Y-57762475D01*
X221327695Y-57762475D02*
X221232457Y-57714856D01*
X221232457Y-57714856D02*
X221184838Y-57619617D01*
X221184838Y-57619617D02*
X221184838Y-57524379D01*
X221184838Y-57524379D02*
X221232457Y-57429141D01*
X221232457Y-57429141D02*
X221327695Y-57381522D01*
X221327695Y-57381522D02*
X221565790Y-57381522D01*
X221565790Y-57381522D02*
X221661028Y-57333903D01*
X222137219Y-57762475D02*
X222137219Y-56762475D01*
X222232457Y-57381522D02*
X222518171Y-57762475D01*
X222518171Y-57095808D02*
X222137219Y-57476760D01*
X223089600Y-57762475D02*
X222994362Y-57714856D01*
X222994362Y-57714856D02*
X222946743Y-57667236D01*
X222946743Y-57667236D02*
X222899124Y-57571998D01*
X222899124Y-57571998D02*
X222899124Y-57286284D01*
X222899124Y-57286284D02*
X222946743Y-57191046D01*
X222946743Y-57191046D02*
X222994362Y-57143427D01*
X222994362Y-57143427D02*
X223089600Y-57095808D01*
X223089600Y-57095808D02*
X223232457Y-57095808D01*
X223232457Y-57095808D02*
X223327695Y-57143427D01*
X223327695Y-57143427D02*
X223375314Y-57191046D01*
X223375314Y-57191046D02*
X223422933Y-57286284D01*
X223422933Y-57286284D02*
X223422933Y-57571998D01*
X223422933Y-57571998D02*
X223375314Y-57667236D01*
X223375314Y-57667236D02*
X223327695Y-57714856D01*
X223327695Y-57714856D02*
X223232457Y-57762475D01*
X223232457Y-57762475D02*
X223089600Y-57762475D01*
X224280076Y-57095808D02*
X224280076Y-57762475D01*
X223851505Y-57095808D02*
X223851505Y-57619617D01*
X223851505Y-57619617D02*
X223899124Y-57714856D01*
X223899124Y-57714856D02*
X223994362Y-57762475D01*
X223994362Y-57762475D02*
X224137219Y-57762475D01*
X224137219Y-57762475D02*
X224232457Y-57714856D01*
X224232457Y-57714856D02*
X224280076Y-57667236D01*
X224613410Y-57095808D02*
X224994362Y-57095808D01*
X224756267Y-56762475D02*
X224756267Y-57619617D01*
X224756267Y-57619617D02*
X224803886Y-57714856D01*
X224803886Y-57714856D02*
X224899124Y-57762475D01*
X224899124Y-57762475D02*
X224994362Y-57762475D01*
X225089601Y-57857713D02*
X225851505Y-57857713D01*
X226661029Y-57762475D02*
X226327696Y-57286284D01*
X226089601Y-57762475D02*
X226089601Y-56762475D01*
X226089601Y-56762475D02*
X226470553Y-56762475D01*
X226470553Y-56762475D02*
X226565791Y-56810094D01*
X226565791Y-56810094D02*
X226613410Y-56857713D01*
X226613410Y-56857713D02*
X226661029Y-56952951D01*
X226661029Y-56952951D02*
X226661029Y-57095808D01*
X226661029Y-57095808D02*
X226613410Y-57191046D01*
X226613410Y-57191046D02*
X226565791Y-57238665D01*
X226565791Y-57238665D02*
X226470553Y-57286284D01*
X226470553Y-57286284D02*
X226089601Y-57286284D01*
X227613410Y-57762475D02*
X227041982Y-57762475D01*
X227327696Y-57762475D02*
X227327696Y-56762475D01*
X227327696Y-56762475D02*
X227232458Y-56905332D01*
X227232458Y-56905332D02*
X227137220Y-57000570D01*
X227137220Y-57000570D02*
X227041982Y-57048189D01*
X212803884Y-59372419D02*
X212803884Y-58372419D01*
X212803884Y-58753371D02*
X212899122Y-58705752D01*
X212899122Y-58705752D02*
X213089598Y-58705752D01*
X213089598Y-58705752D02*
X213184836Y-58753371D01*
X213184836Y-58753371D02*
X213232455Y-58800990D01*
X213232455Y-58800990D02*
X213280074Y-58896228D01*
X213280074Y-58896228D02*
X213280074Y-59181942D01*
X213280074Y-59181942D02*
X213232455Y-59277180D01*
X213232455Y-59277180D02*
X213184836Y-59324800D01*
X213184836Y-59324800D02*
X213089598Y-59372419D01*
X213089598Y-59372419D02*
X212899122Y-59372419D01*
X212899122Y-59372419D02*
X212803884Y-59324800D01*
X213613408Y-58705752D02*
X213851503Y-59372419D01*
X214089598Y-58705752D02*
X213851503Y-59372419D01*
X213851503Y-59372419D02*
X213756265Y-59610514D01*
X213756265Y-59610514D02*
X213708646Y-59658133D01*
X213708646Y-59658133D02*
X213613408Y-59705752D01*
X215089599Y-58372419D02*
X215661027Y-58372419D01*
X215375313Y-59372419D02*
X215375313Y-58372419D01*
X216375313Y-59324800D02*
X216280075Y-59372419D01*
X216280075Y-59372419D02*
X216089599Y-59372419D01*
X216089599Y-59372419D02*
X215994361Y-59324800D01*
X215994361Y-59324800D02*
X215946742Y-59229561D01*
X215946742Y-59229561D02*
X215946742Y-58848609D01*
X215946742Y-58848609D02*
X215994361Y-58753371D01*
X215994361Y-58753371D02*
X216089599Y-58705752D01*
X216089599Y-58705752D02*
X216280075Y-58705752D01*
X216280075Y-58705752D02*
X216375313Y-58753371D01*
X216375313Y-58753371D02*
X216422932Y-58848609D01*
X216422932Y-58848609D02*
X216422932Y-58943847D01*
X216422932Y-58943847D02*
X215946742Y-59039085D01*
X217280075Y-59372419D02*
X217280075Y-58848609D01*
X217280075Y-58848609D02*
X217232456Y-58753371D01*
X217232456Y-58753371D02*
X217137218Y-58705752D01*
X217137218Y-58705752D02*
X216946742Y-58705752D01*
X216946742Y-58705752D02*
X216851504Y-58753371D01*
X217280075Y-59324800D02*
X217184837Y-59372419D01*
X217184837Y-59372419D02*
X216946742Y-59372419D01*
X216946742Y-59372419D02*
X216851504Y-59324800D01*
X216851504Y-59324800D02*
X216803885Y-59229561D01*
X216803885Y-59229561D02*
X216803885Y-59134323D01*
X216803885Y-59134323D02*
X216851504Y-59039085D01*
X216851504Y-59039085D02*
X216946742Y-58991466D01*
X216946742Y-58991466D02*
X217184837Y-58991466D01*
X217184837Y-58991466D02*
X217280075Y-58943847D01*
X217756266Y-59372419D02*
X217756266Y-58705752D01*
X217756266Y-58800990D02*
X217803885Y-58753371D01*
X217803885Y-58753371D02*
X217899123Y-58705752D01*
X217899123Y-58705752D02*
X218041980Y-58705752D01*
X218041980Y-58705752D02*
X218137218Y-58753371D01*
X218137218Y-58753371D02*
X218184837Y-58848609D01*
X218184837Y-58848609D02*
X218184837Y-59372419D01*
X218184837Y-58848609D02*
X218232456Y-58753371D01*
X218232456Y-58753371D02*
X218327694Y-58705752D01*
X218327694Y-58705752D02*
X218470551Y-58705752D01*
X218470551Y-58705752D02*
X218565790Y-58753371D01*
X218565790Y-58753371D02*
X218613409Y-58848609D01*
X218613409Y-58848609D02*
X218613409Y-59372419D01*
X219803885Y-59086704D02*
X220280075Y-59086704D01*
X219708647Y-59372419D02*
X220041980Y-58372419D01*
X220041980Y-58372419D02*
X220375313Y-59372419D01*
X221518171Y-59372419D02*
X221470552Y-59372419D01*
X221470552Y-59372419D02*
X221375313Y-59324800D01*
X221375313Y-59324800D02*
X221232456Y-59181942D01*
X221232456Y-59181942D02*
X220994361Y-58896228D01*
X220994361Y-58896228D02*
X220899123Y-58753371D01*
X220899123Y-58753371D02*
X220851504Y-58610514D01*
X220851504Y-58610514D02*
X220851504Y-58515276D01*
X220851504Y-58515276D02*
X220899123Y-58420038D01*
X220899123Y-58420038D02*
X220994361Y-58372419D01*
X220994361Y-58372419D02*
X221041980Y-58372419D01*
X221041980Y-58372419D02*
X221137218Y-58420038D01*
X221137218Y-58420038D02*
X221184837Y-58515276D01*
X221184837Y-58515276D02*
X221184837Y-58562895D01*
X221184837Y-58562895D02*
X221137218Y-58658133D01*
X221137218Y-58658133D02*
X221089599Y-58705752D01*
X221089599Y-58705752D02*
X220803885Y-58896228D01*
X220803885Y-58896228D02*
X220756266Y-58943847D01*
X220756266Y-58943847D02*
X220708647Y-59039085D01*
X220708647Y-59039085D02*
X220708647Y-59181942D01*
X220708647Y-59181942D02*
X220756266Y-59277180D01*
X220756266Y-59277180D02*
X220803885Y-59324800D01*
X220803885Y-59324800D02*
X220899123Y-59372419D01*
X220899123Y-59372419D02*
X221041980Y-59372419D01*
X221041980Y-59372419D02*
X221137218Y-59324800D01*
X221137218Y-59324800D02*
X221184837Y-59277180D01*
X221184837Y-59277180D02*
X221327694Y-59086704D01*
X221327694Y-59086704D02*
X221375313Y-58943847D01*
X221375313Y-58943847D02*
X221375313Y-58848609D01*
X222518170Y-59277180D02*
X222470551Y-59324800D01*
X222470551Y-59324800D02*
X222327694Y-59372419D01*
X222327694Y-59372419D02*
X222232456Y-59372419D01*
X222232456Y-59372419D02*
X222089599Y-59324800D01*
X222089599Y-59324800D02*
X221994361Y-59229561D01*
X221994361Y-59229561D02*
X221946742Y-59134323D01*
X221946742Y-59134323D02*
X221899123Y-58943847D01*
X221899123Y-58943847D02*
X221899123Y-58800990D01*
X221899123Y-58800990D02*
X221946742Y-58610514D01*
X221946742Y-58610514D02*
X221994361Y-58515276D01*
X221994361Y-58515276D02*
X222089599Y-58420038D01*
X222089599Y-58420038D02*
X222232456Y-58372419D01*
X222232456Y-58372419D02*
X222327694Y-58372419D01*
X222327694Y-58372419D02*
X222470551Y-58420038D01*
X222470551Y-58420038D02*
X222518170Y-58467657D01*
D11*
X214833333Y-77284819D02*
X214500000Y-76808628D01*
X214261905Y-77284819D02*
X214261905Y-76284819D01*
X214261905Y-76284819D02*
X214642857Y-76284819D01*
X214642857Y-76284819D02*
X214738095Y-76332438D01*
X214738095Y-76332438D02*
X214785714Y-76380057D01*
X214785714Y-76380057D02*
X214833333Y-76475295D01*
X214833333Y-76475295D02*
X214833333Y-76618152D01*
X214833333Y-76618152D02*
X214785714Y-76713390D01*
X214785714Y-76713390D02*
X214738095Y-76761009D01*
X214738095Y-76761009D02*
X214642857Y-76808628D01*
X214642857Y-76808628D02*
X214261905Y-76808628D01*
X215214286Y-76380057D02*
X215261905Y-76332438D01*
X215261905Y-76332438D02*
X215357143Y-76284819D01*
X215357143Y-76284819D02*
X215595238Y-76284819D01*
X215595238Y-76284819D02*
X215690476Y-76332438D01*
X215690476Y-76332438D02*
X215738095Y-76380057D01*
X215738095Y-76380057D02*
X215785714Y-76475295D01*
X215785714Y-76475295D02*
X215785714Y-76570533D01*
X215785714Y-76570533D02*
X215738095Y-76713390D01*
X215738095Y-76713390D02*
X215166667Y-77284819D01*
X215166667Y-77284819D02*
X215785714Y-77284819D01*
X215842261Y-75950057D02*
X215747023Y-75902438D01*
X215747023Y-75902438D02*
X215651785Y-75807200D01*
X215651785Y-75807200D02*
X215508928Y-75664342D01*
X215508928Y-75664342D02*
X215413690Y-75616723D01*
X215413690Y-75616723D02*
X215318452Y-75616723D01*
X215366071Y-75854819D02*
X215270833Y-75807200D01*
X215270833Y-75807200D02*
X215175595Y-75711961D01*
X215175595Y-75711961D02*
X215127976Y-75521485D01*
X215127976Y-75521485D02*
X215127976Y-75188152D01*
X215127976Y-75188152D02*
X215175595Y-74997676D01*
X215175595Y-74997676D02*
X215270833Y-74902438D01*
X215270833Y-74902438D02*
X215366071Y-74854819D01*
X215366071Y-74854819D02*
X215556547Y-74854819D01*
X215556547Y-74854819D02*
X215651785Y-74902438D01*
X215651785Y-74902438D02*
X215747023Y-74997676D01*
X215747023Y-74997676D02*
X215794642Y-75188152D01*
X215794642Y-75188152D02*
X215794642Y-75521485D01*
X215794642Y-75521485D02*
X215747023Y-75711961D01*
X215747023Y-75711961D02*
X215651785Y-75807200D01*
X215651785Y-75807200D02*
X215556547Y-75854819D01*
X215556547Y-75854819D02*
X215366071Y-75854819D01*
X216747023Y-75854819D02*
X216175595Y-75854819D01*
X216461309Y-75854819D02*
X216461309Y-74854819D01*
X216461309Y-74854819D02*
X216366071Y-74997676D01*
X216366071Y-74997676D02*
X216270833Y-75092914D01*
X216270833Y-75092914D02*
X216175595Y-75140533D01*
X214400833Y-107519580D02*
X214353214Y-107567200D01*
X214353214Y-107567200D02*
X214210357Y-107614819D01*
X214210357Y-107614819D02*
X214115119Y-107614819D01*
X214115119Y-107614819D02*
X213972262Y-107567200D01*
X213972262Y-107567200D02*
X213877024Y-107471961D01*
X213877024Y-107471961D02*
X213829405Y-107376723D01*
X213829405Y-107376723D02*
X213781786Y-107186247D01*
X213781786Y-107186247D02*
X213781786Y-107043390D01*
X213781786Y-107043390D02*
X213829405Y-106852914D01*
X213829405Y-106852914D02*
X213877024Y-106757676D01*
X213877024Y-106757676D02*
X213972262Y-106662438D01*
X213972262Y-106662438D02*
X214115119Y-106614819D01*
X214115119Y-106614819D02*
X214210357Y-106614819D01*
X214210357Y-106614819D02*
X214353214Y-106662438D01*
X214353214Y-106662438D02*
X214400833Y-106710057D01*
X215305595Y-106614819D02*
X214829405Y-106614819D01*
X214829405Y-106614819D02*
X214781786Y-107091009D01*
X214781786Y-107091009D02*
X214829405Y-107043390D01*
X214829405Y-107043390D02*
X214924643Y-106995771D01*
X214924643Y-106995771D02*
X215162738Y-106995771D01*
X215162738Y-106995771D02*
X215257976Y-107043390D01*
X215257976Y-107043390D02*
X215305595Y-107091009D01*
X215305595Y-107091009D02*
X215353214Y-107186247D01*
X215353214Y-107186247D02*
X215353214Y-107424342D01*
X215353214Y-107424342D02*
X215305595Y-107519580D01*
X215305595Y-107519580D02*
X215257976Y-107567200D01*
X215257976Y-107567200D02*
X215162738Y-107614819D01*
X215162738Y-107614819D02*
X214924643Y-107614819D01*
X214924643Y-107614819D02*
X214829405Y-107567200D01*
X214829405Y-107567200D02*
X214781786Y-107519580D01*
X223916667Y-92607200D02*
X224059524Y-92654819D01*
X224059524Y-92654819D02*
X224297619Y-92654819D01*
X224297619Y-92654819D02*
X224392857Y-92607200D01*
X224392857Y-92607200D02*
X224440476Y-92559580D01*
X224440476Y-92559580D02*
X224488095Y-92464342D01*
X224488095Y-92464342D02*
X224488095Y-92369104D01*
X224488095Y-92369104D02*
X224440476Y-92273866D01*
X224440476Y-92273866D02*
X224392857Y-92226247D01*
X224392857Y-92226247D02*
X224297619Y-92178628D01*
X224297619Y-92178628D02*
X224107143Y-92131009D01*
X224107143Y-92131009D02*
X224011905Y-92083390D01*
X224011905Y-92083390D02*
X223964286Y-92035771D01*
X223964286Y-92035771D02*
X223916667Y-91940533D01*
X223916667Y-91940533D02*
X223916667Y-91845295D01*
X223916667Y-91845295D02*
X223964286Y-91750057D01*
X223964286Y-91750057D02*
X224011905Y-91702438D01*
X224011905Y-91702438D02*
X224107143Y-91654819D01*
X224107143Y-91654819D02*
X224345238Y-91654819D01*
X224345238Y-91654819D02*
X224488095Y-91702438D01*
X224821429Y-91654819D02*
X225059524Y-92654819D01*
X225059524Y-92654819D02*
X225250000Y-91940533D01*
X225250000Y-91940533D02*
X225440476Y-92654819D01*
X225440476Y-92654819D02*
X225678572Y-91654819D01*
X226011905Y-91750057D02*
X226059524Y-91702438D01*
X226059524Y-91702438D02*
X226154762Y-91654819D01*
X226154762Y-91654819D02*
X226392857Y-91654819D01*
X226392857Y-91654819D02*
X226488095Y-91702438D01*
X226488095Y-91702438D02*
X226535714Y-91750057D01*
X226535714Y-91750057D02*
X226583333Y-91845295D01*
X226583333Y-91845295D02*
X226583333Y-91940533D01*
X226583333Y-91940533D02*
X226535714Y-92083390D01*
X226535714Y-92083390D02*
X225964286Y-92654819D01*
X225964286Y-92654819D02*
X226583333Y-92654819D01*
X217430833Y-94124819D02*
X217097500Y-93648628D01*
X216859405Y-94124819D02*
X216859405Y-93124819D01*
X216859405Y-93124819D02*
X217240357Y-93124819D01*
X217240357Y-93124819D02*
X217335595Y-93172438D01*
X217335595Y-93172438D02*
X217383214Y-93220057D01*
X217383214Y-93220057D02*
X217430833Y-93315295D01*
X217430833Y-93315295D02*
X217430833Y-93458152D01*
X217430833Y-93458152D02*
X217383214Y-93553390D01*
X217383214Y-93553390D02*
X217335595Y-93601009D01*
X217335595Y-93601009D02*
X217240357Y-93648628D01*
X217240357Y-93648628D02*
X216859405Y-93648628D01*
X217764167Y-93124819D02*
X218383214Y-93124819D01*
X218383214Y-93124819D02*
X218049881Y-93505771D01*
X218049881Y-93505771D02*
X218192738Y-93505771D01*
X218192738Y-93505771D02*
X218287976Y-93553390D01*
X218287976Y-93553390D02*
X218335595Y-93601009D01*
X218335595Y-93601009D02*
X218383214Y-93696247D01*
X218383214Y-93696247D02*
X218383214Y-93934342D01*
X218383214Y-93934342D02*
X218335595Y-94029580D01*
X218335595Y-94029580D02*
X218287976Y-94077200D01*
X218287976Y-94077200D02*
X218192738Y-94124819D01*
X218192738Y-94124819D02*
X217907024Y-94124819D01*
X217907024Y-94124819D02*
X217811786Y-94077200D01*
X217811786Y-94077200D02*
X217764167Y-94029580D01*
X217235833Y-106124819D02*
X216902500Y-105648628D01*
X216664405Y-106124819D02*
X216664405Y-105124819D01*
X216664405Y-105124819D02*
X217045357Y-105124819D01*
X217045357Y-105124819D02*
X217140595Y-105172438D01*
X217140595Y-105172438D02*
X217188214Y-105220057D01*
X217188214Y-105220057D02*
X217235833Y-105315295D01*
X217235833Y-105315295D02*
X217235833Y-105458152D01*
X217235833Y-105458152D02*
X217188214Y-105553390D01*
X217188214Y-105553390D02*
X217140595Y-105601009D01*
X217140595Y-105601009D02*
X217045357Y-105648628D01*
X217045357Y-105648628D02*
X216664405Y-105648628D01*
X217569167Y-105124819D02*
X218235833Y-105124819D01*
X218235833Y-105124819D02*
X217807262Y-106124819D01*
X214203333Y-111379580D02*
X214155714Y-111427200D01*
X214155714Y-111427200D02*
X214012857Y-111474819D01*
X214012857Y-111474819D02*
X213917619Y-111474819D01*
X213917619Y-111474819D02*
X213774762Y-111427200D01*
X213774762Y-111427200D02*
X213679524Y-111331961D01*
X213679524Y-111331961D02*
X213631905Y-111236723D01*
X213631905Y-111236723D02*
X213584286Y-111046247D01*
X213584286Y-111046247D02*
X213584286Y-110903390D01*
X213584286Y-110903390D02*
X213631905Y-110712914D01*
X213631905Y-110712914D02*
X213679524Y-110617676D01*
X213679524Y-110617676D02*
X213774762Y-110522438D01*
X213774762Y-110522438D02*
X213917619Y-110474819D01*
X213917619Y-110474819D02*
X214012857Y-110474819D01*
X214012857Y-110474819D02*
X214155714Y-110522438D01*
X214155714Y-110522438D02*
X214203333Y-110570057D01*
X215060476Y-110808152D02*
X215060476Y-111474819D01*
X214822381Y-110427200D02*
X214584286Y-111141485D01*
X214584286Y-111141485D02*
X215203333Y-111141485D01*
X232631009Y-67680952D02*
X232678628Y-67538095D01*
X232678628Y-67538095D02*
X232726247Y-67490476D01*
X232726247Y-67490476D02*
X232821485Y-67442857D01*
X232821485Y-67442857D02*
X232964342Y-67442857D01*
X232964342Y-67442857D02*
X233059580Y-67490476D01*
X233059580Y-67490476D02*
X233107200Y-67538095D01*
X233107200Y-67538095D02*
X233154819Y-67633333D01*
X233154819Y-67633333D02*
X233154819Y-68014285D01*
X233154819Y-68014285D02*
X232154819Y-68014285D01*
X232154819Y-68014285D02*
X232154819Y-67680952D01*
X232154819Y-67680952D02*
X232202438Y-67585714D01*
X232202438Y-67585714D02*
X232250057Y-67538095D01*
X232250057Y-67538095D02*
X232345295Y-67490476D01*
X232345295Y-67490476D02*
X232440533Y-67490476D01*
X232440533Y-67490476D02*
X232535771Y-67538095D01*
X232535771Y-67538095D02*
X232583390Y-67585714D01*
X232583390Y-67585714D02*
X232631009Y-67680952D01*
X232631009Y-67680952D02*
X232631009Y-68014285D01*
X232154819Y-67109523D02*
X232154819Y-66442857D01*
X232154819Y-66442857D02*
X233154819Y-67109523D01*
X233154819Y-67109523D02*
X233154819Y-66442857D01*
X233154819Y-65538095D02*
X233154819Y-66109523D01*
X233154819Y-65823809D02*
X232154819Y-65823809D01*
X232154819Y-65823809D02*
X232297676Y-65919047D01*
X232297676Y-65919047D02*
X232392914Y-66014285D01*
X232392914Y-66014285D02*
X232440533Y-66109523D01*
X228113866Y-63370951D02*
X228113866Y-62609047D01*
X228494819Y-62989999D02*
X227732914Y-62989999D01*
X217430833Y-97124819D02*
X217097500Y-96648628D01*
X216859405Y-97124819D02*
X216859405Y-96124819D01*
X216859405Y-96124819D02*
X217240357Y-96124819D01*
X217240357Y-96124819D02*
X217335595Y-96172438D01*
X217335595Y-96172438D02*
X217383214Y-96220057D01*
X217383214Y-96220057D02*
X217430833Y-96315295D01*
X217430833Y-96315295D02*
X217430833Y-96458152D01*
X217430833Y-96458152D02*
X217383214Y-96553390D01*
X217383214Y-96553390D02*
X217335595Y-96601009D01*
X217335595Y-96601009D02*
X217240357Y-96648628D01*
X217240357Y-96648628D02*
X216859405Y-96648628D01*
X218287976Y-96458152D02*
X218287976Y-97124819D01*
X218049881Y-96077200D02*
X217811786Y-96791485D01*
X217811786Y-96791485D02*
X218430833Y-96791485D01*
X209166666Y-65184819D02*
X209166666Y-65899104D01*
X209166666Y-65899104D02*
X209119047Y-66041961D01*
X209119047Y-66041961D02*
X209023809Y-66137200D01*
X209023809Y-66137200D02*
X208880952Y-66184819D01*
X208880952Y-66184819D02*
X208785714Y-66184819D01*
X209595238Y-65280057D02*
X209642857Y-65232438D01*
X209642857Y-65232438D02*
X209738095Y-65184819D01*
X209738095Y-65184819D02*
X209976190Y-65184819D01*
X209976190Y-65184819D02*
X210071428Y-65232438D01*
X210071428Y-65232438D02*
X210119047Y-65280057D01*
X210119047Y-65280057D02*
X210166666Y-65375295D01*
X210166666Y-65375295D02*
X210166666Y-65470533D01*
X210166666Y-65470533D02*
X210119047Y-65613390D01*
X210119047Y-65613390D02*
X209547619Y-66184819D01*
X209547619Y-66184819D02*
X210166666Y-66184819D01*
X223916667Y-102357200D02*
X224059524Y-102404819D01*
X224059524Y-102404819D02*
X224297619Y-102404819D01*
X224297619Y-102404819D02*
X224392857Y-102357200D01*
X224392857Y-102357200D02*
X224440476Y-102309580D01*
X224440476Y-102309580D02*
X224488095Y-102214342D01*
X224488095Y-102214342D02*
X224488095Y-102119104D01*
X224488095Y-102119104D02*
X224440476Y-102023866D01*
X224440476Y-102023866D02*
X224392857Y-101976247D01*
X224392857Y-101976247D02*
X224297619Y-101928628D01*
X224297619Y-101928628D02*
X224107143Y-101881009D01*
X224107143Y-101881009D02*
X224011905Y-101833390D01*
X224011905Y-101833390D02*
X223964286Y-101785771D01*
X223964286Y-101785771D02*
X223916667Y-101690533D01*
X223916667Y-101690533D02*
X223916667Y-101595295D01*
X223916667Y-101595295D02*
X223964286Y-101500057D01*
X223964286Y-101500057D02*
X224011905Y-101452438D01*
X224011905Y-101452438D02*
X224107143Y-101404819D01*
X224107143Y-101404819D02*
X224345238Y-101404819D01*
X224345238Y-101404819D02*
X224488095Y-101452438D01*
X224821429Y-101404819D02*
X225059524Y-102404819D01*
X225059524Y-102404819D02*
X225250000Y-101690533D01*
X225250000Y-101690533D02*
X225440476Y-102404819D01*
X225440476Y-102404819D02*
X225678572Y-101404819D01*
X225964286Y-101404819D02*
X226583333Y-101404819D01*
X226583333Y-101404819D02*
X226250000Y-101785771D01*
X226250000Y-101785771D02*
X226392857Y-101785771D01*
X226392857Y-101785771D02*
X226488095Y-101833390D01*
X226488095Y-101833390D02*
X226535714Y-101881009D01*
X226535714Y-101881009D02*
X226583333Y-101976247D01*
X226583333Y-101976247D02*
X226583333Y-102214342D01*
X226583333Y-102214342D02*
X226535714Y-102309580D01*
X226535714Y-102309580D02*
X226488095Y-102357200D01*
X226488095Y-102357200D02*
X226392857Y-102404819D01*
X226392857Y-102404819D02*
X226107143Y-102404819D01*
X226107143Y-102404819D02*
X226011905Y-102357200D01*
X226011905Y-102357200D02*
X225964286Y-102309580D01*
X217333333Y-110624819D02*
X217000000Y-110148628D01*
X216761905Y-110624819D02*
X216761905Y-109624819D01*
X216761905Y-109624819D02*
X217142857Y-109624819D01*
X217142857Y-109624819D02*
X217238095Y-109672438D01*
X217238095Y-109672438D02*
X217285714Y-109720057D01*
X217285714Y-109720057D02*
X217333333Y-109815295D01*
X217333333Y-109815295D02*
X217333333Y-109958152D01*
X217333333Y-109958152D02*
X217285714Y-110053390D01*
X217285714Y-110053390D02*
X217238095Y-110101009D01*
X217238095Y-110101009D02*
X217142857Y-110148628D01*
X217142857Y-110148628D02*
X216761905Y-110148628D01*
X218190476Y-109624819D02*
X218000000Y-109624819D01*
X218000000Y-109624819D02*
X217904762Y-109672438D01*
X217904762Y-109672438D02*
X217857143Y-109720057D01*
X217857143Y-109720057D02*
X217761905Y-109862914D01*
X217761905Y-109862914D02*
X217714286Y-110053390D01*
X217714286Y-110053390D02*
X217714286Y-110434342D01*
X217714286Y-110434342D02*
X217761905Y-110529580D01*
X217761905Y-110529580D02*
X217809524Y-110577200D01*
X217809524Y-110577200D02*
X217904762Y-110624819D01*
X217904762Y-110624819D02*
X218095238Y-110624819D01*
X218095238Y-110624819D02*
X218190476Y-110577200D01*
X218190476Y-110577200D02*
X218238095Y-110529580D01*
X218238095Y-110529580D02*
X218285714Y-110434342D01*
X218285714Y-110434342D02*
X218285714Y-110196247D01*
X218285714Y-110196247D02*
X218238095Y-110101009D01*
X218238095Y-110101009D02*
X218190476Y-110053390D01*
X218190476Y-110053390D02*
X218095238Y-110005771D01*
X218095238Y-110005771D02*
X217904762Y-110005771D01*
X217904762Y-110005771D02*
X217809524Y-110053390D01*
X217809524Y-110053390D02*
X217761905Y-110101009D01*
X217761905Y-110101009D02*
X217714286Y-110196247D01*
X214203333Y-100819580D02*
X214155714Y-100867200D01*
X214155714Y-100867200D02*
X214012857Y-100914819D01*
X214012857Y-100914819D02*
X213917619Y-100914819D01*
X213917619Y-100914819D02*
X213774762Y-100867200D01*
X213774762Y-100867200D02*
X213679524Y-100771961D01*
X213679524Y-100771961D02*
X213631905Y-100676723D01*
X213631905Y-100676723D02*
X213584286Y-100486247D01*
X213584286Y-100486247D02*
X213584286Y-100343390D01*
X213584286Y-100343390D02*
X213631905Y-100152914D01*
X213631905Y-100152914D02*
X213679524Y-100057676D01*
X213679524Y-100057676D02*
X213774762Y-99962438D01*
X213774762Y-99962438D02*
X213917619Y-99914819D01*
X213917619Y-99914819D02*
X214012857Y-99914819D01*
X214012857Y-99914819D02*
X214155714Y-99962438D01*
X214155714Y-99962438D02*
X214203333Y-100010057D01*
X214536667Y-99914819D02*
X215155714Y-99914819D01*
X215155714Y-99914819D02*
X214822381Y-100295771D01*
X214822381Y-100295771D02*
X214965238Y-100295771D01*
X214965238Y-100295771D02*
X215060476Y-100343390D01*
X215060476Y-100343390D02*
X215108095Y-100391009D01*
X215108095Y-100391009D02*
X215155714Y-100486247D01*
X215155714Y-100486247D02*
X215155714Y-100724342D01*
X215155714Y-100724342D02*
X215108095Y-100819580D01*
X215108095Y-100819580D02*
X215060476Y-100867200D01*
X215060476Y-100867200D02*
X214965238Y-100914819D01*
X214965238Y-100914819D02*
X214679524Y-100914819D01*
X214679524Y-100914819D02*
X214584286Y-100867200D01*
X214584286Y-100867200D02*
X214536667Y-100819580D01*
X217333333Y-99574819D02*
X217000000Y-99098628D01*
X216761905Y-99574819D02*
X216761905Y-98574819D01*
X216761905Y-98574819D02*
X217142857Y-98574819D01*
X217142857Y-98574819D02*
X217238095Y-98622438D01*
X217238095Y-98622438D02*
X217285714Y-98670057D01*
X217285714Y-98670057D02*
X217333333Y-98765295D01*
X217333333Y-98765295D02*
X217333333Y-98908152D01*
X217333333Y-98908152D02*
X217285714Y-99003390D01*
X217285714Y-99003390D02*
X217238095Y-99051009D01*
X217238095Y-99051009D02*
X217142857Y-99098628D01*
X217142857Y-99098628D02*
X216761905Y-99098628D01*
X218238095Y-98574819D02*
X217761905Y-98574819D01*
X217761905Y-98574819D02*
X217714286Y-99051009D01*
X217714286Y-99051009D02*
X217761905Y-99003390D01*
X217761905Y-99003390D02*
X217857143Y-98955771D01*
X217857143Y-98955771D02*
X218095238Y-98955771D01*
X218095238Y-98955771D02*
X218190476Y-99003390D01*
X218190476Y-99003390D02*
X218238095Y-99051009D01*
X218238095Y-99051009D02*
X218285714Y-99146247D01*
X218285714Y-99146247D02*
X218285714Y-99384342D01*
X218285714Y-99384342D02*
X218238095Y-99479580D01*
X218238095Y-99479580D02*
X218190476Y-99527200D01*
X218190476Y-99527200D02*
X218095238Y-99574819D01*
X218095238Y-99574819D02*
X217857143Y-99574819D01*
X217857143Y-99574819D02*
X217761905Y-99527200D01*
X217761905Y-99527200D02*
X217714286Y-99479580D01*
X214203333Y-98309580D02*
X214155714Y-98357200D01*
X214155714Y-98357200D02*
X214012857Y-98404819D01*
X214012857Y-98404819D02*
X213917619Y-98404819D01*
X213917619Y-98404819D02*
X213774762Y-98357200D01*
X213774762Y-98357200D02*
X213679524Y-98261961D01*
X213679524Y-98261961D02*
X213631905Y-98166723D01*
X213631905Y-98166723D02*
X213584286Y-97976247D01*
X213584286Y-97976247D02*
X213584286Y-97833390D01*
X213584286Y-97833390D02*
X213631905Y-97642914D01*
X213631905Y-97642914D02*
X213679524Y-97547676D01*
X213679524Y-97547676D02*
X213774762Y-97452438D01*
X213774762Y-97452438D02*
X213917619Y-97404819D01*
X213917619Y-97404819D02*
X214012857Y-97404819D01*
X214012857Y-97404819D02*
X214155714Y-97452438D01*
X214155714Y-97452438D02*
X214203333Y-97500057D01*
X214584286Y-97500057D02*
X214631905Y-97452438D01*
X214631905Y-97452438D02*
X214727143Y-97404819D01*
X214727143Y-97404819D02*
X214965238Y-97404819D01*
X214965238Y-97404819D02*
X215060476Y-97452438D01*
X215060476Y-97452438D02*
X215108095Y-97500057D01*
X215108095Y-97500057D02*
X215155714Y-97595295D01*
X215155714Y-97595295D02*
X215155714Y-97690533D01*
X215155714Y-97690533D02*
X215108095Y-97833390D01*
X215108095Y-97833390D02*
X214536667Y-98404819D01*
X214536667Y-98404819D02*
X215155714Y-98404819D01*
X214300833Y-95299580D02*
X214253214Y-95347200D01*
X214253214Y-95347200D02*
X214110357Y-95394819D01*
X214110357Y-95394819D02*
X214015119Y-95394819D01*
X214015119Y-95394819D02*
X213872262Y-95347200D01*
X213872262Y-95347200D02*
X213777024Y-95251961D01*
X213777024Y-95251961D02*
X213729405Y-95156723D01*
X213729405Y-95156723D02*
X213681786Y-94966247D01*
X213681786Y-94966247D02*
X213681786Y-94823390D01*
X213681786Y-94823390D02*
X213729405Y-94632914D01*
X213729405Y-94632914D02*
X213777024Y-94537676D01*
X213777024Y-94537676D02*
X213872262Y-94442438D01*
X213872262Y-94442438D02*
X214015119Y-94394819D01*
X214015119Y-94394819D02*
X214110357Y-94394819D01*
X214110357Y-94394819D02*
X214253214Y-94442438D01*
X214253214Y-94442438D02*
X214300833Y-94490057D01*
X215253214Y-95394819D02*
X214681786Y-95394819D01*
X214967500Y-95394819D02*
X214967500Y-94394819D01*
X214967500Y-94394819D02*
X214872262Y-94537676D01*
X214872262Y-94537676D02*
X214777024Y-94632914D01*
X214777024Y-94632914D02*
X214681786Y-94680533D01*
X219466667Y-76107200D02*
X219609524Y-76154819D01*
X219609524Y-76154819D02*
X219847619Y-76154819D01*
X219847619Y-76154819D02*
X219942857Y-76107200D01*
X219942857Y-76107200D02*
X219990476Y-76059580D01*
X219990476Y-76059580D02*
X220038095Y-75964342D01*
X220038095Y-75964342D02*
X220038095Y-75869104D01*
X220038095Y-75869104D02*
X219990476Y-75773866D01*
X219990476Y-75773866D02*
X219942857Y-75726247D01*
X219942857Y-75726247D02*
X219847619Y-75678628D01*
X219847619Y-75678628D02*
X219657143Y-75631009D01*
X219657143Y-75631009D02*
X219561905Y-75583390D01*
X219561905Y-75583390D02*
X219514286Y-75535771D01*
X219514286Y-75535771D02*
X219466667Y-75440533D01*
X219466667Y-75440533D02*
X219466667Y-75345295D01*
X219466667Y-75345295D02*
X219514286Y-75250057D01*
X219514286Y-75250057D02*
X219561905Y-75202438D01*
X219561905Y-75202438D02*
X219657143Y-75154819D01*
X219657143Y-75154819D02*
X219895238Y-75154819D01*
X219895238Y-75154819D02*
X220038095Y-75202438D01*
X220371429Y-75154819D02*
X220609524Y-76154819D01*
X220609524Y-76154819D02*
X220800000Y-75440533D01*
X220800000Y-75440533D02*
X220990476Y-76154819D01*
X220990476Y-76154819D02*
X221228572Y-75154819D01*
X222133333Y-76154819D02*
X221561905Y-76154819D01*
X221847619Y-76154819D02*
X221847619Y-75154819D01*
X221847619Y-75154819D02*
X221752381Y-75297676D01*
X221752381Y-75297676D02*
X221657143Y-75392914D01*
X221657143Y-75392914D02*
X221561905Y-75440533D01*
%TO.C,R2*%
D12*
X214832379Y-77620000D02*
X215167621Y-77620000D01*
X214832379Y-78380000D02*
X215167621Y-78380000D01*
%TO.C,Q1*%
X215177500Y-71440000D02*
X216697500Y-71440000D01*
X215177500Y-72440000D02*
X215177500Y-71440000D01*
X215177500Y-74560000D02*
X215177500Y-73560000D01*
X216697500Y-71440000D02*
X216697500Y-71490000D01*
X216697500Y-72610000D02*
X216697500Y-73390000D01*
X216697500Y-74510000D02*
X216697500Y-74560000D01*
X216697500Y-74560000D02*
X215177500Y-74560000D01*
X217237500Y-73380000D02*
X216997500Y-73050000D01*
X217477500Y-73050000D01*
X217237500Y-73380000D01*
G36*
X217237500Y-73380000D02*
G01*
X216997500Y-73050000D01*
X217477500Y-73050000D01*
X217237500Y-73380000D01*
G37*
%TO.C,C5*%
X214683335Y-105640000D02*
X214451665Y-105640000D01*
X214683335Y-106360000D02*
X214451665Y-106360000D01*
%TO.C,SW2*%
X222130000Y-97600000D02*
X222130000Y-95400000D01*
X222750000Y-93380000D02*
X227750000Y-93380000D01*
X222750000Y-99620000D02*
X227750000Y-99620000D01*
X228370000Y-95400000D02*
X228370000Y-97600000D01*
X227000000Y-96500000D02*
G75*
G02*
X223500000Y-96500000I-1750000J0D01*
G01*
X223500000Y-96500000D02*
G75*
G02*
X227000000Y-96500000I1750000J0D01*
G01*
%TO.C,R3*%
X217765121Y-92120000D02*
X217429879Y-92120000D01*
X217765121Y-92880000D02*
X217429879Y-92880000D01*
%TO.C,R7*%
X217570121Y-104120000D02*
X217234879Y-104120000D01*
X217570121Y-104880000D02*
X217234879Y-104880000D01*
%TO.C,C4*%
X214485835Y-109500000D02*
X214254165Y-109500000D01*
X214485835Y-110220000D02*
X214254165Y-110220000D01*
%TO.C,BZ1*%
X231600000Y-66800000D02*
G75*
G02*
X219400000Y-66800000I-6100000J0D01*
G01*
X219400000Y-66800000D02*
G75*
G02*
X231600000Y-66800000I6100000J0D01*
G01*
%TO.C,R4*%
X217765121Y-95120000D02*
X217429879Y-95120000D01*
X217765121Y-95880000D02*
X217429879Y-95880000D01*
%TO.C,J2*%
X208170000Y-69770000D02*
X208170000Y-102850000D01*
X208170000Y-69770000D02*
X210830000Y-69770000D01*
X208170000Y-102850000D02*
X210830000Y-102850000D01*
X209500000Y-67170000D02*
X210830000Y-67170000D01*
X210830000Y-67170000D02*
X210830000Y-68500000D01*
X210830000Y-69770000D02*
X210830000Y-102850000D01*
%TO.C,SW3*%
X222130000Y-107350000D02*
X222130000Y-105150000D01*
X222750000Y-103130000D02*
X227750000Y-103130000D01*
X222750000Y-109370000D02*
X227750000Y-109370000D01*
X228370000Y-105150000D02*
X228370000Y-107350000D01*
X227000000Y-106250000D02*
G75*
G02*
X223500000Y-106250000I-1750000J0D01*
G01*
X223500000Y-106250000D02*
G75*
G02*
X227000000Y-106250000I1750000J0D01*
G01*
%TO.C,R6*%
X217667621Y-108620000D02*
X217332379Y-108620000D01*
X217667621Y-109380000D02*
X217332379Y-109380000D01*
%TO.C,C3*%
X214485835Y-98940000D02*
X214254165Y-98940000D01*
X214485835Y-99660000D02*
X214254165Y-99660000D01*
%TO.C,R5*%
X217667621Y-97570000D02*
X217332379Y-97570000D01*
X217667621Y-98330000D02*
X217332379Y-98330000D01*
%TO.C,C2*%
X214485835Y-96430000D02*
X214254165Y-96430000D01*
X214485835Y-97150000D02*
X214254165Y-97150000D01*
%TO.C,C1*%
X214583335Y-93420000D02*
X214351665Y-93420000D01*
X214583335Y-94140000D02*
X214351665Y-94140000D01*
%TO.C,SW1*%
X217700000Y-78800000D02*
X218300000Y-78800000D01*
X218000000Y-79100000D02*
X217700000Y-78800000D01*
X218300000Y-78800000D02*
X218000000Y-79100000D01*
X219400000Y-77000000D02*
X219400000Y-88800000D01*
X223500000Y-77000000D02*
X219400000Y-77000000D01*
X223500000Y-88800000D02*
X219400000Y-88800000D01*
X225000000Y-82900000D02*
X226000000Y-82900000D01*
X225500000Y-82400000D02*
X225500000Y-83400000D01*
X227500000Y-77000000D02*
X231600000Y-77000000D01*
X231600000Y-77000000D02*
X231600000Y-79400000D01*
X231600000Y-81600000D02*
X231600000Y-84200000D01*
X231600000Y-86400000D02*
X231600000Y-88800000D01*
X231600000Y-88800000D02*
X227500000Y-88800000D01*
X228500000Y-82900000D02*
G75*
G02*
X222500000Y-82900000I-3000000J0D01*
G01*
X222500000Y-82900000D02*
G75*
G02*
X228500000Y-82900000I3000000J0D01*
G01*
%TD*%
M02*
