M48
; DRILL file KiCad 10.0.4 date 2026-07-03T13:19:35
; FORMAT={-:-/ absolute / metric / decimal}
; #@! TF.CreationDate,2026-07-03T13:19:35+08:00
; #@! TF.GenerationSoftware,Kicad,Pcbnew,10.0.4
; #@! TF.FileFunction,Plated,1,2,PTH
FMAT,2
METRIC
; #@! TA.AperFunction,Plated,PTH,ViaDrill
T1C0.300
; #@! TA.AperFunction,Plated,PTH,ComponentDrill
T2C1.000
; #@! TA.AperFunction,Plated,PTH,ComponentDrill
T3C1.500
; #@! TA.AperFunction,Plated,PTH,ComponentDrill
T4C3.200
%
G90
G05
T1
X190.5Y-83.0
X191.0Y-99.0
X191.0Y-106.5
X193.0Y-83.0
X196.5Y-58.5
X197.5Y-99.0
X198.0Y-104.0
X200.0Y-58.5
X200.0Y-64.5
X200.5Y-99.0
X202.0Y-74.0
X204.0Y-71.0
X204.0Y-104.0
X205.0Y-58.5
X205.0Y-64.5
X205.0Y-87.5
X205.0Y-90.0
X207.5Y-90.0
X207.5Y-96.0
X207.75Y-92.75
X212.5Y-110.0
X213.0Y-78.5
X213.0Y-97.0
X213.0Y-99.5
X213.5Y-101.5
X214.0Y-93.5
X214.0Y-108.5
X215.0Y-64.5
X215.0Y-81.0
X215.0Y-89.5
X215.0Y-92.0
X216.0Y-93.1
X216.0Y-96.79
X216.0Y-99.3
X217.0Y-101.5
X219.0Y-101.0
X220.5Y-73.5
X230.0Y-73.5
X233.0Y-92.0
X233.0Y-101.5
T2
X197.212Y-73.3
X197.212Y-75.84
X197.212Y-78.38
X197.212Y-80.92
X197.212Y-83.46
X197.212Y-86.0
X197.212Y-88.54
X197.212Y-91.08
X197.212Y-93.62
X197.212Y-96.16
X199.752Y-73.3
X199.752Y-75.84
X199.752Y-78.38
X199.752Y-80.92
X199.752Y-83.46
X199.752Y-86.0
X199.752Y-88.54
X199.752Y-91.08
X199.752Y-93.62
X199.752Y-96.16
X209.5Y-68.5
X209.5Y-71.04
X209.5Y-73.58
X209.5Y-76.12
X209.5Y-78.66
X209.5Y-81.2
X209.5Y-83.74
X209.5Y-86.28
X209.5Y-88.82
X209.5Y-91.36
X209.5Y-93.9
X209.5Y-96.44
X209.5Y-98.98
X209.5Y-101.52
X218.0Y-80.4
X218.0Y-82.9
X218.0Y-85.4
X222.0Y-94.25
X222.0Y-98.75
X222.0Y-104.0
X222.0Y-108.5
X225.5Y-63.0
X225.5Y-70.6
X228.5Y-94.25
X228.5Y-98.75
X228.5Y-104.0
X228.5Y-108.5
X232.5Y-80.4
X232.5Y-85.4
T4
X191.5Y-58.5
X191.5Y-111.0
X233.0Y-58.5
X233.0Y-111.0
T3
G00X224.85Y-77.3
M15
G01X226.15Y-77.3
M16
G05
G00X224.85Y-88.5
M15
G01X226.15Y-88.5
M16
G05
M30
