%TF.GenerationSoftware,KiCad,Pcbnew,10.0.4*%
%TF.CreationDate,2026-07-03T13:19:27+08:00*%
%TF.ProjectId,display_breakout_small,64697370-6c61-4795-9f62-7265616b6f75,rev?*%
%TF.SameCoordinates,Original*%
%TF.FileFunction,Soldermask,Top*%
%TF.FilePolarity,Negative*%
%FSLAX46Y46*%
G04 Gerber Fmt 4.6, Leading zero omitted, Abs format (unit mm)*
G04 Created by KiCad (PCBNEW 10.0.4) date 2026-07-03 13:19:27*
%MOMM*%
%LPD*%
G01*
G04 APERTURE LIST*
G04 Aperture macros list*
%AMRoundRect*
0 Rectangle with rounded corners*
0 $1 Rounding radius*
0 $2 $3 $4 $5 $6 $7 $8 $9 X,Y pos of 4 corners*
0 Add a 4 corners polygon primitive as box body*
4,1,4,$2,$3,$4,$5,$6,$7,$8,$9,$2,$3,0*
0 Add four circle primitives for the rounded corners*
1,1,$1+$1,$2,$3*
1,1,$1+$1,$4,$5*
1,1,$1+$1,$6,$7*
1,1,$1+$1,$8,$9*
0 Add four rect primitives between the rounded corners*
20,1,$1+$1,$2,$3,$4,$5,0*
20,1,$1+$1,$4,$5,$6,$7,0*
20,1,$1+$1,$6,$7,$8,$9,0*
20,1,$1+$1,$8,$9,$2,$3,0*%
G04 Aperture macros list end*
%ADD10C,3.600000*%
%ADD11C,5.500000*%
%ADD12RoundRect,0.160000X-0.197500X-0.160000X0.197500X-0.160000X0.197500X0.160000X-0.197500X0.160000X0*%
%ADD13RoundRect,0.150000X0.587500X0.150000X-0.587500X0.150000X-0.587500X-0.150000X0.587500X-0.150000X0*%
%ADD14RoundRect,0.155000X0.212500X0.155000X-0.212500X0.155000X-0.212500X-0.155000X0.212500X-0.155000X0*%
%ADD15C,1.700000*%
%ADD16RoundRect,0.160000X0.197500X0.160000X-0.197500X0.160000X-0.197500X-0.160000X0.197500X-0.160000X0*%
%ADD17R,2.000000X2.000000*%
%ADD18C,2.000000*%
%ADD19R,1.700000X1.700000*%
%ADD20R,3.200000X2.000000*%
%ADD21RoundRect,0.250000X0.600000X0.600000X-0.600000X0.600000X-0.600000X-0.600000X0.600000X-0.600000X0*%
G04 APERTURE END LIST*
D10*
%TO.C,REF\u002A\u002A*%
X233000000Y-58500000D03*
D11*
X233000000Y-58500000D03*
%TD*%
D12*
%TO.C,R2*%
X214402500Y-78000000D03*
X215597500Y-78000000D03*
%TD*%
D13*
%TO.C,Q1*%
X216875000Y-73950000D03*
X216875000Y-72050000D03*
X215000000Y-73000000D03*
%TD*%
D14*
%TO.C,C5*%
X215135000Y-106000000D03*
X214000000Y-106000000D03*
%TD*%
D15*
%TO.C,SW2*%
X222000000Y-94250000D03*
X228500000Y-94250000D03*
X222000000Y-98750000D03*
X228500000Y-98750000D03*
%TD*%
D16*
%TO.C,R3*%
X218195000Y-92500000D03*
X217000000Y-92500000D03*
%TD*%
%TO.C,R7*%
X218000000Y-104500000D03*
X216805000Y-104500000D03*
%TD*%
D10*
%TO.C,REF\u002A\u002A*%
X233000000Y-111000000D03*
D11*
X233000000Y-111000000D03*
%TD*%
D14*
%TO.C,C4*%
X214937500Y-109860000D03*
X213802500Y-109860000D03*
%TD*%
D10*
%TO.C,REF\u002A\u002A*%
X191500000Y-111000000D03*
D11*
X191500000Y-111000000D03*
%TD*%
D17*
%TO.C,BZ1*%
X225500000Y-63000000D03*
D18*
X225500000Y-70600000D03*
%TD*%
D16*
%TO.C,R4*%
X218195000Y-95500000D03*
X217000000Y-95500000D03*
%TD*%
D19*
%TO.C,J2*%
X209500000Y-68500000D03*
D15*
X209500000Y-71040000D03*
X209500000Y-73580000D03*
X209500000Y-76120000D03*
X209500000Y-78660000D03*
X209500000Y-81200000D03*
X209500000Y-83740000D03*
X209500000Y-86280000D03*
X209500000Y-88820000D03*
X209500000Y-91360000D03*
X209500000Y-93900000D03*
X209500000Y-96440000D03*
X209500000Y-98980000D03*
X209500000Y-101520000D03*
%TD*%
%TO.C,SW3*%
X222000000Y-104000000D03*
X228500000Y-104000000D03*
X222000000Y-108500000D03*
X228500000Y-108500000D03*
%TD*%
D16*
%TO.C,R6*%
X218097500Y-109000000D03*
X216902500Y-109000000D03*
%TD*%
D14*
%TO.C,C3*%
X214937500Y-99300000D03*
X213802500Y-99300000D03*
%TD*%
D16*
%TO.C,R5*%
X218097500Y-97950000D03*
X216902500Y-97950000D03*
%TD*%
D14*
%TO.C,C2*%
X214937500Y-96790000D03*
X213802500Y-96790000D03*
%TD*%
%TO.C,C1*%
X215035000Y-93780000D03*
X213900000Y-93780000D03*
%TD*%
D17*
%TO.C,SW1*%
X218000000Y-80400000D03*
D18*
X218000000Y-85400000D03*
X218000000Y-82900000D03*
D20*
X225500000Y-77300000D03*
X225500000Y-88500000D03*
D18*
X232500000Y-85400000D03*
X232500000Y-80400000D03*
%TD*%
D10*
%TO.C,REF\u002A\u002A*%
X191500000Y-58500000D03*
D11*
X191500000Y-58500000D03*
%TD*%
D21*
%TO.C,J1*%
X199752500Y-73300000D03*
D15*
X197212500Y-73300000D03*
X199752500Y-75840000D03*
X197212500Y-75840000D03*
X199752500Y-78380000D03*
X197212500Y-78380000D03*
X199752500Y-80920000D03*
X197212500Y-80920000D03*
X199752500Y-83460000D03*
X197212500Y-83460000D03*
X199752500Y-86000000D03*
X197212500Y-86000000D03*
X199752500Y-88540000D03*
X197212500Y-88540000D03*
X199752500Y-91080000D03*
X197212500Y-91080000D03*
X199752500Y-93620000D03*
X197212500Y-93620000D03*
X199752500Y-96160000D03*
X197212500Y-96160000D03*
%TD*%
M02*
