%TF.GenerationSoftware,KiCad,Pcbnew,10.0.4*%
%TF.CreationDate,2026-07-03T13:19:27+08:00*%
%TF.ProjectId,display_breakout_small,64697370-6c61-4795-9f62-7265616b6f75,rev?*%
%TF.SameCoordinates,Original*%
%TF.FileFunction,Legend,Bot*%
%TF.FilePolarity,Positive*%
%FSLAX46Y46*%
G04 Gerber Fmt 4.6, Leading zero omitted, Abs format (unit mm)*
G04 Created by KiCad (PCBNEW 10.0.4) date 2026-07-03 13:19:27*
%MOMM*%
%LPD*%
G01*
G04 APERTURE LIST*
%ADD10C,0.150000*%
%ADD11C,0.120000*%
G04 APERTURE END LIST*
D10*
X198815833Y-66654819D02*
X198815833Y-67369104D01*
X198815833Y-67369104D02*
X198863452Y-67511961D01*
X198863452Y-67511961D02*
X198958690Y-67607200D01*
X198958690Y-67607200D02*
X199101547Y-67654819D01*
X199101547Y-67654819D02*
X199196785Y-67654819D01*
X197815833Y-67654819D02*
X198387261Y-67654819D01*
X198101547Y-67654819D02*
X198101547Y-66654819D01*
X198101547Y-66654819D02*
X198196785Y-66797676D01*
X198196785Y-66797676D02*
X198292023Y-66892914D01*
X198292023Y-66892914D02*
X198387261Y-66940533D01*
%TO.C,J1*%
D11*
X193922500Y-68090000D02*
X193922500Y-101370000D01*
X193922500Y-101370000D02*
X203042500Y-101370000D01*
X195232500Y-69390000D02*
X195232500Y-100070000D01*
X195232500Y-100070000D02*
X201732500Y-100070000D01*
X201732500Y-69390000D02*
X195232500Y-69390000D01*
X201732500Y-82680000D02*
X201732500Y-69390000D01*
X201732500Y-86780000D02*
X203042500Y-86780000D01*
X201732500Y-100070000D02*
X201732500Y-86780000D01*
X203042500Y-68090000D02*
X193922500Y-68090000D01*
X203042500Y-82680000D02*
X201732500Y-82680000D01*
X203042500Y-101370000D02*
X203042500Y-68090000D01*
X203432500Y-73300000D02*
X204432500Y-72800000D01*
X204432500Y-72800000D02*
X204432500Y-73800000D01*
X204432500Y-73800000D02*
X203432500Y-73300000D01*
%TD*%
M02*
