%TF.GenerationSoftware,KiCad,Pcbnew,10.0.4*%
%TF.CreationDate,2026-07-03T13:19:27+08:00*%
%TF.ProjectId,display_breakout_small,64697370-6c61-4795-9f62-7265616b6f75,rev?*%
%TF.SameCoordinates,Original*%
%TF.FileFunction,Soldermask,Bot*%
%TF.FilePolarity,Negative*%
%FSLAX46Y46*%
G04 Gerber Fmt 4.6, Leading zero omitted, Abs format (unit mm)*
G04 Created by KiCad (PCBNEW 10.0.4) date 2026-07-03 13:19:27*
%MOMM*%
%LPD*%
G01*
G04 APERTURE LIST*
G04 Aperture macros list*
%AMRoundRect*
0 Rectangle with rounded corners*
0 $1 Rounding radius*
0 $2 $3 $4 $5 $6 $7 $8 $9 X,Y pos of 4 corners*
0 Add a 4 corners polygon primitive as box body*
4,1,4,$2,$3,$4,$5,$6,$7,$8,$9,$2,$3,0*
0 Add four circle primitives for the rounded corners*
1,1,$1+$1,$2,$3*
1,1,$1+$1,$4,$5*
1,1,$1+$1,$6,$7*
1,1,$1+$1,$8,$9*
0 Add four rect primitives between the rounded corners*
20,1,$1+$1,$2,$3,$4,$5,0*
20,1,$1+$1,$4,$5,$6,$7,0*
20,1,$1+$1,$6,$7,$8,$9,0*
20,1,$1+$1,$8,$9,$2,$3,0*%
G04 Aperture macros list end*
%ADD10C,3.600000*%
%ADD11C,5.500000*%
%ADD12C,1.700000*%
%ADD13R,2.000000X2.000000*%
%ADD14C,2.000000*%
%ADD15R,1.700000X1.700000*%
%ADD16R,3.200000X2.000000*%
%ADD17RoundRect,0.250000X0.600000X0.600000X-0.600000X0.600000X-0.600000X-0.600000X0.600000X-0.600000X0*%
G04 APERTURE END LIST*
D10*
%TO.C,REF\u002A\u002A*%
X233000000Y-58500000D03*
D11*
X233000000Y-58500000D03*
%TD*%
D12*
%TO.C,SW2*%
X222000000Y-94250000D03*
X228500000Y-94250000D03*
X222000000Y-98750000D03*
X228500000Y-98750000D03*
%TD*%
D10*
%TO.C,REF\u002A\u002A*%
X233000000Y-111000000D03*
D11*
X233000000Y-111000000D03*
%TD*%
D10*
%TO.C,REF\u002A\u002A*%
X191500000Y-111000000D03*
D11*
X191500000Y-111000000D03*
%TD*%
D13*
%TO.C,BZ1*%
X225500000Y-63000000D03*
D14*
X225500000Y-70600000D03*
%TD*%
D15*
%TO.C,J2*%
X209500000Y-68500000D03*
D12*
X209500000Y-71040000D03*
X209500000Y-73580000D03*
X209500000Y-76120000D03*
X209500000Y-78660000D03*
X209500000Y-81200000D03*
X209500000Y-83740000D03*
X209500000Y-86280000D03*
X209500000Y-88820000D03*
X209500000Y-91360000D03*
X209500000Y-93900000D03*
X209500000Y-96440000D03*
X209500000Y-98980000D03*
X209500000Y-101520000D03*
%TD*%
%TO.C,SW3*%
X222000000Y-104000000D03*
X228500000Y-104000000D03*
X222000000Y-108500000D03*
X228500000Y-108500000D03*
%TD*%
D13*
%TO.C,SW1*%
X218000000Y-80400000D03*
D14*
X218000000Y-85400000D03*
X218000000Y-82900000D03*
D16*
X225500000Y-77300000D03*
X225500000Y-88500000D03*
D14*
X232500000Y-85400000D03*
X232500000Y-80400000D03*
%TD*%
D10*
%TO.C,REF\u002A\u002A*%
X191500000Y-58500000D03*
D11*
X191500000Y-58500000D03*
%TD*%
D17*
%TO.C,J1*%
X199752500Y-73300000D03*
D12*
X197212500Y-73300000D03*
X199752500Y-75840000D03*
X197212500Y-75840000D03*
X199752500Y-78380000D03*
X197212500Y-78380000D03*
X199752500Y-80920000D03*
X197212500Y-80920000D03*
X199752500Y-83460000D03*
X197212500Y-83460000D03*
X199752500Y-86000000D03*
X197212500Y-86000000D03*
X199752500Y-88540000D03*
X197212500Y-88540000D03*
X199752500Y-91080000D03*
X197212500Y-91080000D03*
X199752500Y-93620000D03*
X197212500Y-93620000D03*
X199752500Y-96160000D03*
X197212500Y-96160000D03*
%TD*%
M02*
