G04 #@! TF.GenerationSoftware,KiCad,Pcbnew,10.0.3*
G04 #@! TF.CreationDate,2026-07-28T13:43:52+08:00*
G04 #@! TF.ProjectId,Rg PCB,52672050-4342-42e6-9b69-6361645f7063,rev?*
G04 #@! TF.SameCoordinates,Original*
G04 #@! TF.FileFunction,Copper,L2,Bot*
G04 #@! TF.FilePolarity,Positive*
%FSLAX46Y46*%
G04 Gerber Fmt 4.6, Leading zero omitted, Abs format (unit mm)*
G04 Created by KiCad (PCBNEW 10.0.3) date 2026-07-28 13:43:52*
%MOMM*%
%LPD*%
G01*
G04 APERTURE LIST*
G04 #@! TA.AperFunction,ComponentPad*
%ADD10C,1.600000*%
G04 #@! TD*
G04 #@! TA.AperFunction,ComponentPad*
%ADD11C,1.700000*%
G04 #@! TD*
G04 #@! TA.AperFunction,ComponentPad*
%ADD12R,1.700000X1.700000*%
G04 #@! TD*
G04 #@! TA.AperFunction,Conductor*
%ADD13C,0.600000*%
G04 #@! TD*
G04 APERTURE END LIST*
D10*
X153162000Y-105381001D03*
X153162000Y-100381001D03*
D11*
X148082001Y-82804000D03*
X150622000Y-82804000D03*
D12*
X153162000Y-82804000D03*
D10*
X149606000Y-105380997D03*
X149606000Y-100380997D03*
X145989369Y-105370000D03*
X145989369Y-100370000D03*
X145989369Y-87618999D03*
X145989369Y-97778999D03*
X149606000Y-87630000D03*
X149606000Y-97790000D03*
X153162000Y-87630000D03*
X153162000Y-97790000D03*
D12*
X159258000Y-82804000D03*
D13*
X146000370Y-105381001D02*
X145989369Y-105370000D01*
X153162000Y-97790000D02*
X153162000Y-100381001D01*
X149606000Y-97790000D02*
X149606000Y-100380997D01*
X145989369Y-97778999D02*
X145989369Y-100370000D01*
X148082001Y-82804000D02*
X148082001Y-85526367D01*
X148082001Y-85526367D02*
X145989369Y-87618999D01*
X150622000Y-86614000D02*
X149606000Y-87630000D01*
X150622000Y-82804000D02*
X150622000Y-86614000D01*
X153162000Y-82804000D02*
X153162000Y-87630000D01*
G04 #@! TA.AperFunction,Conductor*
G36*
X146979982Y-81800185D02*
G01*
X147025737Y-81852989D01*
X147035681Y-81922147D01*
X147013261Y-81977385D01*
X146926952Y-82096179D01*
X146830445Y-82285585D01*
X146764754Y-82487760D01*
X146731501Y-82697713D01*
X146731501Y-82910286D01*
X146756258Y-83066599D01*
X146764755Y-83120243D01*
X146816663Y-83280000D01*
X146830445Y-83322414D01*
X146926952Y-83511820D01*
X147051891Y-83683786D01*
X147051897Y-83683792D01*
X147202209Y-83834104D01*
X147230385Y-83854575D01*
X147273051Y-83909902D01*
X147281501Y-83954893D01*
X147281501Y-85143426D01*
X147261816Y-85210465D01*
X147245182Y-85231107D01*
X146193391Y-86282897D01*
X146132068Y-86316382D01*
X146095988Y-86318834D01*
X146091728Y-86318499D01*
X146091721Y-86318499D01*
X145887017Y-86318499D01*
X145862698Y-86322350D01*
X145684834Y-86350521D01*
X145490145Y-86413780D01*
X145307755Y-86506714D01*
X145142155Y-86627027D01*
X144997397Y-86771785D01*
X144877084Y-86937385D01*
X144784150Y-87119775D01*
X144720891Y-87314464D01*
X144689541Y-87512403D01*
X144688869Y-87516647D01*
X144688869Y-87721351D01*
X144693247Y-87748994D01*
X144720891Y-87923533D01*
X144784150Y-88118222D01*
X144877084Y-88300612D01*
X144997397Y-88466212D01*
X145142155Y-88610970D01*
X145297118Y-88723555D01*
X145307759Y-88731286D01*
X145423976Y-88790502D01*
X145490145Y-88824217D01*
X145490147Y-88824217D01*
X145490150Y-88824219D01*
X145524008Y-88835220D01*
X145684834Y-88887476D01*
X145754291Y-88898477D01*
X145887017Y-88919499D01*
X145887018Y-88919499D01*
X146091720Y-88919499D01*
X146091721Y-88919499D01*
X146293903Y-88887476D01*
X146488588Y-88824219D01*
X146670979Y-88731286D01*
X146763959Y-88663731D01*
X146836582Y-88610970D01*
X146836584Y-88610967D01*
X146836588Y-88610965D01*
X146981335Y-88466218D01*
X146981337Y-88466214D01*
X146981340Y-88466212D01*
X147034101Y-88393589D01*
X147101656Y-88300609D01*
X147194589Y-88118218D01*
X147257846Y-87923533D01*
X147289869Y-87721351D01*
X147289869Y-87516647D01*
X147289868Y-87516643D01*
X147289534Y-87512403D01*
X147303888Y-87444023D01*
X147325466Y-87414979D01*
X148703790Y-86036656D01*
X148791395Y-85905546D01*
X148851739Y-85759864D01*
X148882501Y-85605209D01*
X148882501Y-85447524D01*
X148882501Y-83954893D01*
X148902186Y-83887854D01*
X148933615Y-83854576D01*
X148961793Y-83834104D01*
X149112105Y-83683792D01*
X149112107Y-83683788D01*
X149112110Y-83683786D01*
X149237049Y-83511820D01*
X149237051Y-83511817D01*
X149237052Y-83511816D01*
X149241513Y-83503058D01*
X149289484Y-83452262D01*
X149357304Y-83435464D01*
X149423441Y-83457998D01*
X149462484Y-83503054D01*
X149466949Y-83511817D01*
X149591890Y-83683786D01*
X149591896Y-83683792D01*
X149742208Y-83834104D01*
X149770384Y-83854575D01*
X149813050Y-83909902D01*
X149821500Y-83954893D01*
X149821500Y-86205500D01*
X149801815Y-86272539D01*
X149749011Y-86318294D01*
X149697500Y-86329500D01*
X149503648Y-86329500D01*
X149479329Y-86333351D01*
X149301465Y-86361522D01*
X149106776Y-86424781D01*
X148924386Y-86517715D01*
X148758786Y-86638028D01*
X148614028Y-86782786D01*
X148493715Y-86948386D01*
X148400781Y-87130776D01*
X148337522Y-87325465D01*
X148305500Y-87527648D01*
X148305500Y-87732351D01*
X148337522Y-87934534D01*
X148400781Y-88129223D01*
X148464691Y-88254653D01*
X148488109Y-88300612D01*
X148493715Y-88311613D01*
X148614028Y-88477213D01*
X148758786Y-88621971D01*
X148909244Y-88731283D01*
X148924390Y-88742287D01*
X149040607Y-88801503D01*
X149106776Y-88835218D01*
X149106778Y-88835218D01*
X149106781Y-88835220D01*
X149211137Y-88869127D01*
X149301465Y-88898477D01*
X149402557Y-88914488D01*
X149503648Y-88930500D01*
X149503649Y-88930500D01*
X149708351Y-88930500D01*
X149708352Y-88930500D01*
X149910534Y-88898477D01*
X150105219Y-88835220D01*
X150287610Y-88742287D01*
X150380590Y-88674732D01*
X150453213Y-88621971D01*
X150453215Y-88621968D01*
X150453219Y-88621966D01*
X150597966Y-88477219D01*
X150597968Y-88477215D01*
X150597971Y-88477213D01*
X150650732Y-88404590D01*
X150718287Y-88311610D01*
X150811220Y-88129219D01*
X150874477Y-87934534D01*
X150906500Y-87732352D01*
X150906500Y-87527648D01*
X150906499Y-87527644D01*
X150906165Y-87523404D01*
X150920519Y-87455024D01*
X150942093Y-87425983D01*
X151243789Y-87124289D01*
X151331394Y-86993179D01*
X151391737Y-86847497D01*
X151422500Y-86692842D01*
X151422500Y-86535158D01*
X151422500Y-83954893D01*
X151431689Y-83923595D01*
X151439658Y-83891958D01*
X151441611Y-83889807D01*
X151442185Y-83887854D01*
X151461717Y-83864407D01*
X151467358Y-83859120D01*
X151501792Y-83834104D01*
X151616764Y-83719131D01*
X151618224Y-83717764D01*
X151647671Y-83702906D01*
X151676648Y-83687084D01*
X151678735Y-83687233D01*
X151680603Y-83686291D01*
X151713419Y-83689713D01*
X151746340Y-83692068D01*
X151748015Y-83693321D01*
X151750096Y-83693539D01*
X151775852Y-83714160D01*
X151802274Y-83733939D01*
X151803608Y-83736382D01*
X151804638Y-83737207D01*
X151805567Y-83739971D01*
X151819189Y-83764917D01*
X151868202Y-83896328D01*
X151868206Y-83896335D01*
X151954452Y-84011544D01*
X151954455Y-84011547D01*
X152069664Y-84097793D01*
X152069671Y-84097797D01*
X152204516Y-84148091D01*
X152250757Y-84153063D01*
X152315307Y-84179801D01*
X152355155Y-84237194D01*
X152361500Y-84276352D01*
X152361500Y-86540966D01*
X152341815Y-86608005D01*
X152318046Y-86635244D01*
X152314784Y-86638030D01*
X152170028Y-86782786D01*
X152049715Y-86948386D01*
X151956781Y-87130776D01*
X151893522Y-87325465D01*
X151861500Y-87527648D01*
X151861500Y-87732351D01*
X151893522Y-87934534D01*
X151956781Y-88129223D01*
X152020691Y-88254653D01*
X152044109Y-88300612D01*
X152049715Y-88311613D01*
X152170028Y-88477213D01*
X152314786Y-88621971D01*
X152465244Y-88731283D01*
X152480390Y-88742287D01*
X152596607Y-88801503D01*
X152662776Y-88835218D01*
X152662778Y-88835218D01*
X152662781Y-88835220D01*
X152767137Y-88869127D01*
X152857465Y-88898477D01*
X152958557Y-88914488D01*
X153059648Y-88930500D01*
X153059649Y-88930500D01*
X153264351Y-88930500D01*
X153264352Y-88930500D01*
X153466534Y-88898477D01*
X153661219Y-88835220D01*
X153843610Y-88742287D01*
X153936590Y-88674732D01*
X154009213Y-88621971D01*
X154009215Y-88621968D01*
X154009219Y-88621966D01*
X154153966Y-88477219D01*
X154153968Y-88477215D01*
X154153971Y-88477213D01*
X154206732Y-88404590D01*
X154274287Y-88311610D01*
X154367220Y-88129219D01*
X154430477Y-87934534D01*
X154462500Y-87732352D01*
X154462500Y-87527648D01*
X154430477Y-87325466D01*
X154426902Y-87314464D01*
X154367218Y-87130776D01*
X154297108Y-86993179D01*
X154274287Y-86948390D01*
X154266291Y-86937385D01*
X154153971Y-86782786D01*
X154009215Y-86638030D01*
X154005954Y-86635244D01*
X153967770Y-86576731D01*
X153962500Y-86540966D01*
X153962500Y-84276351D01*
X153982185Y-84209312D01*
X154034989Y-84163557D01*
X154073247Y-84153061D01*
X154119483Y-84148091D01*
X154254331Y-84097796D01*
X154369546Y-84011546D01*
X154455796Y-83896331D01*
X154506091Y-83761483D01*
X154512500Y-83701873D01*
X154512499Y-81906128D01*
X154512499Y-81906127D01*
X154512499Y-81904500D01*
X154532184Y-81837461D01*
X154584987Y-81791706D01*
X154636499Y-81780500D01*
X156210000Y-81780500D01*
X156210000Y-89916000D01*
X156210000Y-106817500D01*
X156190315Y-106884539D01*
X156137511Y-106930294D01*
X156086000Y-106941500D01*
X145768427Y-106941500D01*
X145759581Y-106941184D01*
X145737621Y-106939613D01*
X145559441Y-106926869D01*
X145541930Y-106924351D01*
X145350208Y-106882645D01*
X145333233Y-106877661D01*
X145149393Y-106809093D01*
X145133299Y-106801743D01*
X144961090Y-106707709D01*
X144946207Y-106698144D01*
X144789134Y-106580561D01*
X144775763Y-106568975D01*
X144637023Y-106430235D01*
X144625437Y-106416864D01*
X144507854Y-106259791D01*
X144498289Y-106244908D01*
X144422943Y-106106923D01*
X144404252Y-106072694D01*
X144396908Y-106056611D01*
X144328335Y-105872760D01*
X144323353Y-105855790D01*
X144301154Y-105753742D01*
X144281646Y-105664063D01*
X144279129Y-105646556D01*
X144277702Y-105626607D01*
X144264815Y-105446418D01*
X144264499Y-105437572D01*
X144264499Y-105267682D01*
X144689369Y-105267682D01*
X144689369Y-105472317D01*
X144721378Y-105674417D01*
X144784613Y-105869031D01*
X144877510Y-106051350D01*
X144877516Y-106051359D01*
X144909892Y-106095921D01*
X144909893Y-106095922D01*
X145589369Y-105416446D01*
X145589369Y-105422661D01*
X145616628Y-105524394D01*
X145669289Y-105615606D01*
X145743763Y-105690080D01*
X145834975Y-105742741D01*
X145936708Y-105770000D01*
X145942922Y-105770000D01*
X145263445Y-106449474D01*
X145308019Y-106481859D01*
X145490337Y-106574755D01*
X145684951Y-106637990D01*
X145887052Y-106670000D01*
X146091686Y-106670000D01*
X146293786Y-106637990D01*
X146488400Y-106574755D01*
X146670718Y-106481859D01*
X146715291Y-106449474D01*
X146035816Y-105770000D01*
X146042030Y-105770000D01*
X146143763Y-105742741D01*
X146234975Y-105690080D01*
X146309449Y-105615606D01*
X146362110Y-105524394D01*
X146389369Y-105422661D01*
X146389369Y-105416447D01*
X147068843Y-106095921D01*
X147101228Y-106051349D01*
X147194124Y-105869031D01*
X147257359Y-105674417D01*
X147289369Y-105472317D01*
X147289369Y-105278679D01*
X148306000Y-105278679D01*
X148306000Y-105483314D01*
X148338009Y-105685414D01*
X148401244Y-105880028D01*
X148494141Y-106062347D01*
X148494147Y-106062356D01*
X148526523Y-106106918D01*
X148526524Y-106106919D01*
X149206000Y-105427443D01*
X149206000Y-105433658D01*
X149233259Y-105535391D01*
X149285920Y-105626603D01*
X149360394Y-105701077D01*
X149451606Y-105753738D01*
X149553339Y-105780997D01*
X149559553Y-105780997D01*
X148880076Y-106460471D01*
X148924650Y-106492856D01*
X149106968Y-106585752D01*
X149301582Y-106648987D01*
X149503683Y-106680997D01*
X149708317Y-106680997D01*
X149910417Y-106648987D01*
X150105031Y-106585752D01*
X150287349Y-106492856D01*
X150331922Y-106460471D01*
X149652447Y-105780997D01*
X149658661Y-105780997D01*
X149760394Y-105753738D01*
X149851606Y-105701077D01*
X149926080Y-105626603D01*
X149978741Y-105535391D01*
X150006000Y-105433658D01*
X150006000Y-105427444D01*
X150685474Y-106106918D01*
X150717859Y-106062346D01*
X150810755Y-105880028D01*
X150873990Y-105685414D01*
X150906000Y-105483314D01*
X150906000Y-105278683D01*
X151862000Y-105278683D01*
X151862000Y-105483318D01*
X151894009Y-105685418D01*
X151957244Y-105880032D01*
X152050141Y-106062351D01*
X152050147Y-106062360D01*
X152082523Y-106106922D01*
X152082524Y-106106923D01*
X152762000Y-105427447D01*
X152762000Y-105433662D01*
X152789259Y-105535395D01*
X152841920Y-105626607D01*
X152916394Y-105701081D01*
X153007606Y-105753742D01*
X153109339Y-105781001D01*
X153115553Y-105781001D01*
X152436076Y-106460475D01*
X152480650Y-106492860D01*
X152662968Y-106585756D01*
X152857582Y-106648991D01*
X153059683Y-106681001D01*
X153264317Y-106681001D01*
X153466417Y-106648991D01*
X153661031Y-106585756D01*
X153843349Y-106492860D01*
X153887921Y-106460475D01*
X153208447Y-105781001D01*
X153214661Y-105781001D01*
X153316394Y-105753742D01*
X153407606Y-105701081D01*
X153482080Y-105626607D01*
X153534741Y-105535395D01*
X153562000Y-105433662D01*
X153562000Y-105427449D01*
X154241474Y-106106923D01*
X154241474Y-106106922D01*
X154273859Y-106062350D01*
X154366755Y-105880032D01*
X154429990Y-105685418D01*
X154462000Y-105483318D01*
X154462000Y-105278683D01*
X154429990Y-105076583D01*
X154366755Y-104881969D01*
X154273859Y-104699651D01*
X154241474Y-104655078D01*
X154241474Y-104655077D01*
X153562000Y-105334552D01*
X153562000Y-105328340D01*
X153534741Y-105226607D01*
X153482080Y-105135395D01*
X153407606Y-105060921D01*
X153316394Y-105008260D01*
X153214661Y-104981001D01*
X153208446Y-104981001D01*
X153887922Y-104301525D01*
X153887921Y-104301524D01*
X153843359Y-104269148D01*
X153843350Y-104269142D01*
X153661031Y-104176245D01*
X153466417Y-104113010D01*
X153264317Y-104081001D01*
X153059683Y-104081001D01*
X152857582Y-104113010D01*
X152662968Y-104176245D01*
X152480644Y-104269144D01*
X152436077Y-104301524D01*
X152436077Y-104301525D01*
X153115554Y-104981001D01*
X153109339Y-104981001D01*
X153007606Y-105008260D01*
X152916394Y-105060921D01*
X152841920Y-105135395D01*
X152789259Y-105226607D01*
X152762000Y-105328340D01*
X152762000Y-105334554D01*
X152082524Y-104655078D01*
X152082523Y-104655078D01*
X152050143Y-104699645D01*
X151957244Y-104881969D01*
X151894009Y-105076583D01*
X151862000Y-105278683D01*
X150906000Y-105278683D01*
X150906000Y-105278679D01*
X150873990Y-105076579D01*
X150810755Y-104881965D01*
X150717859Y-104699647D01*
X150685474Y-104655074D01*
X150685474Y-104655073D01*
X150006000Y-105334548D01*
X150006000Y-105328336D01*
X149978741Y-105226603D01*
X149926080Y-105135391D01*
X149851606Y-105060917D01*
X149760394Y-105008256D01*
X149658661Y-104980997D01*
X149652446Y-104980997D01*
X150331922Y-104301521D01*
X150331921Y-104301520D01*
X150287359Y-104269144D01*
X150287350Y-104269138D01*
X150105031Y-104176241D01*
X149910417Y-104113006D01*
X149708317Y-104080997D01*
X149503683Y-104080997D01*
X149301582Y-104113006D01*
X149106968Y-104176241D01*
X148924644Y-104269140D01*
X148880077Y-104301520D01*
X148880077Y-104301521D01*
X149559554Y-104980997D01*
X149553339Y-104980997D01*
X149451606Y-105008256D01*
X149360394Y-105060917D01*
X149285920Y-105135391D01*
X149233259Y-105226603D01*
X149206000Y-105328336D01*
X149206000Y-105334550D01*
X148526524Y-104655074D01*
X148526523Y-104655074D01*
X148494143Y-104699641D01*
X148401244Y-104881965D01*
X148338009Y-105076579D01*
X148306000Y-105278679D01*
X147289369Y-105278679D01*
X147289369Y-105267682D01*
X147257359Y-105065582D01*
X147194124Y-104870968D01*
X147101228Y-104688650D01*
X147068843Y-104644077D01*
X147068843Y-104644076D01*
X146389369Y-105323551D01*
X146389369Y-105317339D01*
X146362110Y-105215606D01*
X146309449Y-105124394D01*
X146234975Y-105049920D01*
X146143763Y-104997259D01*
X146042030Y-104970000D01*
X146035815Y-104970000D01*
X146715291Y-104290524D01*
X146715290Y-104290523D01*
X146670728Y-104258147D01*
X146670719Y-104258141D01*
X146488400Y-104165244D01*
X146293786Y-104102009D01*
X146091686Y-104070000D01*
X145887052Y-104070000D01*
X145684951Y-104102009D01*
X145490337Y-104165244D01*
X145308013Y-104258143D01*
X145263446Y-104290523D01*
X145263446Y-104290524D01*
X145942923Y-104970000D01*
X145936708Y-104970000D01*
X145834975Y-104997259D01*
X145743763Y-105049920D01*
X145669289Y-105124394D01*
X145616628Y-105215606D01*
X145589369Y-105317339D01*
X145589369Y-105323553D01*
X144909893Y-104644077D01*
X144909892Y-104644077D01*
X144877512Y-104688644D01*
X144784613Y-104870968D01*
X144721378Y-105065582D01*
X144689369Y-105267682D01*
X144264499Y-105267682D01*
X144264499Y-97676647D01*
X144688869Y-97676647D01*
X144688869Y-97881351D01*
X144693247Y-97908994D01*
X144720891Y-98083533D01*
X144784150Y-98278222D01*
X144877084Y-98460612D01*
X144997397Y-98626212D01*
X145142148Y-98770963D01*
X145145407Y-98773747D01*
X145183596Y-98832257D01*
X145188869Y-98868032D01*
X145188869Y-99280966D01*
X145169184Y-99348005D01*
X145145415Y-99375244D01*
X145142153Y-99378030D01*
X144997397Y-99522786D01*
X144877084Y-99688386D01*
X144784150Y-99870776D01*
X144720891Y-100065465D01*
X144688869Y-100267648D01*
X144688869Y-100472352D01*
X144693247Y-100499995D01*
X144720891Y-100674534D01*
X144784150Y-100869223D01*
X144877084Y-101051613D01*
X144997397Y-101217213D01*
X145142155Y-101361971D01*
X145297118Y-101474556D01*
X145307759Y-101482287D01*
X145423976Y-101541503D01*
X145490145Y-101575218D01*
X145490147Y-101575218D01*
X145490150Y-101575220D01*
X145524008Y-101586221D01*
X145684834Y-101638477D01*
X145754266Y-101649474D01*
X145887017Y-101670500D01*
X145887018Y-101670500D01*
X146091720Y-101670500D01*
X146091721Y-101670500D01*
X146293903Y-101638477D01*
X146488588Y-101575220D01*
X146670979Y-101482287D01*
X146763959Y-101414732D01*
X146836582Y-101361971D01*
X146836584Y-101361968D01*
X146836588Y-101361966D01*
X146981335Y-101217219D01*
X146981337Y-101217215D01*
X146981340Y-101217213D01*
X147034101Y-101144590D01*
X147101656Y-101051610D01*
X147194589Y-100869219D01*
X147257846Y-100674534D01*
X147289869Y-100472352D01*
X147289869Y-100267648D01*
X147257846Y-100065465D01*
X147198162Y-99881778D01*
X147194589Y-99870781D01*
X147194587Y-99870778D01*
X147194587Y-99870776D01*
X147160872Y-99804607D01*
X147101656Y-99688390D01*
X147093925Y-99677749D01*
X146981340Y-99522786D01*
X146836584Y-99378030D01*
X146833323Y-99375244D01*
X146795139Y-99316731D01*
X146789869Y-99280966D01*
X146789869Y-98868032D01*
X146809554Y-98800993D01*
X146833331Y-98773747D01*
X146836579Y-98770971D01*
X146836588Y-98770965D01*
X146981335Y-98626218D01*
X146981337Y-98626214D01*
X146981340Y-98626212D01*
X147034101Y-98553589D01*
X147101656Y-98460609D01*
X147194589Y-98278218D01*
X147257846Y-98083533D01*
X147289869Y-97881351D01*
X147289869Y-97687648D01*
X148305500Y-97687648D01*
X148305500Y-97892351D01*
X148337522Y-98094534D01*
X148400781Y-98289223D01*
X148464691Y-98414653D01*
X148488109Y-98460612D01*
X148493715Y-98471613D01*
X148614028Y-98637213D01*
X148758779Y-98781964D01*
X148762038Y-98784748D01*
X148800227Y-98843258D01*
X148805500Y-98879033D01*
X148805500Y-99291963D01*
X148785815Y-99359002D01*
X148762046Y-99386241D01*
X148758784Y-99389027D01*
X148614028Y-99533783D01*
X148493715Y-99699383D01*
X148400781Y-99881773D01*
X148337522Y-100076462D01*
X148307242Y-100267648D01*
X148305500Y-100278645D01*
X148305500Y-100483349D01*
X148305501Y-100483353D01*
X148337522Y-100685531D01*
X148400781Y-100880220D01*
X148464691Y-101005650D01*
X148488111Y-101051613D01*
X148493715Y-101062610D01*
X148614028Y-101228210D01*
X148758786Y-101372968D01*
X148909250Y-101482284D01*
X148924390Y-101493284D01*
X149040607Y-101552500D01*
X149106776Y-101586215D01*
X149106778Y-101586215D01*
X149106781Y-101586217D01*
X149211137Y-101620124D01*
X149301465Y-101649474D01*
X149402557Y-101665485D01*
X149503648Y-101681497D01*
X149503649Y-101681497D01*
X149708351Y-101681497D01*
X149708352Y-101681497D01*
X149910534Y-101649474D01*
X150105219Y-101586217D01*
X150287610Y-101493284D01*
X150453207Y-101372972D01*
X150453213Y-101372968D01*
X150453215Y-101372965D01*
X150453219Y-101372963D01*
X150597966Y-101228216D01*
X150597968Y-101228212D01*
X150597971Y-101228210D01*
X150650732Y-101155587D01*
X150718287Y-101062607D01*
X150811220Y-100880216D01*
X150874477Y-100685531D01*
X150906500Y-100483349D01*
X150906500Y-100278645D01*
X150874478Y-100076467D01*
X150874477Y-100076462D01*
X150811218Y-99881773D01*
X150777503Y-99815604D01*
X150718287Y-99699387D01*
X150710294Y-99688386D01*
X150597971Y-99533783D01*
X150453215Y-99389027D01*
X150449954Y-99386241D01*
X150411770Y-99327728D01*
X150406500Y-99291963D01*
X150406500Y-98879033D01*
X150426185Y-98811994D01*
X150449962Y-98784748D01*
X150453210Y-98781972D01*
X150453219Y-98781966D01*
X150597966Y-98637219D01*
X150597968Y-98637215D01*
X150597971Y-98637213D01*
X150650732Y-98564590D01*
X150718287Y-98471610D01*
X150811220Y-98289219D01*
X150874477Y-98094534D01*
X150906500Y-97892352D01*
X150906500Y-97687648D01*
X151861500Y-97687648D01*
X151861500Y-97892351D01*
X151893522Y-98094534D01*
X151956781Y-98289223D01*
X152020691Y-98414653D01*
X152044109Y-98460612D01*
X152049715Y-98471613D01*
X152170028Y-98637213D01*
X152314779Y-98781964D01*
X152318038Y-98784748D01*
X152356227Y-98843258D01*
X152361500Y-98879033D01*
X152361500Y-99291967D01*
X152341815Y-99359006D01*
X152318046Y-99386245D01*
X152314784Y-99389031D01*
X152170028Y-99533787D01*
X152049715Y-99699387D01*
X151956781Y-99881777D01*
X151893522Y-100076466D01*
X151861500Y-100278649D01*
X151861500Y-100483352D01*
X151893522Y-100685535D01*
X151956781Y-100880224D01*
X152020691Y-101005654D01*
X152049712Y-101062610D01*
X152049715Y-101062614D01*
X152170028Y-101228214D01*
X152314786Y-101372972D01*
X152465244Y-101482284D01*
X152480390Y-101493288D01*
X152596607Y-101552504D01*
X152662776Y-101586219D01*
X152662778Y-101586219D01*
X152662781Y-101586221D01*
X152767137Y-101620128D01*
X152857465Y-101649478D01*
X152958557Y-101665489D01*
X153059648Y-101681501D01*
X153059649Y-101681501D01*
X153264351Y-101681501D01*
X153264352Y-101681501D01*
X153466534Y-101649478D01*
X153661219Y-101586221D01*
X153843610Y-101493288D01*
X153936590Y-101425733D01*
X154009213Y-101372972D01*
X154009215Y-101372969D01*
X154009219Y-101372967D01*
X154153966Y-101228220D01*
X154153968Y-101228216D01*
X154153971Y-101228214D01*
X154206732Y-101155591D01*
X154274287Y-101062611D01*
X154367220Y-100880220D01*
X154430477Y-100685535D01*
X154462500Y-100483353D01*
X154462500Y-100278649D01*
X154430477Y-100076467D01*
X154430475Y-100076462D01*
X154367218Y-99881777D01*
X154333503Y-99815608D01*
X154274287Y-99699391D01*
X154266291Y-99688386D01*
X154153971Y-99533787D01*
X154009215Y-99389031D01*
X154005954Y-99386245D01*
X153967770Y-99327732D01*
X153962500Y-99291967D01*
X153962500Y-98879033D01*
X153982185Y-98811994D01*
X154005962Y-98784748D01*
X154009210Y-98781972D01*
X154009219Y-98781966D01*
X154153966Y-98637219D01*
X154153968Y-98637215D01*
X154153971Y-98637213D01*
X154206732Y-98564590D01*
X154274287Y-98471610D01*
X154367220Y-98289219D01*
X154430477Y-98094534D01*
X154462500Y-97892352D01*
X154462500Y-97687648D01*
X154430477Y-97485466D01*
X154426902Y-97474464D01*
X154367218Y-97290776D01*
X154333503Y-97224607D01*
X154274287Y-97108390D01*
X154266291Y-97097385D01*
X154153971Y-96942786D01*
X154009213Y-96798028D01*
X153843613Y-96677715D01*
X153843612Y-96677714D01*
X153843610Y-96677713D01*
X153786653Y-96648691D01*
X153661223Y-96584781D01*
X153466534Y-96521522D01*
X153291995Y-96493878D01*
X153264352Y-96489500D01*
X153059648Y-96489500D01*
X153035329Y-96493351D01*
X152857465Y-96521522D01*
X152662776Y-96584781D01*
X152480386Y-96677715D01*
X152314786Y-96798028D01*
X152170028Y-96942786D01*
X152049715Y-97108386D01*
X151956781Y-97290776D01*
X151893522Y-97485465D01*
X151861500Y-97687648D01*
X150906500Y-97687648D01*
X150874477Y-97485466D01*
X150870902Y-97474464D01*
X150811218Y-97290776D01*
X150777503Y-97224607D01*
X150718287Y-97108390D01*
X150710291Y-97097385D01*
X150597971Y-96942786D01*
X150453213Y-96798028D01*
X150287613Y-96677715D01*
X150287612Y-96677714D01*
X150287610Y-96677713D01*
X150230653Y-96648691D01*
X150105223Y-96584781D01*
X149910534Y-96521522D01*
X149735995Y-96493878D01*
X149708352Y-96489500D01*
X149503648Y-96489500D01*
X149479329Y-96493351D01*
X149301465Y-96521522D01*
X149106776Y-96584781D01*
X148924386Y-96677715D01*
X148758786Y-96798028D01*
X148614028Y-96942786D01*
X148493715Y-97108386D01*
X148400781Y-97290776D01*
X148337522Y-97485465D01*
X148305500Y-97687648D01*
X147289869Y-97687648D01*
X147289869Y-97676647D01*
X147257846Y-97474464D01*
X147198163Y-97290781D01*
X147194589Y-97279780D01*
X147194587Y-97279777D01*
X147194587Y-97279775D01*
X147160872Y-97213606D01*
X147101656Y-97097389D01*
X147093925Y-97086748D01*
X146981340Y-96931785D01*
X146836582Y-96787027D01*
X146670982Y-96666714D01*
X146670981Y-96666713D01*
X146670979Y-96666712D01*
X146614022Y-96637690D01*
X146488592Y-96573780D01*
X146293903Y-96510521D01*
X146119364Y-96482877D01*
X146091721Y-96478499D01*
X145887017Y-96478499D01*
X145862698Y-96482350D01*
X145684834Y-96510521D01*
X145490145Y-96573780D01*
X145307755Y-96666714D01*
X145142155Y-96787027D01*
X144997397Y-96931785D01*
X144877084Y-97097385D01*
X144784150Y-97279775D01*
X144720891Y-97474464D01*
X144688869Y-97676647D01*
X144264499Y-97676647D01*
X144264499Y-83284427D01*
X144264815Y-83275581D01*
X144275925Y-83120243D01*
X144279129Y-83075436D01*
X144281645Y-83057938D01*
X144323355Y-82866200D01*
X144328334Y-82849242D01*
X144396910Y-82665382D01*
X144404250Y-82649310D01*
X144498293Y-82477083D01*
X144507849Y-82462214D01*
X144625442Y-82305128D01*
X144637016Y-82291771D01*
X144775770Y-82153017D01*
X144789127Y-82141443D01*
X144946213Y-82023850D01*
X144961082Y-82014294D01*
X145133309Y-81920251D01*
X145149381Y-81912911D01*
X145333241Y-81844335D01*
X145350199Y-81839356D01*
X145541937Y-81797646D01*
X145559435Y-81795130D01*
X145759581Y-81780816D01*
X145768427Y-81780500D01*
X145829891Y-81780500D01*
X146912943Y-81780500D01*
X146979982Y-81800185D01*
G37*
G04 #@! TD.AperFunction*
G04 #@! TA.AperFunction,Conductor*
G36*
X157851039Y-81800185D02*
G01*
X157896794Y-81852989D01*
X157908000Y-81904500D01*
X157908000Y-82554000D01*
X158824988Y-82554000D01*
X158792075Y-82611007D01*
X158758000Y-82738174D01*
X158758000Y-82869826D01*
X158792075Y-82996993D01*
X158824988Y-83054000D01*
X157908000Y-83054000D01*
X157908000Y-83701844D01*
X157914401Y-83761372D01*
X157914403Y-83761379D01*
X157964645Y-83896086D01*
X157964649Y-83896093D01*
X158050809Y-84011187D01*
X158050812Y-84011190D01*
X158165906Y-84097350D01*
X158165913Y-84097354D01*
X158300620Y-84147596D01*
X158300627Y-84147598D01*
X158360155Y-84153999D01*
X158360172Y-84154000D01*
X159008000Y-84154000D01*
X159008000Y-83237012D01*
X159065007Y-83269925D01*
X159192174Y-83304000D01*
X159323826Y-83304000D01*
X159450993Y-83269925D01*
X159508000Y-83237012D01*
X159508000Y-84154000D01*
X160155828Y-84154000D01*
X160155844Y-84153999D01*
X160215372Y-84147598D01*
X160215379Y-84147596D01*
X160350086Y-84097354D01*
X160350093Y-84097350D01*
X160465187Y-84011190D01*
X160465190Y-84011187D01*
X160551350Y-83896093D01*
X160551354Y-83896086D01*
X160601596Y-83761379D01*
X160601598Y-83761372D01*
X160607999Y-83701844D01*
X160608000Y-83701827D01*
X160608000Y-83054000D01*
X159691012Y-83054000D01*
X159723925Y-82996993D01*
X159758000Y-82869826D01*
X159758000Y-82738174D01*
X159723925Y-82611007D01*
X159691012Y-82554000D01*
X160608000Y-82554000D01*
X160608000Y-81904500D01*
X160627685Y-81837461D01*
X160680489Y-81791706D01*
X160732000Y-81780500D01*
X161376477Y-81780500D01*
X161437941Y-81780500D01*
X161446787Y-81780816D01*
X161646930Y-81795130D01*
X161664432Y-81797647D01*
X161856164Y-81839355D01*
X161873129Y-81844336D01*
X162056980Y-81912909D01*
X162073063Y-81920253D01*
X162189864Y-81984032D01*
X162245277Y-82014290D01*
X162260160Y-82023855D01*
X162417233Y-82141438D01*
X162430604Y-82153024D01*
X162569344Y-82291764D01*
X162580930Y-82305135D01*
X162698513Y-82462208D01*
X162708078Y-82477091D01*
X162802112Y-82649300D01*
X162809462Y-82665394D01*
X162878030Y-82849234D01*
X162883014Y-82866209D01*
X162924720Y-83057931D01*
X162927238Y-83075442D01*
X162941148Y-83269925D01*
X162941553Y-83275580D01*
X162941869Y-83284427D01*
X162941869Y-89792000D01*
X162922184Y-89859039D01*
X162869380Y-89904794D01*
X162817869Y-89916000D01*
X156210000Y-89916000D01*
X156210000Y-81780500D01*
X157784000Y-81780500D01*
X157851039Y-81800185D01*
G37*
G04 #@! TD.AperFunction*
M02*
