G04 #@! TF.GenerationSoftware,KiCad,Pcbnew,10.0.3*
G04 #@! TF.CreationDate,2026-08-03T14:04:41+08:00*
G04 #@! TF.ProjectId,Rg PCB,52672050-4342-42e6-9b69-6361645f7063,rev?*
G04 #@! TF.SameCoordinates,Original*
G04 #@! TF.FileFunction,Copper,L2,Bot*
G04 #@! TF.FilePolarity,Positive*
%FSLAX46Y46*%
G04 Gerber Fmt 4.6, Leading zero omitted, Abs format (unit mm)*
G04 Created by KiCad (PCBNEW 10.0.3) date 2026-08-03 14:04:41*
%MOMM*%
%LPD*%
G01*
G04 APERTURE LIST*
G04 #@! TA.AperFunction,ComponentPad*
%ADD10C,1.600000*%
G04 #@! TD*
G04 #@! TA.AperFunction,ComponentPad*
%ADD11R,1.700000X1.700000*%
G04 #@! TD*
G04 #@! TA.AperFunction,ComponentPad*
%ADD12C,1.700000*%
G04 #@! TD*
G04 #@! TA.AperFunction,Conductor*
%ADD13C,1.000000*%
G04 #@! TD*
G04 #@! TA.AperFunction,Conductor*
%ADD14C,0.800000*%
G04 #@! TD*
G04 APERTURE END LIST*
D10*
X153416000Y-95250000D03*
X153416000Y-100250000D03*
X150622000Y-85598000D03*
X150622000Y-93218000D03*
X147828000Y-95250000D03*
X147828000Y-100250000D03*
X153416000Y-85609001D03*
X153416000Y-93229001D03*
D11*
X155431000Y-83075000D03*
D12*
X152891000Y-83075000D03*
X150351001Y-83075000D03*
X147811000Y-83075000D03*
D10*
X147828000Y-85598000D03*
X147828000Y-93218000D03*
X150622000Y-95250000D03*
X150622000Y-100250000D03*
D13*
X155431000Y-83075000D02*
X155431000Y-98235000D01*
X155431000Y-98235000D02*
X153416000Y-100250000D01*
X153416000Y-93229001D02*
X153416000Y-95250000D01*
X150622000Y-93218000D02*
X150622000Y-95250000D01*
X147828000Y-93218000D02*
X147828000Y-95250000D01*
X150351001Y-85327001D02*
X150622000Y-85598000D01*
X150351001Y-83075000D02*
X150351001Y-85327001D01*
X152891000Y-85084001D02*
X153416000Y-85609001D01*
X152891000Y-83075000D02*
X152891000Y-85084001D01*
D14*
X153162000Y-85355001D02*
X153416000Y-85609001D01*
D13*
X147811000Y-85581000D02*
X147828000Y-85598000D01*
X147811000Y-83075000D02*
X147811000Y-85581000D01*
D14*
X148082001Y-85343999D02*
X147828000Y-85598000D01*
G04 #@! TA.AperFunction,Conductor*
G36*
X154956059Y-97791061D02*
G01*
X155061223Y-97804906D01*
X155092491Y-97813284D01*
X155182918Y-97850740D01*
X155210952Y-97866925D01*
X155288602Y-97926509D01*
X155311491Y-97949398D01*
X155371074Y-98027048D01*
X155387259Y-98055081D01*
X155424715Y-98145508D01*
X155433093Y-98176775D01*
X155446939Y-98281939D01*
X155448000Y-98298125D01*
X155448000Y-101737500D01*
X155428315Y-101804539D01*
X155375511Y-101850294D01*
X155324000Y-101861500D01*
X147800427Y-101861500D01*
X147791581Y-101861184D01*
X147769621Y-101859613D01*
X147591441Y-101846869D01*
X147573930Y-101844351D01*
X147382208Y-101802645D01*
X147365233Y-101797661D01*
X147181393Y-101729093D01*
X147165299Y-101721743D01*
X146993090Y-101627709D01*
X146978207Y-101618144D01*
X146821134Y-101500561D01*
X146807763Y-101488975D01*
X146669023Y-101350235D01*
X146657437Y-101336864D01*
X146539854Y-101179791D01*
X146530289Y-101164908D01*
X146436255Y-100992699D01*
X146428908Y-100976611D01*
X146360335Y-100792760D01*
X146355353Y-100775790D01*
X146313647Y-100584068D01*
X146311129Y-100566556D01*
X146296815Y-100366418D01*
X146296499Y-100357572D01*
X146296499Y-97914000D01*
X146316184Y-97846961D01*
X146368988Y-97801206D01*
X146420499Y-97790000D01*
X154939874Y-97790000D01*
X154956059Y-97791061D01*
G37*
G04 #@! TD.AperFunction*
M02*
